<svg xmlns="http://www.w3.org/2000/svg" width="32" height="32" xmlns:xlink="http://www.w3.org/1999/xlink"><defs><linearGradient id="c" x1="50%" x2="50%" y1="0%" y2="100%"><stop offset="0%" stop-color="#FFF" stop-opacity=".5"/><stop offset="100%" stop-opacity=".5"/></linearGradient><circle id="b" cx="16" cy="15" r="15"/><filter id="a" width="111.7%" height="111.7%" x="-5.8%" y="-4.2%" filterUnits="objectBoundingBox"><feOffset dy=".5" in="SourceAlpha" result="shadowOffsetOuter1"/><feGaussianBlur in="shadowOffsetOuter1" result="shadowBlurOuter1" stdDeviation=".5"/><feComposite in="shadowBlurOuter1" in2="SourceAlpha" operator="out" result="shadowBlurOuter1"/><feColorMatrix in="shadowBlurOuter1" values="0 0 0 0 0 0 0 0 0 0 0 0 0 0 0 0 0 0 0.199473505 0"/></filter><path id="e" d="M9 18.2c0-2.05 0-4.1 0-6.16 0-.9.24-1.73.58-2.54.42-1 1.04-1.86 1.85-2.58.8-.7 1.68-1.22 2.7-1.54.8-.27 1.65-.4 2.5-.38.5.02.98.12 1.47.22.7.13 1.35.36 1.97.68.68.35 1.3.77 1.84 1.3.78.76 1.35 1.64 1.74 2.63.08.2.16.37.22.56.08.2.02.3-.2.3-.86 0-1.7 0-2.55 0-.4-.03-.8-.1-1.17-.34-.17-.1-.3-.26-.44-.4-.4-.46-.9-.8-1.5-1.03-.66-.26-1.35-.32-2.07-.2-.85.17-1.57.56-2.15 1.2-.5.54-.84 1.17-.92 1.9-.04.3-.06.56-.06.84-.02 2.84-.03 5.68 0 8.52 0 1.1-.4 2-1.2 2.76-.47.45-1.03.75-1.67.9-.24.06-.5.1-.75.13-.05 0-.13-.08-.16-.14-.03-.05 0-.14 0-.2 0-2.16 0-4.32 0-6.47zm4.5-3.5c.45.5.92.9 1.5 1.16.63.3 1.3.44 2 .35 1.12-.13 2.04-.63 2.72-1.52.2-.27.5-.4.82-.46.32-.04.66-.06 1-.06.74 0 1.5 0 2.23 0 .25 0 .26 0 .2.23-.35 1.05-.88 2-1.58 2.9-.77.9-1.66 1.67-2.78 2.12-.5.2-1.04.36-1.58.43-.7.1-1.42.1-2.13.07-.46-.02-.93-.15-1.4-.25-.26-.05-.5-.13-.77-.2-.15-.04-.24-.1-.24-.28 0-1.45 0-2.9 0-4.34 0-.03 0-.07 0-.14z"/><filter id="d" width="123.3%" height="117.5%" x="-11.7%" y="-6.2%" filterUnits="objectBoundingBox"><feOffset dy=".5" in="SourceAlpha" result="shadowOffsetOuter1"/><feGaussianBlur in="shadowOffsetOuter1" result="shadowBlurOuter1" stdDeviation=".5"/><feColorMatrix in="shadowBlurOuter1" values="0 0 0 0 0 0 0 0 0 0 0 0 0 0 0 0 0 0 0.204257246 0"/></filter></defs><g fill="none"><use fill="#000" filter="url(#a)" xlink:href="#b"/><use fill="#F8E42C" xlink:href="#b"/><use fill="url(#c)" style="mix-blend-mode:soft-light" xlink:href="#b"/><circle cx="16" cy="15" r="14.5" stroke="#000" stroke-opacity=".097"/><use fill="#000" filter="url(#d)" xlink:href="#e"/><use fill="#FFF" xlink:href="#e"/></g></svg>