<svg xmlns="http://www.w3.org/2000/svg" width="32" height="32" xmlns:xlink="http://www.w3.org/1999/xlink"><defs><linearGradient id="c" x1="50%" x2="50%" y1="0%" y2="100%"><stop offset="0%" stop-color="#FFF" stop-opacity=".5"/><stop offset="100%" stop-opacity=".5"/></linearGradient><circle id="b" cx="16" cy="15" r="15"/><filter id="a" width="111.7%" height="111.7%" x="-5.8%" y="-4.2%" filterUnits="objectBoundingBox"><feOffset dy=".5" in="SourceAlpha" result="shadowOffsetOuter1"/><feGaussianBlur in="shadowOffsetOuter1" result="shadowBlurOuter1" stdDeviation=".5"/><feComposite in="shadowBlurOuter1" in2="SourceAlpha" operator="out" result="shadowBlurOuter1"/><feColorMatrix in="shadowBlurOuter1" values="0 0 0 0 0 0 0 0 0 0 0 0 0 0 0 0 0 0 0.199473505 0"/></filter><path id="e" d="M15.5 26c-.27-.03-.54-.05-.8-.1-1.48-.16-2.85-.62-4.14-1.35 0 0-.03-.02-.07-.05 2.2-1.65 4.4-3.3 6.6-4.94.22.22.44.43.66.65.37.38.74.74 1.1 1.1.1.1.16.1.26.04 1.12-.56 2.03-1.36 2.73-2.4.03-.04.07-.1.1-.15.04.03.07.06.1.1.76 1 1.52 2.03 2.3 3.05.06.1.05.14-.02.22-1.78 2.03-4 3.28-6.67 3.7-.33.06-.68.08-1.02.1-.04.02-.08.03-.13.04h-1zm.97-22c.18.02.37.04.56.06 1.57.15 3.05.6 4.42 1.4.02 0 .04.02.07.05-2.24 1.6-4.47 3.2-6.72 4.83-.1-.08-.17-.16-.26-.24-.47-.47-.95-.93-1.4-1.4-.1-.07-.15-.1-.24-.03-1.13.57-2.06 1.37-2.77 2.42-.03.03-.05.07-.1.14-.83-1.1-1.64-2.18-2.47-3.28.25-.27.48-.53.73-.77 1.6-1.6 3.53-2.6 5.76-3 .43-.1.87-.1 1.3-.16.06 0 .1-.02.15-.03h.96zm-10 5.53c1.66 2.2 3.32 4.37 4.98 6.55-.33.35-.67.7-1 1.04-.26.25-.5.5-.76.77-.1.05-.1.1-.05.2.56 1.13 1.37 2.05 2.42 2.76.04.02.07.05.1.07 0 0 0 .02.03.05-1.07.8-2.15 1.6-3.25 2.43-1.95-1.66-3.2-3.73-3.72-6.24-.55-2.7-.1-5.23 1.23-7.65zm14.16 4.37c.32-.32.62-.63.92-.95.26-.26.5-.53.77-.8.08-.07.08-.13.04-.23-.58-1.15-1.4-2.08-2.45-2.8-.02-.02-.06-.05-.12-.1 1.1-.82 2.18-1.63 3.28-2.46 1.86 1.6 3.1 3.55 3.65 5.92.7 2.95.1 5.87-1.13 7.93-1.64-2.15-3.28-4.3-4.93-6.5z"/><filter id="d" width="115.9%" height="115.9%" x="-8%" y="-5.7%" filterUnits="objectBoundingBox"><feOffset dy=".5" in="SourceAlpha" result="shadowOffsetOuter1"/><feGaussianBlur in="shadowOffsetOuter1" result="shadowBlurOuter1" stdDeviation=".5"/><feColorMatrix in="shadowBlurOuter1" values="0 0 0 0 0 0 0 0 0 0 0 0 0 0 0 0 0 0 0.204257246 0"/></filter></defs><g fill="none"><use fill="#000" filter="url(#a)" xlink:href="#b"/><use fill="#302C2C" fill-rule="evenodd" xlink:href="#b"/><use fill="url(#c)" fill-rule="evenodd" style="mix-blend-mode:soft-light" xlink:href="#b"/><circle cx="16" cy="15" r="14.5" stroke="#000" stroke-opacity=".097"/><use fill="#000" filter="url(#d)" xlink:href="#e"/><use fill="#FFF" xlink:href="#e"/></g></svg>