<svg xmlns="http://www.w3.org/2000/svg" width="32" height="32" xmlns:xlink="http://www.w3.org/1999/xlink"><defs><linearGradient id="c" x1="50%" x2="50%" y1="0%" y2="100%"><stop offset="0%" stop-color="#FFF" stop-opacity=".5"/><stop offset="100%" stop-opacity=".5"/></linearGradient><circle id="b" cx="16" cy="15" r="15"/><filter id="a" width="111.7%" height="111.7%" x="-5.8%" y="-4.2%" filterUnits="objectBoundingBox"><feOffset dy=".5" in="SourceAlpha" result="shadowOffsetOuter1"/><feGaussianBlur in="shadowOffsetOuter1" result="shadowBlurOuter1" stdDeviation=".5"/><feComposite in="shadowBlurOuter1" in2="SourceAlpha" operator="out" result="shadowBlurOuter1"/><feColorMatrix in="shadowBlurOuter1" values="0 0 0 0 0 0 0 0 0 0 0 0 0 0 0 0 0 0 0.199473505 0"/></filter><path id="e" d="M26 14.96c0 2.34-1.8 4.16-4.12 4.15-2.27 0-4.1-1.86-4.1-4.14.02-2.3 1.88-4.15 4.13-4.14 2.3.03 4.1 1.85 4.1 4.16zM9.1 22.92c-1.7 0-3.04-1.36-3.03-3.06 0-1.7 1.34-3.08 3.02-3.04.46 0 .94.2 1.4.34.68.2 1.33.46 2 .68.4.14.8.04 1.17-.18.53-.33.98-.73 1.27-1.32.3-.6.95-.8 1.53-.56.55.24.83.83.67 1.4-.17.65-.7 1-1.37.88-.6-.1-1.17-.3-1.77-.07-1.06.37-1.53 1.25-1.88 2.26-.2.56-.4 1.14-.74 1.6-.55.73-1.37 1.05-2.3 1.05zM9.02 7.08c1.36 0 2.43.8 2.9 2.12.18.52.45 1 .7 1.5.57 1.25 2.03 1.37 2.96 1.03.8-.3 1.6.23 1.63 1.08 0 .6-.3 1.04-.84 1.2-.5.17-1.04-.04-1.34-.5-.1-.15-.2-.3-.33-.46-.8-1.04-1.7-1.3-2.95-.84-.43.15-.83.4-1.23.6-1.56.88-3.47.27-4.23-1.35-.97-2.03.5-4.37 2.72-4.37zm9.53 15.9c-.02 1.13-.93 2.04-2.02 2.02-1.05-.02-1.93-.93-1.96-1.95-.03-1.15.82-2.1 2-2.1 1.13 0 2 .92 1.98 2.04zM14.6 7.03c0-1.13.88-2.03 2-2.02 1.07 0 1.97.94 1.96 2.03 0 1.14-.86 2.05-2 2.03-1.26-.03-2-1.06-1.96-2.04z"/><filter id="d" width="117.5%" height="117.5%" x="-8.8%" y="-6.2%" filterUnits="objectBoundingBox"><feOffset dy=".5" in="SourceAlpha" result="shadowOffsetOuter1"/><feGaussianBlur in="shadowOffsetOuter1" result="shadowBlurOuter1" stdDeviation=".5"/><feColorMatrix in="shadowBlurOuter1" values="0 0 0 0 0 0 0 0 0 0 0 0 0 0 0 0 0 0 0.204257246 0"/></filter></defs><g fill="none"><use fill="#000" filter="url(#a)" xlink:href="#b"/><use fill="#2B5EBB" xlink:href="#b"/><use fill="url(#c)" style="mix-blend-mode:soft-light" xlink:href="#b"/><circle cx="16" cy="15" r="14.5" stroke="#000" stroke-opacity=".097"/><use fill="#000" filter="url(#d)" xlink:href="#e"/><use fill="#FFF" xlink:href="#e"/></g></svg>