<svg xmlns="http://www.w3.org/2000/svg" width="32" height="32" xmlns:xlink="http://www.w3.org/1999/xlink"><defs><linearGradient id="c" x1="50%" x2="50%" y1="0%" y2="100%"><stop offset="0%" stop-color="#FFF" stop-opacity=".5"/><stop offset="100%" stop-opacity=".5"/></linearGradient><circle id="b" cx="16" cy="15" r="15"/><filter id="a" width="111.7%" height="111.7%" x="-5.8%" y="-4.2%" filterUnits="objectBoundingBox"><feOffset dy=".5" in="SourceAlpha" result="shadowOffsetOuter1"/><feGaussianBlur in="shadowOffsetOuter1" result="shadowBlurOuter1" stdDeviation=".5"/><feComposite in="shadowBlurOuter1" in2="SourceAlpha" operator="out" result="shadowBlurOuter1"/><feColorMatrix in="shadowBlurOuter1" values="0 0 0 0 0 0 0 0 0 0 0 0 0 0 0 0 0 0 0.199473505 0"/></filter><path id="e" d="M11.76 13.1l4.28-7.54s.03-.02.08 0l4.08 7.4c-.22.2-.36.46-.36.76 0 .32.15.6.38.78l-3.76 6.78c-.13-.06-.28-.1-.44-.1-.15 0-.3.04-.42.1l-3.87-6.9c.15-.17.25-.4.25-.66 0-.23-.08-.45-.22-.62zm-.4 1.54l3.88 6.92c-.08.1-.15.23-.18.36-3.14-.75-5.1-1.22-5.85-1.4-.3-.45-.6-.93-.83-1.44l2.5-4.38c.04 0 .08 0 .12 0 .12 0 .25-.02.36-.06zm-.55-1.9l-3.07-5.5c2.1-1.1 4.72-1.7 7.84-1.74l-4.16 7.33c-.12-.06-.26-.1-.4-.1-.07 0-.1 0-.18.02zm-.4.2c-.24.17-.4.46-.4.78 0 .34.17.64.43.82l-2.28 4.03c-.38-.94-.6-1.93-.68-2.96L7 8.25c-.02-.3.1-.57.33-.75l3.06 5.44zm6.6 9c-.03-.14-.1-.26-.17-.37l3.8-6.88c.08 0 .15 0 .2 0 .12 0 .22 0 .3-.05l2.48 4.5c-.2.43-.44.84-.7 1.24L17 21.9zm-.74 1.2c.37-.1.66-.4.75-.75l5.46-1.44c-.65.8-1.43 1.52-2.33 2.1l-3.63 2.3c-.08.06-.17.1-.25.12V23.1zm-.45 0v2.36c-.1-.02-.2-.06-.3-.12l-3.6-2.3c-.87-.56-1.6-1.23-2.25-2 1 .24 2.8.67 5.4 1.3.1.37.38.66.76.75zM21.2 12.8c-.1-.05-.22-.07-.34-.07-.08 0-.15 0-.23.02l-4-7.26c3.05.06 5.6.64 7.66 1.73l-3.08 5.55zm.38.22l3.1-5.57c.23.18.37.47.35.77l-.45 7.38c-.07 1.07-.3 2.1-.7 3.04l-2.32-4.2c.2-.18.3-.44.3-.72 0-.27-.1-.5-.27-.7zM16 10.22c-.3 0-.54.26-.54.55v1.95l-2.9 1.78.32.67 2.58-.85v1.96l-.72.53v.55L16 17l1.26.34v-.53l-.72-.5v-1.97l2.53.9.36-.72-2.9-1.77v-1.95c0-.3-.24-.54-.53-.54z"/><filter id="d" width="119.4%" height="117.5%" x="-9.7%" y="-6.2%" filterUnits="objectBoundingBox"><feOffset dy=".5" in="SourceAlpha" result="shadowOffsetOuter1"/><feGaussianBlur in="shadowOffsetOuter1" result="shadowBlurOuter1" stdDeviation=".5"/><feColorMatrix in="shadowBlurOuter1" values="0 0 0 0 0 0 0 0 0 0 0 0 0 0 0 0 0 0 0.204257246 0"/></filter></defs><g fill="none"><use fill="#000" filter="url(#a)" xlink:href="#b"/><use fill="#0092B5" fill-rule="evenodd" xlink:href="#b"/><use fill="url(#c)" fill-rule="evenodd" style="mix-blend-mode:soft-light" xlink:href="#b"/><circle cx="16" cy="15" r="14.5" stroke="#000" stroke-opacity=".097"/><use fill="#000" filter="url(#d)" xlink:href="#e"/><use fill="#FFF" fill-rule="evenodd" xlink:href="#e"/></g></svg>