<svg xmlns="http://www.w3.org/2000/svg" width="32" height="32" xmlns:xlink="http://www.w3.org/1999/xlink"><defs><linearGradient id="c" x1="50%" x2="50%" y1="0%" y2="100%"><stop offset="0%" stop-color="#FFF" stop-opacity=".5"/><stop offset="100%" stop-opacity=".5"/></linearGradient><circle id="b" cx="16" cy="15" r="15"/><filter id="a" width="111.7%" height="111.7%" x="-5.8%" y="-4.2%" filterUnits="objectBoundingBox"><feOffset dy=".5" in="SourceAlpha" result="shadowOffsetOuter1"/><feGaussianBlur in="shadowOffsetOuter1" result="shadowBlurOuter1" stdDeviation=".5"/><feComposite in="shadowBlurOuter1" in2="SourceAlpha" operator="out" result="shadowBlurOuter1"/><feColorMatrix in="shadowBlurOuter1" values="0 0 0 0 0 0 0 0 0 0 0 0 0 0 0 0 0 0 0.199473505 0"/></filter><path id="e" d="M9.75 10h.9c1.42.13 2.73.82 3.7 1.8 2 2.05 3.1 4.93 5.66 6.44 1.87 1.1 4.46.2 5.36-1.65.47-.03.93-.03 1.4-.03-.64 1.9-2.5 3.24-4.52 3.42h-.75c-1.26-.1-2.47-.57-3.4-1.38-1.38-1.12-2.26-2.66-3.33-4.03-.9-1.2-1.85-2.6-3.36-3.14-1.86-.68-4.15.38-4.83 2.2-.6 1.47-.12 3.32 1.23 4.27 1 .75 2.4 1.03 3.6.6 1.34-.48 2.34-1.54 3.1-2.67.3.42.6.84.9 1.27-1.2 1.45-2.85 2.7-4.8 2.86h-.8c-2.48-.18-4.63-2.2-4.8-4.6v-.8c.16-2.4 2.28-4.44 4.75-4.6zm11.68 0h.75c2.5.16 4.62 2.23 4.82 4.63v1.23c-2.06 0-4.12 0-6.17 0 0-.36 0-.7 0-1.07 1.62-.03 3.25 0 4.87-.03-.1-.63-.26-1.28-.65-1.82-.95-1.4-2.96-1.98-4.57-1.37-1.28.45-2.24 1.45-3 2.53-.27-.4-.56-.8-.83-1.2 1.17-1.47 2.8-2.74 4.78-2.92z"/><filter id="d" width="115.9%" height="135%" x="-8%" y="-12.5%" filterUnits="objectBoundingBox"><feOffset dy=".5" in="SourceAlpha" result="shadowOffsetOuter1"/><feGaussianBlur in="shadowOffsetOuter1" result="shadowBlurOuter1" stdDeviation=".5"/><feColorMatrix in="shadowBlurOuter1" values="0 0 0 0 0 0 0 0 0 0 0 0 0 0 0 0 0 0 0.204257246 0"/></filter></defs><g fill="none"><use fill="#000" filter="url(#a)" xlink:href="#b"/><use fill="#DE3F6B" xlink:href="#b"/><use fill="url(#c)" style="mix-blend-mode:soft-light" xlink:href="#b"/><circle cx="16" cy="15" r="14.5" stroke="#000" stroke-opacity=".097"/><use fill="#000" filter="url(#d)" xlink:href="#e"/><use fill="#FFF" fill-rule="evenodd" xlink:href="#e"/></g></svg>