<svg xmlns="http://www.w3.org/2000/svg" width="32" height="32" xmlns:xlink="http://www.w3.org/1999/xlink"><defs><linearGradient id="c" x1="50%" x2="50%" y1="0%" y2="100%"><stop offset="0%" stop-color="#FFF" stop-opacity=".5"/><stop offset="100%" stop-opacity=".5"/></linearGradient><circle id="b" cx="16" cy="15" r="15"/><filter id="a" width="111.7%" height="111.7%" x="-5.8%" y="-4.2%" filterUnits="objectBoundingBox"><feOffset dy=".5" in="SourceAlpha" result="shadowOffsetOuter1"/><feGaussianBlur in="shadowOffsetOuter1" result="shadowBlurOuter1" stdDeviation=".5"/><feComposite in="shadowBlurOuter1" in2="SourceAlpha" operator="out" result="shadowBlurOuter1"/><feColorMatrix in="shadowBlurOuter1" values="0 0 0 0 0 0 0 0 0 0 0 0 0 0 0 0 0 0 0.199473505 0"/></filter><filter id="d" width="115.9%" height="115.9%" x="-8%" y="-5.7%" filterUnits="objectBoundingBox"><feOffset dy=".5" in="SourceAlpha" result="shadowOffsetOuter1"/><feGaussianBlur in="shadowOffsetOuter1" result="shadowBlurOuter1" stdDeviation=".5"/><feColorMatrix in="shadowBlurOuter1" result="shadowMatrixOuter1" values="0 0 0 0 0 0 0 0 0 0 0 0 0 0 0 0 0 0 0.204257246 0"/><feMerge><feMergeNode in="shadowMatrixOuter1"/><feMergeNode in="SourceGraphic"/></feMerge></filter></defs><g fill="none"><use fill="#000" filter="url(#a)" xlink:href="#b"/><use fill="#00BFEC" fill-rule="evenodd" xlink:href="#b"/><use fill="url(#c)" fill-rule="evenodd" style="mix-blend-mode:soft-light" xlink:href="#b"/><circle cx="16" cy="15" r="14.5" stroke="#000" stroke-opacity=".097"/><g fill="#FFF" filter="url(#d)" transform="translate(5 4)"><path d="M10.97 18.15c-3.96 0-7.17-3.2-7.17-7.13C3.8 7.1 7 3.9 10.97 3.9c3.96 0 7.18 3.2 7.18 7.12 0 3.93-3.22 7.13-7.18 7.13zm0-12.86C7.8 5.3 5.2 7.84 5.2 11c0 3.16 2.6 5.73 5.77 5.73 3.18 0 5.77-2.57 5.77-5.73 0-3.16-2.6-5.73-5.77-5.73zM16 2.85c-1.5-.92-3.25-1.4-5.03-1.4-1.63 0-3.25.4-4.67 1.2l-.68-1.23C7.25.53 9.1.07 10.97.07c2.04 0 4.03.56 5.76 1.6L16 2.87zm2.1 16.5l-.92-1.06c2.17-1.8 3.4-4.47 3.4-7.28H22c0 3.23-1.4 6.27-3.9 8.36zm-7.13 2.6c-2.56 0-5.05-.9-7.02-2.5l.9-1.08c1.72 1.4 3.9 2.17 6.12 2.17 1.56 0 3.05-.35 4.42-1.06l.63 1.24c-1.55.8-3.3 1.22-5.07 1.22z"/><path d="M20.35 8.43c-.37-1.33-1-2.54-1.9-3.6l.9-.74c1 1.17 1.72 2.52 2.13 4l-1.13.32zm-18.5 8.55C.7 15.2.08 13.15.08 11.02c0-2.96 1.18-5.73 3.32-7.8l.8.85c-1.9 1.84-2.96 4.3-2.96 6.95 0 1.9.55 3.74 1.6 5.32l-.98.64z" opacity=".5"/></g></g></svg>