<svg xmlns="http://www.w3.org/2000/svg" width="32" height="32" xmlns:xlink="http://www.w3.org/1999/xlink"><defs><linearGradient id="c" x1="50%" x2="50%" y1="0%" y2="100%"><stop offset="0%" stop-color="#FFF" stop-opacity=".5"/><stop offset="100%" stop-opacity=".5"/></linearGradient><circle id="b" cx="16" cy="15" r="15"/><filter id="a" width="111.7%" height="111.7%" x="-5.8%" y="-4.2%" filterUnits="objectBoundingBox"><feOffset dy=".5" in="SourceAlpha" result="shadowOffsetOuter1"/><feGaussianBlur in="shadowOffsetOuter1" result="shadowBlurOuter1" stdDeviation=".5"/><feComposite in="shadowBlurOuter1" in2="SourceAlpha" operator="out" result="shadowBlurOuter1"/><feColorMatrix in="shadowBlurOuter1" values="0 0 0 0 0 0 0 0 0 0 0 0 0 0 0 0 0 0 0.199473505 0"/></filter><path id="e" d="M16 5l10 10.14-.37.34c-.17.16-.35.3-.54.46-.34.26-.7.52-1.03.75-1.4.93-2.96 1.62-4.6 2.02-1.14.28-2.3.42-3.47.42-1.47 0-2.94-.22-4.35-.67-1.44-.45-2.8-1.13-4.03-2-.33-.25-.65-.5-.96-.76-.1-.07-.2-.15-.28-.23L6 15.14l1.1-1.1L16 5zm8.75 10.47c.15-.12.3-.24.42-.37L16 5.8l-9.17 9.3.2.16c.3.25.6.5.9.72 2.37 1.7 5.2 2.6 8.08 2.58 1.15 0 2.27-.14 3.36-.4 1.58-.4 3.07-1.06 4.42-1.97.34-.24.67-.48.98-.74zM9.72 15c1.93-.87 4.02-1.32 6.13-1.33 2.5 0 4.93.66 7.07 1.92l.14.06-.14.1c-1.4.9-3 1.52-4.64 1.82h-.04l-.03-.02c-2.5-1.57-5.4-2.4-8.37-2.4h-.55l.45-.2zm8.64 2c1.25-.25 2.44-.68 3.55-1.3-1.87-.96-3.94-1.45-6.05-1.45-1.27 0-2.53.17-3.76.5 2.2.3 4.35 1.07 6.27 2.24zm3.3 1.96c-.44.6-.92 1.2-1.42 1.76L16 25l-2.97-3 .63-.05c2.1-.13 4.15-.75 6-1.8.54-.27 2-1.2 2-1.2zm-7.35 3.5L16 24.2l3-3.05c-1.47.7-3.06 1.15-4.7 1.32z"/><filter id="d" width="117.5%" height="117.5%" x="-8.8%" y="-6.2%" filterUnits="objectBoundingBox"><feOffset dy=".5" in="SourceAlpha" result="shadowOffsetOuter1"/><feGaussianBlur in="shadowOffsetOuter1" result="shadowBlurOuter1" stdDeviation=".5"/><feColorMatrix in="shadowBlurOuter1" values="0 0 0 0 0 0 0 0 0 0 0 0 0 0 0 0 0 0 0.204257246 0"/></filter></defs><g fill="none"><use fill="#000" filter="url(#a)" xlink:href="#b"/><use fill="#0061FF" xlink:href="#b"/><use fill="url(#c)" style="mix-blend-mode:soft-light" xlink:href="#b"/><circle cx="16" cy="15" r="14.5" stroke="#000" stroke-opacity=".097"/><use fill="#000" filter="url(#d)" xlink:href="#e"/><use fill="#FFF" fill-rule="evenodd" xlink:href="#e"/></g></svg>