<svg xmlns="http://www.w3.org/2000/svg" width="32" height="32" xmlns:xlink="http://www.w3.org/1999/xlink"><defs><linearGradient id="c" x1="50%" x2="50%" y1="0%" y2="100%"><stop offset="0%" stop-color="#FFF" stop-opacity=".5"/><stop offset="100%" stop-opacity=".5"/></linearGradient><circle id="b" cx="16" cy="15" r="15"/><filter id="a" width="111.7%" height="111.7%" x="-5.8%" y="-4.2%" filterUnits="objectBoundingBox"><feOffset dy=".5" in="SourceAlpha" result="shadowOffsetOuter1"/><feGaussianBlur in="shadowOffsetOuter1" result="shadowBlurOuter1" stdDeviation=".5"/><feComposite in="shadowBlurOuter1" in2="SourceAlpha" operator="out" result="shadowBlurOuter1"/><feColorMatrix in="shadowBlurOuter1" values="0 0 0 0 0 0 0 0 0 0 0 0 0 0 0 0 0 0 0.199473505 0"/></filter><path id="e" d="M7.96 16.6c0-.1 0-.2 0-.32 0-3.52 2.74-6.38 6.17-6.5.08 0 .17 0 .25 0l-.82-.8s3.3-.55 7.52 2c0 0 .06.12 0 .5 0 0 2 .85 2.16 2.5.17 1.67-.88 2.62-1.73 2.76 0 0 .46-.7-.22-1.05-.15-.1-.32-.14-.5-.13-1.3 0-1.44 1.47-1.44 1.47 0 .08 0 .15 0 .23 0 0-.2 1.88 2.9 2.1.7-.88 1.32-1.87 1.87-2.94.58-1.12 1.04-2.27 1.4-3.4.2-.7.36-1.28.46-1.74-1.8-1.5-3.95-2.77-6.25-3.84-.85-.4-1.7-.75-2.5-1.04-.46-.2-.86-.33-1.2-.43-.32.1-.73.23-1.22.42-.8.3-1.62.64-2.48 1.04C10 8.54 7.84 9.8 6.03 11.3c.1.47.25 1.06.46 1.74.34 1.14.8 2.3 1.4 3.42 0 .04.03.1.05.14zM27 10.9l-.05.28c-.03.22-.2 1-.42 1.74-.38 1.3-.9 2.64-1.57 3.95-.9 1.77-2 3.3-3.27 4.58-1.58 1.56-3.38 2.7-5.4 3.43l-.1.04-.2.08-.2-.07-.13-.05c-2-.72-3.82-1.87-5.37-3.43-1.26-1.28-2.36-2.8-3.26-4.57-.67-1.3-1.2-2.65-1.57-3.95-.13-.46-.24-.88-.32-1.25-.05-.23-.1-.5-.1-.47L5 10.94l.12-.1.1-.07c1.83-1.55 4-2.9 6.37-4 1.55-.75 3-1.3 4.06-1.65L16 5l.2.06.12.04c1.08.35 2.5.9 4.08 1.65 2.35 1.1 4.53 2.44 6.37 4l.23.15zm-7.6.73c.05-.03.23-.12.43-.33.4.06.82.18.82.18-.75-.44-1.76-.7-2.9-.7 0 0 .44.6 1.63.86 0 0 0 0 .02 0z"/><filter id="d" width="115.9%" height="117.5%" x="-8%" y="-6.2%" filterUnits="objectBoundingBox"><feOffset dy=".5" in="SourceAlpha" result="shadowOffsetOuter1"/><feGaussianBlur in="shadowOffsetOuter1" result="shadowBlurOuter1" stdDeviation=".5"/><feColorMatrix in="shadowBlurOuter1" values="0 0 0 0 0 0 0 0 0 0 0 0 0 0 0 0 0 0 0.204257246 0"/></filter></defs><g fill="none"><use fill="#000" filter="url(#a)" xlink:href="#b"/><use fill="#2CD3E1" xlink:href="#b"/><use fill="url(#c)" style="mix-blend-mode:soft-light" xlink:href="#b"/><circle cx="16" cy="15" r="14.5" stroke="#000" stroke-opacity=".097"/><use fill="#000" filter="url(#d)" xlink:href="#e"/><use fill="#FFF" fill-rule="evenodd" xlink:href="#e"/></g></svg>