<svg xmlns="http://www.w3.org/2000/svg" width="32" height="32" xmlns:xlink="http://www.w3.org/1999/xlink"><defs><linearGradient id="c" x1="50%" x2="50%" y1="0%" y2="100%"><stop offset="0%" stop-color="#FFF" stop-opacity=".5"/><stop offset="100%" stop-opacity=".5"/></linearGradient><circle id="b" cx="16" cy="15" r="15"/><filter id="a" width="111.7%" height="111.7%" x="-5.8%" y="-4.2%" filterUnits="objectBoundingBox"><feOffset dy=".5" in="SourceAlpha" result="shadowOffsetOuter1"/><feGaussianBlur in="shadowOffsetOuter1" result="shadowBlurOuter1" stdDeviation=".5"/><feComposite in="shadowBlurOuter1" in2="SourceAlpha" operator="out" result="shadowBlurOuter1"/><feColorMatrix in="shadowBlurOuter1" values="0 0 0 0 0 0 0 0 0 0 0 0 0 0 0 0 0 0 0.199473505 0"/></filter><path id="e" d="M20.58 15.3c-.24-.68-.66-1.3-1.22-1.78-.07-.05-.14-.1-.2-.16-.08-.06-.16-.1-.23-.16-.08-.06-.16-.1-.23-.15h-.02c-.07-.05-.15-.1-.22-.13h-.03c-.07-.04-.15-.08-.23-.1l-.03-.02c-.07-.03-.13-.06-.2-.08-.2-.07-.4-.13-.6-.17-.15.3-.35.55-.6.77.57.04 1.1.22 1.6.52l.02.02c.02.03.07.06.1.1l.07.03c.04 0 .08.04.12.07l.05.05c.04.03.07.06.1.1l.08.06c.03.02.06.05.1.08l.06.07c0 .04.04.07.07.1l.06.08c.03.05.05.08.08.1.03.05.05.07.07.1.02.03.05.07.07.1.02.04.04.07.06.1.02.03.05.07.06.1.02.03.04.07.06.1.02.04.03.07.05.1 0 .04.03.1.05.14.1.24.16.5.2.74l.1.4c.06.17.48 1.66 1.47 2.16 1.1.58 2.6 1.3 3.2 1.57L16.9 24.9v-3.13c0-.5 1-1.07 1.46-1.27l.02-.02c.1-.04.2-.1.28-.15h.04c.2-.1.4-.26.57-.4l.05-.05.05-.05c.07-.04.13-.1.18-.14l.03-.03c.08-.06.13-.12.2-.2l.04-.04c.04-.07.08-.13.12-.18l.04-.05c.04-.06.1-.13.13-.2l.02-.02c.06-.1.1-.2.17-.3-.22-.26-.4-.54-.55-.85-.07.18-.14.35-.23.5-.04.08-.08.15-.12.22l-.02.02c-.04.06-.08.1-.12.17l-.03.06c-.04.06-.1.1-.13.16l-.03.03c-.3.32-.65.58-1.03.77l-.08.04c-.2.08-1.94.85-1.94 2.03v3.1l-7.8-4.57c.5-.3 1.97-1.15 3.18-1.53.47-.15 1.47.46 2.04.92l.02.03c.07.07.15.13.24.2l.02.02c.18.14.38.27.58.4l.13.06h.02c.12.08.25.14.4.2l.05.02H15c.2.08.4.14.6.18.16-.28.36-.54.6-.77-.32-.02-.64-.1-.95-.2l-.05-.02-.1-.05-.06-.04-.1-.04c-.22-.12-.44-.25-.64-.4l-.3-.3c-.3-.23-.6-.45-.93-.63-.77-.44-1.4-.58-1.9-.43-1.04.32-2.2.94-2.9 1.34l7.77-13.7v6c0 .2-.32.77-1.4 1.25l-.06.03c-.1.04-.2.1-.3.16h-.02c-.2.13-.4.26-.57.4-.1.1-.2.2-.3.3l-.03.02c-.1.1-.2.2-.3.33-.04.07-.1.1-.13.18-.05.07-.08.12-.12.18-.05.07-.08.13-.1.2l-.04.03c-.04.05-.06.1-.1.17v.02c-.03.05-.06.1-.08.15l-.02.06c-.03.07-.05.13-.07.18v.05c0 .04-.03.1-.04.13 0 .03-.02.05-.02.07-.02.06-.03.12-.05.17 0 .03 0 .06 0 .08-.03.03-.04.08-.05.12 0 .04 0 .07-.02.1 0 .04 0 .1-.02.15 0 .04 0 .06 0 .1 0 .02 0 .07 0 .12 0 .03 0 .07 0 .1 0 .06 0 .07 0 .1v.1c0 .2 0 .4.03.62.34.07.66.2.97.35-.08-.3-.14-.62-.14-.93v-.06c0-.1 0-.16 0-.24v-.06c0-.07.02-.13.03-.2v-.03c0-.07 0-.14.02-.2v-.07c.03-.06.04-.1.06-.17v-.05c.03-.08.05-.15.08-.2l.02-.06c.02-.06.04-.1.07-.17l.02-.05c.02-.06.05-.12.1-.2v-.02c.04-.04.07-.1.1-.15l.03-.03c.04-.05.08-.1.13-.16s.1-.1.14-.16l.02-.03c.2-.23.45-.43.7-.6l.38-.17c.2-.08 1.94-.87 1.94-2.05v-6l7.84 13.83c-.7-.33-1.93-.92-2.9-1.4-.54-.28-.92-1.27-1-1.6l-.12-.44c-.04-.22-.1-.44-.17-.65h-.02zm5.3 4.36L17.26 4.44C17.1 4.17 16.8 4 16.5 4c-.32 0-.6.17-.76.44L7.1 19.66c-.22.4-.08.9.32 1.14l8.64 5.08c.27.16.6.16.88 0l8.64-5.08c.4-.23.54-.73.3-1.13z"/><filter id="d" width="118.4%" height="115.9%" x="-9.2%" y="-5.7%" filterUnits="objectBoundingBox"><feOffset dy=".5" in="SourceAlpha" result="shadowOffsetOuter1"/><feGaussianBlur in="shadowOffsetOuter1" result="shadowBlurOuter1" stdDeviation=".5"/><feColorMatrix in="shadowBlurOuter1" values="0 0 0 0 0 0 0 0 0 0 0 0 0 0 0 0 0 0 0.204257246 0"/></filter></defs><g fill="none"><use fill="#000" filter="url(#a)" xlink:href="#b"/><use fill="#602A52" xlink:href="#b"/><use fill="url(#c)" style="mix-blend-mode:soft-light" xlink:href="#b"/><circle cx="16" cy="15" r="14.5" stroke="#000" stroke-opacity=".097"/><use fill="#000" filter="url(#d)" xlink:href="#e"/><use fill="#FFF" xlink:href="#e"/></g></svg>