<svg xmlns="http://www.w3.org/2000/svg" width="32" height="32" xmlns:xlink="http://www.w3.org/1999/xlink"><defs><linearGradient id="c" x1="50%" x2="50%" y1="0%" y2="100%"><stop offset="0%" stop-color="#FFF" stop-opacity=".5"/><stop offset="100%" stop-opacity=".5"/></linearGradient><circle id="b" cx="16" cy="15" r="15"/><filter id="a" width="111.7%" height="111.7%" x="-5.8%" y="-4.2%" filterUnits="objectBoundingBox"><feOffset dy=".5" in="SourceAlpha" result="shadowOffsetOuter1"/><feGaussianBlur in="shadowOffsetOuter1" result="shadowBlurOuter1" stdDeviation=".5"/><feComposite in="shadowBlurOuter1" in2="SourceAlpha" operator="out" result="shadowBlurOuter1"/><feColorMatrix in="shadowBlurOuter1" values="0 0 0 0 0 0 0 0 0 0 0 0 0 0 0 0 0 0 0.199473505 0"/></filter><path id="e" d="M22.03 14.98c.05-.06.1-.12.17-.18.18-.2.4-.42.58-.63.78-.83 1.2-1.9 1.2-3.03 0-.08.02-.4.02-.45-.1-2.6-2.24-4.7-4.78-4.7h-8v3.26H8V24h11.35c2.52 0 4.65-2.27 4.65-4.96 0-1.92-1.17-3.28-1.97-4.06zm-9.2-4.07l6.36.03-4 4.1 3.94 4.07H12.8v-8.2zm6.52 11.46H9.6V10.9h1.62v9.83h7.93c.65 0 1.24-.4 1.5-1.02.24-.6.1-1.3-.36-1.77l-2.85-2.9 2.88-2.95c.46-.47.6-1.17.34-1.8-.25-.6-.83-1-1.5-1h-6.35V7.62h6.4c1.7 0 3.1 1.4 3.17 3.1 0 .07 0 .36 0 .36v.03c0 .96-.5 1.6-.78 1.9-.2.2-.4.45-.6.64-.3.34-.58.63-.7.76l-.58.58.57.58c.08.08.18.17.3.28.66.63 1.8 1.68 1.8 3.17 0 1.78-1.43 3.33-3.06 3.33z"/><filter id="d" width="118.8%" height="116.7%" x="-9.4%" y="-8.3%" filterUnits="objectBoundingBox"><feOffset in="SourceAlpha" result="shadowOffsetOuter1"/><feGaussianBlur in="shadowOffsetOuter1" result="shadowBlurOuter1" stdDeviation=".5"/><feColorMatrix in="shadowBlurOuter1" values="0 0 0 0 0 0 0 0 0 0 0 0 0 0 0 0 0 0 0.204257246 0"/></filter></defs><g fill="none"><use fill="#000" filter="url(#a)" xlink:href="#b"/><use fill="#6356AB" xlink:href="#b"/><use fill="url(#c)" style="mix-blend-mode:soft-light" xlink:href="#b"/><circle cx="16" cy="15" r="14.5" stroke="#000" stroke-opacity=".097"/><use fill="#000" filter="url(#d)" xlink:href="#e"/><use fill="#FFF" fill-rule="evenodd" xlink:href="#e"/></g></svg>