<svg xmlns="http://www.w3.org/2000/svg" width="32" height="32" xmlns:xlink="http://www.w3.org/1999/xlink"><defs><linearGradient id="c" x1="50%" x2="50%" y1="0%" y2="100%"><stop offset="0%" stop-color="#FFF" stop-opacity=".5"/><stop offset="100%" stop-opacity=".5"/></linearGradient><circle id="b" cx="16" cy="15" r="15"/><filter id="a" width="111.7%" height="111.7%" x="-5.8%" y="-4.2%" filterUnits="objectBoundingBox"><feOffset dy=".5" in="SourceAlpha" result="shadowOffsetOuter1"/><feGaussianBlur in="shadowOffsetOuter1" result="shadowBlurOuter1" stdDeviation=".5"/><feComposite in="shadowBlurOuter1" in2="SourceAlpha" operator="out" result="shadowBlurOuter1"/><feColorMatrix in="shadowBlurOuter1" values="0 0 0 0 0 0 0 0 0 0 0 0 0 0 0 0 0 0 0.199473505 0"/></filter><path id="e" d="M22.63 13.02c-.22 1.53-1.08 2.28-2.2 2.54 1.55.8 2.34 2.04 1.58 4.2-.9 2.66-3.13 2.88-6.07 2.32l-.72 2.87-1.72-.43.7-2.83c-.44-.13-.9-.25-1.37-.38l-.7 2.84-1.72-.43.7-2.87c-.4-.1-.8-.2-1.22-.32L7.6 20l.86-2s1.27.35 1.25.33c.5.12.73-.2.8-.4l1.15-4.54c.06 0 .12 0 .18.02-.07-.03-.13-.04-.18-.06l.8-3.23c.03-.37-.1-.83-.8-1 .03-.02-1.25-.32-1.25-.32l.45-1.83 2.38.6c.36.1.72.17 1.1.26l.7-2.84 1.74.42-.7 2.78c.47.12.93.23 1.4.34l.68-2.77 1.73.44-.7 2.86c2.17.75 3.77 1.87 3.45 3.97zm-3.95 5.54c.56-2.24-3.2-2.82-4.37-3.1l-.93 3.8c1.17.28 4.8 1.44 5.32-.7zm.54-5.57c.5-2.06-2.64-2.5-3.6-2.75l-.87 3.45c.97.25 3.98 1.24 4.47-.7zm5.03 7.6c-.2 0-.35.03-.48.13-.12.1-.2.25-.25.44-.02.08-.03.18-.02.28 0 .1.04.2.1.3.06.1.16.2.3.3.12.08.3.15.53.2.12.03.25.04.38.04.15 0 .28-.03.4-.07.1-.04.2-.1.3-.2.07-.08.12-.2.16-.34.04-.2.02-.38-.07-.54-.1-.15-.25-.27-.47-.35l.16-.66c.37.16.63.38.8.66.14.3.17.63.1 1.02-.07.24-.16.44-.28.6-.1.16-.26.3-.42.38-.17.1-.36.15-.56.17-.2.02-.42 0-.65-.04-.23-.06-.44-.14-.6-.24-.2-.13-.36-.27-.47-.4-.1-.18-.2-.36-.23-.57-.04-.2-.03-.43.02-.68.03-.17.1-.34.18-.48.08-.15.18-.28.3-.38.1-.1.25-.18.4-.23.16-.05.33-.06.52-.03l-.15.67zm2.7-2.1c-.07.24-.16.44-.28.6-.12.18-.27.3-.44.4-.17.1-.36.18-.57.2-.2 0-.44 0-.67-.05-.25-.05-.45-.13-.63-.25-.18-.1-.33-.24-.44-.4-.1-.16-.18-.35-.22-.56-.02-.2 0-.43.04-.67.06-.24.15-.45.27-.62.14-.17.28-.3.45-.4.17-.1.36-.16.57-.18.22-.03.44 0 .67.04.22.07.43.16.6.27.2.1.33.25.44.42.1.15.18.33.22.54.03.2.03.43-.03.68zm-2.63-2.8l.14-.63.58.14c-.07-.04-.14-.1-.2-.17-.07-.08-.13-.16-.17-.26-.05-.1-.08-.2-.1-.3 0-.1 0-.2 0-.3.03-.1.05-.14.06-.17 0-.02.02-.05.03-.08l.64.15c-.02.04-.03.1-.05.14-.02.07-.03.1-.04.16 0 .1 0 .22 0 .33.03.1.08.2.15.3.07.1.17.2.28.25.12.07.27.13.43.17l1.44.34-.16.67-3.02-.7zm2.27-2.2c.1.03.22.04.33.04.12 0 .23-.04.33-.1.1-.03.18-.1.25-.2.08-.08.13-.2.17-.34.04-.18.04-.35-.02-.5-.06-.13-.16-.24-.32-.34l.15-.63c.15.07.28.16.4.28.1.14.18.26.24.4.06.15.1.3.1.46 0 .16 0 .32-.04.48-.05.24-.14.44-.26.6-.12.17-.27.3-.43.4-.17.1-.36.15-.57.17-.2.03-.44 0-.67-.04-.2-.05-.4-.14-.6-.25-.16-.1-.3-.24-.43-.4-.1-.16-.2-.34-.24-.54-.05-.2-.05-.4 0-.63.06-.24.16-.44.3-.6.14-.18.3-.3.5-.4.2-.08.4-.12.63-.13.22-.02.45.02.67.1l-.5 2.22zm-.2 4.87c.04-.14.04-.28 0-.4-.04-.13-.1-.24-.18-.33-.1-.1-.2-.17-.3-.23-.13-.06-.26-.1-.4-.13-.12-.03-.25-.05-.4-.04-.12 0-.25.03-.36.07-.12.06-.22.13-.3.23-.1.1-.16.2-.2.36-.02.13-.02.26 0 .4.05.1.1.22.2.3.08.1.18.18.3.25.12.06.25.1.37.14.14.02.27.03.4.03.14 0 .27-.03.38-.08.13-.05.23-.12.3-.2.1-.1.17-.23.2-.38zm.1-6.52c-.1-.02-.2-.02-.3 0-.1 0-.2.04-.3.1-.1.04-.17.1-.23.2-.07.07-.12.16-.14.28-.03.1-.03.22 0 .33 0 .1.04.2.1.28.06.1.13.16.22.23.08.06.18.1.3.14l.35-1.55z"/><filter id="d" width="117%" height="117.5%" x="-8.5%" y="-6.3%" filterUnits="objectBoundingBox"><feOffset dy=".5" in="SourceAlpha" result="shadowOffsetOuter1"/><feGaussianBlur in="shadowOffsetOuter1" result="shadowBlurOuter1" stdDeviation=".5"/><feColorMatrix in="shadowBlurOuter1" values="0 0 0 0 0 0 0 0 0 0 0 0 0 0 0 0 0 0 0.204257246 0"/></filter></defs><g fill="none"><use fill="#000" filter="url(#a)" xlink:href="#b"/><use fill="#FB2EA3" xlink:href="#b"/><use fill="url(#c)" style="mix-blend-mode:soft-light" xlink:href="#b"/><circle cx="16" cy="15" r="14.5" stroke="#000" stroke-opacity=".097"/><use fill="#000" filter="url(#d)" xlink:href="#e"/><use fill="#FFF" fill-rule="evenodd" xlink:href="#e"/></g></svg>