<svg xmlns="http://www.w3.org/2000/svg" width="32" height="32" xmlns:xlink="http://www.w3.org/1999/xlink"><defs><linearGradient id="c" x1="50%" x2="50%" y1="0%" y2="100%"><stop offset="0%" stop-color="#FFF" stop-opacity=".5"/><stop offset="100%" stop-opacity=".5"/></linearGradient><circle id="b" cx="16" cy="15" r="15"/><filter id="a" width="111.7%" height="111.7%" x="-5.8%" y="-4.2%" filterUnits="objectBoundingBox"><feOffset dy=".5" in="SourceAlpha" result="shadowOffsetOuter1"/><feGaussianBlur in="shadowOffsetOuter1" result="shadowBlurOuter1" stdDeviation=".5"/><feComposite in="shadowBlurOuter1" in2="SourceAlpha" operator="out" result="shadowBlurOuter1"/><feColorMatrix in="shadowBlurOuter1" values="0 0 0 0 0 0 0 0 0 0 0 0 0 0 0 0 0 0 0.199473505 0"/></filter><path id="e" d="M26.5 16.92v2.25H25v-2.25h-2.24v-1.5H25v-2.25h1.5v2.25h2.26v1.5H26.5zm-6.65-4.52c.13 1.36-.42 2.17-1.3 2.64 1.45.35 2.37 1.24 2.2 3.24-.24 2.47-2.04 3.14-4.62 3.3v2.6H14.6V21.6c-.4 0-.8 0-1.22 0v2.57h-1.53v-2.6c-.36 0-.73-.02-1.1-.02h-2l.3-1.87s1.15.02 1.13 0c.43 0 .55-.32.57-.52v-4.1c.06 0 .1 0 .17 0-.07-.02-.12-.02-.17-.02V12.1c-.06-.3-.26-.68-.88-.68.02-.02-1.1 0-1.1 0V9.75h2.1c.32 0 .65 0 .98 0v-2.6h1.53V9.7c.4-.02.82-.03 1.22-.03v-2.5h1.53v2.57c1.98.18 3.55.8 3.72 2.66zm-2.14 5.57c0-2.03-3.24-1.73-4.27-1.73v3.45c1.03 0 4.3.2 4.3-1.74zM17 13.1c0-1.85-2.72-1.57-3.58-1.57v3.13c.86 0 3.58.2 3.58-1.56z"/><filter id="d" width="117.5%" height="120.6%" x="-8.8%" y="-7.4%" filterUnits="objectBoundingBox"><feOffset dy=".5" in="SourceAlpha" result="shadowOffsetOuter1"/><feGaussianBlur in="shadowOffsetOuter1" result="shadowBlurOuter1" stdDeviation=".5"/><feColorMatrix in="shadowBlurOuter1" values="0 0 0 0 0 0 0 0 0 0 0 0 0 0 0 0 0 0 0.204257246 0"/></filter></defs><g fill="none"><use fill="#000" filter="url(#a)" xlink:href="#b"/><use fill="#F7931A" xlink:href="#b"/><use fill="url(#c)" style="mix-blend-mode:soft-light" xlink:href="#b"/><circle cx="16" cy="15" r="14.5" stroke="#000" stroke-opacity=".097"/><g transform="rotate(14 18.76 15.667)"><use fill="#000" filter="url(#d)" xlink:href="#e"/><use fill="#FFF" fill-rule="evenodd" xlink:href="#e"/></g></g></svg>