<svg xmlns="http://www.w3.org/2000/svg" width="32" height="32" xmlns:xlink="http://www.w3.org/1999/xlink"><defs><linearGradient id="c" x1="50%" x2="50%" y1="0%" y2="100%"><stop offset="0%" stop-color="#FFF" stop-opacity=".5"/><stop offset="100%" stop-opacity=".5"/></linearGradient><circle id="b" cx="16" cy="15" r="15"/><filter id="a" width="111.7%" height="111.7%" x="-5.8%" y="-4.2%" filterUnits="objectBoundingBox"><feOffset dy=".5" in="SourceAlpha" result="shadowOffsetOuter1"/><feGaussianBlur in="shadowOffsetOuter1" result="shadowBlurOuter1" stdDeviation=".5"/><feComposite in="shadowBlurOuter1" in2="SourceAlpha" operator="out" result="shadowBlurOuter1"/><feColorMatrix in="shadowBlurOuter1" values="0 0 0 0 0 0 0 0 0 0 0 0 0 0 0 0 0 0 0.199473505 0"/></filter><path id="e" d="M16 26C9.93 26 5 21.07 5 15S9.94 4 16 4s11 4.94 11 11c0 1-.14 2-.4 2.97-.14.47-.63.74-1.1.6-.47-.12-.75-.6-.62-1.08.23-.83.34-1.67.34-2.5 0-5.1-4.13-9.23-9.22-9.23-5.1 0-9.22 4.13-9.22 9.22 0 5.1 4.13 9.2 9.22 9.2.95 0 1.9-.13 2.8-.42.3-.1.64-.03.87.18.24.2.34.54.27.85-.07.3-.3.57-.6.66-1.08.35-2.2.52-3.34.52zm3.37-11.03c.38.32.64.78.77 1.38.1.35.08.7 0 1.05-.1.32-.28.6-.5.85-.26.27-.55.48-.87.64-.35.16-.43.22-.84.3l-.25.07c-.16.03-.25.2-.22.35l.15.67c.04.07 0 .15-.02.2-.04.08-.1.13-.18.14l-.7.15c-.07 0-.15 0-.22-.05-.06-.04-.1-.1-.13-.18l-.14-.67c0-.06-.05-.13-.1-.17-.08-.05-.16-.06-.24-.04l-1.83.4c-.2.02-.38 0-.54-.1-.17-.1-.3-.28-.33-.47l-1.65-7.46c-.03-.18 0-.38.1-.54.1-.16.27-.28.46-.32l1.83-.4c.08 0 .15-.06.2-.12.03-.08.05-.16.03-.24l-.15-.67c-.04-.17.07-.32.23-.36l.68-.14c.08-.03.16 0 .23.03s.1.1.14.2l.14.64c.02.08.07.15.13.2.08.03.16.05.24.03l.56-.1c.28-.08.58-.08.87 0 .27.08.53.2.75.38.22.18.42.4.57.63.13.26.24.53.3.8.1.43.1.87-.05 1.28-.13.43-.4.8-.77 1.06.5.03.98.2 1.37.53zm-5.43-1.6l.1.43c.04.2.16.35.32.46.16.1.36.13.54.1l1.3-.3c.23-.04.43-.17.56-.35.14-.17.18-.42.1-.74-.06-.3-.18-.5-.37-.62-.2-.13-.4-.17-.63-.12l-1.4.32c-.17.04-.34.15-.44.3-.1.17-.14.37-.1.56zm3.9 3.77h.02c.13-.22.17-.5.1-.74-.04-.26-.18-.5-.4-.65-.17-.15-.42-.2-.65-.15l-1.64.36c-.18.04-.35.16-.45.32-.1.16-.13.36-.1.54l.13.53c.04.2.16.35.32.45.16.1.35.14.54.1l1.56-.35c.25-.04.47-.2.6-.4zm3.3 5.4l1.55-1.85c.04-.1.06-.2 0-.3-.03-.1-.13-.17-.24-.17h-1.03c-.15 0-.28-.12-.28-.28v-.2c0-.17.13-.3.28-.3h2.36c.06 0 .13.04.2.1.04.04.07.1.07.2v.27c0 .06-.03.12-.07.17l-1.45 1.84c-.07.08-.08.2-.03.3.04.08.14.14.25.15h1.05c.15 0 .27.1.27.26V23c0 .06-.05.13-.1.18-.05.05-.1.08-.2.08h-2.45c-.15 0-.27-.12-.27-.27v-.3c0-.07 0-.13.05-.18z"/><filter id="d" width="115.9%" height="115.9%" x="-8%" y="-5.7%" filterUnits="objectBoundingBox"><feOffset dy=".5" in="SourceAlpha" result="shadowOffsetOuter1"/><feGaussianBlur in="shadowOffsetOuter1" result="shadowBlurOuter1" stdDeviation=".5"/><feColorMatrix in="shadowBlurOuter1" values="0 0 0 0 0 0 0 0 0 0 0 0 0 0 0 0 0 0 0.204257246 0"/></filter></defs><g fill="none"><use fill="#000" filter="url(#a)" xlink:href="#b"/><use fill="#F8C24A" fill-rule="evenodd" xlink:href="#b"/><use fill="url(#c)" fill-rule="evenodd" style="mix-blend-mode:soft-light" xlink:href="#b"/><circle cx="16" cy="15" r="14.5" stroke="#000" stroke-opacity=".097"/><use fill="#000" filter="url(#d)" xlink:href="#e"/><use fill="#FFF" fill-rule="evenodd" xlink:href="#e"/></g></svg>