<svg xmlns="http://www.w3.org/2000/svg" width="32" height="32" xmlns:xlink="http://www.w3.org/1999/xlink"><defs><linearGradient id="c" x1="50%" x2="50%" y1="0%" y2="100%"><stop offset="0%" stop-color="#FFF" stop-opacity=".5"/><stop offset="100%" stop-opacity=".5"/></linearGradient><circle id="b" cx="16" cy="15" r="15"/><filter id="a" width="111.7%" height="111.7%" x="-5.8%" y="-4.2%" filterUnits="objectBoundingBox"><feOffset dy=".5" in="SourceAlpha" result="shadowOffsetOuter1"/><feGaussianBlur in="shadowOffsetOuter1" result="shadowBlurOuter1" stdDeviation=".5"/><feComposite in="shadowBlurOuter1" in2="SourceAlpha" operator="out" result="shadowBlurOuter1"/><feColorMatrix in="shadowBlurOuter1" values="0 0 0 0 0 0 0 0 0 0 0 0 0 0 0 0 0 0 0.199473505 0"/></filter><path id="e" d="M23.1 10.13c.05 2.9-2.44 3.73-2.44 3.73s1.02-1 .97-3.56c-.05-2.56-1.93-3.83-1.93-3.83s3.35.75 3.4 3.66zm-11.16 13.7L8.5 24v-.34s2.1-.22 2.1-4v-9.63c0-3.2-2.1-3.75-2.1-3.75V6l3.44.17v17.65zm5.5.17c-1.5 0-4.28-.2-4.28-.2V6.2c1.83-.03 2.47-.28 3.97-.07 1.5.22 2.8 1.72 3.16 3.23.33 1.5-.05 2.94-.53 3.72-.48.78-1.54 1.32-1.54 1.32s1.6.56 2.17 1.04c.57.48 1.66 1.8 1.24 4.65-.42 2.83-2.72 3.9-4.2 3.9zm3.96-.65s1.63-1.42 1.56-4.3c-.07-2.88-1.56-4.24-1.56-4.24s3.06.8 3.1 4.2c.03 3.46-3.1 4.36-3.1 4.36zM18.3 13c1.1-1.45.75-4.2-.58-5.14-1.33-.94-2.73-.46-3-.2s-.26 6.43-.26 6.43 2.74.37 3.84-1.1zm.2 2.64c-1.03-.46-4.04-.34-4.04-.34s-.04 1.56.06 4.47c.1 2.92 1.1 2.9 2.1 2.94 1 .06 2.94 0 3.58-2.52.63-2.52-.67-4.07-1.7-4.53z"/><filter id="d" width="121.9%" height="119.4%" x="-10.9%" y="-6.9%" filterUnits="objectBoundingBox"><feOffset dy=".5" in="SourceAlpha" result="shadowOffsetOuter1"/><feGaussianBlur in="shadowOffsetOuter1" result="shadowBlurOuter1" stdDeviation=".5"/><feColorMatrix in="shadowBlurOuter1" values="0 0 0 0 0 0 0 0 0 0 0 0 0 0 0 0 0 0 0.204257246 0"/></filter></defs><g fill="none"><use fill="#000" filter="url(#a)" xlink:href="#b"/><use fill="#181818" xlink:href="#b"/><use fill="url(#c)" style="mix-blend-mode:soft-light" xlink:href="#b"/><circle cx="16" cy="15" r="14.5" stroke="#000" stroke-opacity=".097"/><use fill="#000" filter="url(#d)" xlink:href="#e"/><use fill="#FFF" fill-rule="evenodd" xlink:href="#e"/></g></svg>