<svg xmlns="http://www.w3.org/2000/svg" width="32" height="32" xmlns:xlink="http://www.w3.org/1999/xlink"><defs><linearGradient id="c" x1="50%" x2="50%" y1="0%" y2="100%"><stop offset="0%" stop-color="#FFF" stop-opacity=".5"/><stop offset="100%" stop-opacity=".5"/></linearGradient><circle id="b" cx="16" cy="15" r="15"/><filter id="a" width="111.7%" height="111.7%" x="-5.8%" y="-4.2%" filterUnits="objectBoundingBox"><feOffset dy=".5" in="SourceAlpha" result="shadowOffsetOuter1"/><feGaussianBlur in="shadowOffsetOuter1" result="shadowBlurOuter1" stdDeviation=".5"/><feComposite in="shadowBlurOuter1" in2="SourceAlpha" operator="out" result="shadowBlurOuter1"/><feColorMatrix in="shadowBlurOuter1" values="0 0 0 0 0 0 0 0 0 0 0 0 0 0 0 0 0 0 0.199473505 0"/></filter><path id="e" d="M6 10.4c0-.23.17-.4.4-.4 1.83 0 3.5 0 5 0 2.33 0 3.78 1.2 3.78 2.88 0 .7-.32 1.35-.97 1.93.9.53 1.38 1.3 1.38 2.33 0 2.4-2.32 2.88-3.87 2.88-1.76 0-3.53 0-5.3 0-.22 0-.4-.16-.4-.4v-1.13c0-.2.18-.38.4-.38h5.3c1.1 0 1.65-.37 1.65-1.07 0-.7-.54-1.1-1.64-1.15H6.4c-.23 0-.4-.18-.4-.4v-1.14c0-.2.17-.4.4-.4h5.3c.77-.12 1.16-.44 1.16-.95 0-.7-.4-1.07-1.16-1.07H6.4c-.23 0-.4-.17-.4-.38V10.4zm10.43 0c0-.23.18-.4.4-.4h5.1c.23 0 .4.17.4.4v9.2c0 .23-.17.4-.4.4H20.5c-.22 0-.4-.17-.4-.4v-7.3c0-.2-.17-.38-.38-.38h-2.9c-.2 0-.4-.17-.4-.38V10.4zm7.25-.4h1.93c.24 0 .4.17.4.4v1.14c0 .2-.16.38-.4.38h-1.9c-.2 0-.4-.17-.4-.38V10.4c0-.23.2-.4.4-.4z"/><filter id="d" width="117.5%" height="135%" x="-8.8%" y="-12.5%" filterUnits="objectBoundingBox"><feOffset dy=".5" in="SourceAlpha" result="shadowOffsetOuter1"/><feGaussianBlur in="shadowOffsetOuter1" result="shadowBlurOuter1" stdDeviation=".5"/><feColorMatrix in="shadowBlurOuter1" values="0 0 0 0 0 0 0 0 0 0 0 0 0 0 0 0 0 0 0.204257246 0"/></filter></defs><g fill="none"><use fill="#000" filter="url(#a)" xlink:href="#b"/><use fill="#EF494D" fill-rule="evenodd" xlink:href="#b"/><use fill="url(#c)" fill-rule="evenodd" style="mix-blend-mode:soft-light" xlink:href="#b"/><circle cx="16" cy="15" r="14.5" stroke="#000" stroke-opacity=".097"/><use fill="#000" filter="url(#d)" xlink:href="#e"/><use fill="#FFF" xlink:href="#e"/></g></svg>