<svg xmlns="http://www.w3.org/2000/svg" width="32" height="32" xmlns:xlink="http://www.w3.org/1999/xlink"><defs><linearGradient id="c" x1="50%" x2="50%" y1="0%" y2="100%"><stop offset="0%" stop-color="#FFF" stop-opacity=".5"/><stop offset="100%" stop-opacity=".5"/></linearGradient><circle id="b" cx="16" cy="15" r="15"/><filter id="a" width="111.7%" height="111.7%" x="-5.8%" y="-4.2%" filterUnits="objectBoundingBox"><feOffset dy=".5" in="SourceAlpha" result="shadowOffsetOuter1"/><feGaussianBlur in="shadowOffsetOuter1" result="shadowBlurOuter1" stdDeviation=".5"/><feComposite in="shadowBlurOuter1" in2="SourceAlpha" operator="out" result="shadowBlurOuter1"/><feColorMatrix in="shadowBlurOuter1" values="0 0 0 0 0 0 0 0 0 0 0 0 0 0 0 0 0 0 0.199473505 0"/></filter><path id="e" d="M23.44 15.75c-.63-.7-1.54-1.12-2.72-1.3v-.02c1.03-.16 1.85-.6 2.4-1.27.57-.67.87-1.53.87-2.4 0-1.47-.5-2.46-1.47-3.24-.97-.78-2.43-1.04-4.42-1.04h-7.47v6.97h-4.3v2.66h11.73c.93 0 1.62.1 2.08.46.46.37.7.84.7 1.55 0 .7-.24 1.3-.7 1.7-.46.37-1.16.62-2.08.62h-4.02v-2.06h-3.4v4.74h7.72c1.96 0 3.47-.52 4.5-1.3 1.05-.8 1.54-2 1.54-3.43.02-.96-.33-1.88-.96-2.6zm-5.8-2.3h-3.6v-4.3h3.6c1.85 0 2.77.72 2.77 2.14 0 1.4-.9 2.13-2.75 2.13z"/><filter id="d" width="119.4%" height="121.1%" x="-9.7%" y="-7.5%" filterUnits="objectBoundingBox"><feOffset dy=".5" in="SourceAlpha" result="shadowOffsetOuter1"/><feGaussianBlur in="shadowOffsetOuter1" result="shadowBlurOuter1" stdDeviation=".5"/><feColorMatrix in="shadowBlurOuter1" values="0 0 0 0 0 0 0 0 0 0 0 0 0 0 0 0 0 0 0.204257246 0"/></filter></defs><g fill="none"><use fill="#000" filter="url(#a)" xlink:href="#b"/><use fill="#F04086" xlink:href="#b"/><use fill="url(#c)" style="mix-blend-mode:soft-light" xlink:href="#b"/><circle cx="16" cy="15" r="14.5" stroke="#000" stroke-opacity=".097"/><use fill="#000" filter="url(#d)" xlink:href="#e"/><use fill="#FFF" fill-rule="evenodd" xlink:href="#e"/></g></svg>