<svg xmlns="http://www.w3.org/2000/svg" width="32" height="32" xmlns:xlink="http://www.w3.org/1999/xlink"><defs><linearGradient id="c" x1="50%" x2="50%" y1="0%" y2="100%"><stop offset="0%" stop-color="#FFF" stop-opacity=".5"/><stop offset="100%" stop-opacity=".5"/></linearGradient><circle id="b" cx="16" cy="15" r="15"/><filter id="a" width="111.7%" height="111.7%" x="-5.8%" y="-4.2%" filterUnits="objectBoundingBox"><feOffset dy=".5" in="SourceAlpha" result="shadowOffsetOuter1"/><feGaussianBlur in="shadowOffsetOuter1" result="shadowBlurOuter1" stdDeviation=".5"/><feComposite in="shadowBlurOuter1" in2="SourceAlpha" operator="out" result="shadowBlurOuter1"/><feColorMatrix in="shadowBlurOuter1" values="0 0 0 0 0 0 0 0 0 0 0 0 0 0 0 0 0 0 0.199473505 0"/></filter><path id="e" d="M21.63 16.88c-.43.36-.8.68-1.18 1-.04.05-.08.1-.08.17 0 .63 0 1.27 0 1.93.96-.4 1.46-1.64 1.26-3.1zm-1.16-3.9c1.07-.64 1.2-.86 1.2-2.12 0-.1 0-.2 0-.3-.05-1.17-.84-2.2-1.94-2.44-1-.22-2-.4-3-.57-.5-.1-1.02-.16-1.54-.14-.64.04-1.14.36-1.6.9 1.12.2 2.17.42 3.23.6 1.45.23 2.56.96 3.17 2.35.24.54.32 1.15.47 1.74zm-8.82-3c-.86.53-1.3 1.25-1.3 2.15-.04 2.43-.03 4.86 0 7.3 0 1.17.78 2.18 1.9 2.45.96.23 1.94.38 2.92.57.6.12 1.22.3 1.86.14.52-.15.98-.37 1.35-.88-1.17-.22-2.26-.46-3.37-.63-1.87-.3-3.34-1.96-3.34-3.9 0-2.25 0-4.48 0-6.7v-.54zm1.33-.36c0 .25-.03.43-.03.62 0 2.24 0 4.5 0 6.73 0 1.48.9 2.54 2.32 2.8 1.02.17 2.04.37 3.06.56.07 0 .15.02.22.03.48.05.5.04.5-.44 0-.75-.02-1.5.02-2.24 0-.22.12-.5.28-.63.8-.73 1.65-1.4 2.48-2.12.23-.2.46-.3.76-.17.3.16.4.43.4.76-.03.85 0 1.7-.04 2.53-.05 1.52-1.15 3.02-2.57 3.5-.26.1-.43.23-.57.47-.87 1.55-2.37 2.15-3.97 1.94-1.3-.18-2.62-.45-3.92-.73-1.67-.36-2.9-1.92-2.93-3.78-.02-2.5 0-5 .03-7.5.03-1.58 1.2-3.03 2.67-3.5.16-.06.32-.2.4-.34 1-1.7 2.6-2.4 4.5-1.97 1.07.24 2.15.4 3.2.6 1.9.4 3.17 1.96 3.2 3.93 0 .56 0 1.12-.02 1.67 0 .18-.1.4-.22.52-.9.8-1.82 1.58-2.76 2.34-.15.1-.47.14-.64.05-.15-.1-.3-.37-.3-.57-.04-.67.04-1.34-.03-2-.13-1.33-1.03-2.2-2.4-2.44-1.08-.18-2.16-.37-3.25-.56-.1-.02-.23-.03-.4-.05z"/><filter id="d" width="125%" height="119.4%" x="-12.5%" y="-6.9%" filterUnits="objectBoundingBox"><feOffset dy=".5" in="SourceAlpha" result="shadowOffsetOuter1"/><feGaussianBlur in="shadowOffsetOuter1" result="shadowBlurOuter1" stdDeviation=".5"/><feColorMatrix in="shadowBlurOuter1" values="0 0 0 0 0 0 0 0 0 0 0 0 0 0 0 0 0 0 0.204257246 0"/></filter></defs><g fill="none"><use fill="#000" filter="url(#a)" xlink:href="#b"/><use fill="#3089F2" xlink:href="#b"/><use fill="url(#c)" style="mix-blend-mode:soft-light" xlink:href="#b"/><circle cx="16" cy="15" r="14.5" stroke="#000" stroke-opacity=".097"/><use fill="#000" filter="url(#d)" xlink:href="#e"/><use fill="#FFF" fill-rule="evenodd" xlink:href="#e"/></g></svg>