<svg xmlns="http://www.w3.org/2000/svg" width="32" height="32" xmlns:xlink="http://www.w3.org/1999/xlink"><defs><linearGradient id="c" x1="50%" x2="50%" y1="0%" y2="100%"><stop offset="0%" stop-color="#FFF" stop-opacity=".5"/><stop offset="100%" stop-opacity=".5"/></linearGradient><circle id="b" cx="16" cy="15" r="15"/><filter id="a" width="111.7%" height="111.7%" x="-5.8%" y="-4.2%" filterUnits="objectBoundingBox"><feOffset dy=".5" in="SourceAlpha" result="shadowOffsetOuter1"/><feGaussianBlur in="shadowOffsetOuter1" result="shadowBlurOuter1" stdDeviation=".5"/><feComposite in="shadowBlurOuter1" in2="SourceAlpha" operator="out" result="shadowBlurOuter1"/><feColorMatrix in="shadowBlurOuter1" values="0 0 0 0 0 0 0 0 0 0 0 0 0 0 0 0 0 0 0.199473505 0"/></filter><path id="e" d="M13.55 24.4s.02-.02.03-.03c.54-.7 1.46-1.9 2.5-3.24.95.15 1.9.07 2.78-.32.33-.12.6-.34.92-.52.04-.03.08-.06.1-.1 1.04 1.02 2.05 2.02 3.1 3.05-.27.17-.52.35-.8.5-1.04.62-2.17 1-3.37 1.18-.7.1-1.4.13-2.1.1-1.1-.07-2.14-.25-3.14-.58zm-.97-.37c-.34-.15-.67-.32-1-.5-1.68-1-2.9-2.4-3.7-4.16-.42-.92-.67-1.87-.8-2.86-.1-.75-.1-1.52-.05-2.3.12-1.96.72-3.8 1.93-5.4 1.12-1.45 2.6-2.46 4.32-3.1.83-.3 1.7-.5 2.57-.6.66-.05 1.33-.1 2-.08.4.03.8.06 1.2.13-.7 1-1.43 2.1-2.57 3.73-.84.08-1.65.34-2.4.82-1.34.84-2.13 2.06-2.5 3.56-.16.63-.24 1.28-.22 1.93 0 .33.04.67.1 1-.12.15-.22.3-.32.44-.25.36.06.84.5.78.04 0 .07 0 .1 0 .27.72.66 1.4 1.2 2.02.33.4.7.7 1.12.97-.58 1.4-1.16 2.8-1.44 3.5-.02.04-.03.1-.04.14zm7.45-18.7c.87.24 1.7.6 2.5 1.15.13.1.26.2.4.3 0 .02.04.04.07.06-.04.05-.07.08-.1.1-.9.9-1.82 1.8-2.73 2.7-.1.1-.16.12-.28.03-.4-.26-.8-.46-1.2-.6.54-1.46 1.05-2.82 1.26-3.37l.03-.1c.03-.08.04-.18.02-.27zm-3.7 10.95c-1.6.2-3.16.4-4.76.62 2.65-3.85 5.28-7.66 7.9-11.48l.05.02c-1 2.66-2.02 5.3-3.06 8.03 1.88-.3 3.7-.58 5.58-.88-3 3.85-5.95 7.67-8.9 11.5 0 0-.03-.03-.04-.04 1.06-2.58 2.13-5.15 3.22-7.8z"/><filter id="d" width="121.9%" height="117.5%" x="-10.9%" y="-6.2%" filterUnits="objectBoundingBox"><feOffset dy=".5" in="SourceAlpha" result="shadowOffsetOuter1"/><feGaussianBlur in="shadowOffsetOuter1" result="shadowBlurOuter1" stdDeviation=".5"/><feColorMatrix in="shadowBlurOuter1" values="0 0 0 0 0 0 0 0 0 0 0 0 0 0 0 0 0 0 0.204257246 0"/></filter></defs><g fill="none"><use fill="#000" filter="url(#a)" xlink:href="#b"/><use fill="#598182" fill-rule="evenodd" xlink:href="#b"/><use fill="url(#c)" fill-rule="evenodd" style="mix-blend-mode:soft-light" xlink:href="#b"/><circle cx="16" cy="15" r="14.5" stroke="#000" stroke-opacity=".097"/><use fill="#000" filter="url(#d)" xlink:href="#e"/><use fill="#FFF" xlink:href="#e"/></g></svg>