<svg xmlns="http://www.w3.org/2000/svg" width="32" height="32" xmlns:xlink="http://www.w3.org/1999/xlink"><defs><linearGradient id="c" x1="50%" x2="50%" y1="0%" y2="100%"><stop offset="0%" stop-color="#FFF" stop-opacity=".5"/><stop offset="100%" stop-opacity=".5"/></linearGradient><circle id="b" cx="16" cy="15" r="15"/><filter id="a" width="111.7%" height="111.7%" x="-5.8%" y="-4.2%" filterUnits="objectBoundingBox"><feOffset dy=".5" in="SourceAlpha" result="shadowOffsetOuter1"/><feGaussianBlur in="shadowOffsetOuter1" result="shadowBlurOuter1" stdDeviation=".5"/><feComposite in="shadowBlurOuter1" in2="SourceAlpha" operator="out" result="shadowBlurOuter1"/><feColorMatrix in="shadowBlurOuter1" values="0 0 0 0 0 0 0 0 0 0 0 0 0 0 0 0 0 0 0.199473505 0"/></filter><path id="e" d="M17.16 15.78c.82-.4 1.33-1.2 1.33-2.1 0-1.3-1.08-2.35-2.4-2.35-1.3 0-2.36 1.05-2.36 2.34 0 .9.5 1.7 1.33 2.1v2.9h2.08v-2.9M16.1 22.5c-4.2 0-7.6-3.36-7.6-7.5 0-4.14 3.43-7.5 7.6-7.5 3.43 0 6.3 2.24 7.27 5.3H26C25 8.35 20.95 5 16.12 5 10.52 5 6 9.48 6 15s4.53 10 10.12 10c4.83 0 8.87-3.34 9.88-7.8h-2.62c-.95 3.06-3.84 5.3-7.26 5.3"/><filter id="d" width="117.5%" height="117.5%" x="-8.8%" y="-6.2%" filterUnits="objectBoundingBox"><feOffset dy=".5" in="SourceAlpha" result="shadowOffsetOuter1"/><feGaussianBlur in="shadowOffsetOuter1" result="shadowBlurOuter1" stdDeviation=".5"/><feColorMatrix in="shadowBlurOuter1" values="0 0 0 0 0 0 0 0 0 0 0 0 0 0 0 0 0 0 0.204257246 0"/></filter></defs><g fill="none"><use fill="#000" filter="url(#a)" xlink:href="#b"/><use fill="#3AB03E" fill-rule="evenodd" xlink:href="#b"/><use fill="url(#c)" fill-rule="evenodd" style="mix-blend-mode:soft-light" xlink:href="#b"/><circle cx="16" cy="15" r="14.5" stroke="#000" stroke-opacity=".097"/><use fill="#000" filter="url(#d)" xlink:href="#e"/><use fill="#FFF" fill-rule="evenodd" xlink:href="#e"/></g></svg>