<svg xmlns="http://www.w3.org/2000/svg" width="32" height="32" xmlns:xlink="http://www.w3.org/1999/xlink"><defs><linearGradient id="c" x1="50%" x2="50%" y1="0%" y2="100%"><stop offset="0%" stop-color="#FFF" stop-opacity=".5"/><stop offset="100%" stop-opacity=".5"/></linearGradient><circle id="b" cx="16" cy="15" r="15"/><filter id="a" width="111.7%" height="111.7%" x="-5.8%" y="-4.2%" filterUnits="objectBoundingBox"><feOffset dy=".5" in="SourceAlpha" result="shadowOffsetOuter1"/><feGaussianBlur in="shadowOffsetOuter1" result="shadowBlurOuter1" stdDeviation=".5"/><feComposite in="shadowBlurOuter1" in2="SourceAlpha" operator="out" result="shadowBlurOuter1"/><feColorMatrix in="shadowBlurOuter1" values="0 0 0 0 0 0 0 0 0 0 0 0 0 0 0 0 0 0 0.199473505 0"/></filter><path id="e" d="M17.8 6.87v-.1c.2-.06.54-.14 1.14.03.7.18 1.23.88 1.47 1.25 0 .07 0 .15 0 .24 0 1.32-.42 4.63-1.16 7.1-.64 2.18-2.05 5.06-2.33 5.63-.13-.03-.27-.05-.42-.06.12-.73.64-4 .97-6.96.34-3.13.37-6.26.37-7.14zm2.9 1.42v-.03c.27 0 .84.04 1.5.47.64.4.97 1.18 1.1 1.6l-.06.25c-.16.6-1.3 3.7-2.54 6.03-1.05 2-2.72 4.18-3.1 4.65-.12-.08-.26-.13-.4-.18.33-.7 1.7-3.5 2.32-5.62.75-2.5 1.18-5.85 1.2-7.2zm.27 8.47c1.17-2.23 2.36-5.35 2.56-6.1.25.1.8.34 1.17.84.3.43.4 1 .45 1.36l-.12.28c-.24.54-1.66 3.05-3.1 4.83-1.24 1.54-3.1 3.38-3.56 3.8-.15-.12-.32-.25-.5-.35.43-.54 2.06-2.7 3.1-4.65zM11 8.53c0-.1-.02-.2-.03-.28.16-.35.52-.94 1.2-1.26.76-.36 1.34-.27 1.6-.2 0 .03 0 .05 0 .07.03.6.18 3.52.57 6.98.35 3.16.92 6.52 1.03 7.16-.15.04-.3.08-.45.1-.27-.57-1.5-3.25-2.34-5.93-.93-3-1.46-5.78-1.58-6.65zm3.08-1.66c0-.05 0-.1 0-.14.27-.25.9-.73 1.7-.73.8 0 1.45.48 1.73.73v.14c0 .88 0 4-.35 7.12-.33 3-.86 6.3-.97 6.95-.03 0-.05 0-.08 0-.15 0-.3 0-.44.02-.1-.6-.67-4-1.02-7.15-.4-3.45-.54-6.37-.56-6.96zm2 14.38c1.63 0 2.37.98 2.6 1.36-1.23.88-2.22 1.4-2.58 1.4-.35 0-1.22-.43-2.6-1.43.22-.35.96-1.3 2.6-1.3zm9.2-7.97c.26.16.76.6.72 1.43-.07 1.1-1.94 3.27-4.3 5.46-.87.82-1.8 1.58-2.78 2.3-.1-.17-.2-.32-.34-.45.45-.43 2.33-2.27 3.58-3.83 1.44-1.78 2.88-4.3 3.13-4.88zm-18.46-.2c-.07-.2-.14-.37-.2-.55 0-.3.05-.62.22-.93.34-.62 1.2-.9 1.56-1l.04.14c.25.87.83 2.9 2.37 5.86 1.4 2.63 2.88 4.45 3.3 4.94-.1.08-.22.16-.32.25-.43-.4-2.15-1.9-3.9-4-1.5-1.8-2.5-3.4-3.05-4.74zM13.56 22c-.1.12-.2.25-.3.4-.72-.54-1.56-1.2-2.53-2.04-3-2.58-4.66-4.37-4.73-5.5-.05-.86.4-1.35.6-1.53.57 1.34 1.58 2.9 3.03 4.65 1.75 2.12 3.47 3.62 3.93 4.02zM8.7 10.53c-.05-.14-.08-.25-.1-.34.07-.38.26-.93.73-1.27.54-.4 1.1-.43 1.37-.4v.02c.12.9.66 3.7 1.6 6.7.82 2.67 2.04 5.34 2.34 5.98-.1.04-.2.1-.3.14-.36-.42-1.87-2.24-3.27-4.9-1.52-2.94-2.1-4.96-2.35-5.82l-.03-.13z"/><filter id="d" width="117.5%" height="119.4%" x="-8.8%" y="-6.9%" filterUnits="objectBoundingBox"><feOffset dy=".5" in="SourceAlpha" result="shadowOffsetOuter1"/><feGaussianBlur in="shadowOffsetOuter1" result="shadowBlurOuter1" stdDeviation=".5"/><feColorMatrix in="shadowBlurOuter1" values="0 0 0 0 0 0 0 0 0 0 0 0 0 0 0 0 0 0 0.204257246 0"/></filter></defs><g fill="none"><use fill="#000" filter="url(#a)" xlink:href="#b"/><use fill="#20C5D3" xlink:href="#b"/><use fill="url(#c)" style="mix-blend-mode:soft-light" xlink:href="#b"/><circle cx="16" cy="15" r="14.5" stroke="#000" stroke-opacity=".097"/><use fill="#000" filter="url(#d)" xlink:href="#e"/><use fill="#FFF" fill-rule="evenodd" xlink:href="#e"/></g></svg>