<svg xmlns="http://www.w3.org/2000/svg" width="32" height="32" xmlns:xlink="http://www.w3.org/1999/xlink"><defs><linearGradient id="c" x1="50%" x2="50%" y1="0%" y2="100%"><stop offset="0%" stop-color="#FFF" stop-opacity=".5"/><stop offset="100%" stop-opacity=".5"/></linearGradient><circle id="b" cx="16" cy="15" r="15"/><filter id="a" width="111.7%" height="111.7%" x="-5.8%" y="-4.2%" filterUnits="objectBoundingBox"><feOffset dy=".5" in="SourceAlpha" result="shadowOffsetOuter1"/><feGaussianBlur in="shadowOffsetOuter1" result="shadowBlurOuter1" stdDeviation=".5"/><feComposite in="shadowBlurOuter1" in2="SourceAlpha" operator="out" result="shadowBlurOuter1"/><feColorMatrix in="shadowBlurOuter1" values="0 0 0 0 0 0 0 0 0 0 0 0 0 0 0 0 0 0 0.199473505 0"/></filter><path id="e" d="M16 4c6.07 0 11 4.95 11 11 0 6.07-4.94 11-11 11-6.07 0-11-4.95-11-11C5 8.92 9.94 4 16 4zm0 1.42c-5.28 0-9.57 4.3-9.57 9.58 0 5.27 4.28 9.57 9.56 9.57 5.26 0 9.56-4.3 9.57-9.57 0-2.56-1-4.96-2.8-6.77-1.82-1.8-4.22-2.8-6.78-2.8zm4.73 8.6c.34 1.72-.1 3.16-1.33 4.4l-.17.2-.22-.12c-.1-.06-.22-.1-.34-.17l-.5-.2.4-.35c.77-.7 1.18-1.6 1.22-2.68.04-1.1-.35-2.03-1.15-2.8-.7-.7-1.63-1.08-2.62-1.08-1.07 0-2.1.47-2.82 1.28-.8.9-1.1 2.02-.88 3.2.15.8.52 1.5 1.1 2.04l.4.36-.5.2c-.12.05-.24.1-.38.16l-.2.1-.17-.18c-.82-.84-1.27-1.82-1.36-2.98-.2-2.44 1.37-4.6 3.75-5.12.35-.08.7-.12 1.07-.12 2.28 0 4.26 1.62 4.7 3.86zm-10.76 6.3c-1.47-1.66-2.67-4.58-1.6-7.84 1.06-3.22 4.05-5.44 7.44-5.5.08-.02.15-.02.2-.02 3.45 0 6.5 2.2 7.6 5.43.96 2.76.3 5.9-1.66 8l-.25.28-.9-1 .2-.24c1.22-1.38 1.8-3.02 1.7-4.87-.1-1.7-.8-3.17-2-4.38-1.26-1.24-2.9-1.9-4.68-1.9-1.6 0-3.15.56-4.36 1.6-.96.82-1.63 1.85-2 3.04-.4 1.2-.43 2.4-.13 3.63.26 1.03.74 1.96 1.44 2.77l.2.22-.92.98-.25-.27z"/><filter id="d" width="115.9%" height="115.9%" x="-8%" y="-5.7%" filterUnits="objectBoundingBox"><feOffset dy=".5" in="SourceAlpha" result="shadowOffsetOuter1"/><feGaussianBlur in="shadowOffsetOuter1" result="shadowBlurOuter1" stdDeviation=".5"/><feColorMatrix in="shadowBlurOuter1" values="0 0 0 0 0 0 0 0 0 0 0 0 0 0 0 0 0 0 0.204257246 0"/></filter></defs><g fill="none"><use fill="#000" filter="url(#a)" xlink:href="#b"/><use fill="#FF3A00" xlink:href="#b"/><use fill="url(#c)" style="mix-blend-mode:soft-light" xlink:href="#b"/><circle cx="16" cy="15" r="14.5" stroke="#000" stroke-opacity=".097"/><use fill="#000" filter="url(#d)" xlink:href="#e"/><use fill="#FFF" fill-rule="evenodd" xlink:href="#e"/></g></svg>