<svg xmlns="http://www.w3.org/2000/svg" width="32" height="32" xmlns:xlink="http://www.w3.org/1999/xlink"><defs><linearGradient id="c" x1="50%" x2="50%" y1="0%" y2="100%"><stop offset="0%" stop-color="#FFF" stop-opacity=".5"/><stop offset="100%" stop-opacity=".5"/></linearGradient><circle id="b" cx="16" cy="15" r="15"/><filter id="a" width="111.7%" height="111.7%" x="-5.8%" y="-4.2%" filterUnits="objectBoundingBox"><feOffset dy=".5" in="SourceAlpha" result="shadowOffsetOuter1"/><feGaussianBlur in="shadowOffsetOuter1" result="shadowBlurOuter1" stdDeviation=".5"/><feComposite in="shadowBlurOuter1" in2="SourceAlpha" operator="out" result="shadowBlurOuter1"/><feColorMatrix in="shadowBlurOuter1" values="0 0 0 0 0 0 0 0 0 0 0 0 0 0 0 0 0 0 0.199473505 0"/></filter><path id="e" d="M23.48 9h-4.04c-.17 0-.33.07-.44.2l-7.38 7.5c-.12.13-.27.2-.44.2H9.83c-.17 0-.32-.07-.44-.18l-.98-.98c-.1-.12-.18-.28-.18-.45v-1.4c0-.17.07-.33.18-.45l.96-.98c.1-.12.26-.2.43-.2h1.36c.17 0 .32.08.44.2l.6.6c.23.24.63.24.87 0l1.4-1.45c.25-.25.25-.65 0-.9l-1.5-1.52c-.1-.13-.27-.2-.43-.2H8.48c-.16 0-.32.07-.44.2l-2.86 2.9c-.1.12-.18.28-.18.45v4.1c0 .18.07.34.18.46l2.86 2.93c.12.12.28.2.44.2h4.05c.16 0 .32-.08.44-.2l7.37-7.52c.12-.1.28-.2.44-.2h1.35c.17 0 .33.1.44.2l.96.98c.12.12.18.28.18.45v1.37c0 .16-.04.32-.16.44l-.96.98c-.1.1-.27.18-.44.18H20.8c-.17 0-.33-.07-.45-.18l-.6-.6c-.23-.25-.62-.26-.87 0l-1.74 1.73c-.12.12-.2.28-.2.45v4.04c0 .35.3.64.63.64h2.04c.35 0 .63-.3.63-.64v-1.5c0-.35.28-.63.63-.63h2.63c.16 0 .3-.05.43-.17l2.86-2.9c.1-.13.17-.3.17-.46v-4.1c0-.18-.06-.34-.18-.46l-2.87-2.9c-.12-.12-.27-.2-.44-.2"/><filter id="d" width="115.9%" height="125%" x="-8%" y="-8.9%" filterUnits="objectBoundingBox"><feOffset dy=".5" in="SourceAlpha" result="shadowOffsetOuter1"/><feGaussianBlur in="shadowOffsetOuter1" result="shadowBlurOuter1" stdDeviation=".5"/><feColorMatrix in="shadowBlurOuter1" values="0 0 0 0 0 0 0 0 0 0 0 0 0 0 0 0 0 0 0.204257246 0"/></filter></defs><g fill="none"><use fill="#000" filter="url(#a)" xlink:href="#b"/><use fill="#ED1650" xlink:href="#b"/><use fill="url(#c)" style="mix-blend-mode:soft-light" xlink:href="#b"/><circle cx="16" cy="15" r="14.5" stroke="#000" stroke-opacity=".097"/><use fill="#000" filter="url(#d)" xlink:href="#e"/><use fill="#FFF" xlink:href="#e"/></g></svg>