<svg xmlns="http://www.w3.org/2000/svg" width="32" height="32" xmlns:xlink="http://www.w3.org/1999/xlink"><defs><linearGradient id="c" x1="50%" x2="50%" y1="0%" y2="100%"><stop offset="0%" stop-color="#FFF" stop-opacity=".5"/><stop offset="100%" stop-opacity=".5"/></linearGradient><circle id="b" cx="16" cy="15" r="15"/><filter id="a" width="111.7%" height="111.7%" x="-5.8%" y="-4.2%" filterUnits="objectBoundingBox"><feOffset dy=".5" in="SourceAlpha" result="shadowOffsetOuter1"/><feGaussianBlur in="shadowOffsetOuter1" result="shadowBlurOuter1" stdDeviation=".5"/><feComposite in="shadowBlurOuter1" in2="SourceAlpha" operator="out" result="shadowBlurOuter1"/><feColorMatrix in="shadowBlurOuter1" values="0 0 0 0 0 0 0 0 0 0 0 0 0 0 0 0 0 0 0.199473505 0"/></filter><path id="e" d="M21.83 8.74c-1.44-1.2-3.2-1.84-5.06-1.84-4.2 0-7.64 3.3-7.93 7.55H8c.3-4.74 4.13-8.4 8.77-8.4 2.06 0 4.04.76 5.64 2.1l-.56.6zm-.28 2.78c-1.12-1.56-2.9-2.48-4.78-2.48-3.24 0-5.88 2.68-5.88 5.96 0 3.32 2.62 6 5.86 6 1.9 0 3.66-.92 4.78-2.47l.57.58c-1.26 1.75-3.24 2.75-5.34 2.75-3.7 0-6.7-3.06-6.7-6.84 0-3.73 3-6.8 6.7-6.8 2.1 0 4.1 1 5.35 2.74l-.56.6zm.94-2.15l.56-.58c.2.2.37.4.53.6L23 10c-.17-.2-.33-.43-.54-.64zm-5.78 14.6c-4.64 0-8.47-3.64-8.76-8.38h.83c.27 4.22 3.73 7.53 7.92 7.53 1.85 0 3.62-.63 5.06-1.84l.57.6c-1.56 1.32-3.58 2.07-5.64 2.07zm5.76-3.3c.2-.2.36-.42.53-.63l.58.6c-.16.2-.33.4-.53.62l-.58-.6zM6.8 15c0 5.58 4.5 10.16 9.95 10.16 2.97 0 5.76-1.3 7.65-3.7l.58.6c-2.06 2.5-5.02 3.94-8.23 3.94C10.8 26 6 21.05 6 15 6 8.9 10.85 4 16.77 4c3.17 0 6.17 1.43 8.23 3.95l-.58.6c-1.9-2.37-4.68-3.7-7.65-3.7C11.3 4.85 6.82 9.4 6.82 15z"/><filter id="d" width="118.4%" height="115.9%" x="-9.2%" y="-5.7%" filterUnits="objectBoundingBox"><feOffset dy=".5" in="SourceAlpha" result="shadowOffsetOuter1"/><feGaussianBlur in="shadowOffsetOuter1" result="shadowBlurOuter1" stdDeviation=".5"/><feColorMatrix in="shadowBlurOuter1" values="0 0 0 0 0 0 0 0 0 0 0 0 0 0 0 0 0 0 0.204257246 0"/></filter></defs><g fill="none"><use fill="#000" filter="url(#a)" xlink:href="#b"/><use fill="#00BDCD" xlink:href="#b"/><use fill="url(#c)" style="mix-blend-mode:soft-light" xlink:href="#b"/><circle cx="16" cy="15" r="14.5" stroke="#000" stroke-opacity=".097"/><use fill="#000" filter="url(#d)" xlink:href="#e"/><use fill="#FFF" fill-rule="evenodd" xlink:href="#e"/></g></svg>