<svg xmlns="http://www.w3.org/2000/svg" width="32" height="32" xmlns:xlink="http://www.w3.org/1999/xlink"><defs><linearGradient id="c" x1="50%" x2="50%" y1="0%" y2="100%"><stop offset="0%" stop-color="#FFF" stop-opacity=".5"/><stop offset="100%" stop-opacity=".5"/></linearGradient><circle id="b" cx="16" cy="15" r="15"/><filter id="a" width="111.7%" height="111.7%" x="-5.8%" y="-4.2%" filterUnits="objectBoundingBox"><feOffset dy=".5" in="SourceAlpha" result="shadowOffsetOuter1"/><feGaussianBlur in="shadowOffsetOuter1" result="shadowBlurOuter1" stdDeviation=".5"/><feComposite in="shadowBlurOuter1" in2="SourceAlpha" operator="out" result="shadowBlurOuter1"/><feColorMatrix in="shadowBlurOuter1" values="0 0 0 0 0 0 0 0 0 0 0 0 0 0 0 0 0 0 0.199473505 0"/></filter><path id="e" d="M20.05 4.6c.4 0 .7.13.95.36.24.24.36.56.36.95v11.7c0 1.33-.32 2.54-.95 3.63-.6 1.08-1.44 1.93-2.5 2.56-1.07.6-2.26.9-3.57.9-1.3 0-2.52-.3-3.6-.9-1.1-.64-1.93-1.5-2.54-2.57-.63-1.1-.94-2.3-.94-3.63 0-1.35.3-2.55.85-3.62.6-1.1 1.37-1.95 2.36-2.56 1-.62 2.13-.93 3.36-.93 1 0 1.92.2 2.77.6.85.4 1.57 1 2.17 1.7V5.9c0-.4.12-.7.36-.95.26-.23.58-.35.95-.35zm-5.73 17.8c.85 0 1.62-.2 2.3-.62.7-.42 1.25-1 1.64-1.74.4-.73.6-1.55.6-2.45 0-.93-.2-1.74-.6-2.46-.4-.73-.94-1.3-1.64-1.7-.68-.44-1.45-.65-2.3-.65-.85 0-1.63.2-2.33.63-.7.4-1.25.98-1.66 1.7-.4.73-.6 1.54-.6 2.45 0 .9.2 1.7.6 2.44.4.74.96 1.32 1.64 1.74.7.4 1.47.62 2.32.62z"/><filter id="d" width="124.8%" height="117.4%" x="-12.4%" y="-6.2%" filterUnits="objectBoundingBox"><feOffset dy=".5" in="SourceAlpha" result="shadowOffsetOuter1"/><feGaussianBlur in="shadowOffsetOuter1" result="shadowBlurOuter1" stdDeviation=".5"/><feColorMatrix in="shadowBlurOuter1" values="0 0 0 0 0 0 0 0 0 0 0 0 0 0 0 0 0 0 0.204257246 0"/></filter></defs><g fill="none"><use fill="#000" filter="url(#a)" xlink:href="#b"/><use fill="#2D9CDB" xlink:href="#b"/><use fill="url(#c)" style="mix-blend-mode:soft-light" xlink:href="#b"/><circle cx="16" cy="15" r="14.5" stroke="#000" stroke-opacity=".097"/><use fill="#000" filter="url(#d)" xlink:href="#e"/><use fill="#FFF" fill-rule="evenodd" xlink:href="#e"/></g></svg>