<svg xmlns="http://www.w3.org/2000/svg" width="32" height="32" xmlns:xlink="http://www.w3.org/1999/xlink"><defs><linearGradient id="c" x1="50%" x2="50%" y1="0%" y2="100%"><stop offset="0%" stop-color="#FFF" stop-opacity=".5"/><stop offset="100%" stop-opacity=".5"/></linearGradient><circle id="b" cx="16" cy="15" r="15"/><filter id="a" width="111.7%" height="111.7%" x="-5.8%" y="-4.2%" filterUnits="objectBoundingBox"><feOffset dy=".5" in="SourceAlpha" result="shadowOffsetOuter1"/><feGaussianBlur in="shadowOffsetOuter1" result="shadowBlurOuter1" stdDeviation=".5"/><feComposite in="shadowBlurOuter1" in2="SourceAlpha" operator="out" result="shadowBlurOuter1"/><feColorMatrix in="shadowBlurOuter1" values="0 0 0 0 0 0 0 0 0 0 0 0 0 0 0 0 0 0 0.199473505 0"/></filter><path id="e" d="M16 4c6.06 0 11 4.94 11 11s-4.94 11-11 11S5 21.06 5 15 9.94 4 16 4zm8.86 9.9l1.26 1.42V15c0-5.58-4.54-10.12-10.12-10.12-5.53 0-10.05 4.47-10.12 10l.52-.02 1.68-2.95h2.3l.96 3.1 1.88-.46.98.54 1.22-1.54.87.5.86.32.53-.27.05-.07c-1.57-.45-2.74-1.9-2.74-3.62 0-2.06 1.7-3.73 3.77-3.73 2.07 0 3.75 1.7 3.75 3.75 0 .62-.14 1.22-.43 1.76h.44l1.36 1.9.96-.17zM16 25.1c1.22 0 2.44-.22 3.6-.65-.72-.2-1.6-.38-2.46-.56-.47-.1-.96-.2-1.43-.3-.4-.1-.8-.17-1.16-.24-1.3-.24-2.14-.4-2.27-1.05-.1-.53.32-1.05 1.56-1.9.6-.4.66-.64.65-.68 0-.02-.2-.55-3.12-.87-.1 0-.23-.02-.34-.03-.02.46-.52.8-1.2.8-.73 0-1.25-.36-1.25-.85 0-.02 0-.04.02-.1-.07 0-.14-.02-.2-.02-.14.04-.28.05-.4.05-.2 0-.36 0-.53-.06-.3 0-.6 0-.9 0C8 22.44 11.7 25.1 16 25.1zm4.7-1.17c2.8-1.47 4.82-4.2 5.3-7.4l-1.5-1.7-1 .18-1.43-1.96h-.16l-.64.53-.83-1.12-1.37 1.46c.03 0 .07-.02.1-.03.5-.15.9-.38 1.02-.84.12.4.48.64.9.8.06.02.1.03.17.05.84.33 1.43 1 1.48 1.77.12.17.3.3.5.4.13.04.27.1.4.15 0 0 .02 0 .04 0h-.02c.72.38 1.2 1 1.2 1.75 0 .28-.16.83-1.4 1.03-.4.07-.7.4-.7.82v1c0 .26-.23.47-.5.45-.22-.02-.4-.23-.4-.46v-1c0-.4-.28-.74-.68-.8-.2-.04-.4-.08-.54-.14v1.73c0 .32-.24 1.1-2.55 1.1-2.3 0-2.55-.78-2.55-1.1 0-.9.73-1.7 1.76-1.97.4-.15.7-.37.8-.76.14.48.6.7 1.1.86h-.03c.22.08.4.2.6.3V17.6c0-.4-.3-.74-.7-.8-1.26-.2-1.42-.78-1.42-1.04s.06-.52.18-.75l-.58.3-1.32-.47-.28-.17-2.45 3.1-.7-.56 1.15-1.43-.54-.3-2.34.6-1-3.28H8.6l-1.67 2.9-1.02.04c.08.67.2 1.34.37 2h.5c.06-.2.22-.7.8-2.37l.4-1.22.4 1.25c.34 1 .53 1.57.64 1.92.1-.3.2-.62.37-1.02l.4-1.22.43 1.22c.25.75.42 1.26.54 1.63.24.02.47.04.7.06 2.44.25 3.64.7 3.87 1.47.27.8-.67 1.45-.97 1.66-.86.58-1.1.87-1.18 1 .23.12.95.26 1.54.37.36.08.8.16 1.2.25.47.1.96.2 1.4.3 1.34.25 2.6.5 3.4.9zm-.96-3.42c-.04-.6-.8-1.1-1.67-1.1-.88 0-1.63.5-1.67 1.12.15.1.72.3 1.67.3.94 0 1.52-.2 1.67-.3zm2.56-3.74c-.88 0-1.63.5-1.67 1.12.16.1.74.3 1.67.3.94 0 1.52-.2 1.68-.3-.05-.6-.8-1.12-1.68-1.12zm-.45-1.08c-.04-.6-.8-1.12-1.67-1.12-.88 0-1.63.5-1.67 1.12.17.1.76.3 1.7.3.92 0 1.5-.2 1.66-.3zm-.67-3.72c.3-.47.47-1 .47-1.57 0-1.58-1.28-2.87-2.87-2.87-1.58 0-2.87 1.3-2.87 2.87 0 1.5 1.14 2.72 2.6 2.87l2.03-2.2.66.9zM9.5 18.7c.2.05.4.05.6 0l-.3-.9-.3.9zm-1.82-.94c.2 0 .38 0 .58 0-.06-.2-.17-.5-.3-.86-.1.34-.2.66-.28.86zm4.23-5.9c-1.4 0-2.53-1.15-2.53-2.56 0-1.4 1.14-2.55 2.55-2.55 1.42 0 2.56 1.14 2.56 2.55 0 1.4-1.16 2.55-2.55 2.55zm0-4.23c-.9 0-1.65.75-1.65 1.67 0 .93.74 1.67 1.67 1.67.93 0 1.68-.74 1.68-1.67 0-.92-.76-1.67-1.67-1.67z"/><filter id="d" width="115.9%" height="115.9%" x="-8%" y="-5.7%" filterUnits="objectBoundingBox"><feOffset dy=".5" in="SourceAlpha" result="shadowOffsetOuter1"/><feGaussianBlur in="shadowOffsetOuter1" result="shadowBlurOuter1" stdDeviation=".5"/><feColorMatrix in="shadowBlurOuter1" values="0 0 0 0 0 0 0 0 0 0 0 0 0 0 0 0 0 0 0.204257246 0"/></filter></defs><g fill="none"><use fill="#000" filter="url(#a)" xlink:href="#b"/><use fill="#BFB5AF" fill-rule="evenodd" xlink:href="#b"/><use fill="url(#c)" fill-rule="evenodd" style="mix-blend-mode:soft-light" xlink:href="#b"/><circle cx="16" cy="15" r="14.5" stroke="#000" stroke-opacity=".097"/><use fill="#000" filter="url(#d)" xlink:href="#e"/><use fill="#FFF" fill-rule="evenodd" xlink:href="#e"/></g></svg>