<svg xmlns="http://www.w3.org/2000/svg" width="32" height="32" xmlns:xlink="http://www.w3.org/1999/xlink"><defs><linearGradient id="c" x1="50%" x2="50%" y1="0%" y2="100%"><stop offset="0%" stop-color="#FFF" stop-opacity=".5"/><stop offset="100%" stop-opacity=".5"/></linearGradient><circle id="b" cx="16" cy="15" r="15"/><filter id="a" width="111.7%" height="111.7%" x="-5.8%" y="-4.2%" filterUnits="objectBoundingBox"><feOffset dy=".5" in="SourceAlpha" result="shadowOffsetOuter1"/><feGaussianBlur in="shadowOffsetOuter1" result="shadowBlurOuter1" stdDeviation=".5"/><feComposite in="shadowBlurOuter1" in2="SourceAlpha" operator="out" result="shadowBlurOuter1"/><feColorMatrix in="shadowBlurOuter1" values="0 0 0 0 0 0 0 0 0 0 0 0 0 0 0 0 0 0 0.199473505 0"/></filter><path id="e" d="M13.78 15.93c-.55.57-1.1 1.15-1.65 1.72-.3.3-.58.63-.88.93-.05.05-.12.1-.18.13-.13 0-.23-.1-.25-.2-.03-.2-.05-.36-.07-.54-.03-.24-.1-.3-.35-.34-.5-.05-1-.1-1.5-.18-.37-.04-.74-.1-1.12-.14-.23-.03-.3-.2-.2-.4.28-.43.55-.86.83-1.3.57-.9 1.13-1.78 1.7-2.67.05-.1.13-.17.27-.17.1 0 .18-.02.27-.04.1-.03.2 0 .27.07.14.1.27.23.4.36.5.47 1 .95 1.5 1.43.33.3.66.6 1 .9.15.16.15.27 0 .44zm11.1 2.32c.1.08.2.15.2.28.04.17-.03.3-.18.4-.85.54-1.7 1.1-2.55 1.64-.54.36-1.1.7-1.64 1.07-.03.03-.1.07-.13.1-.08.08-.13.17-.12.3 0 .2.02.4.02.6 0 .24-.17.38-.4.36-.1 0-.16-.06-.22-.13-.2-.22-.4-.45-.6-.68-.24-.3-.48-.6-.73-.88-.08-.1-.14-.2-.13-.4 0-.35 0-.77.03-1.2 0-.13.1-.22.2-.3.46-.28.9-.57 1.36-.86.75-.48 1.52-.97 2.27-1.46.16-.1.3-.12.5-.03.12.07.27.08.4.03.22-.06.38 0 .54.14.4.34.8.67 1.2 1zm-7.3 1c.06.05.1.13.12.2.04.2-.03.32-.2.4-.6.3-1.18.57-1.77.85-.1.05-.24.05-.36.06-.5.02-.98.03-1.46.05-.27.03-.56.05-.83.07-.08 0-.14 0-.2 0-.1 0-.17-.04-.23-.1-.07-.06-.13-.1-.2-.17-.34-.34-.67-.67-1.02-1-.2-.17-.2-.4 0-.6.42-.43.83-.87 1.25-1.3.45-.48.9-.95 1.35-1.43.08-.1.18-.14.3-.13.1 0 .2.03.26.1.6.6 1.2 1.2 1.8 1.8.4.4.82.8 1.22 1.2zm2.48-8.06c-.2-.3.02-.73.34-.78.86-.15 1.7-.3 2.57-.46.2-.03.34.06.44.2.2.28.38.55.56.82.37.56.75 1.13 1.12 1.7.05.08.08.17.12.26-.02 0-.03 0-.04 0 0 .16-.06.3-.15.4-.5.7-1.03 1.4-1.56 2.12-.17.24-.6.27-.8-.06-.77-1.27-1.54-2.53-2.3-3.8-.1-.14-.18-.3-.27-.43zm-1.5 3.5c-.06.46-.1.9-.16 1.35-.04.37-.1.74-.13 1.1-.05.44-.1.87-.15 1.3 0 .1 0 .2-.03.28-.03.04-.06.1-.1.1-.03.02-.1 0-.13-.02-.14-.12-.27-.25-.4-.4-.5-.44-1-.9-1.48-1.37-.43-.4-.86-.8-1.3-1.2-.13-.13-.13-.17 0-.32.66-.67 1.3-1.35 1.96-2.04.45-.46.9-.93 1.34-1.4.23-.23.45-.46.67-.7.02 0 .03-.04.05-.05.05 0 .1-.03.15 0 .03 0 .05.06.06.1-.03.3-.07.57-.1.86-.04.37-.08.75-.13 1.13-.05.43-.1.87-.15 1.3zm3.8 1.03c.06.1.07.2 0 .3-.08.13-.1.27-.1.4.02.14-.03.22-.14.28-.84.55-1.67 1.08-2.5 1.6-.27.18-.53.35-.8.5-.1.08-.2.08-.26 0-.03-.05-.03-.1-.04-.15.04-.3.07-.55.1-.8.1-.6.17-1.2.25-1.8.1-.64.18-1.3.27-1.94.1-.63.18-1.26.27-1.9.05-.23.08-.47.1-.7 0-.03 0-.05.03-.06.02-.04.05-.08.1-.1.02 0 .08.03.1.06.06.1.1.2.17.27.64 1.08 1.3 2.15 1.94 3.22.17.26.34.55.52.83zm-4.06-4.9c.03.02.1.04.13.08.04.08 0 .14-.05.2-.23.23-.45.47-.68.7-.66.7-1.32 1.4-1.98 2.08-.42.43-.83.86-1.24 1.3-.15.15-.27.15-.43 0-.48-.45-.96-.9-1.45-1.37-.47-.43-.94-.9-1.4-1.32-.07-.06-.12-.12-.12-.22 0-.12.08-.2.23-.22.28-.04.54-.1.8-.13.84-.14 1.68-.3 2.5-.43 1-.2 2-.36 3-.54.22-.04.45-.08.7-.12zm-6.74.63c.47-.32.94-.64 1.4-.95 1.5-1.02 3-2.04 4.5-3.07.16-.1.26-.08.33.1.3.65.6 1.32.9 2 .05.07.1.16.13.25.03.06 0 .1-.03.18-.04.07-.1.16-.13.24-.03.1-.08.13-.17.15-.66.1-1.33.24-2 .36-.78.15-1.56.3-2.34.43-.86.15-1.72.3-2.57.46-.06 0-.1 0-.13 0 0 0-.02-.03-.03-.04.04-.03.07-.07.1-.1zM6.86 13c-.28 0-.45-.3-.3-.56.1-.22.24-.44.36-.65.37-.65.74-1.28 1.1-1.9.07-.1.15-.2.26-.25.98-.56 1.95-1.13 2.92-1.7.07-.02.14-.06.2-.07.15-.03.27.02.36.14.1.12.1.25.03.38-.16.32-.3.63-.47.94-.28.57-.56 1.14-.83 1.72-.06.13-.14.2-.3.25-.26.08-.43.26-.5.5-.04.15-.12.23-.25.28-.8.28-1.6.57-2.4.86-.06.02-.12.02-.18.04zm4.17-1.83c0-.04 0-.08.03-.12.35-.77.7-1.53 1.05-2.3.24-.47.46-.95.67-1.43.05-.1.13-.17.25-.17.34 0 .66-.03 1-.04.63 0 1.28-.03 1.92-.05.23 0 .45-.03.68-.04.16 0 .27.1.27.26 0 .1-.06.16-.14.2-.2.16-.4.3-.62.44-1.23.82-2.46 1.66-3.7 2.5-.4.27-.78.53-1.17.8-.03.02-.06.04-.1.06-.06.03-.13-.02-.12-.1zm-1.37 1.65c-.16.26-.32.53-.5.8-.6.97-1.2 1.95-1.83 2.93-.03.04-.06.1-.1.12-.1.08-.24.02-.3-.1-.08-.22-.15-.44-.23-.65-.22-.63-.44-1.26-.67-1.9 0-.03-.02-.08-.03-.1 0-.13.04-.2.16-.22.36-.12.7-.23 1.07-.35.67-.2 1.34-.42 2.02-.64.08 0 .17-.03.26-.06.08-.02.15-.05.2.02.05.07 0 .12-.03.17zm16.12 2.6c.07.4.14.78.2 1.17 0 0 0 .05.02.1 0 .05-.02.1-.04.17-.08.32-.17.64-.26.95-.08.28-.3.34-.52.16-.45-.4-.9-.77-1.35-1.15-.1-.1-.15-.2-.13-.32.03-.13.02-.27-.04-.4-.06-.12-.04-.23.04-.33.37-.5.74-1 1.1-1.5.08-.1.15-.2.23-.3.07-.1.17-.16.3-.13.13.03.2.12.22.25.08.42.15.86.23 1.3zM18.22 7.5c0-.03-.02-.04-.02-.06-.03-.06-.04-.13.02-.16.05-.03.12-.03.17 0 .07.02.15.07.23.1 1.12.57 2.24 1.13 3.36 1.7.2.1.4.2.6.3.06.02.1.06.1.14 0 .1-.08.1-.15.12-.8.14-1.62.3-2.43.43 0 0-.03 0-.07.02-.03-.04-.07-.05-.1-.1-.16-.17-.35-.3-.6-.3-.1 0-.13-.05-.17-.12-.15-.32-.3-.62-.44-.93-.18-.4-.36-.8-.54-1.18z"/><filter id="d" width="117.5%" height="121.9%" x="-8.8%" y="-7.8%" filterUnits="objectBoundingBox"><feOffset dy=".5" in="SourceAlpha" result="shadowOffsetOuter1"/><feGaussianBlur in="shadowOffsetOuter1" result="shadowBlurOuter1" stdDeviation=".5"/><feColorMatrix in="shadowBlurOuter1" values="0 0 0 0 0 0 0 0 0 0 0 0 0 0 0 0 0 0 0.204257246 0"/></filter></defs><g fill="none"><use fill="#000" filter="url(#a)" xlink:href="#b"/><use fill="#5BC1D4" xlink:href="#b"/><use fill="url(#c)" style="mix-blend-mode:soft-light" xlink:href="#b"/><circle cx="16" cy="15" r="14.5" stroke="#000" stroke-opacity=".097"/><use fill="#000" filter="url(#d)" xlink:href="#e"/><use fill="#FFF" xlink:href="#e"/></g></svg>