<svg xmlns="http://www.w3.org/2000/svg" width="32" height="32" xmlns:xlink="http://www.w3.org/1999/xlink"><defs><linearGradient id="c" x1="50%" x2="50%" y1="0%" y2="100%"><stop offset="0%" stop-color="#FFF" stop-opacity=".5"/><stop offset="100%" stop-opacity=".5"/></linearGradient><circle id="b" cx="16" cy="15" r="15"/><filter id="a" width="111.7%" height="111.7%" x="-5.8%" y="-4.2%" filterUnits="objectBoundingBox"><feOffset dy=".5" in="SourceAlpha" result="shadowOffsetOuter1"/><feGaussianBlur in="shadowOffsetOuter1" result="shadowBlurOuter1" stdDeviation=".5"/><feComposite in="shadowBlurOuter1" in2="SourceAlpha" operator="out" result="shadowBlurOuter1"/><feColorMatrix in="shadowBlurOuter1" values="0 0 0 0 0 0 0 0 0 0 0 0 0 0 0 0 0 0 0.199473505 0"/></filter><path id="e" d="M25.08 20.15c-.42.7-1.34.96-2.07.54L18.25 18v-1.73l1.52-.87 4.78 2.7c.72.43.97 1.34.55 2.05zm-7.56 3.66c0 .84-.68 1.5-1.52 1.5s-1.52-.66-1.52-1.5v-5.4l1.52-.86 1.52.86v5.4zM9 20.7c-.74.4-1.66.16-2.08-.55-.42-.7-.17-1.62.55-2.04l4.78-2.7 1.52.88V18L9 20.7zm-1.53-8.8c-.72-.43-.97-1.34-.55-2.05.42-.7 1.34-.96 2.07-.54l4.76 2.7v1.74l-1.52.87-4.78-2.7zm7-5.7c0-.83.7-1.5 1.53-1.5.84 0 1.52.67 1.52 1.5v5.4l-1.52.87-1.52-.86V6.2zm3.76 8.34l.8.46-.8.46v-.92zm-1.52-1.67l.83-.45v.9l-.8-.45zm-2.2.46v-.9l.8.44-.8.46zm-.7 2.13L13 15l.8-.46v.92zm1.5 1.67l-.8.45v-.9l.8.45zm2.23-.46v.9l-.8-.44.8-.46zm-1.52.05l-1.5-.86v-1.72l1.5-.86 1.53.86v1.72l-1.52.86zm7-7.4c.75-.43 1.67-.18 2.1.53.4.7.16 1.62-.56 2.04l-4.78 2.7-1.52-.88V12L23 9.3zm1.9 8.2L20.45 15l4.42-2.5c1.07-.6 1.44-1.95.82-3s-1.98-1.4-3.05-.8l-4.42 2.5v-5c0-1.22-1-2.2-2.23-2.2s-2.23.98-2.23 2.2v5L9.35 8.7c-1.07-.6-2.43-.25-3.05.8-.62 1.05-.25 2.4.82 3l4.42 2.5-4.42 2.5c-1.07.6-1.44 1.95-.82 3s1.98 1.4 3.05.8l4.42-2.5v5c0 1.22 1 2.2 2.23 2.2s2.23-.98 2.23-2.2v-5l4.42 2.5c1.07.6 2.43.25 3.05-.8.62-1.05.25-2.4-.82-3z"/><filter id="d" width="117.5%" height="115.9%" x="-8.8%" y="-5.7%" filterUnits="objectBoundingBox"><feOffset dy=".5" in="SourceAlpha" result="shadowOffsetOuter1"/><feGaussianBlur in="shadowOffsetOuter1" result="shadowBlurOuter1" stdDeviation=".5"/><feColorMatrix in="shadowBlurOuter1" values="0 0 0 0 0 0 0 0 0 0 0 0 0 0 0 0 0 0 0.204257246 0"/></filter></defs><g fill="none"><use fill="#000" filter="url(#a)" xlink:href="#b"/><use fill="#666" xlink:href="#b"/><use fill="url(#c)" style="mix-blend-mode:soft-light" xlink:href="#b"/><circle cx="16" cy="15" r="14.5" stroke="#000" stroke-opacity=".097"/><use fill="#000" filter="url(#d)" xlink:href="#e"/><use fill="#FFF" xlink:href="#e"/></g></svg>