<svg xmlns="http://www.w3.org/2000/svg" width="32" height="32" xmlns:xlink="http://www.w3.org/1999/xlink"><defs><linearGradient id="c" x1="50%" x2="50%" y1="0%" y2="100%"><stop offset="0%" stop-color="#FFF" stop-opacity=".5"/><stop offset="100%" stop-opacity=".5"/></linearGradient><circle id="b" cx="16" cy="15" r="15"/><filter id="a" width="111.7%" height="111.7%" x="-5.8%" y="-4.2%" filterUnits="objectBoundingBox"><feOffset dy=".5" in="SourceAlpha" result="shadowOffsetOuter1"/><feGaussianBlur in="shadowOffsetOuter1" result="shadowBlurOuter1" stdDeviation=".5"/><feComposite in="shadowBlurOuter1" in2="SourceAlpha" operator="out" result="shadowBlurOuter1"/><feColorMatrix in="shadowBlurOuter1" values="0 0 0 0 0 0 0 0 0 0 0 0 0 0 0 0 0 0 0.199473505 0"/></filter><path id="e" d="M12.16 21.82c.62 0 1.12.5 1.12 1.1 0 .6-.5 1.08-1.12 1.08H10.7c-.3 0-.62-.12-.85-.35-.22-.22-.35-.52-.35-.83V7.15c0-.3.12-.6.34-.8.23-.23.53-.35.84-.35h1.55c.62 0 1.12.5 1.12 1.1 0 .28-.1.56-.32.76-.2.2-.5.32-.8.32h-.34v13.64h.25zm12.17-11.46c.78 1.34 1.17 2.84 1.17 4.5 0 1.65-.4 3.15-1.18 4.5-.8 1.33-1.66 2.35-3.1 3.28-1.32.85-2.7 1.36-4.4 1.36h-.57c-.62 0-1.12-.5-1.12-1.1 0-.6.5-1.08 1.12-1.08h.68c1.22 0 2.1-.5 3.08-1.07 1-.57 1.64-1.5 2.2-2.5.58-1 .87-2.13.87-3.37 0-1.25-.3-2.38-.87-3.4-.57-.97-1.4-1.8-2.4-2.36-1-.58-2.1-.86-3.33-.86h-.3c-.62 0-1.12-.5-1.12-1.1 0-.3.12-.56.33-.77.2-.2.5-.34.8-.34h.34c1.7 0 3.22.38 4.6 1.14 1.34.76 2.45 1.85 3.2 3.16z"/><filter id="d" width="121.9%" height="119.4%" x="-10.9%" y="-6.9%" filterUnits="objectBoundingBox"><feOffset dy=".5" in="SourceAlpha" result="shadowOffsetOuter1"/><feGaussianBlur in="shadowOffsetOuter1" result="shadowBlurOuter1" stdDeviation=".5"/><feColorMatrix in="shadowBlurOuter1" values="0 0 0 0 0 0 0 0 0 0 0 0 0 0 0 0 0 0 0.204257246 0"/></filter></defs><g fill="none"><use fill="#000" filter="url(#a)" xlink:href="#b"/><use fill="#FEC907" xlink:href="#b"/><use fill="url(#c)" style="mix-blend-mode:soft-light" xlink:href="#b"/><circle cx="16" cy="15" r="14.5" stroke="#000" stroke-opacity=".097"/><use fill="#000" filter="url(#d)" xlink:href="#e"/><use fill="#FFF" fill-rule="evenodd" xlink:href="#e"/></g></svg>