<svg xmlns="http://www.w3.org/2000/svg" width="32" height="32" xmlns:xlink="http://www.w3.org/1999/xlink"><defs><linearGradient id="c" x1="50%" x2="50%" y1="0%" y2="100%"><stop offset="0%" stop-color="#FFF" stop-opacity=".5"/><stop offset="100%" stop-opacity=".5"/></linearGradient><circle id="b" cx="16" cy="15" r="15"/><filter id="a" width="111.7%" height="111.7%" x="-5.8%" y="-4.2%" filterUnits="objectBoundingBox"><feOffset dy=".5" in="SourceAlpha" result="shadowOffsetOuter1"/><feGaussianBlur in="shadowOffsetOuter1" result="shadowBlurOuter1" stdDeviation=".5"/><feComposite in="shadowBlurOuter1" in2="SourceAlpha" operator="out" result="shadowBlurOuter1"/><feColorMatrix in="shadowBlurOuter1" values="0 0 0 0 0 0 0 0 0 0 0 0 0 0 0 0 0 0 0.199473505 0"/></filter><path id="e" d="M12.37 24c.16-.44.3-.84.48-1.28-.3.03-.57.05-.85.08-.1.28-.2.54-.3.8-.03.07-.05.14-.08.2-.07.12-.17.2-.32.2-.63 0-1.26 0-1.88 0-.02 0-.04 0-.07-.02.13-.36.27-.7.4-1.1-.73 0-1.44-.02-2.15-.1 0-.13 4.06-10.34 4.22-10.65.04 0 .1 0 .14 0 1.1 0 2.18 0 3.27 0 .03 0 .06 0 .1 0 .32.02.5.3.4.6-.16.43-.32.85-.48 1.27-.68 1.82-1.37 3.65-2.06 5.47-.04.06-.05.12-.08.2.06 0 .1 0 .15 0 3.1-.13 5.37-1.6 6.83-4.4.33-.6.56-1.24.68-1.92.08-.4.1-.8 0-1.2-.1-.42-.34-.76-.7-1.02-.47-.34-1-.48-1.56-.48-.07 0-.13 0-.2 0-3.53 0-7.06 0-10.6 0H7.5c.02-.06.03-.1.05-.14.47-.8.93-1.65 1.4-2.5.15-.26.38-.4.7-.4 1.9 0 3.77 0 5.66 0h.2c.2-.53.4-1.06.6-1.6h.2c.53 0 1.07 0 1.6 0 .05 0 .1 0 .14 0 .12.03.2.13.18.26 0 .06-.02.1-.04.16-.12.34-.25.67-.37 1-.02.06-.04.12-.06.18h.8c.02-.04.04-.08.06-.13.16-.44.32-.88.5-1.32.04-.13.04-.13.17-.13.57 0 1.13 0 1.7 0 .23 0 .32.13.23.36-.13.37-.27.73-.4 1.1-.03.05-.05.1-.07.17.06 0 .1.02.15.03.78.1 1.54.27 2.27.6.55.25 1.05.57 1.46 1.03.58.6.86 1.35.9 2.18.05.8-.1 1.58-.37 2.33-.63 1.78-1.53 3.4-2.83 4.76-.9.93-1.94 1.68-3.07 2.28-1.23.65-2.52 1.1-3.86 1.43-.12.03-.18.08-.23.2-.14.4-.3.8-.45 1.22-.1.24-.2.3-.47.3-.57 0-1.13 0-1.7 0h-.17z"/><filter id="d" width="119.4%" height="119.4%" x="-9.7%" y="-6.9%" filterUnits="objectBoundingBox"><feOffset dy=".5" in="SourceAlpha" result="shadowOffsetOuter1"/><feGaussianBlur in="shadowOffsetOuter1" result="shadowBlurOuter1" stdDeviation=".5"/><feColorMatrix in="shadowBlurOuter1" values="0 0 0 0 0 0 0 0 0 0 0 0 0 0 0 0 0 0 0.204257246 0"/></filter></defs><g fill="none"><use fill="#000" filter="url(#a)" xlink:href="#b"/><use fill="#006AD2" xlink:href="#b"/><use fill="url(#c)" style="mix-blend-mode:soft-light" xlink:href="#b"/><circle cx="16" cy="15" r="14.5" stroke="#000" stroke-opacity=".097"/><use fill="#000" filter="url(#d)" xlink:href="#e"/><use fill="#FFF" xlink:href="#e"/></g></svg>