<svg xmlns="http://www.w3.org/2000/svg" width="32" height="32" xmlns:xlink="http://www.w3.org/1999/xlink"><defs><linearGradient id="c" x1="50%" x2="50%" y1="0%" y2="100%"><stop offset="0%" stop-color="#FFF" stop-opacity=".5"/><stop offset="100%" stop-opacity=".5"/></linearGradient><circle id="b" cx="16" cy="15" r="15"/><filter id="a" width="111.7%" height="111.7%" x="-5.8%" y="-4.2%" filterUnits="objectBoundingBox"><feOffset dy=".5" in="SourceAlpha" result="shadowOffsetOuter1"/><feGaussianBlur in="shadowOffsetOuter1" result="shadowBlurOuter1" stdDeviation=".5"/><feComposite in="shadowBlurOuter1" in2="SourceAlpha" operator="out" result="shadowBlurOuter1"/><feColorMatrix in="shadowBlurOuter1" values="0 0 0 0 0 0 0 0 0 0 0 0 0 0 0 0 0 0 0.199473505 0"/></filter><path id="e" d="M13.25 13.6h4.3v2.3h-4.3v4.8h2.72c1.08 0 1.96-.13 2.64-.42.7-.3 1.25-.7 1.64-1.2.4-.53.65-1.13.8-1.83.13-.7.2-1.44.2-2.25 0-.8-.07-1.56-.2-2.25-.15-.7-.4-1.3-.8-1.82-.4-.5-.93-.92-1.62-1.2-.67-.3-1.55-.44-2.63-.44h-2.73v4.3zm-2.77 2.3H9v-2.3h1.48V7h6.55c1.2 0 2.26.2 3.14.63.9.42 1.6 1 2.17 1.7.56.74.98 1.58 1.25 2.56.25.95.4 2 .4 3.1s-.15 2.13-.4 3.1c-.3 1-.7 1.82-1.27 2.55-.56.72-1.28 1.3-2.17 1.7-.88.43-1.93.64-3.14.64h-6.55v-7.1z"/><filter id="d" width="123.3%" height="121.9%" x="-11.7%" y="-7.8%" filterUnits="objectBoundingBox"><feOffset dy=".5" in="SourceAlpha" result="shadowOffsetOuter1"/><feGaussianBlur in="shadowOffsetOuter1" result="shadowBlurOuter1" stdDeviation=".5"/><feColorMatrix in="shadowBlurOuter1" values="0 0 0 0 0 0 0 0 0 0 0 0 0 0 0 0 0 0 0.204257246 0"/></filter></defs><g fill="none"><use fill="#000" filter="url(#a)" xlink:href="#b"/><use fill="#C3A634" xlink:href="#b"/><use fill="url(#c)" style="mix-blend-mode:soft-light" xlink:href="#b"/><circle cx="16" cy="15" r="14.5" stroke="#000" stroke-opacity=".097"/><use fill="#000" filter="url(#d)" xlink:href="#e"/><use fill="#FFF" xlink:href="#e"/></g></svg>