<svg xmlns="http://www.w3.org/2000/svg" width="32" height="32" xmlns:xlink="http://www.w3.org/1999/xlink"><defs><linearGradient id="c" x1="50%" x2="50%" y1="0%" y2="100%"><stop offset="0%" stop-color="#FFF" stop-opacity=".5"/><stop offset="100%" stop-opacity=".5"/></linearGradient><circle id="b" cx="16" cy="15" r="15"/><filter id="a" width="111.7%" height="111.7%" x="-5.8%" y="-4.2%" filterUnits="objectBoundingBox"><feOffset dy=".5" in="SourceAlpha" result="shadowOffsetOuter1"/><feGaussianBlur in="shadowOffsetOuter1" result="shadowBlurOuter1" stdDeviation=".5"/><feComposite in="shadowBlurOuter1" in2="SourceAlpha" operator="out" result="shadowBlurOuter1"/><feColorMatrix in="shadowBlurOuter1" values="0 0 0 0 0 0 0 0 0 0 0 0 0 0 0 0 0 0 0.199473505 0"/></filter><path id="e" d="M9.47 8.02h5.43c2.16 0 3.23-.07 4.83.07 1.6.15 3.22.8 4.26 2.07 1.2 1.46 1.56 3.43 1.5 5.26-.1 1.82-.73 3.74-2.16 4.98-1.27 1.15-3.05 1.57-4.74 1.58-3.27 0-6.54 0-9.82 0-.36-.03-.76 0-1.04-.24-.5-.5-.2-1.53.58-1.5 1.82-.04 3.66 0 5.5-.02-.05-1.54-.03-3.08-.03-4.6-1.43-.02-2.8 0-4.23 0-.32-.02-.66-.02-.9-.22-.3-.26-.3-.7-.17-1.04.17-.38.6-.44.98-.44 1.44-.02 2.88 0 4.3 0 .04-1.4 0-2.8.04-4.2-1.6-.02-3.22 0-4.82 0-.36-.02-.77-.02-1.04-.26-.3-.38-.23-.9 0-1.28.47-.23 1-.18 1.5-.18zm6.33 5.92c.66 0 1.32-.05 1.98.04.8.1.8 1.5 0 1.6-.66.1-1.33.04-2 .05.02 1.34 0 2.66 0 4 .02.23.04.57.33.6.8.06 1.5.03 2.37.03 1.32.06 2.7-.35 3.63-1.3.94-1.02 1.3-2.42 1.3-3.76.04-1.48-.23-3.1-1.32-4.22-.98-1-2.46-1.33-3.84-1.26-.78 0-1.45-.02-2.18.05-.23.07-.24.35-.26.55v3.62z"/><filter id="d" width="119.4%" height="125%" x="-9.7%" y="-8.9%" filterUnits="objectBoundingBox"><feOffset dy=".5" in="SourceAlpha" result="shadowOffsetOuter1"/><feGaussianBlur in="shadowOffsetOuter1" result="shadowBlurOuter1" stdDeviation=".5"/><feColorMatrix in="shadowBlurOuter1" values="0 0 0 0 0 0 0 0 0 0 0 0 0 0 0 0 0 0 0.204257246 0"/></filter></defs><g fill="none"><use fill="#000" filter="url(#a)" xlink:href="#b"/><use fill="#0FACF3" fill-rule="evenodd" xlink:href="#b"/><use fill="url(#c)" fill-rule="evenodd" style="mix-blend-mode:soft-light" xlink:href="#b"/><circle cx="16" cy="15" r="14.5" stroke="#000" stroke-opacity=".097"/><use fill="#000" filter="url(#d)" xlink:href="#e"/><use fill="#FFF" fill-rule="evenodd" xlink:href="#e"/></g></svg>