<svg xmlns="http://www.w3.org/2000/svg" width="32" height="32" xmlns:xlink="http://www.w3.org/1999/xlink"><defs><linearGradient id="c" x1="50%" x2="50%" y1="0%" y2="100%"><stop offset="0%" stop-color="#FFF" stop-opacity=".5"/><stop offset="100%" stop-opacity=".5"/></linearGradient><circle id="b" cx="16" cy="15" r="15"/><filter id="a" width="111.7%" height="111.7%" x="-5.8%" y="-4.2%" filterUnits="objectBoundingBox"><feOffset dy=".5" in="SourceAlpha" result="shadowOffsetOuter1"/><feGaussianBlur in="shadowOffsetOuter1" result="shadowBlurOuter1" stdDeviation=".5"/><feComposite in="shadowBlurOuter1" in2="SourceAlpha" operator="out" result="shadowBlurOuter1"/><feColorMatrix in="shadowBlurOuter1" values="0 0 0 0 0 0 0 0 0 0 0 0 0 0 0 0 0 0 0.199473505 0"/></filter><path id="e" d="M19.88 12.47l3.24-3.4c1.4 1.65 2.15 3.75 2.15 5.92 0 5.1-4.15 9.25-9.27 9.25-1.56 0-3.1-.4-4.47-1.15l8.24-4.23 1.34-.7-1.22-.85-.9-.62 2.6-1.32 1.3-.66-1.16-.87-1.82-1.38zM12.12 18L9.1 21.18c-1.47-1.64-2.37-3.8-2.37-6.2 0-5.1 4.15-9.25 9.27-9.25 1.73 0 3.44.48 4.9 1.4l-8.67 4.47-1.34.7 1.22.86.9.6-2.6 1.33-1.3.64 1.16.87L12.1 18zm-3.58 3.78l-.63.66C6.1 20.48 5 17.86 5 15 5 8.92 9.93 4 16 4c2.5 0 4.8.83 6.64 2.24l-.9.46c-1.68-1.17-3.7-1.8-5.74-1.8C10.43 4.9 5.9 9.44 5.9 15c0 2.6 1 5 2.64 6.78zM23.68 8.46l.63-.66C26 9.73 27 12.25 27 15c0 6.06-4.93 11-11 11-2.24 0-4.42-.7-6.25-1.97l.92-.47c1.6 1 3.45 1.52 5.33 1.52 5.57 0 10.1-4.52 10.1-10.1 0-2.48-.9-4.76-2.42-6.52zM10.84 15.9l3.94-2-2.13-1.5 11.83-6.1-5.96 6.28 2.64 2-3.94 2 2.13 1.48-11.83 6.1 5.96-6.27-2.64-2z"/><filter id="d" width="115.9%" height="115.9%" x="-8%" y="-5.7%" filterUnits="objectBoundingBox"><feOffset dy=".5" in="SourceAlpha" result="shadowOffsetOuter1"/><feGaussianBlur in="shadowOffsetOuter1" result="shadowBlurOuter1" stdDeviation=".5"/><feColorMatrix in="shadowBlurOuter1" values="0 0 0 0 0 0 0 0 0 0 0 0 0 0 0 0 0 0 0.204257246 0"/></filter></defs><g fill="none"><use fill="#000" filter="url(#a)" xlink:href="#b"/><use fill="#23BEE2" fill-rule="evenodd" xlink:href="#b"/><use fill="url(#c)" fill-rule="evenodd" style="mix-blend-mode:soft-light" xlink:href="#b"/><circle cx="16" cy="15" r="14.5" stroke="#000" stroke-opacity=".097"/><use fill="#000" filter="url(#d)" xlink:href="#e"/><use fill="#FFF" fill-rule="evenodd" xlink:href="#e"/></g></svg>