<svg xmlns="http://www.w3.org/2000/svg" width="32" height="32" xmlns:xlink="http://www.w3.org/1999/xlink"><defs><linearGradient id="c" x1="50%" x2="50%" y1="0%" y2="100%"><stop offset="0%" stop-color="#FFF" stop-opacity=".5"/><stop offset="100%" stop-opacity=".5"/></linearGradient><circle id="b" cx="16" cy="15" r="15"/><filter id="a" width="111.7%" height="111.7%" x="-5.8%" y="-4.2%" filterUnits="objectBoundingBox"><feOffset dy=".5" in="SourceAlpha" result="shadowOffsetOuter1"/><feGaussianBlur in="shadowOffsetOuter1" result="shadowBlurOuter1" stdDeviation=".5"/><feComposite in="shadowBlurOuter1" in2="SourceAlpha" operator="out" result="shadowBlurOuter1"/><feColorMatrix in="shadowBlurOuter1" values="0 0 0 0 0 0 0 0 0 0 0 0 0 0 0 0 0 0 0.199473505 0"/></filter><path id="e" d="M25.15 9.3c.1.06.37.2.35.5l-.02 10.42c.02.2-.1.4-.28.48-.76.44-1.54.9-2.3 1.34-.6.35-1.2.7-1.82 1.06l-4.84 2.83c-.07.05-.14.07-.22.07-.1 0-.18-.03-.27-.1L12.4 24c-1.85-1.07-3.77-2.17-5.66-3.26-.16-.08-.25-.26-.24-.46V17.5c0-2.47.02-5 .02-7.42 0-.02 0-.04 0-.06 0 0 0-.02 0-.03 0-.15 0-.43.25-.56 1.06-.63 2.15-1.27 3.2-1.9.56-.33 1.15-.68 1.73-1.02 1.32-.8 2.67-1.6 3.97-2.36.1-.05.18-.1.28-.13l.1-.04.1.05c.94.55 1.9 1.1 2.83 1.65.57.34 1.16.68 1.74 1.02.56.32 1.14.66 1.7.98.87.5 1.77 1.04 2.66 1.55.03.02.05.03.07.05zm-8.77 15.67l2.96-1.74c.67-.38 1.33-.77 2-1.16 1.1-.65 2.26-1.32 3.4-1.98v-9.73l-3.85 2.25c0 .4 0 .78 0 1.16 0 .2 0 .4 0 .6 0 1.33 0 2.38 0 3.33v.1l-.05.06c-.06.08-.14.13-.2.16l-.02.02c-.4.24-.83.48-1.24.72-.46.26-.9.53-1.38.8l-1.64.95-.02 4.46zm-4.2-12.56c.4.25.8.48 1.2.7.43.25.88.5 1.33.77l1.3.74 3.8-2.2-3.8-2.23-3.8 2.25zm-.4.67l.1 4.4 3.75 2.18v-4.38l-3.84-2.2zm-4.5-2.6l-.02 9.68 8.37 4.83v-4.45L14 19.56c-.35-.2-.7-.4-1.04-.6-.52-.3-1.07-.62-1.6-.93-.16-.07-.25-.25-.24-.45l-.1-4.96-3.75-2.15zm17.1-.74c-.5-.3-1-.58-1.48-.86-.53-.3-1.08-.63-1.62-.94-1.55-.9-3.38-1.96-5.27-3.07-2.1 1.24-3.95 2.35-5.7 3.4L7.64 9.8l3.78 2.17 4.33-2.54c.07-.05.16-.08.24-.08.1 0 .2.03.26.1l4.28 2.5 3.83-2.23zm-8 9.93c1.13-.66 2.34-1.36 3.8-2.2v-4.4l-3.8 2.2v4.4zm5.13-.8s-.05.02-.1.02c-.1 0-.2-.04-.3-.12-.1-.1-.16-.27-.12-.44.03-.16.15-.3.3-.34.04-.02.1-.02.13-.02.13 0 .25.05.34.15.13.15.16.34.08.5-.03.13-.15.23-.3.26zm2.1 1.4c-.13-.07-.2-.22-.2-.38s.1-.3.24-.38c.06-.05.14-.07.22-.07.08 0 .17.02.24.07.14.1.22.3.2.46-.02.15-.13.3-.28.36-.06.03-.12.04-.18.04-.1 0-.2-.03-.26-.1zm-13.2-2.3c.12 0 .24.05.32.15.14.15.17.34.1.5-.06.13-.18.23-.32.26-.03 0-.07.02-.1.02-.1 0-.2-.04-.28-.1-.13-.1-.2-.3-.15-.46.03-.16.16-.3.3-.34.06 0 .1-.02.14-.02zm11.95 1.57c-.12-.1-.18-.27-.16-.45.02-.16.13-.3.3-.36.03 0 .1-.02.13-.02.1 0 .22.05.3.13.13.12.18.3.14.45-.02.15-.13.28-.28.34-.06 0-.1.02-.17.02-.1 0-.2-.04-.28-.1zm-12.9-.73c.13.1.2.28.16.44 0 .14-.1.27-.24.33-.07.04-.13.05-.2.05s-.15-.02-.22-.07c-.14-.08-.23-.26-.2-.44 0-.17.1-.32.27-.37.06-.03.1-.04.17-.04.1 0 .2.03.28.1zm6.5-13.63c.14 0 .26.05.35.15.1.1.14.27.1.42-.04.17-.18.3-.37.34-.03 0-.06 0-.1 0-.15 0-.3-.07-.38-.2-.1-.13-.1-.3-.03-.45.07-.14.2-.24.35-.26.03 0 .05 0 .08 0zM8.15 19.5c.15.07.24.22.24.38 0 .15-.08.32-.2.4-.1.06-.18.08-.26.08-.08 0-.15-.02-.2-.05-.15-.06-.24-.22-.24-.4s.07-.32.22-.4c.06-.04.14-.06.2-.06.1 0 .16.02.23.06zM16.2 8.2c.14.1.22.26.2.42 0 .17-.1.3-.27.38-.06.03-.13.05-.2.05-.1 0-.2-.04-.28-.1-.12-.08-.2-.24-.18-.4 0-.16.1-.3.23-.36.07-.06.15-.08.23-.08.1 0 .18.02.26.07zm-.58-.75c-.1-.1-.16-.23-.15-.38.02-.15.1-.28.22-.35.05-.05.14-.07.23-.07.08 0 .16.02.23.06.15.1.24.26.23.4 0 .2-.1.36-.28.43-.07.03-.13.05-.2.05-.12 0-.23-.04-.3-.12z"/><filter id="d" width="118.4%" height="115.9%" x="-9.2%" y="-5.7%" filterUnits="objectBoundingBox"><feOffset dy=".5" in="SourceAlpha" result="shadowOffsetOuter1"/><feGaussianBlur in="shadowOffsetOuter1" result="shadowBlurOuter1" stdDeviation=".5"/><feColorMatrix in="shadowBlurOuter1" values="0 0 0 0 0 0 0 0 0 0 0 0 0 0 0 0 0 0 0.204257246 0"/></filter></defs><g fill="none"><use fill="#000" filter="url(#a)" xlink:href="#b"/><use fill="#2F2F2F" xlink:href="#b"/><use fill="url(#c)" style="mix-blend-mode:soft-light" xlink:href="#b"/><circle cx="16" cy="15" r="14.5" stroke="#000" stroke-opacity=".097"/><use fill="#000" filter="url(#d)" xlink:href="#e"/><use fill="#FFF" xlink:href="#e"/></g></svg>