<svg xmlns="http://www.w3.org/2000/svg" width="32" height="32" xmlns:xlink="http://www.w3.org/1999/xlink"><defs><linearGradient id="c" x1="50%" x2="50%" y1="0%" y2="100%"><stop offset="0%" stop-color="#FFF" stop-opacity=".5"/><stop offset="100%" stop-opacity=".5"/></linearGradient><circle id="b" cx="16" cy="15" r="15"/><filter id="a" width="111.7%" height="111.7%" x="-5.8%" y="-4.2%" filterUnits="objectBoundingBox"><feOffset dy=".5" in="SourceAlpha" result="shadowOffsetOuter1"/><feGaussianBlur in="shadowOffsetOuter1" result="shadowBlurOuter1" stdDeviation=".5"/><feComposite in="shadowBlurOuter1" in2="SourceAlpha" operator="out" result="shadowBlurOuter1"/><feColorMatrix in="shadowBlurOuter1" values="0 0 0 0 0 0 0 0 0 0 0 0 0 0 0 0 0 0 0.199473505 0"/></filter><path id="e" d="M16.72 9.08s-4.13.6-4.73 5.2c0 0-.66 5.13 4.6 6.5.35.1.73.15 1.1.15h.26c.53 0 1.05.22 1.43.6.36.38.6.9.6 1.43 0 1.06-.83 1.95-1.88 2.02-2.58.18-6.04-1.1-8.3-4.13 0 0-4.4-6.33.4-12.14 1.14-1.36 2.62-2.42 4.3-3.05 1.96-.74 4.84-1.2 7.35.76 0 0 3.35 2.6 1.63 6.84 0 0-1.2 3.38-5.32 3.64l-.57-.04c-.53 0-1.05-.26-1.4-.7-.35-.4-.5-.97-.4-1.5.14-.92.9-1.6 1.8-1.62l.6-.03s1.97-.1 1.8-2.43c0 0-.18-2.08-3.27-1.47"/><filter id="d" width="121.9%" height="117.5%" x="-10.9%" y="-6.2%" filterUnits="objectBoundingBox"><feOffset dy=".5" in="SourceAlpha" result="shadowOffsetOuter1"/><feGaussianBlur in="shadowOffsetOuter1" result="shadowBlurOuter1" stdDeviation=".5"/><feColorMatrix in="shadowBlurOuter1" values="0 0 0 0 0 0 0 0 0 0 0 0 0 0 0 0 0 0 0.204257246 0"/></filter></defs><g fill="none"><use fill="#000" filter="url(#a)" xlink:href="#b"/><use fill="#F68922" fill-rule="evenodd" xlink:href="#b"/><use fill="url(#c)" fill-rule="evenodd" style="mix-blend-mode:soft-light" xlink:href="#b"/><circle cx="16" cy="15" r="14.5" stroke="#000" stroke-opacity=".097"/><use fill="#000" filter="url(#d)" xlink:href="#e"/><use fill="#FFF" fill-rule="evenodd" xlink:href="#e"/></g></svg>