<svg xmlns="http://www.w3.org/2000/svg" width="32" height="32" xmlns:xlink="http://www.w3.org/1999/xlink"><defs><linearGradient id="c" x1="50%" x2="50%" y1="0%" y2="100%"><stop offset="0%" stop-color="#FFF" stop-opacity=".5"/><stop offset="100%" stop-opacity=".5"/></linearGradient><circle id="b" cx="16" cy="15" r="15"/><filter id="a" width="111.7%" height="111.7%" x="-5.8%" y="-4.2%" filterUnits="objectBoundingBox"><feOffset dy=".5" in="SourceAlpha" result="shadowOffsetOuter1"/><feGaussianBlur in="shadowOffsetOuter1" result="shadowBlurOuter1" stdDeviation=".5"/><feComposite in="shadowBlurOuter1" in2="SourceAlpha" operator="out" result="shadowBlurOuter1"/><feColorMatrix in="shadowBlurOuter1" values="0 0 0 0 0 0 0 0 0 0 0 0 0 0 0 0 0 0 0.199473505 0"/></filter><filter id="d" width="117.5%" height="116.7%" x="-8.8%" y="-6%" filterUnits="objectBoundingBox"><feOffset dy=".5" in="SourceAlpha" result="shadowOffsetOuter1"/><feGaussianBlur in="shadowOffsetOuter1" result="shadowBlurOuter1" stdDeviation=".5"/><feColorMatrix in="shadowBlurOuter1" result="shadowMatrixOuter1" values="0 0 0 0 0 0 0 0 0 0 0 0 0 0 0 0 0 0 0.204257246 0"/><feMerge><feMergeNode in="shadowMatrixOuter1"/><feMergeNode in="SourceGraphic"/></feMerge></filter></defs><g fill="none"><use fill="#000" filter="url(#a)" xlink:href="#b"/><use fill="#00FFBA" fill-rule="evenodd" xlink:href="#b"/><use fill="url(#c)" fill-rule="evenodd" style="mix-blend-mode:soft-light" xlink:href="#b"/><circle cx="16" cy="15" r="14.5" stroke="#000" stroke-opacity=".097"/><g fill="#FFF" filter="url(#d)" transform="translate(6 5)"><path d="M4.87 4.9c-.56.58-.65 1.48-.2 2.15.2.28.45.5.76.62.2.1.44.14.67.14 1.2 0 2.18 1 2.18 2.2 0 1.2-.98 2.2-2.18 2.2-2.47 0-4.7-1.5-5.63-3.76-.94-2.3-.42-4.9 1.33-6.64 0-.02 0-.02.02-.03C3.25.35 5.3-.26 7.26.12 8.3.32 9.22.78 10 1.42 8.63 2.58 7.82 4.28 7.82 6.1c0 1.2.98 2.2 2.2 2.2 0 0 0 0-.03 0-1.2 0-2.2-1-2.2-2.2 0-.34-.1-.68-.3-.96-.18-.27-.44-.5-.75-.62-.42-.18-.9-.18-1.33 0-.2.1-.4.2-.54.37-.02 0-.02 0-.03 0zm14.64 6.63c.97 2.26.48 4.86-1.22 6.6-1.73 1.8-4.36 2.35-6.66 1.42-2.28-.94-3.78-3.17-3.78-5.65 0-1.2.98-2.2 2.2-2.2 1.2 0 2.17 1 2.17 2.2 0 .34.1.68.3.96.2.27.44.5.75.62.43.18.9.18 1.34 0 .2-.1.4-.22.54-.4.15-.14.27-.32.35-.52.2-.53.15-1.14-.17-1.6-.18-.3-.45-.5-.75-.63-.2-.1-.44-.14-.67-.14-1.2 0-2.17-1-2.17-2.2 0-1.2.97-2.2 2.18-2.2 2.46 0 4.67 1.47 5.6 3.72z"/><path d="M10 11.7c1.2 0 2.18 1 2.18 2.2 0 2.48-1.5 4.72-3.8 5.65-2.3.93-4.94.37-6.67-1.42-1.67-1.76-2.15-4.36-1.2-6.6.96-2.26 3.16-3.72 5.6-3.72 1.2 0 2.2 1 2.2 2.2 0 1.2-.98 2.2-2.2 2.2-.33 0-.67.1-.95.3-.27.2-.5.44-.62.75-.18.42-.18.9 0 1.3.08.2.2.4.35.55.45.46 1.12.63 1.74.44.16-.05.3-.13.45-.22.28-.18.5-.45.62-.75.1-.2.13-.44.13-.67 0-1.2.98-2.2 2.2-2.2zm9.32-8.38c.97 1.9.88 4.14-.22 5.95-1.1 1.8-3.08 2.9-5.2 2.92-1.2 0-2.18-1-2.18-2.2 0-1.2.97-2.2 2.18-2.2.18 0 .35-.03.5-.08.17-.05.32-.12.46-.2.27-.2.5-.46.62-.77.2-.46.18-1-.05-1.44-.12-.23-.3-.43-.5-.6-.45-.3-1-.4-1.54-.25-.17.05-.3.13-.46.22-.28.18-.5.45-.62.75-.1.2-.14.44-.14.67 0 1.2-1 2.2-2.2 2.2-1.2 0-2.18-1-2.18-2.2 0-2.3 1.3-4.4 3.35-5.45 2.06-1.04 4.52-.82 6.36.55 0 0 0 0 0 .02.77.55 1.37 1.27 1.8 2.1z" opacity=".7"/></g></g></svg>