<svg xmlns="http://www.w3.org/2000/svg" width="32" height="32" xmlns:xlink="http://www.w3.org/1999/xlink"><defs><linearGradient id="c" x1="50%" x2="50%" y1="0%" y2="100%"><stop offset="0%" stop-color="#FFF" stop-opacity=".5"/><stop offset="100%" stop-opacity=".5"/></linearGradient><circle id="b" cx="16" cy="15" r="15"/><filter id="a" width="111.7%" height="111.7%" x="-5.8%" y="-4.2%" filterUnits="objectBoundingBox"><feOffset dy=".5" in="SourceAlpha" result="shadowOffsetOuter1"/><feGaussianBlur in="shadowOffsetOuter1" result="shadowBlurOuter1" stdDeviation=".5"/><feComposite in="shadowBlurOuter1" in2="SourceAlpha" operator="out" result="shadowBlurOuter1"/><feColorMatrix in="shadowBlurOuter1" values="0 0 0 0 0 0 0 0 0 0 0 0 0 0 0 0 0 0 0.199473505 0"/></filter><path id="e" d="M10.08 16.2l-2.62 2.63-1.23 1.23c-.27-.52-.5-1.07-.68-1.64C5.2 17.34 5 16.2 5 15 5 8.93 9.93 4 16 4s11 4.93 11 11-4.93 11-11 11c-2.35 0-4.52-.74-6.3-2-.46-.3-.9-.66-1.3-1.04l1.2-1.16 8.4-8.42c.08-.83.78-1.5 1.63-1.5.84 0 1.53.65 1.62 1.46l3.87 3.88c.16-.7.26-1.46.26-2.22 0-5.16-4.2-9.36-9.36-9.36-5.16 0-9.36 4.2-9.36 9.36 0 .72.1 1.42.24 2.1l2.5-2.5c.1-.77.78-1.36 1.6-1.36.78 0 1.44.57 1.58 1.33l1.58 1.58L13 17.3l-1.1-1.1c-.27.18-.58.28-.9.28-.34 0-.64-.1-.9-.26zm8.7-1.3l-7.9 7.92c1.47.97 3.23 1.54 5.12 1.54 3.75 0 7-2.23 8.5-5.42l-4.06-4.05c-.24.13-.53.2-.83.2-.3 0-.56-.07-.8-.2zm.86-2.1c-.4 0-.73.3-.73.7 0 .42.34.74.75.74.4 0 .72-.32.72-.73 0-.4-.32-.7-.72-.7zm-8.67 1.32c-.4 0-.72.32-.72.72 0 .4.32.73.72.73.4 0 .73-.33.73-.73 0-.4-.32-.72-.73-.72z"/><filter id="d" width="115.9%" height="115.9%" x="-8%" y="-5.7%" filterUnits="objectBoundingBox"><feOffset dy=".5" in="SourceAlpha" result="shadowOffsetOuter1"/><feGaussianBlur in="shadowOffsetOuter1" result="shadowBlurOuter1" stdDeviation=".5"/><feColorMatrix in="shadowBlurOuter1" values="0 0 0 0 0 0 0 0 0 0 0 0 0 0 0 0 0 0 0.204257246 0"/></filter></defs><g fill="none"><use fill="#000" filter="url(#a)" xlink:href="#b"/><use fill="#044AAC" xlink:href="#b"/><use fill="url(#c)" style="mix-blend-mode:soft-light" xlink:href="#b"/><circle cx="16" cy="15" r="14.5" stroke="#000" stroke-opacity=".097"/><use fill="#000" filter="url(#d)" xlink:href="#e"/><use fill="#FFF" xlink:href="#e"/></g></svg>