<svg xmlns="http://www.w3.org/2000/svg" width="32" height="32" xmlns:xlink="http://www.w3.org/1999/xlink"><defs><linearGradient id="c" x1="50%" x2="50%" y1="0%" y2="100%"><stop offset="0%" stop-color="#FFF" stop-opacity=".5"/><stop offset="100%" stop-opacity=".5"/></linearGradient><circle id="b" cx="16" cy="15" r="15"/><filter id="a" width="111.7%" height="111.7%" x="-5.8%" y="-4.2%" filterUnits="objectBoundingBox"><feOffset dy=".5" in="SourceAlpha" result="shadowOffsetOuter1"/><feGaussianBlur in="shadowOffsetOuter1" result="shadowBlurOuter1" stdDeviation=".5"/><feComposite in="shadowBlurOuter1" in2="SourceAlpha" operator="out" result="shadowBlurOuter1"/><feColorMatrix in="shadowBlurOuter1" values="0 0 0 0 0 0 0 0 0 0 0 0 0 0 0 0 0 0 0.199473505 0"/></filter><path id="e" d="M26 13.72c0 .04 0 .07 0 .1 0 1.23-.02 2.45-.02 3.68 0 .83 0 1.67 0 2.5 0 .08 0 .16-.02.26-.04-.02-.07-.03-.1-.05-1.55-.84-3.1-1.7-4.66-2.57-.08-.05-.1-.1-.05-.17.8-1.63.8-3.26.02-4.9-.04-.07-.03-.1.05-.16 1.55-.87 3.1-1.75 4.65-2.62.04-.02.1-.03.13-.05v4zM16.3 4c.08.05.16.1.24.14 3 1.7 6.03 3.4 9.04 5.1.04 0 .07.03.12.06-.05.02-.07.04-.1.06-1.54.86-3.08 1.72-4.62 2.58-.12.07-.12.06-.2-.05-1.03-1.45-2.43-2.28-4.2-2.48-.07 0-.12 0-.17 0-.1 0-.1-.05-.1-.15 0-1 0-2.02 0-3.04-.03-.7-.03-1.4-.03-2.1 0-.04 0-.1.02-.14zm-.62 22c-.03-.02-.06-.05-.1-.07-3.04-1.7-6.08-3.42-9.12-5.13-.04-.02-.08-.05-.14-.08.04-.03.07-.05.1-.07 1.53-.85 3.06-1.7 4.6-2.56.08-.07.12-.06.18.02.95 1.33 2.26 2.1 3.9 2.38.17.04.34.05.5.06.1 0 .14.03.14.13 0 .9 0 1.77 0 2.67 0 .85 0 1.7 0 2.54 0 .04 0 .06 0 .1h-.06zM6 19.45c0-.03.02-.06.02-.1 0-.4 0-.83 0-1.25 0-.95 0-1.9 0-2.83 0-1.5.02-2.97.02-4.46 0-.3 0-.62 0-.94 0-.03 0-.06 0-.1.06.02.1.03.12.05 1.52.86 3.04 1.7 4.56 2.56.1.05.1.08.06.18-.8 1.64-.8 3.28 0 4.92.07.14.07.13-.06.2-1.53.87-3.06 1.73-4.6 2.58-.02.02-.08.03-.12.04v-.82zm13.47-.93c.17-.57.22-1.15.18-1.74-.04-.7-.22-1.4-.6-2.02-.42-.72-1.04-1.25-1.8-1.63-.2-.1-.22-.05-.1-.3.27-.56.74-.9 1.32-1.13.4-.16.82-.23 1.25-.25.06 0 .13.03.16.07.74.78 1.2 1.7 1.34 2.74.4 2.6-1.3 5.05-3.95 5.7-2.93.72-5.9-1.08-6.5-3.94-.57-2.68 1.14-5.27 3.7-5.95 1.93-.52 3.63-.1 5.12 1.16.04.05.1.1.15.15 0 0 0 .02-.02.03-.14 0-.3-.02-.44-.03-.9-.1-1.8-.03-2.7.27-1.1.38-1.93 1.1-2.5 2.1-.1.13-.1.13-.24.08-.2-.06-.37-.18-.52-.33-.3-.3-.5-.66-.63-1.05-.1-.34-.2-.7-.3-1.04 0-.02 0-.05-.03-.1 0 .1-.03.18-.04.26 0 .08-.02.16-.03.24-.08.88-.03 1.76.28 2.62.38 1.06 1.1 1.82 2.16 2.3.14.05.14.05.06.18-.4.66-1 1-1.76 1.1-.35.06-.7.04-1.06.02.03 0 .06.02.1.04 1.73.6 3.63.32 5.06-1.2.36-.38.67-.8.94-1.26.06-.1.07-.12.18-.03.47.34.75.8.94 1.33.18.48.25 1 .27 1.5 0 .04 0 .08 0 .12zm6.27 2.2c-3.16 1.77-6.3 3.5-9.46 5.26 0-.05 0-.1 0-.12 0-1.73 0-3.46-.02-5.2 0-.07.03-.1.1-.1 1.85-.15 3.3-.96 4.38-2.43.1-.12.1-.13.23-.05 1.55.86 3.1 1.72 4.64 2.58.06.02.1.04.15.07zm-10-16.68c0 .05 0 .1 0 .12 0 1.7 0 3.4 0 5.12 0 .08 0 .12-.1.13-1.88.15-3.37.97-4.45 2.46-.1.12-.1.12-.23.05-1.5-.83-3.02-1.66-4.52-2.5-.06-.03-.1-.07-.16-.1.04-.04.1-.1.15-.1 3.03-1.7 6.07-3.38 9.1-5.06.06-.03.1-.06.18-.1z"/><filter id="d" width="117.5%" height="115.9%" x="-8.8%" y="-5.7%" filterUnits="objectBoundingBox"><feOffset dy=".5" in="SourceAlpha" result="shadowOffsetOuter1"/><feGaussianBlur in="shadowOffsetOuter1" result="shadowBlurOuter1" stdDeviation=".5"/><feColorMatrix in="shadowBlurOuter1" values="0 0 0 0 0 0 0 0 0 0 0 0 0 0 0 0 0 0 0.204257246 0"/></filter></defs><g fill="none"><use fill="#000" filter="url(#a)" xlink:href="#b"/><use fill="#FFAA5C" xlink:href="#b"/><use fill="url(#c)" style="mix-blend-mode:soft-light" xlink:href="#b"/><circle cx="16" cy="15" r="14.5" stroke="#000" stroke-opacity=".097"/><use fill="#000" filter="url(#d)" xlink:href="#e"/><use fill="#FFF" xlink:href="#e"/></g></svg>