<svg xmlns="http://www.w3.org/2000/svg" width="32" height="32" xmlns:xlink="http://www.w3.org/1999/xlink"><defs><linearGradient id="c" x1="50%" x2="50%" y1="0%" y2="100%"><stop offset="0%" stop-color="#FFF" stop-opacity=".5"/><stop offset="100%" stop-opacity=".5"/></linearGradient><circle id="b" cx="16" cy="15" r="15"/><filter id="a" width="111.7%" height="111.7%" x="-5.8%" y="-4.2%" filterUnits="objectBoundingBox"><feOffset dy=".5" in="SourceAlpha" result="shadowOffsetOuter1"/><feGaussianBlur in="shadowOffsetOuter1" result="shadowBlurOuter1" stdDeviation=".5"/><feComposite in="shadowBlurOuter1" in2="SourceAlpha" operator="out" result="shadowBlurOuter1"/><feColorMatrix in="shadowBlurOuter1" values="0 0 0 0 0 0 0 0 0 0 0 0 0 0 0 0 0 0 0.199473505 0"/></filter><path id="e" d="M8 23.25c0-.05.03-.1.04-.17.16-.6.56-.97 1.17-1.13.64-.17 1.2-.1 1.76.25.17.12.3.27.4.46 0 .05.06.1.1.14.03-.04.1-.08.1-.14.14-.34.3-.7.4-1.05.52-1.92 1.05-3.86 1.58-5.8.02-.07.03-.15.05-.25-.15 0-.28 0-.4 0-.45 0-.9 0-1.34-.02-.6-.05-1-.42-1-1-.02-.48.27-.86.83-.96.4-.07.8-.04 1.2-.05.4 0 .77 0 1.16 0 .03 0 .1-.03.1-.06.1-.35.2-.7.28-1.04 0-.02 0-.04 0-.08-.44 0-.87 0-1.3 0-.34-.02-.67-.1-.95-.3-.37-.23-.46-.58-.4-.96.05-.4.3-.65.7-.76.14-.04.3-.05.44-.06.62 0 1.25 0 1.87 0 .16 0 .23-.04.3-.16.2-.44.4-.87.64-1.3.44-.75.96-1.46 1.6-2.07.84-.8 1.83-1.38 3.02-1.6.8-.13 1.6-.17 2.36.1.48.16.83.46 1.04.88.14.28.27.55.26.87-.04.9-.8 1.47-1.5 1.5-.53 0-1-.13-1.35-.52-.33-.36-.37-.78-.24-1.23.02-.04.04-.08.05-.1l-.03-.05c-.07.05-.14.08-.2.14-.3.3-.55.6-.75 1-.42.74-.72 1.53-.97 2.35 0 .03 0 .05 0 .1.2 0 .42 0 .63 0 .3 0 .6 0 .9.1.36.14.63.36.7.73.08.38 0 .68-.35.97-.3.24-.62.3-1 .3-.45.02-.93.02-1.4.03-.06 0-.1 0-.13.08-.08.33-.16.65-.24.98 0 0 0 .03 0 .06.33 0 .66-.02 1 0 .35 0 .68.1.94.35.3.32.36.77.1 1.12-.1.12-.2.22-.3.33-.2.23-.46.3-.74.32-.5.02-1 .02-1.48.02-.14 0-.2.04-.22.16-.18.7-.34 1.4-.54 2.08-.4 1.4-.83 2.76-1.54 4.03-.35.64-.77 1.2-1.3 1.7-.73.73-1.6 1.2-2.66 1.4-.72.13-1.44.17-2.15-.04-.6-.18-1-.56-1.17-1.15-.02-.05-.04-.1-.05-.17v-.27z"/><filter id="d" width="121.9%" height="117.5%" x="-10.9%" y="-6.2%" filterUnits="objectBoundingBox"><feOffset dy=".5" in="SourceAlpha" result="shadowOffsetOuter1"/><feGaussianBlur in="shadowOffsetOuter1" result="shadowBlurOuter1" stdDeviation=".5"/><feColorMatrix in="shadowBlurOuter1" values="0 0 0 0 0 0 0 0 0 0 0 0 0 0 0 0 0 0 0.204257246 0"/></filter></defs><g fill="none"><use fill="#000" filter="url(#a)" xlink:href="#b"/><use fill="#C99705" xlink:href="#b"/><use fill="url(#c)" style="mix-blend-mode:soft-light" xlink:href="#b"/><circle cx="16" cy="15" r="14.5" stroke="#000" stroke-opacity=".097"/><use fill="#000" filter="url(#d)" xlink:href="#e"/><use fill="#FFF" xlink:href="#e"/></g></svg>