<svg xmlns="http://www.w3.org/2000/svg" width="32" height="32" xmlns:xlink="http://www.w3.org/1999/xlink"><defs><linearGradient id="c" x1="50%" x2="50%" y1="0%" y2="100%"><stop offset="0%" stop-color="#FFF" stop-opacity=".5"/><stop offset="100%" stop-opacity=".5"/></linearGradient><circle id="b" cx="16" cy="15" r="15"/><filter id="a" width="111.7%" height="111.7%" x="-5.8%" y="-4.2%" filterUnits="objectBoundingBox"><feOffset dy=".5" in="SourceAlpha" result="shadowOffsetOuter1"/><feGaussianBlur in="shadowOffsetOuter1" result="shadowBlurOuter1" stdDeviation=".5"/><feComposite in="shadowBlurOuter1" in2="SourceAlpha" operator="out" result="shadowBlurOuter1"/><feColorMatrix in="shadowBlurOuter1" values="0 0 0 0 0 0 0 0 0 0 0 0 0 0 0 0 0 0 0.199473505 0"/></filter><path id="e" d="M24.6 5s1.65 1.46.48 4.44c-.22.55-.53 1.06-.9 1.5l-4.08 4.78-3.26 4.26s-3.75-.62-5.2.9l6.17.27s-1.3 1.44-6.5.4c0 0 .07 1.45 2.43 1.87 0 0-2.08.68-3.33-1.3 0 0 0 1.44 1.45 2.05 0 0-1.18.28-2.16-.96L8 25s-.35.06-.14-.28l1.38-1.65s.14-1.17-.7-.76c0 0-.55.23-.34.85 0 0-.84-.68.14-1.58L6.5 19.7 8.93 21 7.9 18.48l1.72 2.2s-.14-2.48.62-3.16c0 0 .2 2.4 1.18 2.62l-.07-5.02 1.04-.9.12 3.17s.28.33.55-.08c0 0 .63-1.03.63-4.06l1.67-1.58.2 1.24s.3.48.64.07l.36-2.4S18.76 8 24.6 5zM13.5 18.95c5.76-5.3 8.8-10.44 8.8-10.44-2.84 2-8.8 10.46-8.8 10.46z"/><filter id="d" width="118.4%" height="117.5%" x="-9.2%" y="-6.2%" filterUnits="objectBoundingBox"><feOffset dy=".5" in="SourceAlpha" result="shadowOffsetOuter1"/><feGaussianBlur in="shadowOffsetOuter1" result="shadowBlurOuter1" stdDeviation=".5"/><feColorMatrix in="shadowBlurOuter1" values="0 0 0 0 0 0 0 0 0 0 0 0 0 0 0 0 0 0 0.204257246 0"/></filter></defs><g fill="none"><use fill="#000" filter="url(#a)" xlink:href="#b"/><use fill="#27323A" fill-rule="evenodd" xlink:href="#b"/><use fill="url(#c)" fill-rule="evenodd" style="mix-blend-mode:soft-light" xlink:href="#b"/><circle cx="16" cy="15" r="14.5" stroke="#000" stroke-opacity=".097"/><use fill="#000" filter="url(#d)" xlink:href="#e"/><use fill="#FFF" fill-rule="evenodd" xlink:href="#e"/></g></svg>