<svg xmlns="http://www.w3.org/2000/svg" width="32" height="32" xmlns:xlink="http://www.w3.org/1999/xlink"><defs><linearGradient id="c" x1="50%" x2="50%" y1="0%" y2="100%"><stop offset="0%" stop-color="#FFF" stop-opacity=".5"/><stop offset="100%" stop-opacity=".5"/></linearGradient><circle id="b" cx="16" cy="15" r="15"/><filter id="a" width="111.7%" height="111.7%" x="-5.8%" y="-4.2%" filterUnits="objectBoundingBox"><feOffset dy=".5" in="SourceAlpha" result="shadowOffsetOuter1"/><feGaussianBlur in="shadowOffsetOuter1" result="shadowBlurOuter1" stdDeviation=".5"/><feComposite in="shadowBlurOuter1" in2="SourceAlpha" operator="out" result="shadowBlurOuter1"/><feColorMatrix in="shadowBlurOuter1" values="0 0 0 0 0 0 0 0 0 0 0 0 0 0 0 0 0 0 0.199473505 0"/></filter><path id="e" d="M22.2 6.14c.1.07.17.13.25.2.2.17.4.34.6.53.14.14.28.3.43.45 0 0 .02.04.02.06-.1.35-.23.67-.4.98-.17.27-.35.5-.57.73-.3.3-.6.53-.97.74-.15.1-.3.17-.47.25-.53.25-1.07.4-1.6.5-.4.06-.77.1-1.15.16-.5.07-1 .13-1.5.2-.72.1-1.43.27-2.1.6-.76.33-1.38.84-1.8 1.6-.28.5-.4 1.03-.4 1.6.02 1.12.4 2.08 1.05 2.93.4.5.87.97 1.35 1.4.33.3.67.6 1 .9.42.4.85.78 1.2 1.24.2.24.4.48.55.75.28.43.5.9.65 1.42.08.28.12.57.15.86.03.43 0 .86-.12 1.28-.04.18-.04.18-.2.2-.25.05-.5.1-.74.14-.17.03-.35.04-.53.06-.04 0-.1.02-.17.02 0 0-.02 0-.04 0 0 0 0-.03 0-.04.05-.14.1-.28.16-.43.1-.3.2-.62.23-.95.05-.6-.05-1.15-.3-1.67-.2-.36-.44-.66-.7-.95-.38-.4-.8-.74-1.2-1.08-.7-.58-1.38-1.18-2-1.85-.36-.4-.7-.84-1-1.3-.32-.5-.6-1.03-.77-1.6-.27-.9-.28-1.82-.02-2.73.15-.52.35-1 .65-1.44.4-.57.93-1 1.52-1.33.6-.33 1.24-.55 1.9-.72.53-.12 1.07-.22 1.6-.3.62-.06 1.23-.12 1.84-.2.5-.05 1-.12 1.48-.27.44-.13.84-.34 1.18-.66.3-.27.5-.6.66-.97.15-.36.22-.72.27-1.1 0-.08 0-.16.02-.26zm-7.06 12.83c.22-.05.43-.08.63-.13.54-.12 1.06-.26 1.55-.5.5-.26.9-.6 1.27-1 .34-.44.64-.9.8-1.46.1-.36.12-.72.1-1.08-.07-.76-.33-1.45-.74-2.07-.32-.47-.7-.9-1.08-1.3-.08-.06-.16-.13-.23-.2 0 0 0-.02-.03-.04.13-.04.26-.06.38-.08.27-.04.55-.08.82-.12.15 0 .3-.04.44-.06 0 0 .04.02.05.04.27.3.53.6.77.9.3.4.58.83.8 1.3.2.4.34.85.4 1.3.06.34.08.66.05 1-.1.9-.37 1.75-.9 2.48-.34.46-.74.83-1.2 1.14-.55.37-1.13.63-1.74.83-.25.08-.52.15-.78.23-.03 0-.06 0-.08-.02-.42-.38-.85-.76-1.27-1.14 0 0-.02-.02-.03-.03zm2.12-9.7c-.23.03-.44.06-.65.1-.22.04-.46.07-.7.1-.1.02-.18.04-.27.05-.02 0-.06 0-.08-.03-.28-.28-.55-.55-.8-.85-.12-.17-.25-.33-.36-.5-.4-.6-.7-1.26-.84-1.98-.1-.63-.08-1.25.1-1.86 0-.03.02-.05.07-.06.27-.05.53-.1.8-.15.22-.05.45-.07.67-.1.04 0 .1 0 .17 0-.02.03-.03.05-.04.07-.18.4-.33.8-.4 1.24-.08.6 0 1.2.28 1.73.24.45.55.83.9 1.17.34.37.73.7 1.12 1.02.02 0 .03.03.06.05zm-3.18 11.3c-.15 0-.3.02-.42.03-.18.02-.36.03-.54.06-.28.05-.56.1-.83.15-1.03.24-1.8.77-2.23 1.8-.16.37-.28.75-.35 1.15 0 .02 0 .04-.02.07-.04-.03-.1-.07-.15-.1-.2-.2-.4-.36-.6-.54-.13-.14-.26-.28-.4-.4-.05-.06-.06-.1-.04-.17.2-.7.58-1.3 1.1-1.8.33-.3.7-.55 1.1-.77.57-.3 1.18-.5 1.8-.62.07 0 .14-.02.2-.04.06 0 .1 0 .1.03.2.17.4.35.6.52.2.2.4.4.64.6 0 .02.03.03.05.06zm4.33-4.4c-.03 0-.1 0-.13-.03-1.15-.36-2.3-.72-3.45-1.08-.43-.14-.88-.27-1.32-.4-.17-.07-.25-.2-.24-.35.02-.2.1-.33.28-.37.06 0 .1 0 .17 0 .37.13.74.25 1.1.36.9.27 1.78.54 2.66.82.35.12.7.22 1.05.33.18.06.28.2.26.37-.03.23-.16.37-.34.38zm-7.27 6.5c.03 0 .07.02.1.03 1.6.5 3.2 1 4.8 1.5.18.05.27.2.26.35-.03.22-.14.37-.3.38-.07 0-.1 0-.17-.02-1.33-.4-2.65-.8-3.97-1.22-.28-.1-.56-.17-.83-.26-.15-.04-.26-.17-.25-.32.02-.2.1-.35.27-.4.02 0 .05 0 .08 0zM21.25 6.9c-.02.05-.04.15-.08.22-.07.13-.2.18-.35.13-.78-.24-1.55-.48-2.32-.72-.83-.26-1.66-.52-2.5-.78-.13-.04-.23-.12-.25-.28-.02-.18.06-.43.3-.45.04 0 .1 0 .13.02 1.6.5 3.2 1 4.82 1.5.16.05.25.17.25.37zm-6.92 6.47c0-.2.1-.36.26-.4.05 0 .12 0 .2.02.46.13.95.3 1.43.43.6.2 1.22.38 1.83.57.18.07.28.23.25.4-.03.23-.17.37-.35.35-.1 0-.2-.05-.28-.08-.8-.25-1.6-.5-2.4-.74-.23-.08-.47-.15-.7-.23-.16-.05-.25-.17-.25-.33zm-.33 1.9c.07 0 .1.02.16.03 1 .32 2 .63 3.02.95.08.02.17.05.25.07.18.06.27.24.23.43-.04.16-.1.28-.27.3-.07 0-.13 0-.18 0-.38-.13-.77-.25-1.15-.37-.7-.22-1.42-.44-2.14-.66-.13-.04-.23-.12-.25-.27-.04-.16 0-.3.13-.4.06-.05.13-.06.18-.1zm-2.78 9.18c0-.22.1-.38.3-.4.04 0 .1 0 .13 0 1.1.35 2.2.7 3.32 1.04.18.04.27.22.22.4-.06.16-.14.3-.3.3 0 0-.06 0-.08 0-1.04-.3-2.08-.63-3.1-.96-.1-.02-.2-.05-.3-.08-.12-.05-.2-.17-.2-.32zm1-2.72c.02 0 .06.02.1.03 1.1.34 2.2.68 3.3 1.02.15.05.25.2.23.35 0 .2-.12.36-.3.38-.05.03-.1 0-.16 0-.9-.3-1.8-.55-2.67-.83-.2-.07-.43-.13-.64-.2-.16-.05-.25-.18-.24-.33.02-.2.1-.34.27-.4.02 0 .04 0 .07 0zm7.62-13.56c-.1-.03-.22-.06-.32-.1-1.03-.32-2.06-.64-3.08-.96-.2-.04-.3-.2-.24-.43.04-.14.1-.24.25-.27.05-.02.12-.02.18 0 .9.28 1.82.56 2.73.85.2.06.4.12.58.18.15.05.25.2.23.36-.02.1-.06.24-.18.3-.07.03-.1.04-.17.06zm.98-2.7c-.02.13-.05.28-.2.35-.1.04-.17.03-.25 0-.8-.24-1.58-.5-2.37-.73-.3-.1-.6-.2-.92-.3-.2-.07-.28-.24-.23-.45.04-.14.1-.25.25-.28.06 0 .13 0 .2 0 .6.2 1.23.4 1.85.6.47.14.95.3 1.42.44.16.06.25.18.25.36z"/><filter id="d" width="123.3%" height="115.9%" x="-11.7%" y="-5.7%" filterUnits="objectBoundingBox"><feOffset dy=".5" in="SourceAlpha" result="shadowOffsetOuter1"/><feGaussianBlur in="shadowOffsetOuter1" result="shadowBlurOuter1" stdDeviation=".5"/><feColorMatrix in="shadowBlurOuter1" values="0 0 0 0 0 0 0 0 0 0 0 0 0 0 0 0 0 0 0.204257246 0"/></filter></defs><g fill="none"><use fill="#000" filter="url(#a)" xlink:href="#b"/><use fill="#C40E09" xlink:href="#b"/><use fill="url(#c)" style="mix-blend-mode:soft-light" xlink:href="#b"/><circle cx="16" cy="15" r="14.5" stroke="#000" stroke-opacity=".097"/><use fill="#000" filter="url(#d)" xlink:href="#e"/><use fill="#FFF" xlink:href="#e"/></g></svg>