<svg xmlns="http://www.w3.org/2000/svg" width="32" height="32" xmlns:xlink="http://www.w3.org/1999/xlink"><defs><linearGradient id="c" x1="50%" x2="50%" y1="0%" y2="100%"><stop offset="0%" stop-color="#FFF" stop-opacity=".5"/><stop offset="100%" stop-opacity=".5"/></linearGradient><circle id="b" cx="16" cy="15" r="15"/><filter id="a" width="111.7%" height="111.7%" x="-5.8%" y="-4.2%" filterUnits="objectBoundingBox"><feOffset dy=".5" in="SourceAlpha" result="shadowOffsetOuter1"/><feGaussianBlur in="shadowOffsetOuter1" result="shadowBlurOuter1" stdDeviation=".5"/><feComposite in="shadowBlurOuter1" in2="SourceAlpha" operator="out" result="shadowBlurOuter1"/><feColorMatrix in="shadowBlurOuter1" values="0 0 0 0 0 0 0 0 0 0 0 0 0 0 0 0 0 0 0.199473505 0"/></filter><path id="e" d="M12.84 25.54c-1.26-.35-2.43-.94-3.45-1.76-1-.76-1.88-1.68-2.58-2.72-.74-1.1-1.27-2.32-1.57-3.6-.35-1.55-.35-3.15 0-4.7.3-1.3.8-2.54 1.48-3.7 1-1.58 2.43-2.87 4.13-3.7.6-.3 1.23-.57 1.87-.78 1 1.17 1.97 2.44 2.96 3.7.1.2.3.3.4.5-1 .04-1.98.27-2.88.68-.8.4-1.5.97-2.06 1.65-.57.76-1 1.58-1.28 2.46-.28 1.06-.24 2.17.1 3.22l4.22-3.32c.98 1.27 1.97 2.44 2.95 3.7-1.37 1.08-2.85 2.15-4.23 3.32 1.38 1.75 2.86 3.6 4.23 5.46-1.45.17-2.93.04-4.33-.4zm9.38-11.8c-.03-.17-.07-.33-.12-.48-.14.1-3.07 2.32-4.24 3.3-.98-1.25-1.97-2.42-2.95-3.7 1.4-1.06 2.87-2.14 4.25-3.3-1.38-1.76-2.75-3.5-4.23-5.37 0-.1-.1-.1-.1-.2h1.4c2.52 0 4.95.9 6.88 2.52.94.77 1.74 1.7 2.37 2.73.73 1.12 1.2 2.38 1.37 3.7.27 1.53.23 3.08-.1 4.6-.28 1.25-.8 2.44-1.57 3.5-.66 1-1.5 1.9-2.46 2.63-.94.8-2.05 1.4-3.25 1.74-.9-1.07-1.68-2.05-2.46-3.12-.3-.33-.57-.7-.8-1.07 1.9 0 3.67-.86 4.82-2.34.58-.7.98-1.55 1.2-2.44.18-.74.2-1.65.02-2.74zm-4.65 8.15c.62.82 1.24 1.6 2.12 2.7.9-.35 1.76-.84 2.53-1.5.9-.68 1.68-1.5 2.3-2.48.7-.97 1.2-2.07 1.46-3.24.3-1.42.33-2.88.1-4.34-.18-1.2-.6-2.37-1.3-3.42-.58-.97-1.3-1.83-2.2-2.55-1.78-1.5-4-2.33-6.33-2.37.9 1.15 1.83 2.32 3.45 4.38l.43.56-.54.45c-.6.53-1.27 1.05-2.13 1.72-.07.05-.9.7-1.53 1.17.25.3.55.7 1 1.25.47.57.77.94 1.03 1.26.45-.36.95-.75 1.55-1.2.1-.08 1.67-1.28 2.1-1.63l.85-.65.32 1c.36 1.18.4 2.43.1 3.6-.23 1-.68 1.93-1.3 2.73-1 1.3-2.47 2.18-4.07 2.5 0 0 .02.02.03.03z"/><filter id="d" width="113.6%" height="113.6%" x="-6.8%" y="-6.8%" filterUnits="objectBoundingBox"><feOffset in="SourceAlpha" result="shadowOffsetOuter1"/><feGaussianBlur in="shadowOffsetOuter1" result="shadowBlurOuter1" stdDeviation=".5"/><feColorMatrix in="shadowBlurOuter1" values="0 0 0 0 0 0 0 0 0 0 0 0 0 0 0 0 0 0 0.204257246 0"/></filter></defs><g fill="none"><use fill="#000" filter="url(#a)" xlink:href="#b"/><use fill="#ED1968" xlink:href="#b"/><use fill="url(#c)" style="mix-blend-mode:soft-light" xlink:href="#b"/><circle cx="16" cy="15" r="14.5" stroke="#000" stroke-opacity=".097"/><use fill="#000" filter="url(#d)" xlink:href="#e"/><use fill="#FFF" fill-rule="evenodd" xlink:href="#e"/></g></svg>