<svg xmlns="http://www.w3.org/2000/svg" width="32" height="32" xmlns:xlink="http://www.w3.org/1999/xlink"><defs><linearGradient id="c" x1="50%" x2="50%" y1="0%" y2="100%"><stop offset="0%" stop-color="#FFF" stop-opacity=".5"/><stop offset="100%" stop-opacity=".5"/></linearGradient><circle id="b" cx="16" cy="15" r="15"/><filter id="a" width="111.7%" height="111.7%" x="-5.8%" y="-4.2%" filterUnits="objectBoundingBox"><feOffset dy=".5" in="SourceAlpha" result="shadowOffsetOuter1"/><feGaussianBlur in="shadowOffsetOuter1" result="shadowBlurOuter1" stdDeviation=".5"/><feComposite in="shadowBlurOuter1" in2="SourceAlpha" operator="out" result="shadowBlurOuter1"/><feColorMatrix in="shadowBlurOuter1" values="0 0 0 0 0 0 0 0 0 0 0 0 0 0 0 0 0 0 0.199473505 0"/></filter><path id="e" d="M21 8.86c1.7 1.33 2.78 3.3 3 5.42l-2.85-.7c-.5-1.76-1.94-3.2-3.86-3.68-2.88-.7-5.78 1-6.48 3.8-.7 2.82 1.05 5.68 3.92 6.4 1.92.47 3.85-.13 5.13-1.43l2.85.7c-1.2 1.78-3.1 3-5.2 3.4l-.8 3.23-2.6-.65.63-2.57c-.2-.04-.43-.08-.65-.14-.2-.05-.42-.1-.63-.18l-.65 2.57-2.6-.64.82-3.27c-2.38-1.87-3.58-5-2.8-8.08.76-3.08 3.3-5.28 6.27-5.82L15.34 4l2.6.65-.64 2.57c.2.04.42.08.64.14.22.05.43.1.64.18l.65-2.57 2.6.64L21 8.88z"/><filter id="d" width="121.9%" height="115.9%" x="-10.9%" y="-5.7%" filterUnits="objectBoundingBox"><feOffset dy=".5" in="SourceAlpha" result="shadowOffsetOuter1"/><feGaussianBlur in="shadowOffsetOuter1" result="shadowBlurOuter1" stdDeviation=".5"/><feColorMatrix in="shadowBlurOuter1" values="0 0 0 0 0 0 0 0 0 0 0 0 0 0 0 0 0 0 0.204257246 0"/></filter></defs><g fill="none"><use fill="#000" filter="url(#a)" xlink:href="#b"/><use fill="#EFB914" fill-rule="evenodd" xlink:href="#b"/><use fill="url(#c)" fill-rule="evenodd" style="mix-blend-mode:soft-light" xlink:href="#b"/><circle cx="16" cy="15" r="14.5" stroke="#000" stroke-opacity=".097"/><use fill="#000" filter="url(#d)" xlink:href="#e"/><use fill="#FFF" xlink:href="#e"/></g></svg>