<svg xmlns="http://www.w3.org/2000/svg" width="32" height="32" xmlns:xlink="http://www.w3.org/1999/xlink"><defs><linearGradient id="c" x1="50%" x2="50%" y1="0%" y2="100%"><stop offset="0%" stop-color="#FFF" stop-opacity=".5"/><stop offset="100%" stop-opacity=".5"/></linearGradient><circle id="b" cx="16" cy="15" r="15"/><filter id="a" width="111.7%" height="111.7%" x="-5.8%" y="-4.2%" filterUnits="objectBoundingBox"><feOffset dy=".5" in="SourceAlpha" result="shadowOffsetOuter1"/><feGaussianBlur in="shadowOffsetOuter1" result="shadowBlurOuter1" stdDeviation=".5"/><feComposite in="shadowBlurOuter1" in2="SourceAlpha" operator="out" result="shadowBlurOuter1"/><feColorMatrix in="shadowBlurOuter1" values="0 0 0 0 0 0 0 0 0 0 0 0 0 0 0 0 0 0 0.199473505 0"/></filter><path id="e" d="M24.78 9.5l.2.33c1 1.68 1.52 3.6 1.52 5.54C26.48 21.24 21.78 26 16 26h-.02C10.2 26 5.48 21.2 5.5 15.33c0-1.97.54-3.88 1.54-5.54l.18-.33.96.98c-.18.27-.34.57-.45.9-.76 2.1.33 4.45 2.43 5.22 1.25.44 2.58.24 3.6-.46L16 18.4l2.56-2.6c.23.17.5.3.8.4 2.04.75 4.3-.34 5.02-2.4.43-1.2.23-2.48-.4-3.5l.8-.8zM9.36 11.65l3 3.04c-.35.27-.8.44-1.3.44-1.17 0-2.13-.98-2.13-2.17 0-.5.16-.96.43-1.33zm10.5 2.85l2.98-3c.23.34.36.76.36 1.2 0 1.2-.96 2.17-2.14 2.17-.45 0-.85-.13-1.2-.37zm-3.82 2.28L7.37 7.95l.34-.36C9.87 5.3 12.8 4 15.9 4h.03c3.17 0 6.22 1.38 8.34 3.77l.33.37-8.56 8.64zM8.78 7.95l7.26 7.38L23.2 8.1c-1.92-1.95-4.53-3.07-7.25-3.07h-.02c-2.7 0-5.23 1.03-7.15 2.92z"/><filter id="d" width="116.7%" height="115.9%" x="-8.3%" y="-5.7%" filterUnits="objectBoundingBox"><feOffset dy=".5" in="SourceAlpha" result="shadowOffsetOuter1"/><feGaussianBlur in="shadowOffsetOuter1" result="shadowBlurOuter1" stdDeviation=".5"/><feColorMatrix in="shadowBlurOuter1" values="0 0 0 0 0 0 0 0 0 0 0 0 0 0 0 0 0 0 0.204257246 0"/></filter></defs><g fill="none"><use fill="#000" filter="url(#a)" xlink:href="#b"/><use fill="#00A6C4" xlink:href="#b"/><use fill="url(#c)" style="mix-blend-mode:soft-light" xlink:href="#b"/><circle cx="16" cy="15" r="14.5" stroke="#000" stroke-opacity=".097"/><use fill="#000" filter="url(#d)" xlink:href="#e"/><use fill="#FFF" fill-rule="evenodd" xlink:href="#e"/></g></svg>