<svg xmlns="http://www.w3.org/2000/svg" width="32" height="32" xmlns:xlink="http://www.w3.org/1999/xlink"><defs><linearGradient id="c" x1="50%" x2="50%" y1="0%" y2="100%"><stop offset="0%" stop-color="#FFF" stop-opacity=".5"/><stop offset="100%" stop-opacity=".5"/></linearGradient><circle id="b" cx="16" cy="15" r="15"/><filter id="a" width="111.7%" height="111.7%" x="-5.8%" y="-4.2%" filterUnits="objectBoundingBox"><feOffset dy=".5" in="SourceAlpha" result="shadowOffsetOuter1"/><feGaussianBlur in="shadowOffsetOuter1" result="shadowBlurOuter1" stdDeviation=".5"/><feComposite in="shadowBlurOuter1" in2="SourceAlpha" operator="out" result="shadowBlurOuter1"/><feColorMatrix in="shadowBlurOuter1" values="0 0 0 0 0 0 0 0 0 0 0 0 0 0 0 0 0 0 0.199473505 0"/></filter><path id="e" d="M23.15 28.2c.02-.03.05-.05.08-.07-.22-.4-.57-.6-.97-.7-.57-.13-1.14-.26-1.72-.3-1.28-.1-2.57-.1-3.85-.2-1.45-.08-2.88-.2-4.3-.3-.14 0-.3.04-.4.13-.37.46-.73.93-1.07 1.42-.16.24-.26.52-.4.78.04.02.07.04.1.06-.56-.22-1.1-.47-1.64-.75.1.02.2 0 .26-.04.6-.6 1.16-1.2 1.73-1.8-.44-.34-.86-.64-1.24-1-.35-.3-.5-.73-.47-1.22.04-.73.37-1.36.85-1.9.57-.63 1.2-1.2 1.8-1.8.1-.06.17-.13.24-.2-.04-.03-.04-.05-.05-.05-.06-.04-.12-.07-.18-.1-1.95-1.13-2.93-2.85-2.95-5.1-.03-1.9.8-3.45 2.23-4.68 1.4-1.2 3.07-1.6 4.88-1.57 1.35.02 2.6.32 3.78 1 .07.02.24-.02.3-.08.55-.58 1.1-1.16 1.63-1.77.65-.76 1.2-1.58 1.42-2.58.18-.78.1-1.5-.46-2.1-.84-.9-2.26-.78-2.98.23-.15.2-.23.44-.37.65-.05.07-.18.1-.28.14-.02-.1-.07-.2-.06-.27.04-.2.08-.43.15-.63.36-1.02 1.02-1.7 2.13-1.87.35-.05.73 0 1.1 0 0-.03-.02-.05-.04-.06-.07-.04-.14-.07-.2-.1-.73-.33-1.46-.6-2.2-.8 1.43.4 2.76 1 3.98 1.76 0 .08 0 .1 0 .12.84 1.02.73 2.1.2 3.2-.43.94-1.08 1.73-1.77 2.48-.64.7-1.28 1.37-1.92 2.06.02 0 .04.02.05.02.98 0 1.97 0 2.95 0 .5-.02.96-.2 1.28-.64.07-.1.23-.1.35-.16.02.03.04.06.06.1-.26.77-.53 1.56-.8 2.33-.03.07-.17.12-.26.13-.35 0-.7 0-1.04 0-.4 0-.8 0-1.24 0 .06.13.1.2.14.28.68 1.33.86 2.73.5 4.16-.5 2.1-1.87 3.47-3.88 4.18-1.63.58-3.32.56-5 .16-.15-.04-.38-.07-.46 0-.36.37-.74.74-1 1.17-.54.9-.23 1.5.8 1.73 0 0 0 0 .02 0 1 .08 2 .17 3.02.23 1.42.1 2.85.1 4.27.2.86.05 1.7.2 2.5.6 1 .54 1.7 1.3 2 2.45.08-.05.15-.1.22-.15-.6.44-1.2.84-1.86 1.2zm-4.55 1.58c-.84.14-1.7.22-2.6.22-.05 0-.1 0-.15 0 .9 0 1.85-.1 2.75-.22zM31 15.05c0-.02 0-.03 0-.05 0-1.3-.16-2.55-.47-3.75.17.7.3 1.43.38 2.2.08.53.1 1.07.1 1.6zm-3.5-9.67c-.85-1.03-1.86-1.95-2.98-2.72 1.14.82 2.14 1.73 3 2.72zM8.8 28.15c-.72-.45-1.45-.9-2.12-1.4.66.53 1.36 1 2.1 1.4zM1 15.03c0-.45.02-.9.06-1.36.03-.34.07-.7.12-1.03C1.06 13.4 1 14.2 1 15c0 0 0 .02 0 .03zm2.73-8.67c.13-.17.25-.33.38-.5.5-.64 1.06-1.23 1.6-1.78-.7.7-1.37 1.46-1.96 2.28zM11.43.7c.8-.24 1.6-.42 2.47-.54.72-.1 1.43-.16 2.14-.16-.02 0-.03 0-.04 0-1.6 0-3.12.25-4.56.7zm7.9 14.92s-.02 0-.04-.02c-.06-.45-.07-.9-.1-1.36-.13-1.05-.43-2.03-1-2.93-.86-1.3-2.28-1.83-3.65-1.3-1.12.43-1.72 1.3-2 2.46-.24 1.07-.22 2.16-.1 3.25.13 1.04.43 2 1.02 2.9.76 1.1 1.83 1.6 3.15 1.4 1.26-.23 2.05-1.04 2.37-2.25.17-.7.22-1.4.33-2.12z"/><filter id="d" width="111.7%" height="111.7%" x="-5.8%" y="-4.2%" filterUnits="objectBoundingBox"><feOffset dy=".5" in="SourceAlpha" result="shadowOffsetOuter1"/><feGaussianBlur in="shadowOffsetOuter1" result="shadowBlurOuter1" stdDeviation=".5"/><feColorMatrix in="shadowBlurOuter1" values="0 0 0 0 0 0 0 0 0 0 0 0 0 0 0 0 0 0 0.204257246 0"/></filter></defs><g fill="none"><use fill="#000" filter="url(#a)" xlink:href="#b"/><use fill="#377E96" xlink:href="#b"/><use fill="url(#c)" style="mix-blend-mode:soft-light" xlink:href="#b"/><circle cx="16" cy="15" r="14.5" stroke="#000" stroke-opacity=".097"/><use fill="#000" filter="url(#d)" xlink:href="#e"/><use fill="#FFF" xlink:href="#e"/></g></svg>