<svg xmlns="http://www.w3.org/2000/svg" width="32" height="32" xmlns:xlink="http://www.w3.org/1999/xlink"><defs><linearGradient id="c" x1="50%" x2="50%" y1="0%" y2="100%"><stop offset="0%" stop-color="#FFF" stop-opacity=".5"/><stop offset="100%" stop-opacity=".5"/></linearGradient><circle id="b" cx="16" cy="15" r="15"/><filter id="a" width="111.7%" height="111.7%" x="-5.8%" y="-4.2%" filterUnits="objectBoundingBox"><feOffset dy=".5" in="SourceAlpha" result="shadowOffsetOuter1"/><feGaussianBlur in="shadowOffsetOuter1" result="shadowBlurOuter1" stdDeviation=".5"/><feComposite in="shadowBlurOuter1" in2="SourceAlpha" operator="out" result="shadowBlurOuter1"/><feColorMatrix in="shadowBlurOuter1" values="0 0 0 0 0 0 0 0 0 0 0 0 0 0 0 0 0 0 0.199473505 0"/></filter><path id="e" d="M25.52 13.8c.16 0 .26.02.33.08.07.07.1.17.1.34.48 5.37-3.6 10.24-8.98 10.74-5.57.5-10.4-3.5-10.93-9.1-.5-5.4 3.56-10.32 9-10.8 3.07-.3 5.72.67 7.96 2.8.02.02.02.12 0 .14-.5.5-1.02 1.02-1.53 1.52-.03.03-.13.03-.16 0-2.3-2.1-4.96-2.74-7.9-1.68-2.94 1.08-4.64 3.3-4.97 6.45-.45 4.23 2.76 7.97 7.04 8.3 3.87.3 7.4-2.45 8.03-6.3 0-.03-.1-.12-.13-.12-2.4-.02-4.8 0-7.2-.02-.05 0-.16-.12-.17-.18 0-.67 0-1.34 0-2 0-.07.1-.18.17-.18 1.6 0 7.83 0 9.35-.02z"/><filter id="d" width="117.5%" height="117.5%" x="-8.8%" y="-6.2%" filterUnits="objectBoundingBox"><feOffset dy=".5" in="SourceAlpha" result="shadowOffsetOuter1"/><feGaussianBlur in="shadowOffsetOuter1" result="shadowBlurOuter1" stdDeviation=".5"/><feColorMatrix in="shadowBlurOuter1" values="0 0 0 0 0 0 0 0 0 0 0 0 0 0 0 0 0 0 0.204257246 0"/></filter></defs><g fill="none"><use fill="#000" filter="url(#a)" xlink:href="#b"/><use fill="#2AB0FD" xlink:href="#b"/><use fill="url(#c)" style="mix-blend-mode:soft-light" xlink:href="#b"/><circle cx="16" cy="15" r="14.5" stroke="#000" stroke-opacity=".097"/><use fill="#000" filter="url(#d)" xlink:href="#e"/><use fill="#FFF" xlink:href="#e"/></g></svg>