<svg xmlns="http://www.w3.org/2000/svg" width="32" height="32" xmlns:xlink="http://www.w3.org/1999/xlink"><defs><linearGradient id="c" x1="50%" x2="50%" y1="0%" y2="100%"><stop offset="0%" stop-color="#FFF" stop-opacity=".5"/><stop offset="100%" stop-opacity=".5"/></linearGradient><circle id="b" cx="16" cy="15" r="15"/><filter id="a" width="111.7%" height="111.7%" x="-5.8%" y="-4.2%" filterUnits="objectBoundingBox"><feOffset dy=".5" in="SourceAlpha" result="shadowOffsetOuter1"/><feGaussianBlur in="shadowOffsetOuter1" result="shadowBlurOuter1" stdDeviation=".5"/><feComposite in="shadowBlurOuter1" in2="SourceAlpha" operator="out" result="shadowBlurOuter1"/><feColorMatrix in="shadowBlurOuter1" values="0 0 0 0 0 0 0 0 0 0 0 0 0 0 0 0 0 0 0.199473505 0"/></filter><filter id="d" width="117.5%" height="118.4%" x="-8.8%" y="-6.6%" filterUnits="objectBoundingBox"><feOffset dy=".5" in="SourceAlpha" result="shadowOffsetOuter1"/><feGaussianBlur in="shadowOffsetOuter1" result="shadowBlurOuter1" stdDeviation=".5"/><feColorMatrix in="shadowBlurOuter1" result="shadowMatrixOuter1" values="0 0 0 0 0 0 0 0 0 0 0 0 0 0 0 0 0 0 0.204257246 0"/><feMerge><feMergeNode in="shadowMatrixOuter1"/><feMergeNode in="SourceGraphic"/></feMerge></filter></defs><g fill="none"><use fill="#000" filter="url(#a)" xlink:href="#b"/><use fill="#1591CA" xlink:href="#b"/><use fill="url(#c)" style="mix-blend-mode:soft-light" xlink:href="#b"/><circle cx="16" cy="15" r="14.5" stroke="#000" stroke-opacity=".097"/><g fill="#FFF" filter="url(#d)" transform="translate(6 5.5)"><path d="M10.57 8.77s1.33-2.95-1.27-5.8c0 0-1.48-1.9-4.54-1.75l.6-.24C5.46.94 5.6.9 5.7.9l.6-.08 4.2-.65s1.5-.3 2.63.03c.33.1.62.27.85.5.63.64 1.9 2.32 1.06 4.97 0 0-.8 2.95-3.88 3.65 0 0-.76.2-.6-.55zm-.2 1.65s1.93 2.62 5.76 1.88c0 0 2.42-.28 3.85-2.94l-.1.64c-.02.1-.05.2-.1.3l-.23.56-1.6 3.9s-.5 1.4-1.36 2.2c-.27.23-.57.38-.9.46-.87.2-2.98.4-4.9-1.64 0 0-2.17-2.2-1.22-5.13 0 0 .2-.75.78-.23zM9 9.47s-3.27.34-4.5 3.97c0 0-.94 2.2.72 4.73l-.52-.4c-.1-.06-.16-.14-.23-.22l-.37-.48-2.68-3.27s-1-1.13-1.3-2.25c-.07-.32-.06-.66.03-.98.25-.85 1.1-2.75 3.87-3.37 0 0 3-.78 5.16 1.48 0 0 .56.55-.18.8z"/><path d="M11.1 9.66s3.27-.43 4.4-4.1c0 0 .88-2.2-.84-4.7l.53.4c.06.05.14.13.2.2l.4.48 2.76 3.2s1.04 1.1 1.35 2.22c.1.32.1.66 0 .98-.22.85-1.03 2.77-3.77 3.46 0 0-3 .85-5.2-1.34 0 0-.57-.54.17-.8zm-1.63.6s-1.4 2.92 1.13 5.83c0 0 1.42 1.92 4.5 1.84l-.63.23c-.1.03-.2.06-.32.07l-.6.06-4.25.56s-1.5.26-2.63-.1c-.32-.1-.6-.28-.84-.52-.6-.65-1.82-2.36-.93-5 0 0 .9-2.92 3.97-3.54 0 0 .77-.18.6.56zm.1-1.53s-1.95-2.6-5.76-1.8c0 0-2.4.3-3.8 3l.1-.65c0-.1.05-.22.1-.3l.2-.58 1.54-3.9s.48-1.43 1.33-2.23c.25-.23.55-.4.88-.47.87-.22 2.98-.45 4.92 1.57 0 0 2.2 2.16 1.3 5.1 0 0-.2.76-.8.26z" opacity=".5"/></g></g></svg>