<svg xmlns="http://www.w3.org/2000/svg" width="32" height="32" xmlns:xlink="http://www.w3.org/1999/xlink"><defs><linearGradient id="c" x1="50%" x2="50%" y1="0%" y2="100%"><stop offset="0%" stop-color="#FFF" stop-opacity=".5"/><stop offset="100%" stop-opacity=".5"/></linearGradient><circle id="b" cx="16" cy="15" r="15"/><filter id="a" width="111.7%" height="111.7%" x="-5.8%" y="-4.2%" filterUnits="objectBoundingBox"><feOffset dy=".5" in="SourceAlpha" result="shadowOffsetOuter1"/><feGaussianBlur in="shadowOffsetOuter1" result="shadowBlurOuter1" stdDeviation=".5"/><feComposite in="shadowBlurOuter1" in2="SourceAlpha" operator="out" result="shadowBlurOuter1"/><feColorMatrix in="shadowBlurOuter1" values="0 0 0 0 0 0 0 0 0 0 0 0 0 0 0 0 0 0 0.199473505 0"/></filter><path id="e" d="M15 17.66c0-.46 0-.92 0-1.38 0-.13.04-.23.16-.28.1-.05.23 0 .32.1.3.33.57.67.86 1 .1.12.2.24.3.36.02.03.03.07.03.1 0 .48 0 .97 0 1.45 0 .47-.33.85-.77.88-.43.03-.82-.28-.9-.73 0-.05 0-.1 0-.17 0-.44 0-.87 0-1.3zm0-9c0-.03 0-.05 0-.07 0-.93 0-1.84 0-2.75 0-.42.3-.78.7-.85.5-.08.96.3.97.83 0 .94 0 1.87 0 2.8 0 0 0 .02 0 .05-.2-.34-.46-.5-.83-.5-.36 0-.63.16-.83.47zm0 12.6c.2.3.48.47.85.47.36 0 .63-.17.82-.48v.07c0 .75 0 1.5 0 2.25 0 .22 0 .45 0 .68-.05.44-.43.77-.88.75-.44-.02-.8-.4-.8-.83 0-.9 0-1.8 0-2.68 0-.1 0-.17 0-.25zm1.67-8.83c0 .56 0 1.1 0 1.67 0 .15-.05.24-.16.3-.1.04-.25 0-.34-.1-.25-.3-.5-.57-.73-.86-.12-.14-.25-.3-.37-.43-.02 0-.04-.05-.04-.1 0-.7 0-1.4 0-2.13 0-.44.33-.8.77-.84.4-.04.8.25.87.66.02.06.02.14.02.2 0 .55 0 1.1 0 1.64zm1.74-3.37c0-.74 0-1.48 0-2.22 0-.4.25-.73.6-.85.54-.2 1.08.22 1.1.8 0 .56 0 1.1 0 1.67 0 .93 0 1.86 0 2.8 0 .4-.26.74-.64.85-.5.13-1-.23-1.04-.75 0-.05 0-.1 0-.16 0-.7 0-1.43 0-2.15zm-5.03 10.7c0 .85 0 1.7 0 2.56 0 .43-.28.77-.7.85-.47.1-.95-.3-.96-.8 0-.14 0-.28 0-.42 0-1.6 0-3.17 0-4.76 0-.4.26-.75.63-.85.52-.14 1.04.26 1.04.8 0 .87 0 1.74 0 2.6zm0-9.45c0 1.2 0 2.36 0 3.5 0 .43-.26.77-.65.86-.5.12-1-.28-1-.8 0-.5 0-1.02 0-1.52 0-1.84 0-3.67 0-5.5 0-.42.26-.77.65-.85.5-.13 1 .27 1 .8 0 .9 0 1.8 0 2.7 0 .28 0 .55 0 .8zm5.05 8.2c0-1.26 0-2.52 0-3.8 0-.37.17-.65.5-.8.55-.26 1.16.14 1.18.76 0 0 0 .03 0 .05 0 2.54 0 5.07 0 7.6 0 .4-.24.75-.62.86-.5.14-1-.22-1.05-.74 0-.04 0-.1 0-.15 0-1.25 0-2.5 0-3.75zm5.1-3.86c0 1.98 0 3.96 0 5.94 0 .43-.27.77-.67.85-.5.1-.98-.28-1-.8 0-.02 0-.04 0-.07 0-3.95 0-7.9 0-11.84 0-.38.2-.7.52-.82.55-.23 1.15.18 1.15.8 0 1.98 0 3.97 0 5.95zm-13.33 0c0 1.98 0 3.96 0 5.94 0 .42-.27.76-.66.85-.5.12-1-.27-1.02-.8 0 0 0-.03 0-.05 0-3.96 0-7.92 0-11.88 0-.42.24-.75.62-.86.52-.14 1.04.26 1.05.8 0 .66 0 1.32 0 1.97 0 1.36 0 2.7 0 4.03z"/><filter id="d" width="123.3%" height="117.5%" x="-11.7%" y="-6.2%" filterUnits="objectBoundingBox"><feOffset dy=".5" in="SourceAlpha" result="shadowOffsetOuter1"/><feGaussianBlur in="shadowOffsetOuter1" result="shadowBlurOuter1" stdDeviation=".5"/><feColorMatrix in="shadowBlurOuter1" values="0 0 0 0 0 0 0 0 0 0 0 0 0 0 0 0 0 0 0.204257246 0"/></filter></defs><g fill="none"><use fill="#000" filter="url(#a)" xlink:href="#b"/><use fill="#292929" xlink:href="#b"/><use fill="url(#c)" style="mix-blend-mode:soft-light" xlink:href="#b"/><circle cx="16" cy="15" r="14.5" stroke="#000" stroke-opacity=".097"/><use fill="#000" filter="url(#d)" xlink:href="#e"/><use fill="#FFF" xlink:href="#e"/></g></svg>