<svg xmlns="http://www.w3.org/2000/svg" width="32" height="32" xmlns:xlink="http://www.w3.org/1999/xlink"><defs><linearGradient id="c" x1="50%" x2="50%" y1="0%" y2="100%"><stop offset="0%" stop-color="#FFF" stop-opacity=".5"/><stop offset="100%" stop-opacity=".5"/></linearGradient><circle id="b" cx="16" cy="15" r="15"/><filter id="a" width="111.7%" height="111.7%" x="-5.8%" y="-4.2%" filterUnits="objectBoundingBox"><feOffset dy=".5" in="SourceAlpha" result="shadowOffsetOuter1"/><feGaussianBlur in="shadowOffsetOuter1" result="shadowBlurOuter1" stdDeviation=".5"/><feComposite in="shadowBlurOuter1" in2="SourceAlpha" operator="out" result="shadowBlurOuter1"/><feColorMatrix in="shadowBlurOuter1" values="0 0 0 0 0 0 0 0 0 0 0 0 0 0 0 0 0 0 0.199473505 0"/></filter><path id="e" d="M23.68 11.9c.06-.07.17-.07.28-.07 1.7 0 3.04 1.43 3.04 3.14 0 1.6-1.18 2.86-2.7 3.14h-.34c-.56 0-1.12-.15-1.63-.43-.16-.12-.33-.17-.56-.17-.22 0-.45.04-.62.16-.4.23-.56.63-.56 1.08v.52c-.13 1.43-1.25 2.63-2.7 2.8h-.35c-.57 0-1.13-.17-1.63-.46-.23-.1-.4-.17-.62-.17-.22 0-.44.06-.6.17-.4.23-.57.63-.57 1.1v.5c-.12 1.5-1.3 2.63-2.76 2.8h-.28c-1.7 0-3.05-1.43-3.05-3.14.05-1.6 1.18-2.92 2.7-3.1h.33c.55 0 1.12.18 1.62.47.17.1.34.17.56.17.23 0 .45-.06.62-.17.4-.23.56-.63.56-1.1-.1-1.64 1.07-3.13 2.7-3.3h.34c.56 0 1.12.17 1.63.46.24.1.4.15.63.15.22 0 .45-.06.62-.17.4-.24.56-.64.56-1.1-.1-1.66 1.13-3.14 2.76-3.3zm-6.46-3.96c.1-.05.17-.05.34-.05 1.68 0 3.03 1.4 3.03 3.12-.07 1.6-1.2 2.9-2.7 3.08h-.35c-.57 0-1.13-.16-1.63-.44-.17-.12-.34-.17-.57-.17-.22 0-.45.03-.6.15-.4.23-.58.63-.58 1.08v.52c-.1 1.48-1.3 2.63-2.75 2.8h-.28c-1.7 0-3.04-1.43-3.04-3.15 0-1.53 1.14-2.8 2.65-3h.34c.54 0 1.1.16 1.6.44.18.12.35.17.57.17.23 0 .45-.03.62-.15.4-.23.55-.63.55-1.08-.1-1.66 1.13-3.15 2.76-3.32zM11.04 4c1.67 0 3.03 1.38 3.03 3.1 0 1.7-1.36 3.07-3.03 3.07C9.36 10.17 8 8.8 8 7.1 8 5.37 9.36 4 11.04 4z"/><filter id="d" width="118.4%" height="115.9%" x="-9.2%" y="-5.7%" filterUnits="objectBoundingBox"><feOffset dy=".5" in="SourceAlpha" result="shadowOffsetOuter1"/><feGaussianBlur in="shadowOffsetOuter1" result="shadowBlurOuter1" stdDeviation=".5"/><feColorMatrix in="shadowBlurOuter1" values="0 0 0 0 0 0 0 0 0 0 0 0 0 0 0 0 0 0 0.204257246 0"/></filter></defs><g fill="none"><use fill="#000" filter="url(#a)" xlink:href="#b"/><use fill="#FFD800" xlink:href="#b"/><use fill="url(#c)" style="mix-blend-mode:soft-light" xlink:href="#b"/><circle cx="16" cy="15" r="14.5" stroke="#000" stroke-opacity=".097"/><use fill="#000" filter="url(#d)" xlink:href="#e"/><use fill="#FFF" xlink:href="#e"/></g></svg>