<svg xmlns="http://www.w3.org/2000/svg" width="32" height="32" xmlns:xlink="http://www.w3.org/1999/xlink"><defs><linearGradient id="c" x1="50%" x2="50%" y1="0%" y2="100%"><stop offset="0%" stop-color="#FFF" stop-opacity=".5"/><stop offset="100%" stop-opacity=".5"/></linearGradient><circle id="b" cx="16" cy="15" r="15"/><filter id="a" width="111.7%" height="111.7%" x="-5.8%" y="-4.2%" filterUnits="objectBoundingBox"><feOffset dy=".5" in="SourceAlpha" result="shadowOffsetOuter1"/><feGaussianBlur in="shadowOffsetOuter1" result="shadowBlurOuter1" stdDeviation=".5"/><feComposite in="shadowBlurOuter1" in2="SourceAlpha" operator="out" result="shadowBlurOuter1"/><feColorMatrix in="shadowBlurOuter1" values="0 0 0 0 0 0 0 0 0 0 0 0 0 0 0 0 0 0 0.199473505 0"/></filter><path id="e" d="M14.86 10.53c.3-.1.66.07.78.37.3.7.6 1.43.9 2.13.2.42.84.48 1.1.1.42-.7.76-1.46 1.17-2.17.36-.44.97-.23 1.44-.27.48-.05.84.56.57 1-1.32 2.5-2.67 4.96-4 7.45-.23.46-.96.46-1.16-.02-.3-.72-.53-1.48-.8-2.2-.18-.48-.9-.55-1.16-.1-.4.75-.77 1.52-1.18 2.26-.2.32-.64.27-.96.27-.32-.02-.7.07-.95-.2-.24-.2-.27-.58-.1-.84 1.24-2.36 2.5-4.74 3.76-7.12.14-.26.27-.6.6-.7zm-4.36.18c.37 0 .74 0 1.1 0 .42.06.7.6.5.97-1.25 2.34-2.5 4.67-3.74 7-.15.27-.27.6-.58.7-.37.05-.76.02-1.13.02-.45 0-.83-.58-.56-.98 1.27-2.4 2.57-4.84 3.86-7.27.1-.2.28-.4.53-.42zm13.14.04c.4-.12.82-.03 1.24-.06.3 0 .72-.06.95.22.28.3.2.84-.16 1.02-.73.46-1.45.96-2.2 1.4-.46.34-1.15-.2-.94-.75.18-.43.43-.83.63-1.25.12-.22.22-.5.48-.6zm-3.5 6.46c.2-.14.47-.1.67 0 .58.3 1.14.6 1.7.86.26.1.5.3.5.6.06.4-.26.77-.64.74-.82 0-1.64 0-2.44 0-.4 0-.7-.47-.56-.86.1-.28.26-.53.4-.8.1-.2.18-.46.4-.55z"/><filter id="d" width="117.5%" height="138.9%" x="-8.8%" y="-13.9%" filterUnits="objectBoundingBox"><feOffset dy=".5" in="SourceAlpha" result="shadowOffsetOuter1"/><feGaussianBlur in="shadowOffsetOuter1" result="shadowBlurOuter1" stdDeviation=".5"/><feColorMatrix in="shadowBlurOuter1" values="0 0 0 0 0 0 0 0 0 0 0 0 0 0 0 0 0 0 0.204257246 0"/></filter></defs><g fill="none"><use fill="#000" filter="url(#a)" xlink:href="#b"/><use fill="#DF1A14" xlink:href="#b"/><use fill="url(#c)" style="mix-blend-mode:soft-light" xlink:href="#b"/><circle cx="16" cy="15" r="14.5" stroke="#000" stroke-opacity=".097"/><use fill="#000" filter="url(#d)" xlink:href="#e"/><use fill="#FFF" fill-rule="evenodd" xlink:href="#e"/></g></svg>