<svg xmlns="http://www.w3.org/2000/svg" width="32" height="32" xmlns:xlink="http://www.w3.org/1999/xlink"><defs><linearGradient id="c" x1="50%" x2="50%" y1="0%" y2="100%"><stop offset="0%" stop-color="#FFF" stop-opacity=".5"/><stop offset="100%" stop-opacity=".5"/></linearGradient><circle id="b" cx="16" cy="15" r="15"/><filter id="a" width="111.7%" height="111.7%" x="-5.8%" y="-4.2%" filterUnits="objectBoundingBox"><feOffset dy=".5" in="SourceAlpha" result="shadowOffsetOuter1"/><feGaussianBlur in="shadowOffsetOuter1" result="shadowBlurOuter1" stdDeviation=".5"/><feComposite in="shadowBlurOuter1" in2="SourceAlpha" operator="out" result="shadowBlurOuter1"/><feColorMatrix in="shadowBlurOuter1" values="0 0 0 0 0 0 0 0 0 0 0 0 0 0 0 0 0 0 0.199473505 0"/></filter><path id="e" d="M7.03 18c-.1.02-.22.03-.32.03-1.5 0-2.7-1.22-2.7-2.72 0-1.47 1.2-2.7 2.7-2.7.95-4.4 4.86-7.7 9.54-7.7.87 0 1.72.1 2.52.32C19.26 4.5 20.06 4 21 4c1.5 0 2.7 1.22 2.7 2.72 0 .47-.1.9-.32 1.3C25 9.76 26 12.1 26 14.7c0 2.73-1.1 5.2-2.9 6.98.32.45.5 1 .5 1.6 0 1.5-1.2 2.72-2.7 2.72-1.14 0-2.12-.7-2.5-1.72-.7.15-1.43.24-2.17.24-4.24 0-7.85-2.72-9.2-6.5zm.5-.1c1.3 3.57 4.7 6.12 8.7 6.12.7 0 1.37-.08 2.02-.22-.03-.17-.05-.34-.05-.52 0-1.5 1.2-2.72 2.7-2.72.73 0 1.38.3 1.87.75 1.7-1.67 2.73-4 2.73-6.6 0-2.4-.9-4.6-2.4-6.25-.5.6-1.25 1-2.1 1-1.5 0-2.7-1.22-2.7-2.72 0-.38.07-.73.2-1.06-.72-.18-1.48-.28-2.27-.28-4.42 0-8.1 3.1-9.05 7.24 1.27.23 2.23 1.34 2.23 2.68 0 1.23-.8 2.26-1.87 2.6zm8.7-.48c-1.5 0-2.7-1.22-2.7-2.72 0-1.5 1.2-2.72 2.7-2.72 1.5 0 2.7 1.22 2.7 2.72 0 1.5-1.2 2.72-2.7 2.72z"/><filter id="d" width="115.9%" height="115.9%" x="-8%" y="-5.7%" filterUnits="objectBoundingBox"><feOffset dy=".5" in="SourceAlpha" result="shadowOffsetOuter1"/><feGaussianBlur in="shadowOffsetOuter1" result="shadowBlurOuter1" stdDeviation=".5"/><feColorMatrix in="shadowBlurOuter1" values="0 0 0 0 0 0 0 0 0 0 0 0 0 0 0 0 0 0 0.204257246 0"/></filter></defs><g fill="none"><use fill="#000" filter="url(#a)" xlink:href="#b"/><use fill="#57BEEA" xlink:href="#b"/><use fill="url(#c)" style="mix-blend-mode:soft-light" xlink:href="#b"/><circle cx="16" cy="15" r="14.5" stroke="#000" stroke-opacity=".097"/><use fill="#000" filter="url(#d)" xlink:href="#e"/><use fill="#FFF" fill-rule="evenodd" xlink:href="#e"/></g></svg>