<svg xmlns="http://www.w3.org/2000/svg" width="32" height="32" xmlns:xlink="http://www.w3.org/1999/xlink"><defs><linearGradient id="c" x1="50%" x2="50%" y1="0%" y2="100%"><stop offset="0%" stop-color="#FFF" stop-opacity=".5"/><stop offset="100%" stop-opacity=".5"/></linearGradient><circle id="b" cx="16" cy="15" r="15"/><filter id="a" width="111.7%" height="111.7%" x="-5.8%" y="-4.2%" filterUnits="objectBoundingBox"><feOffset dy=".5" in="SourceAlpha" result="shadowOffsetOuter1"/><feGaussianBlur in="shadowOffsetOuter1" result="shadowBlurOuter1" stdDeviation=".5"/><feComposite in="shadowBlurOuter1" in2="SourceAlpha" operator="out" result="shadowBlurOuter1"/><feColorMatrix in="shadowBlurOuter1" values="0 0 0 0 0 0 0 0 0 0 0 0 0 0 0 0 0 0 0.199473505 0"/></filter><path id="e" d="M22.26 5.77c0 .7-.57 1.27-1.28 1.27-.7 0-1.27-.57-1.27-1.27 0-.7.6-1.27 1.3-1.27.7 0 1.27.57 1.27 1.27zm-.92 4.42c-.6 0-1.08-.5-1.08-1.1 0-.6.48-1.07 1.08-1.07.6 0 1.08.48 1.08 1.08 0 .6-.5 1.08-1.08 1.08zM21 12.83c-.5 0-.9-.4-.9-.9s.4-.92.9-.92.92.4.92.9-.4.92-.92.92zm-.05 1.37c0 .44-.35.8-.78.8-.43 0-.78-.36-.78-.8 0-.42.33-.77.76-.77s.78.35.78.78zm-1.23 1.73c0 .37-.3.67-.67.67-.37 0-.67-.3-.67-.66 0-.37.3-.66.67-.66.37 0 .67.3.67.66zm-1.35 1.23c0 .3-.26.57-.58.57-.34 0-.6-.26-.6-.57 0-.32.26-.58.58-.58.3 0 .57.25.57.57zm6.87-7.4c-.14.57-.72.93-1.3.8-.58-.14-.95-.72-.8-1.3.13-.58.7-.94 1.3-.8.57.13.94.7.8 1.3zm-.52 2.8c-.1.48-.6.8-1.1.67-.5-.1-.8-.6-.68-1.1.1-.5.6-.8 1.1-.68.5.12.8.6.68 1.1zm-.96 2.23c-.1.4-.52.66-.93.56-.42-.1-.68-.5-.58-.93.1-.4.5-.67.93-.57.42.1.68.5.58.93zm-1.24 1.7c-.1.34-.44.56-.8.5-.36-.1-.58-.46-.5-.8.1-.37.44-.6.8-.5.36.1.58.43.5.8zm-1.36 1.2c-.07.3-.38.47-.68.4-.3-.07-.5-.38-.43-.68.07-.3.38-.5.7-.42.3.08.48.38.4.7zm-1.36.73c-.06.26-.32.42-.58.36-.27-.07-.43-.33-.37-.6.06-.26.33-.42.6-.36.25.06.42.33.35.6zm7.1-4.86c-.2.46-.77.65-1.22.43-.46-.2-.65-.76-.43-1.22.22-.45.77-.65 1.23-.43.46.23.65.78.43 1.23zm-.95 2.22c-.2.4-.66.54-1.05.35-.4-.2-.55-.65-.37-1.04.2-.4.66-.54 1.05-.36.4.2.56.66.37 1.05zm-1.2 1.67c-.17.33-.58.47-.92.3-.33-.15-.47-.55-.3-.9.15-.33.56-.47.9-.3.33.16.47.56.3.9zm-1.36 1.2c-.16.28-.5.4-.8.26-.3-.14-.4-.5-.28-.8.15-.28.5-.4.8-.26.28.14.4.5.26.8zm-1.37.72c-.12.24-.42.34-.67.22-.25-.12-.36-.42-.24-.67.12-.25.42-.35.67-.23.25.12.35.42.23.67zm-1.27.36c-.1.2-.36.3-.58.2-.22-.1-.3-.36-.2-.57.1-.2.35-.3.57-.2.2.1.3.35.2.56zm1.03 4.85c-.6-.34-.83-1.1-.48-1.72.36-.62 1.13-.83 1.74-.48.6.35.82 1.13.47 1.74-.35.6-1.13.8-1.74.46zm-3-1.52c-.5-.3-.7-.96-.4-1.48.3-.5.96-.7 1.5-.4.5.3.67.96.37 1.48-.3.5-.95.7-1.47.4zm-2.2-1.85c-.44-.25-.6-.8-.34-1.24.26-.44.8-.6 1.25-.34.45.26.6.8.35 1.25-.26.44-.8.6-1.25.34zm-1.5-1.97c-.37-.22-.5-.7-.3-1.06.23-.38.7-.5 1.08-.3.36.22.5.7.27 1.07-.2.36-.7.5-1.06.28zm-.88-1.93c-.33-.18-.44-.6-.25-.9.18-.33.6-.44.9-.26.33.18.44.6.26.9-.18.33-.6.44-.9.25zm-.4-1.78c-.27-.15-.36-.5-.2-.78.15-.28.5-.38.78-.22s.38.5.22.78-.5.37-.78.2zm3.76 9.93c-.6 0-1.1-.48-1.1-1.08 0-.6.5-1.08 1.1-1.08.58 0 1.07.48 1.07 1.08 0 .6-.5 1.08-1.08 1.08zm-2.93-2.14c-.37-.34-.4-.92-.04-1.3.35-.36.93-.38 1.3-.03s.4.93.04 1.3c-.34.37-.92.4-1.3.04zM13.2 21.4c-.3-.28-.33-.77-.03-1.08.3-.3.78-.33 1.1-.03.3.27.32.76.03 1.07-.3.3-.78.33-1.1.03zm-.86-1.9c-.26-.26-.28-.68-.03-.94.27-.27.7-.28.96-.03.27.25.28.66.03.93s-.68.28-.95.03zM12 17.72c-.24-.22-.25-.58-.04-.8.22-.23.58-.25.8-.03.24.2.25.56.03.8-.23.22-.6.23-.8.02zm0-1.55c-.2-.18-.2-.5 0-.7.17-.18.48-.2.68 0 .2.17.2.48.02.68-.18.2-.5.2-.7.02zm.7 8.56c-.3-.42-.2-1 .23-1.28.42-.28 1-.17 1.28.25.3.43.2 1-.22 1.28-.42.3-1 .18-1.28-.24zm-1.46-1.94c-.24-.36-.15-.85.2-1.1.37-.24.85-.14 1.1.2.24.37.15.86-.2 1.1-.37.24-.85.15-1.1-.2zm-.86-1.9c-.2-.3-.13-.72.18-.93.3-.2.73-.13.94.18.2.3.13.73-.18.94-.3.2-.73.12-.94-.2zm-.36-1.74c-.18-.27-.1-.64.16-.82.27-.18.63-.1.82.16.18.28.1.64-.16.82-.27.18-.63.1-.82-.15zm.04-1.54c-.15-.23-.1-.54.14-.7.22-.15.54-.1.7.14.15.23.1.54-.14.7-.23.15-.54.1-.7-.14zm.32-1.28c-.14-.2-.08-.46.1-.6.2-.13.47-.08.6.12.14.2.1.46-.1.6-.2.12-.47.07-.6-.12zM5.64 14.8c.6-.34 1.4-.14 1.74.47.35.6.14 1.4-.47 1.74-.6.37-1.37.16-1.72-.45-.35-.6-.14-1.38.47-1.73zM8.47 13c.5-.3 1.17-.13 1.47.4.3.5.12 1.16-.4 1.46-.5.3-1.17.12-1.47-.4-.3-.5-.12-1.17.4-1.46zm2.7-.98c.43-.25 1-.1 1.24.33.28.44.13 1-.3 1.24-.45.24-1 .1-1.26-.35-.25-.43-.1-1 .34-1.24zm2.46-.3c.38-.22.85-.1 1.07.28.2.37.1.84-.3 1.06-.36.2-.84.1-1.05-.3-.22-.36-.1-.83.28-1.05zm2.12.2c.32-.2.73-.08.9.24.2.32.1.73-.23.9-.32.2-.73.1-.92-.23-.18-.32-.07-.73.25-.9zm1.74.55c.25-.16.6-.06.76.2.16.3.07.64-.2.8-.28.15-.64.06-.8-.22-.15-.27-.06-.62.22-.78zm-9.9-2.23c.6-.17 1.2.15 1.35.72.18.57-.15 1.17-.72 1.35-.57.2-1.18-.14-1.35-.7-.18-.58.14-1.18.7-1.35zm2.7-.95c.5-.17 1 .1 1.14.6.15.47-.13 1-.6 1.13-.5.14-1-.13-1.16-.6-.15-.5.12-1 .6-1.15zM12.7 9c.4-.13.85.1.97.5.1.4-.1.85-.53.97-.4.12-.84-.1-.97-.52-.1-.4.12-.84.53-.96zm2.1.2c.35-.1.72.1.83.45.1.35-.1.72-.44.83-.34.1-.7-.1-.82-.45-.1-.35.08-.72.43-.83zm1.7.6c.32-.1.63.07.72.37.1.3-.08.62-.38.7-.3.1-.6-.07-.7-.37-.1-.3.07-.6.37-.7zm1.34.8c.26-.1.54.05.6.3.1.27-.05.54-.3.6-.27.1-.54-.05-.62-.3-.08-.27.07-.54.32-.6zM10.1 6.9c.5-.05.95.33 1 .84.03.5-.35.94-.86.98-.5.04-.95-.34-1-.85-.02-.5.36-.95.86-.98zm2.4-.3c.44-.02.82.3.85.73.03.44-.3.8-.73.84-.43.03-.8-.3-.83-.72-.06-.43.27-.8.7-.84zm2.08.2c.37 0 .7.27.72.64.03.37-.25.7-.63.72-.37.03-.7-.25-.72-.62-.03-.38.25-.7.63-.73zm1.7.58c.32-.02.6.22.63.55.04.32-.2.6-.53.62-.32.03-.6-.22-.63-.54-.02-.3.22-.6.55-.6zm1.3.8c.3 0 .53.2.55.47.02.28-.2.52-.47.54-.27 0-.5-.2-.53-.5-.02-.26.18-.5.46-.52zm.97.92c.23-.02.44.16.46.4.03.23-.14.43-.4.45-.2.02-.42-.16-.44-.4 0-.23.16-.43.4-.45z"/><filter id="d" width="115.9%" height="116.7%" x="-8%" y="-6%" filterUnits="objectBoundingBox"><feOffset dy=".5" in="SourceAlpha" result="shadowOffsetOuter1"/><feGaussianBlur in="shadowOffsetOuter1" result="shadowBlurOuter1" stdDeviation=".5"/><feColorMatrix in="shadowBlurOuter1" values="0 0 0 0 0 0 0 0 0 0 0 0 0 0 0 0 0 0 0.204257246 0"/></filter></defs><g fill="none"><use fill="#000" filter="url(#a)" xlink:href="#b"/><use fill="#242424" xlink:href="#b"/><use fill="url(#c)" style="mix-blend-mode:soft-light" xlink:href="#b"/><circle cx="16" cy="15" r="14.5" stroke="#000" stroke-opacity=".097"/><use fill="#000" filter="url(#d)" xlink:href="#e"/><use fill="#FFF" fill-rule="evenodd" xlink:href="#e"/></g></svg>