<svg xmlns="http://www.w3.org/2000/svg" width="32" height="32" xmlns:xlink="http://www.w3.org/1999/xlink"><defs><linearGradient id="c" x1="50%" x2="50%" y1="0%" y2="100%"><stop offset="0%" stop-color="#FFF" stop-opacity=".5"/><stop offset="100%" stop-opacity=".5"/></linearGradient><circle id="b" cx="16" cy="15" r="15"/><filter id="a" width="111.7%" height="111.7%" x="-5.8%" y="-4.2%" filterUnits="objectBoundingBox"><feOffset dy=".5" in="SourceAlpha" result="shadowOffsetOuter1"/><feGaussianBlur in="shadowOffsetOuter1" result="shadowBlurOuter1" stdDeviation=".5"/><feComposite in="shadowBlurOuter1" in2="SourceAlpha" operator="out" result="shadowBlurOuter1"/><feColorMatrix in="shadowBlurOuter1" values="0 0 0 0 0 0 0 0 0 0 0 0 0 0 0 0 0 0 0.199473505 0"/></filter></defs><g fill="none"><use fill="#000" filter="url(#a)" xlink:href="#b"/><use fill="#00AEEF" fill-rule="evenodd" xlink:href="#b"/><use fill="url(#c)" fill-rule="evenodd" style="mix-blend-mode:soft-light" xlink:href="#b"/><circle cx="16" cy="15" r="14.5" stroke="#000" stroke-opacity=".097"/><path fill="#FFF" d="M15.76 13.7c.24-.04.45-.12.63-.26.17-.13.34-.36.5-.67l3.63-7c.14-.22.3-.4.5-.56.2-.12.45-.2.7-.2h2.3l-4.5 8.23c-.2.34-.43.6-.68.82-.26.22-.54.38-.85.5.5.1.9.3 1.23.6.32.28.63.68.92 1.18L24.5 25h-2.53c-.5 0-.92-.28-1.23-.82l-3.56-7.35c-.2-.33-.4-.56-.6-.7-.22-.14-.5-.23-.82-.25v3.73h-2V15.9H12.3V25H9.5V5h2.8v8.74h1.47V9.42h2v4.3z"/></g></svg>