<svg xmlns="http://www.w3.org/2000/svg" width="32" height="32" xmlns:xlink="http://www.w3.org/1999/xlink"><defs><linearGradient id="c" x1="50%" x2="50%" y1="0%" y2="100%"><stop offset="0%" stop-color="#FFF" stop-opacity=".5"/><stop offset="100%" stop-opacity=".5"/></linearGradient><circle id="b" cx="16" cy="15" r="15"/><filter id="a" width="111.7%" height="111.7%" x="-5.8%" y="-4.2%" filterUnits="objectBoundingBox"><feOffset dy=".5" in="SourceAlpha" result="shadowOffsetOuter1"/><feGaussianBlur in="shadowOffsetOuter1" result="shadowBlurOuter1" stdDeviation=".5"/><feComposite in="shadowBlurOuter1" in2="SourceAlpha" operator="out" result="shadowBlurOuter1"/><feColorMatrix in="shadowBlurOuter1" values="0 0 0 0 0 0 0 0 0 0 0 0 0 0 0 0 0 0 0.199473505 0"/></filter><path id="e" d="M13.7 17v-4.8h1.13c.24 0 .44.18.44.42v.42c0 .45.4.84.84.84.48 0 .83-.4.83-.84v-.4c0-.25.2-.45.45-.45h1.26v1.2c0 .25-.2.45-.46.45h-.42c-.46 0-.83.36-.83.8 0 .47.42.83.88.83h.4c.23 0 .44.2.44.44V17h1c.36 0 .64.28.64.63V18c0 .34-.28.6-.63.6h-.38c-.35 0-.63-.26-.63-.6v-.83h-1.26c-.25 0-.45-.2-.45-.45v-.4c0-.46-.4-.84-.84-.84-.47 0-.8.4-.8.87v.38c0 .24-.23.44-.47.44H13.7V18c0 .34-.28.6-.63.6h-.38c-.37 0-.65-.26-.65-.6v-.37c0-.35.28-.62.63-.62h1zm5.94-4.97h-1v-1c0-.33.27-.6.62-.6h.38c.35 0 .63.27.63.6v.38c0 .36-.28.64-.63.64zm-5.94 0h-1c-.36 0-.64-.28-.64-.62v-.35c0-.34.28-.62.63-.62h.36c.35 0 .63.28.63.62v1zm2.28-1.45c-.35 0-.64-.27-.64-.62V9.6c0-.34.3-.62.64-.62h.37c.35 0 .64.28.64.62v.36c0 .35-.3.62-.66.62h-.37zm0 9.8c-.35 0-.64-.28-.64-.62v-.37c0-.36.3-.64.64-.64h.37c.35 0 .64.28.64.62v.36c0 .34-.3.62-.66.62h-.37zm4.92-4.98c-.35 0-.63-.28-.63-.62v-.37c0-.32.28-.6.63-.6h.38c.35 0 .63.28.63.6v.4c0 .33-.26.6-.6.6h-.4zm-10 0c-.36 0-.65-.28-.65-.62v-.37c0-.32.3-.6.64-.6h.35c.35 0 .64.28.64.6v.4c0 .33-.3.6-.65.6h-.37zm7.75 5.02c.3-.12.63.02.75.3.13.3 0 .62-.3.74s-.64-.02-.76-.3c-.12-.3.02-.62.3-.74zM13.4 7.9c.3-.12.63 0 .75.3s-.02.62-.3.74c-.3.1-.64-.02-.76-.3-.14-.3 0-.62.3-.74zm8.55 4.42c-.12-.28.02-.6.32-.73s.62 0 .75.3c.12.27-.02.6-.32.72s-.62-.02-.75-.3zM9.3 17.46c-.1-.28.03-.6.32-.73.3-.12.63.02.75.3.13.3 0 .62-.3.74s-.64-.02-.76-.3zm0-5.57c.13-.3.47-.44.76-.3.3.1.44.43.3.7-.1.3-.44.44-.74.3-.3-.1-.43-.43-.3-.72zm9.2-2.97c-.3-.12-.44-.45-.32-.74.12-.3.46-.43.75-.3.3.1.43.43.3.72-.1.3-.45.42-.74.3zm3.45 8.1c.13-.3.46-.43.75-.3.3.1.44.44.32.72-.13.3-.46.43-.75.3-.3-.1-.44-.44-.32-.73zm-8.88 4.58c-.3-.1-.43-.44-.3-.72.1-.3.45-.44.74-.32.3.12.45.45.33.74-.12.28-.46.42-.75.3zM21.5 20c.14-.13.35-.13.48 0 .13.12.13.32 0 .45-.13.12-.34.12-.47 0-.1-.13-.1-.33 0-.46zM10.36 8.9c.13-.1.34-.1.46 0 .14.14.14.34 0 .47-.1.12-.32.12-.45 0-.13-.13-.13-.33 0-.46zm11.16.47c-.1-.13-.1-.33 0-.46.14-.1.35-.1.48 0 .13.15.13.35 0 .48-.13.12-.34.12-.47 0zM10.36 20.45c-.13-.13-.13-.33 0-.46s.34-.14.46 0c.14.1.14.3 0 .44-.1.12-.32.12-.45 0zM23.9 14.6c0-.18.14-.32.32-.32.2 0 .34.14.34.32s-.15.32-.33.32c-.17 0-.32-.14-.32-.32zm-15.93 0c0-.18.14-.32.32-.32s.32.14.32.32-.14.32-.32.32-.32-.14-.32-.32zm8.2-7.4c-.18 0-.32-.13-.32-.3 0-.2.14-.33.32-.33.2 0 .33.14.33.32 0 .16-.15.3-.34.3zm0 15.6c-.18 0-.32-.16-.32-.33 0-.18.14-.32.32-.32.2 0 .33.14.33.32 0 .17-.15.32-.34.32zm10.18-8.2c0-.18.15-.32.33-.32.18 0 .33.14.33.32s-.14.32-.32.32-.33-.14-.33-.32zm-21.1-.16c.14 0 .25.1.25.24 0 .13-.12.24-.25.24-.14 0-.25-.1-.25-.24 0-.13.1-.24.25-.24zM15.68 4.32c0-.18.15-.32.33-.32.2 0 .34.14.34.32s-.15.32-.33.32c-.17 0-.32-.14-.32-.32zm9.73 14.1c.1-.24.4-.35.65-.25.25.1.37.4.26.63-.06.18-.25.3-.44.3-.06 0-.13-.02-.2-.04-.24-.1-.36-.4-.25-.63zm-5.32 5.2c.08.03.14.1.17.17.04.06.04.15 0 .23-.03.08-.1.14-.18.17-.08.04-.17.04-.25 0-.07-.03-.13-.1-.16-.17-.04-.08-.04-.16 0-.24.03-.1.1-.16.18-.2.04 0 .08-.02.12-.02.04 0 .1 0 .13.02zM6.44 10.3c.08.02.14.08.18.16.03.08.03.17 0 .25-.04.1-.1.16-.18.2-.08.02-.17.02-.25 0-.1-.04-.17-.1-.2-.2-.03-.06-.03-.15 0-.23.03-.08.1-.14.2-.17.02-.03.06-.04.1-.04.05 0 .1 0 .13.03zm-.92 8.24c.1-.2.33-.3.54-.22.2.1.3.33.22.53-.1.2-.33.3-.54.2-.2-.07-.3-.3-.22-.5zm14.34-13.3c-.2-.07-.3-.3-.22-.5.1-.22.33-.3.54-.23.2.1.3.35.22.55-.1.2-.33.3-.54.2zm6.14 4.9c.03 0 .07-.03.1-.03s.06 0 .1.03c.12.05.18.2.12.32-.02.06-.07.1-.13.13-.08.02-.15.02-.2 0-.07-.03-.1-.08-.14-.14-.03-.06-.03-.12 0-.18s.07-.1.13-.13zm-14.4-5.2c.03-.1.12-.14.2-.14.05 0 .08 0 .1.02.13.05.2.2.14.32-.03.06-.07.1-.13.13-.04.02-.1.02-.17 0-.13-.06-.2-.2-.13-.32zm.05 18.97c.03 0 .06.03.1.04.12.05.18.2.13.32-.06.12-.2.18-.33.13-.12-.07-.18-.2-.13-.33.04-.1.13-.15.23-.15zm11.64-1.7c-.15.15-.35.15-.48 0-.13-.1-.13-.3 0-.43.06-.06.14-.1.23-.1.1 0 .17.04.23.1.12.12.12.33 0 .45zM7.92 7.05c.2-.2.5-.2.7 0 .18.2.18.5 0 .68-.1.1-.23.15-.36.15-.12 0-.25-.04-.34-.14-.2-.17-.2-.48 0-.67zm15.52.1c.05-.06.1-.08.17-.08s.13.02.18.07c.1.1.1.25 0 .34-.1.1-.24.1-.34 0-.05-.04-.07-.1-.07-.17s0-.13.05-.18zM8.03 21.72c.04-.04.1-.07.17-.07s.13.03.18.07c.1.1.1.25 0 .35-.1.1-.26.1-.35 0-.1-.1-.1-.25 0-.35zM16.08 26c-.22 0-.4-.18-.4-.4 0-.22.18-.4.4-.4.23 0 .4.18.4.4 0 .22-.17.4-.4.4z"/><filter id="d" width="115.9%" height="115.9%" x="-8%" y="-5.7%" filterUnits="objectBoundingBox"><feOffset dy=".5" in="SourceAlpha" result="shadowOffsetOuter1"/><feGaussianBlur in="shadowOffsetOuter1" result="shadowBlurOuter1" stdDeviation=".5"/><feColorMatrix in="shadowBlurOuter1" values="0 0 0 0 0 0 0 0 0 0 0 0 0 0 0 0 0 0 0.204257246 0"/></filter></defs><g fill="none"><use fill="#000" filter="url(#a)" xlink:href="#b"/><use fill="#005FFF" xlink:href="#b"/><use fill="url(#c)" style="mix-blend-mode:soft-light" xlink:href="#b"/><circle cx="16" cy="15" r="14.5" stroke="#000" stroke-opacity=".097"/><use fill="#000" filter="url(#d)" xlink:href="#e"/><use fill="#FFF" xlink:href="#e"/></g></svg>