<svg xmlns="http://www.w3.org/2000/svg" width="32" height="32" xmlns:xlink="http://www.w3.org/1999/xlink"><defs><linearGradient id="c" x1="50%" x2="50%" y1="0%" y2="100%"><stop offset="0%" stop-color="#FFF" stop-opacity=".5"/><stop offset="100%" stop-opacity=".5"/></linearGradient><circle id="b" cx="16" cy="15" r="15"/><filter id="a" width="111.7%" height="111.7%" x="-5.8%" y="-4.2%" filterUnits="objectBoundingBox"><feOffset dy=".5" in="SourceAlpha" result="shadowOffsetOuter1"/><feGaussianBlur in="shadowOffsetOuter1" result="shadowBlurOuter1" stdDeviation=".5"/><feComposite in="shadowBlurOuter1" in2="SourceAlpha" operator="out" result="shadowBlurOuter1"/><feColorMatrix in="shadowBlurOuter1" values="0 0 0 0 0 0 0 0 0 0 0 0 0 0 0 0 0 0 0.199473505 0"/></filter><path id="e" d="M8.1 12.68l2.1 2.1H6l2.1-2.1zm2.1 2.55l-2.1 2.1-2.1-2.1h4.2zm2.86-2.86l-2.1 2.1v-4.2l2.1 2.1zm-2.55 2.1l-2.1-2.1 2.1-2.1v4.2zm2.87-2.4l-2.1-2.1h4.2l-2.1 2.1zm0-4.66l2.1 2.13h-4.2l2.1-2.1zm4.96-.3l-2.1 2.1V5l2.1 2.1zm-2.55 2.1l-2.1-2.1 2.1-2.1v4.2zm-2.7 8.45l-2.12 2.1v-4.2l2.1 2.1zm-4.66 0l2.1-2.1v4.2l-2.1-2.1zm10.23-5.58l-2.1-2.1h4.2l-2.1 2.1zm-2.1-2.54l2.1-2.1 2.1 2.1h-4.2zM15.47 20.5l-2.1 2.1-2.1-2.1h4.2zm-2.1-2.56l2.1 2.1h-4.2l2.1-2.1zm10.22-5.57l-2.13 2.1v-4.2l2.1 2.1zm-4.67 0l2.1-2.1v4.2l-2.1-2.1zM13.68 22.9l2.1-2.1V25l-2.1-2.1zm2.53-2.1l2.13 2.1-2.1 2.1v-4.2zm2.44 1.8l-2.1-2.1h4.2l-2.1 2.1zm0-4.66l2.1 2.1h-4.2l2.1-2.1zm2.85-2.4l2.1 2.1-2.1 2.1v-4.2zm-2.55 2.1l2.1-2.1v4.2l-2.1-2.1zm4.95-.32l-2.1-2.1H26l-2.1 2.1zm0-4.64l2.1 2.1h-4.2l2.1-2.1z"/><filter id="d" width="117.5%" height="117.5%" x="-8.8%" y="-6.2%" filterUnits="objectBoundingBox"><feOffset dy=".5" in="SourceAlpha" result="shadowOffsetOuter1"/><feGaussianBlur in="shadowOffsetOuter1" result="shadowBlurOuter1" stdDeviation=".5"/><feColorMatrix in="shadowBlurOuter1" values="0 0 0 0 0 0 0 0 0 0 0 0 0 0 0 0 0 0 0.204257246 0"/></filter></defs><g fill="none"><use fill="#000" filter="url(#a)" xlink:href="#b"/><use fill="#7B346E" xlink:href="#b"/><use fill="url(#c)" style="mix-blend-mode:soft-light" xlink:href="#b"/><circle cx="16" cy="15" r="14.5" stroke="#000" stroke-opacity=".097"/><use fill="#000" filter="url(#d)" xlink:href="#e"/><use fill="#FFF" fill-rule="evenodd" xlink:href="#e"/></g></svg>