<svg xmlns="http://www.w3.org/2000/svg" width="32" height="32" xmlns:xlink="http://www.w3.org/1999/xlink"><defs><linearGradient id="c" x1="50%" x2="50%" y1="0%" y2="100%"><stop offset="0%" stop-color="#FFF" stop-opacity=".5"/><stop offset="100%" stop-opacity=".5"/></linearGradient><circle id="b" cx="16" cy="15" r="15"/><filter id="a" width="111.7%" height="111.7%" x="-5.8%" y="-4.2%" filterUnits="objectBoundingBox"><feOffset dy=".5" in="SourceAlpha" result="shadowOffsetOuter1"/><feGaussianBlur in="shadowOffsetOuter1" result="shadowBlurOuter1" stdDeviation=".5"/><feComposite in="shadowBlurOuter1" in2="SourceAlpha" operator="out" result="shadowBlurOuter1"/><feColorMatrix in="shadowBlurOuter1" values="0 0 0 0 0 0 0 0 0 0 0 0 0 0 0 0 0 0 0.199473505 0"/></filter><path id="e" d="M14.25 23.96c-.02 0-.04.03-.06.04h-1.57c-.03 0-.04 0-.05-.03L8 18.8c0-.02 0-.05 0-.08l5.7-9.83c.04-.07.1-.07.13 0l1.6 2.73c0 .02 0 .05 0 .07l-3.86 6.66c0 .03 0 .05.02.08l2.3 2.6s.02.02.03.02h2.72c.07 0 .1.07.06.1l-2.46 2.8zm1.7-18.92c.02-.05.1-.05.1 0L24 18.7c0 .02 0 .05-.02.08l-4.57 5.16c0 .02-.03.03-.04.03h-3.72c-.06 0-.1-.07-.05-.1l2.47-2.82 2.33-2.62c.02-.03.02-.06 0-.1l-4.4-7.6-1.67-2.86s0-.04 0-.07l1.6-2.76z"/><filter id="d" width="121.9%" height="118.4%" x="-10.9%" y="-6.6%" filterUnits="objectBoundingBox"><feOffset dy=".5" in="SourceAlpha" result="shadowOffsetOuter1"/><feGaussianBlur in="shadowOffsetOuter1" result="shadowBlurOuter1" stdDeviation=".5"/><feColorMatrix in="shadowBlurOuter1" values="0 0 0 0 0 0 0 0 0 0 0 0 0 0 0 0 0 0 0.204257246 0"/></filter></defs><g fill="none"><use fill="#000" filter="url(#a)" xlink:href="#b"/><use fill="#0D4EA0" fill-rule="evenodd" xlink:href="#b"/><use fill="url(#c)" fill-rule="evenodd" style="mix-blend-mode:soft-light" xlink:href="#b"/><circle cx="16" cy="15" r="14.5" stroke="#000" stroke-opacity=".097"/><use fill="#000" filter="url(#d)" xlink:href="#e"/><use fill="#FFF" fill-rule="evenodd" xlink:href="#e"/></g></svg>