<svg xmlns="http://www.w3.org/2000/svg" width="32" height="32" xmlns:xlink="http://www.w3.org/1999/xlink"><defs><linearGradient id="c" x1="50%" x2="50%" y1="0%" y2="100%"><stop offset="0%" stop-color="#FFF" stop-opacity=".5"/><stop offset="100%" stop-opacity=".5"/></linearGradient><circle id="b" cx="16" cy="15" r="15"/><filter id="a" width="111.7%" height="111.7%" x="-5.8%" y="-4.2%" filterUnits="objectBoundingBox"><feOffset dy=".5" in="SourceAlpha" result="shadowOffsetOuter1"/><feGaussianBlur in="shadowOffsetOuter1" result="shadowBlurOuter1" stdDeviation=".5"/><feComposite in="shadowBlurOuter1" in2="SourceAlpha" operator="out" result="shadowBlurOuter1"/><feColorMatrix in="shadowBlurOuter1" values="0 0 0 0 0 0 0 0 0 0 0 0 0 0 0 0 0 0 0.199473505 0"/></filter><path id="e" d="M20.25 18.15v6.5L9.3 18.32c-3.25-1.9-3.04-3.07-3.04-5.64l11.26 6.5v-1.56 1.57L6.26 12.7 17.2 6.37c3.25-1.84 4.18-1.07 6.44.2L18 9.87l5.64-3.27v12.6c0 3.75-1.13 4.16-3.4 5.44v-6.5z"/><filter id="d" width="120.1%" height="118.1%" x="-10.1%" y="-6.5%" filterUnits="objectBoundingBox"><feOffset dy=".5" in="SourceAlpha" result="shadowOffsetOuter1"/><feGaussianBlur in="shadowOffsetOuter1" result="shadowBlurOuter1" stdDeviation=".5"/><feComposite in="shadowBlurOuter1" in2="SourceAlpha" operator="out" result="shadowBlurOuter1"/><feColorMatrix in="shadowBlurOuter1" values="0 0 0 0 0 0 0 0 0 0 0 0 0 0 0 0 0 0 0.204257246 0"/></filter></defs><g fill="none"><use fill="#000" filter="url(#a)" xlink:href="#b"/><use fill="#5592D7" xlink:href="#b"/><use fill="url(#c)" style="mix-blend-mode:soft-light" xlink:href="#b"/><circle cx="16" cy="15" r="14.5" stroke="#000" stroke-opacity=".097"/><g fill="#FFF"><path d="M20.25 11.67v12.97L9.3 18.34c-3.25-1.9-3.04-3.08-3.04-5.65l11.26 6.5v-5.95l2.73-1.6z"/><path d="M17.52 19.2L6.26 12.7 17.2 6.37c3.25-1.84 4.18-1.07 6.44.2L12.38 13.1l5.14 2.98v3.13z" opacity=".6"/><path d="M12.38 13.1l11.26-6.5v12.6c0 3.75-1.13 4.16-3.4 5.44V11.67l-5.2 2.97-2.66-1.54z" opacity=".2"/></g><use fill="#000" filter="url(#d)" xlink:href="#e"/><use xlink:href="#e"/></g></svg>