<svg xmlns="http://www.w3.org/2000/svg" width="32" height="32" xmlns:xlink="http://www.w3.org/1999/xlink"><defs><linearGradient id="c" x1="50%" x2="50%" y1="0%" y2="100%"><stop offset="0%" stop-color="#FFF" stop-opacity=".5"/><stop offset="100%" stop-opacity=".5"/></linearGradient><circle id="b" cx="16" cy="15" r="15"/><filter id="a" width="111.7%" height="111.7%" x="-5.8%" y="-4.2%" filterUnits="objectBoundingBox"><feOffset dy=".5" in="SourceAlpha" result="shadowOffsetOuter1"/><feGaussianBlur in="shadowOffsetOuter1" result="shadowBlurOuter1" stdDeviation=".5"/><feComposite in="shadowBlurOuter1" in2="SourceAlpha" operator="out" result="shadowBlurOuter1"/><feColorMatrix in="shadowBlurOuter1" values="0 0 0 0 0 0 0 0 0 0 0 0 0 0 0 0 0 0 0.199473505 0"/></filter><path id="e" d="M15.53 6.06c.56-.16 1.15 0 1.63.3 2.15 1.22 4.3 2.44 6.47 3.63.83.42 1.38 1.33 1.37 2.26 0 3.1 0 6.2 0 9.3.03.2-.12.45-.36.42-.96 0-1.92 0-2.88 0-.2.03-.42-.15-.4-.36-.1-2.64-.05-5.28-.02-7.9 0-.34-.07-.7-.28-.96-.22-.28-.56-.42-.86-.6-.5-.26-.97-.57-1.5-.8-.2-.08-.44-.16-.63 0-.2.18-.2.48-.22.74-.04 1.3-.05 2.6 0 3.88 0 .3 0 .67-.24.9-.22.24-.6.24-.9.25-.56 0-1.13 0-1.7-.02-.23 0-.52-.03-.7-.24-.12-.2-.1-.46-.12-.7 0-1.36 0-2.72 0-4.08-.02-.24 0-.5-.18-.7-.18-.17-.44-.1-.63-.04-.43.16-.8.42-1.2.63-.42.22-.85.42-1.2.74-.22.2-.28.5-.3.8 0 2.68.02 5.35 0 8 .02.2-.1.47-.34.46-1 0-1.98 0-2.97 0-.2 0-.38-.16-.36-.36.04-3.24.02-6.5.02-9.73-.03-.67.35-1.34.96-1.66 2.25-1.26 4.5-2.5 6.76-3.8.25-.14.5-.3.8-.37z"/><filter id="d" width="119.4%" height="121.9%" x="-9.7%" y="-7.8%" filterUnits="objectBoundingBox"><feOffset dy=".5" in="SourceAlpha" result="shadowOffsetOuter1"/><feGaussianBlur in="shadowOffsetOuter1" result="shadowBlurOuter1" stdDeviation=".5"/><feColorMatrix in="shadowBlurOuter1" values="0 0 0 0 0 0 0 0 0 0 0 0 0 0 0 0 0 0 0.204257246 0"/></filter></defs><g fill="none"><use fill="#000" filter="url(#a)" xlink:href="#b"/><use fill="#033B4A" xlink:href="#b"/><use fill="url(#c)" style="mix-blend-mode:soft-light" xlink:href="#b"/><circle cx="16" cy="15" r="14.5" stroke="#000" stroke-opacity=".097"/><use fill="#000" filter="url(#d)" xlink:href="#e"/><use fill="#FFF" fill-rule="evenodd" xlink:href="#e"/></g></svg>