<svg xmlns="http://www.w3.org/2000/svg" width="32" height="32" xmlns:xlink="http://www.w3.org/1999/xlink"><defs><linearGradient id="c" x1="50%" x2="50%" y1="0%" y2="100%"><stop offset="0%" stop-color="#FFF" stop-opacity=".5"/><stop offset="100%" stop-opacity=".5"/></linearGradient><circle id="b" cx="16" cy="15" r="15"/><filter id="a" width="111.7%" height="111.7%" x="-5.8%" y="-4.2%" filterUnits="objectBoundingBox"><feOffset dy=".5" in="SourceAlpha" result="shadowOffsetOuter1"/><feGaussianBlur in="shadowOffsetOuter1" result="shadowBlurOuter1" stdDeviation=".5"/><feComposite in="shadowBlurOuter1" in2="SourceAlpha" operator="out" result="shadowBlurOuter1"/><feColorMatrix in="shadowBlurOuter1" values="0 0 0 0 0 0 0 0 0 0 0 0 0 0 0 0 0 0 0.199473505 0"/></filter><path id="e" d="M8.63 19.12l5.27 3.1v1.72L7 19.9V9.3L16 4l9 5.3v10.6l-6.9 4.04v-1.72l5.27-3.1-1.36-.78.2-.3 1.34.76v-7.85L16.7 15v11.56L16 27l-.7-.44V15l-6.83-4.05v7.85l1.34-.77.2.3-1.36.8zm7.17-13.3L9.18 9.7 16 13.74l6.82-4.04-6.66-3.9v1.6h-.36V5.8zm0 2.6h.36v1.64h-.36V8.4zm0 2.65h.36v1.66l-.18.08-.18-.06v-1.66zm5.56 6.45l-.18.3-1.43-.82.18-.3 1.43.82zM19.1 16.2l-.18.3-1.44-.83.02-.2.16-.1 1.44.82zm-8.46 1.32l1.43-.82.18.3-1.43.83-.18-.3zm2.26-1.33l1.44-.85.16.12.02.2-1.44.82-.18-.3z"/><filter id="d" width="119.4%" height="115.2%" x="-9.7%" y="-5.4%" filterUnits="objectBoundingBox"><feOffset dy=".5" in="SourceAlpha" result="shadowOffsetOuter1"/><feGaussianBlur in="shadowOffsetOuter1" result="shadowBlurOuter1" stdDeviation=".5"/><feColorMatrix in="shadowBlurOuter1" values="0 0 0 0 0 0 0 0 0 0 0 0 0 0 0 0 0 0 0.204257246 0"/></filter></defs><g fill="none"><use fill="#000" filter="url(#a)" xlink:href="#b"/><use fill="#0B1529" xlink:href="#b"/><use fill="url(#c)" style="mix-blend-mode:soft-light" xlink:href="#b"/><circle cx="16" cy="15" r="14.5" stroke="#000" stroke-opacity=".097"/><use fill="#000" filter="url(#d)" xlink:href="#e"/><use fill="#FFF" xlink:href="#e"/></g></svg>