<svg xmlns="http://www.w3.org/2000/svg" width="32" height="32" xmlns:xlink="http://www.w3.org/1999/xlink"><defs><linearGradient id="c" x1="50%" x2="50%" y1="0%" y2="100%"><stop offset="0%" stop-color="#FFF" stop-opacity=".5"/><stop offset="100%" stop-opacity=".5"/></linearGradient><circle id="b" cx="16" cy="15" r="15"/><filter id="a" width="111.7%" height="111.7%" x="-5.8%" y="-4.2%" filterUnits="objectBoundingBox"><feOffset dy=".5" in="SourceAlpha" result="shadowOffsetOuter1"/><feGaussianBlur in="shadowOffsetOuter1" result="shadowBlurOuter1" stdDeviation=".5"/><feComposite in="shadowBlurOuter1" in2="SourceAlpha" operator="out" result="shadowBlurOuter1"/><feColorMatrix in="shadowBlurOuter1" values="0 0 0 0 0 0 0 0 0 0 0 0 0 0 0 0 0 0 0.199473505 0"/></filter><path id="e" d="M18.08 11.57c0 .9 0 1.8 0 2.68 0 1.5 0 2.97 0 4.45 0 .18-.06.3-.2.4-.62.35-1.22.74-1.87 1.14v-.33c0-2.27 0-4.57.03-6.87 0-.2-.05-.3-.23-.4-.54-.28-1.06-.6-1.6-.9-.05-.03-.1-.05-.2-.1v.32c0 2.06 0 4.1 0 6.17 0 .22-.06.33-.23.42-.53.3-1.04.6-1.56.9-.05.05-.13.1-.25.15v-.33c0-2.07 0-4.14 0-6.2 0-.25-.07-.37-.27-.48-.58-.33-1.16-.68-1.76-1.03.68-.4 1.32-.77 1.98-1.13.06-.03.18 0 .26.06.57.32 1.13.64 1.7.97.13.08.23.1.37 0 .53-.3 1.06-.6 1.58-.92.2-.12.33-.1.5 0 .6.36 1.2.7 1.8 1.05zm0 0c.05-.03.1-.1.14-.13.56-.32 1.13-.65 1.7-.96.1-.05.26-.05.35 0 .58.3 1.16.64 1.72.98.06.04.14.17.14.25 0 2.2 0 4.35 0 6.5 0 .08 0 .2-.06.2-.66.4-1.3.78-2 1.18v-.32c0-2.1 0-4.17 0-6.26 0-.18-.05-.3-.2-.38-.62-.34-1.22-.7-1.82-1.05zM6.95 17.8c-.8 0-1.43-.64-1.44-1.43 0-.8.64-1.42 1.43-1.43.8 0 1.43.62 1.44 1.42 0 .8-.63 1.42-1.42 1.43zm1.9 4.27c-.73 0-1.34-.58-1.35-1.33-.02-.73.58-1.34 1.33-1.36.72 0 1.35.6 1.36 1.34 0 .74-.6 1.35-1.36 1.35zM7.78 10.4c.72 0 1.3.58 1.3 1.3 0 .72-.6 1.3-1.32 1.3-.73 0-1.28-.58-1.28-1.3 0-.74.57-1.3 1.3-1.3zm17.52 4.9c-.68 0-1.23-.53-1.24-1.2 0-.67.55-1.23 1.23-1.23.65 0 1.2.56 1.2 1.22 0 .65-.55 1.2-1.2 1.2zM9.53 7.62c0-.63.5-1.1 1.1-1.1.62 0 1.1.5 1.1 1.1 0 .63-.5 1.12-1.1 1.1-.62 0-1.1-.48-1.1-1.1zm15.1 12.3c-.63 0-1.1-.5-1.1-1.1-.02-.63.47-1.13 1.08-1.13.6-.03 1.1.47 1.1 1.1.03.6-.45 1.1-1.07 1.1zM16 5.84c-.02.48-.4.83-.87.82-.47-.02-.82-.4-.8-.86 0-.45.4-.8.84-.8.46 0 .83.38.82.85zm5.76 17.5c-.47 0-.82-.36-.82-.82 0-.47.37-.83.85-.83.44 0 .8.36.8.82 0 .47-.37.83-.85.83zM17.48 25c-.45 0-.8-.34-.8-.8.02-.43.37-.77.8-.77.44 0 .8.36.8.8 0 .44-.35.77-.8.77zM20.1 7.28c-.38 0-.7-.33-.7-.72 0-.4.33-.7.7-.7.4 0 .72.33.72.7 0 .4-.33.72-.72.72zm-6.53 16.28c0 .35-.3.6-.63.6-.35 0-.62-.27-.6-.62 0-.35.28-.62.62-.62.34 0 .6.3.6.64zM24.23 9.58c0 .3-.22.54-.52.55-.27 0-.52-.23-.53-.52 0-.3.22-.52.52-.53.3 0 .53.22.54.52z"/><filter id="d" width="116.7%" height="117.5%" x="-8.3%" y="-6.2%" filterUnits="objectBoundingBox"><feOffset dy=".5" in="SourceAlpha" result="shadowOffsetOuter1"/><feGaussianBlur in="shadowOffsetOuter1" result="shadowBlurOuter1" stdDeviation=".5"/><feColorMatrix in="shadowBlurOuter1" values="0 0 0 0 0 0 0 0 0 0 0 0 0 0 0 0 0 0 0.204257246 0"/></filter></defs><g fill="none"><use fill="#000" filter="url(#a)" xlink:href="#b"/><use fill="#00A5FF" xlink:href="#b"/><use fill="url(#c)" style="mix-blend-mode:soft-light" xlink:href="#b"/><circle cx="16" cy="15" r="14.5" stroke="#000" stroke-opacity=".097"/><use fill="#000" filter="url(#d)" xlink:href="#e"/><use fill="#FFF" xlink:href="#e"/></g></svg>