<svg xmlns="http://www.w3.org/2000/svg" width="32" height="32" xmlns:xlink="http://www.w3.org/1999/xlink"><defs><linearGradient id="c" x1="50%" x2="50%" y1="0%" y2="100%"><stop offset="0%" stop-color="#FFF" stop-opacity=".5"/><stop offset="100%" stop-opacity=".5"/></linearGradient><circle id="b" cx="16" cy="15" r="15"/><filter id="a" width="111.7%" height="111.7%" x="-5.8%" y="-4.2%" filterUnits="objectBoundingBox"><feOffset dy=".5" in="SourceAlpha" result="shadowOffsetOuter1"/><feGaussianBlur in="shadowOffsetOuter1" result="shadowBlurOuter1" stdDeviation=".5"/><feComposite in="shadowBlurOuter1" in2="SourceAlpha" operator="out" result="shadowBlurOuter1"/><feColorMatrix in="shadowBlurOuter1" values="0 0 0 0 0 0 0 0 0 0 0 0 0 0 0 0 0 0 0.199473505 0"/></filter><path id="e" d="M20.5 15.84L13.8 25l.25-7.44H12.5l.63-6.53 7.1-.98-2.34 5.93 2.6-.14zm-5.5 6.5V20.6c0-.14-.1-.25-.24-.25-.14 0-.25.1-.25.24v1.73c0 .13.13.24.27.24.13 0 .24-.1.24-.24zm-1.83-5.3h1.4l-.05 2.7c0 .08.02.15.07.2.04.05.1.08.2.08.14 0 .27-.12.27-.26l.06-3.18h-1.4l.47-5.22c0-.06 0-.12-.05-.16-.05-.05-.1-.07-.17-.07h-.04c-.12 0-.2.08-.23.2l-.52 5.72zm0-6.6l2.6-2.14c.15-2.16-1.26-2.5-1.26-2.5l.23-.8c2.33.67 1.97 3.23 1.97 3.23l3.38 1.42-6.9.8z"/><filter id="d" width="143.8%" height="117.5%" x="-21.9%" y="-6.2%" filterUnits="objectBoundingBox"><feOffset dy=".5" in="SourceAlpha" result="shadowOffsetOuter1"/><feGaussianBlur in="shadowOffsetOuter1" result="shadowBlurOuter1" stdDeviation=".5"/><feColorMatrix in="shadowBlurOuter1" values="0 0 0 0 0 0 0 0 0 0 0 0 0 0 0 0 0 0 0.204257246 0"/></filter></defs><g fill="none"><use fill="#000" filter="url(#a)" xlink:href="#b"/><use fill="#F80000" xlink:href="#b"/><use fill="url(#c)" style="mix-blend-mode:soft-light" xlink:href="#b"/><circle cx="16" cy="15" r="14.5" stroke="#000" stroke-opacity=".097"/><use fill="#000" filter="url(#d)" xlink:href="#e"/><use fill="#FFF" fill-rule="evenodd" xlink:href="#e"/></g></svg>