<svg xmlns="http://www.w3.org/2000/svg" width="32" height="32" xmlns:xlink="http://www.w3.org/1999/xlink"><defs><linearGradient id="c" x1="50%" x2="50%" y1="0%" y2="100%"><stop offset="0%" stop-color="#FFF" stop-opacity=".5"/><stop offset="100%" stop-opacity=".5"/></linearGradient><circle id="b" cx="16" cy="15" r="15"/><filter id="a" width="111.7%" height="111.7%" x="-5.8%" y="-4.2%" filterUnits="objectBoundingBox"><feOffset dy=".5" in="SourceAlpha" result="shadowOffsetOuter1"/><feGaussianBlur in="shadowOffsetOuter1" result="shadowBlurOuter1" stdDeviation=".5"/><feComposite in="shadowBlurOuter1" in2="SourceAlpha" operator="out" result="shadowBlurOuter1"/><feColorMatrix in="shadowBlurOuter1" values="0 0 0 0 0 0 0 0 0 0 0 0 0 0 0 0 0 0 0.199473505 0"/></filter><path id="e" d="M18.6 16.38c-.1.02-.2.06-.27.1l-3.67-3.83c.16-.28.25-.6.25-.95 0-.88-.57-1.62-1.37-1.84V7.2l-1-.56 2.3-1.32c.72-.43 1.64-.43 2.37 0l4.5 2.62-1.77 1.03c-.24-.1-.5-.16-.77-.16-1.06 0-1.92.87-1.92 1.93 0 .85.57 1.58 1.35 1.82v3.84zm1.12 0v-3.84c.78-.24 1.35-.97 1.35-1.82 0-.35-.1-.67-.25-.95l2.03-1.18.97.54c.73.43 1.18 1.2 1.18 2.06v7.6c0 .84-.45 1.62-1.18 2.05l-4.1 2.36v-3.17c.78-.24 1.35-.96 1.35-1.82 0-.85-.57-1.57-1.35-1.8zm-2.22.86c-.17.3-.26.6-.26.96 0 .86.57 1.58 1.35 1.82v3.85l-1.4.8c-.75.44-1.67.44-2.4 0l-4.87-2.8 1.83-1.44c.33.28.76.45 1.23.45 1.05 0 1.9-.85 1.9-1.9 0-.88-.6-1.62-1.4-1.85v-3.6c.1-.02.2-.06.3-.1l3.7 3.8zm-5.12-.07c-.75.25-1.3.97-1.3 1.8 0 .18.03.34.07.5l-2.27 1.78-.7-.4C7.45 20.42 7 19.65 7 18.8v-7.6c0-.84.45-1.62 1.18-2.05l3.2-1.85 1 .55V9.9c-.75.25-1.3.96-1.3 1.8 0 .84.55 1.55 1.3 1.8v3.67zm.62-4.65c-.46 0-.83-.37-.83-.82 0-.46.37-.83.83-.83.46 0 .83.37.83.83 0 .45-.37.82-.83.82zm0 7.28c-.46 0-.83-.37-.83-.83 0-.45.37-.82.83-.82.46 0 .83.37.83.82 0 .46-.37.83-.83.83zm6.16-8.26c-.46 0-.83-.37-.83-.82 0-.46.37-.83.83-.83.45 0 .82.35.82.8 0 .46-.37.83-.82.83zm0 7.48c-.46 0-.83-.37-.83-.82 0-.46.37-.83.83-.83.45 0 .82.37.82.83 0 .45-.37.82-.82.82z"/><filter id="d" width="119.4%" height="117.5%" x="-9.7%" y="-6.2%" filterUnits="objectBoundingBox"><feOffset dy=".5" in="SourceAlpha" result="shadowOffsetOuter1"/><feGaussianBlur in="shadowOffsetOuter1" result="shadowBlurOuter1" stdDeviation=".5"/><feColorMatrix in="shadowBlurOuter1" values="0 0 0 0 0 0 0 0 0 0 0 0 0 0 0 0 0 0 0.204257246 0"/></filter></defs><g fill="none"><use fill="#000" filter="url(#a)" xlink:href="#b"/><use fill="#622FBA" fill-rule="evenodd" xlink:href="#b"/><use fill="url(#c)" fill-rule="evenodd" style="mix-blend-mode:soft-light" xlink:href="#b"/><circle cx="16" cy="15" r="14.5" stroke="#000" stroke-opacity=".097"/><use fill="#000" filter="url(#d)" xlink:href="#e"/><use fill="#FFF" xlink:href="#e"/></g></svg>