<svg xmlns="http://www.w3.org/2000/svg" width="32" height="32" xmlns:xlink="http://www.w3.org/1999/xlink"><defs><linearGradient id="c" x1="50%" x2="50%" y1="0%" y2="100%"><stop offset="0%" stop-color="#FFF" stop-opacity=".5"/><stop offset="100%" stop-opacity=".5"/></linearGradient><circle id="b" cx="16" cy="15" r="15"/><filter id="a" width="111.7%" height="111.7%" x="-5.8%" y="-4.2%" filterUnits="objectBoundingBox"><feOffset dy=".5" in="SourceAlpha" result="shadowOffsetOuter1"/><feGaussianBlur in="shadowOffsetOuter1" result="shadowBlurOuter1" stdDeviation=".5"/><feComposite in="shadowBlurOuter1" in2="SourceAlpha" operator="out" result="shadowBlurOuter1"/><feColorMatrix in="shadowBlurOuter1" values="0 0 0 0 0 0 0 0 0 0 0 0 0 0 0 0 0 0 0.199473505 0"/></filter><path id="e" d="M20.36 12.66v4.78l-4.3 2.37v-4.76l4.3-2.37zm5.14-1.23v7.14c0 .5-.14 1-.4 1.43-.26.43-.64.8-1.1 1.05l-3.22 1.77v-4.7l.4-.23v-5.7l3.94-2.17c.25.42.38.9.38 1.4zM8 21.05c-.44-.25-.8-.6-1.07-1-.28-.45-.43-.95-.43-1.48V14l4.42 3.45v.4l.35.2 4.42 2.43.35.2V25c-.55 0-1.1-.12-1.57-.38L8 21.05zm-.18-12L12.5 6.5l3.18 3.08-4.76 2.62v.4l-4.4 2.43-.02-3.6c0-.5.14-1 .4-1.43.24-.38.55-.7.92-.94zM24 8.95c.48.27.86.66 1.12 1.1L21.2 12.2v-.03l-.42-.22-4.33-2.38 4.33-2.4 3.2 1.78zM6.5 15.04l4.42-2.43v4.85l-4.4-2.42zm9.56-5.65V5c.5 0 1 .14 1.45.38l3.3 1.8-4.34 2.4-.4-.2zm-.37.2l-4.43-2.42 3.4-1.87c.44-.2.9-.3 1.38-.3v4.37l-.37.2zm.37 11.1l.37-.2 4.28 2.37-3.22 1.77c-.44.24-.94.37-1.44.38v-4.32h.02zm4.7-2.57v4.73l-.05.02-4.28-2.35 4.33-2.4z"/><filter id="d" width="118.4%" height="117.5%" x="-9.2%" y="-6.2%" filterUnits="objectBoundingBox"><feOffset dy=".5" in="SourceAlpha" result="shadowOffsetOuter1"/><feGaussianBlur in="shadowOffsetOuter1" result="shadowBlurOuter1" stdDeviation=".5"/><feColorMatrix in="shadowBlurOuter1" values="0 0 0 0 0 0 0 0 0 0 0 0 0 0 0 0 0 0 0.204257246 0"/></filter></defs><g fill="none"><use fill="#000" filter="url(#a)" xlink:href="#b"/><use fill="#50479E" xlink:href="#b"/><use fill="url(#c)" style="mix-blend-mode:soft-light" xlink:href="#b"/><circle cx="16" cy="15" r="14.5" stroke="#000" stroke-opacity=".097"/><use fill="#000" filter="url(#d)" xlink:href="#e"/><use fill="#FFF" fill-rule="evenodd" xlink:href="#e"/></g></svg>