<svg xmlns="http://www.w3.org/2000/svg" width="32" height="32" xmlns:xlink="http://www.w3.org/1999/xlink"><defs><linearGradient id="c" x1="50%" x2="50%" y1="0%" y2="100%"><stop offset="0%" stop-color="#FFF" stop-opacity=".5"/><stop offset="100%" stop-opacity=".5"/></linearGradient><circle id="b" cx="16" cy="15" r="15"/><filter id="a" width="111.7%" height="111.7%" x="-5.8%" y="-4.2%" filterUnits="objectBoundingBox"><feOffset dy=".5" in="SourceAlpha" result="shadowOffsetOuter1"/><feGaussianBlur in="shadowOffsetOuter1" result="shadowBlurOuter1" stdDeviation=".5"/><feComposite in="shadowBlurOuter1" in2="SourceAlpha" operator="out" result="shadowBlurOuter1"/><feColorMatrix in="shadowBlurOuter1" values="0 0 0 0 0 0 0 0 0 0 0 0 0 0 0 0 0 0 0.199473505 0"/></filter><path id="e" d="M12.73 17.66c1.06 2.15 2.1 4.23 3.15 6.38.55-1.63 1.07-3.2 1.6-4.78-1.56-.53-3.1-1.05-4.75-1.6M6.98 14.9c1.62.54 3.18 1.07 4.76 1.6.54-1.58 1.07-3.14 1.62-4.77-2.16 1.07-4.24 2.1-6.38 3.16m6.03 2c.1.04.1.06.16.1 1.54.5 3.07 1.02 4.6 1.53.13.04.3 0 .44-.05 1.75-.87 3.5-1.74 5.26-2.6.5-.25 1-.5 1.54-.77-.12-.04-.18-.07-.25-.1-1.48-.5-2.97-1-4.46-1.5-.16-.04-.36-.03-.5.04-1.87.9-3.74 1.83-5.6 2.75-.4.2-.78.4-1.2.6m6.5-4.07c-1.13-2.3-2.25-4.55-3.4-6.87-1.16 3.45-2.3 6.82-3.47 10.27 2.33-1.15 4.58-2.27 6.87-3.4M5 15c1.1-.54 2.13-1.05 3.16-1.56 1.76-.87 3.52-1.74 5.28-2.6.2-.1.3-.2.36-.4.7-2.07 1.4-4.12 2.08-6.17.03-.07.06-.14.1-.27.08.14.13.23.18.33 1.34 2.73 2.7 5.46 4.04 8.18.07.15.24.26.4.3 2.03.7 4.07 1.4 6.1 2.1.08.03.16.05.3.1-.2.1-.33.17-.47.24-2.63 1.3-5.25 2.6-7.88 3.9-.26.1-.4.28-.5.55-.68 2.03-1.37 4.05-2.06 6.1-.04.04-.06.1-.1.2-.2-.35-.34-.65-.5-.95-1.2-2.48-2.44-4.97-3.66-7.45-.1-.22-.22-.34-.45-.42-2.05-.68-4.1-1.38-6.13-2.07-.07 0-.15-.04-.28-.1"/><filter id="d" width="115.9%" height="115.9%" x="-8%" y="-5.7%" filterUnits="objectBoundingBox"><feOffset dy=".5" in="SourceAlpha" result="shadowOffsetOuter1"/><feGaussianBlur in="shadowOffsetOuter1" result="shadowBlurOuter1" stdDeviation=".5"/><feColorMatrix in="shadowBlurOuter1" values="0 0 0 0 0 0 0 0 0 0 0 0 0 0 0 0 0 0 0.204257246 0"/></filter></defs><g fill="none"><use fill="#000" filter="url(#a)" xlink:href="#b"/><use fill="#222" xlink:href="#b"/><use fill="url(#c)" style="mix-blend-mode:soft-light" xlink:href="#b"/><circle cx="16" cy="15" r="14.5" stroke="#000" stroke-opacity=".097"/><use fill="#000" filter="url(#d)" xlink:href="#e"/><use fill="#FFF" xlink:href="#e"/></g></svg>