<svg xmlns="http://www.w3.org/2000/svg" width="32" height="32" xmlns:xlink="http://www.w3.org/1999/xlink"><defs><linearGradient id="c" x1="50%" x2="50%" y1="0%" y2="100%"><stop offset="0%" stop-color="#FFF" stop-opacity=".5"/><stop offset="100%" stop-opacity=".5"/></linearGradient><circle id="b" cx="16" cy="15" r="15"/><filter id="a" width="111.7%" height="111.7%" x="-5.8%" y="-4.2%" filterUnits="objectBoundingBox"><feOffset dy=".5" in="SourceAlpha" result="shadowOffsetOuter1"/><feGaussianBlur in="shadowOffsetOuter1" result="shadowBlurOuter1" stdDeviation=".5"/><feComposite in="shadowBlurOuter1" in2="SourceAlpha" operator="out" result="shadowBlurOuter1"/><feColorMatrix in="shadowBlurOuter1" values="0 0 0 0 0 0 0 0 0 0 0 0 0 0 0 0 0 0 0.199473505 0"/></filter><path id="e" d="M6.15 10.95C6.05 10.17 6 9.4 6 8.65c1.32-.77 2.7-1.36 4.15-1.8 2.04-.6 4.12-.9 6.26-.85.6.02 1.4.08 2.04.15-1.6.85-2.72 2.38-3.07 4.2-.06.3-.1.62-.1.97-.02.54-.07.96-.18 1.36-.46 1.58-1.75 2.82-3.35 3.18-2.1.48-4.22-.56-5.13-2.5-.03-.1-.06-.2-.1-.3-.15-.7-.27-1.4-.35-2.1zm16.6 8.56c-.23.4-.48.75-.74 1.1 0-1-.22-1.97-.7-2.9-.5-.92-1.24-1.7-2.16-2.24-.04-.03-.04-.03-.1-.06-.07-.05-.1-.07-.14-.1-1.15-.72-1.84-1.73-2.08-3.04-.44-2.36 1.04-4.65 3.38-5.22.82-.2 1.63-.17 2.44.08.62.2 1.24.45 2 .8.44.22.9.45 1.36.72 0 .54-.03 1.1-.08 1.66-.07.84-.2 1.66-.37 2.48-.52 2.4-1.45 4.65-2.8 6.73zm-3.03 3.7c-1.14 1.08-2.38 2-3.72 2.8-.2-.1-.6-.35-1.02-.63-1.16-.8-2.24-1.68-3.22-2.7-.98-1-1.85-2.1-2.6-3.3-.56-.86-1.05-1.78-1.46-2.72.2.1.4.22.6.3.58.26 1.2.42 1.82.48 1.28.13 2.48-.13 3.6-.77.55-.3 1.12-.5 1.72-.57 2.17-.28 4.25 1.04 4.9 3.2.33 1.12.24 2.22-.3 3.3-.03.1-.07.17-.16.35-.02.04-.02.04-.04.1-.03.05-.07.1-.12.15z"/><filter id="d" width="117.5%" height="117.5%" x="-8.8%" y="-6.2%" filterUnits="objectBoundingBox"><feOffset dy=".5" in="SourceAlpha" result="shadowOffsetOuter1"/><feGaussianBlur in="shadowOffsetOuter1" result="shadowBlurOuter1" stdDeviation=".5"/><feColorMatrix in="shadowBlurOuter1" values="0 0 0 0 0 0 0 0 0 0 0 0 0 0 0 0 0 0 0.204257246 0"/></filter></defs><g fill="none"><use fill="#000" filter="url(#a)" xlink:href="#b"/><use fill="#67B2E8" xlink:href="#b"/><use fill="url(#c)" style="mix-blend-mode:soft-light" xlink:href="#b"/><circle cx="16" cy="15" r="14.5" stroke="#000" stroke-opacity=".097"/><use fill="#000" filter="url(#d)" xlink:href="#e"/><use fill="#FFF" xlink:href="#e"/></g></svg>