<svg xmlns="http://www.w3.org/2000/svg" width="32" height="32" xmlns:xlink="http://www.w3.org/1999/xlink"><defs><linearGradient id="c" x1="50%" x2="50%" y1="0%" y2="100%"><stop offset="0%" stop-color="#FFF" stop-opacity=".5"/><stop offset="100%" stop-opacity=".5"/></linearGradient><circle id="b" cx="15" cy="15" r="15"/><filter id="a" width="111.7%" height="111.7%" x="-5.8%" y="-4.2%" filterUnits="objectBoundingBox"><feOffset dy=".5" in="SourceAlpha" result="shadowOffsetOuter1"/><feGaussianBlur in="shadowOffsetOuter1" result="shadowBlurOuter1" stdDeviation=".5"/><feComposite in="shadowBlurOuter1" in2="SourceAlpha" operator="out" result="shadowBlurOuter1"/><feColorMatrix in="shadowBlurOuter1" values="0 0 0 0 0 0 0 0 0 0 0 0 0 0 0 0 0 0 0.199473505 0"/></filter><path id="e" d="M1.88 22.28c.57-1.66 1.66-3.45 3.18-5.22-.23-.3-.37-.7-.37-1.12 0-1.04.82-1.88 1.85-1.88.42 0 .8.14 1.12.37 1.15-1.02 2.44-2 3.84-2.92C18 7.3 24.9 5.96 28.24 7.97c.95 1.77 1.55 3.75 1.7 5.85-1.07 3.55-4.64 7.78-9.74 11.1-3.5 2.27-7.14 3.7-10.26 4.24-3.45-1.23-6.3-3.7-8.07-6.85zm3.5-4.88c-2.18 2.54-3.06 5.16-2 6.8 1.6 2.47 7.05 1.8 12.15-1.52 5.1-3.3 7.94-8 6.33-10.48-1.6-2.48-7.05-1.8-12.15 1.5-.55.38-1.1.76-1.6 1.16.2.3.35.68.35 1.08 0 1.03-.84 1.87-1.88 1.87-.44 0-.84-.13-1.17-.4z"/><filter id="d" width="112.5%" height="115.8%" x="-6.2%" y="-5.7%" filterUnits="objectBoundingBox"><feOffset dy=".5" in="SourceAlpha" result="shadowOffsetOuter1"/><feGaussianBlur in="shadowOffsetOuter1" result="shadowBlurOuter1" stdDeviation=".5"/><feColorMatrix in="shadowBlurOuter1" values="0 0 0 0 0 0 0 0 0 0 0 0 0 0 0 0 0 0 0.204257246 0"/></filter></defs><g fill="none" transform="translate(1)"><use fill="#000" filter="url(#a)" xlink:href="#b"/><use fill="#4099CD" xlink:href="#b"/><use fill="url(#c)" style="mix-blend-mode:soft-light" xlink:href="#b"/><circle cx="15" cy="15" r="14.5" stroke="#000" stroke-opacity=".097"/><use fill="#000" filter="url(#d)" xlink:href="#e"/><use fill="#FFF" xlink:href="#e"/></g></svg>