<svg xmlns="http://www.w3.org/2000/svg" width="32" height="32" xmlns:xlink="http://www.w3.org/1999/xlink"><defs><linearGradient id="c" x1="50%" x2="50%" y1="0%" y2="100%"><stop offset="0%" stop-color="#FFF" stop-opacity=".5"/><stop offset="100%" stop-opacity=".5"/></linearGradient><circle id="b" cx="16" cy="15" r="15"/><filter id="a" width="111.7%" height="111.7%" x="-5.8%" y="-4.2%" filterUnits="objectBoundingBox"><feOffset dy=".5" in="SourceAlpha" result="shadowOffsetOuter1"/><feGaussianBlur in="shadowOffsetOuter1" result="shadowBlurOuter1" stdDeviation=".5"/><feComposite in="shadowBlurOuter1" in2="SourceAlpha" operator="out" result="shadowBlurOuter1"/><feColorMatrix in="shadowBlurOuter1" values="0 0 0 0 0 0 0 0 0 0 0 0 0 0 0 0 0 0 0.199473505 0"/></filter><path id="e" d="M18.15 12.72L16.2 8.9c.4-.88.6-1.38.6-1.5 0-.4-.26-.7-.8-.9 2.88 0 4.86 0 5.95 0-.74.33-1.4 1.16-1.96 2.48l-1.86 3.74zm-2.9 5.93l-.92 1.84c1.9 0 3.68 0 5.34 0 2.4 0 4.03-.48 4.84-1.38l-2.83 4.37c-8.53 0-13.4 0-14.58 0 1.56-.3 3.15-2.2 4.75-5.7.54-1.08 1.04-2.07 1.5-2.98l1.9 3.82zM5 19.25c1.18-.7 5.5-8.17 5.5-10.27 0-.5-.3-.97-.9-1.4h4.65l4.03 7.92 3.9-7.93H27c-2.04.54-6.07 10.15-6.07 11.27 0 .22.04.35.12.4H16.8L13.2 12l-3.6 7.25H5z"/><filter id="d" width="115.9%" height="120.6%" x="-8%" y="-7.4%" filterUnits="objectBoundingBox"><feOffset dy=".5" in="SourceAlpha" result="shadowOffsetOuter1"/><feGaussianBlur in="shadowOffsetOuter1" result="shadowBlurOuter1" stdDeviation=".5"/><feColorMatrix in="shadowBlurOuter1" values="0 0 0 0 0 0 0 0 0 0 0 0 0 0 0 0 0 0 0.204257246 0"/></filter></defs><g fill="none"><use fill="#000" filter="url(#a)" xlink:href="#b"/><use fill="#F28F01" xlink:href="#b"/><use fill="url(#c)" style="mix-blend-mode:soft-light" xlink:href="#b"/><circle cx="16" cy="15" r="14.5" stroke="#000" stroke-opacity=".097"/><use fill="#000" filter="url(#d)" xlink:href="#e"/><use fill="#FFF" xlink:href="#e"/></g></svg>