<svg xmlns="http://www.w3.org/2000/svg" width="32" height="32" xmlns:xlink="http://www.w3.org/1999/xlink"><defs><linearGradient id="c" x1="50%" x2="50%" y1="0%" y2="100%"><stop offset="0%" stop-color="#FFF" stop-opacity=".5"/><stop offset="100%" stop-opacity=".5"/></linearGradient><circle id="b" cx="16" cy="15" r="15"/><filter id="a" width="111.7%" height="111.7%" x="-5.8%" y="-4.2%" filterUnits="objectBoundingBox"><feOffset dy=".5" in="SourceAlpha" result="shadowOffsetOuter1"/><feGaussianBlur in="shadowOffsetOuter1" result="shadowBlurOuter1" stdDeviation=".5"/><feComposite in="shadowBlurOuter1" in2="SourceAlpha" operator="out" result="shadowBlurOuter1"/><feColorMatrix in="shadowBlurOuter1" values="0 0 0 0 0 0 0 0 0 0 0 0 0 0 0 0 0 0 0.199473505 0"/></filter><path id="e" d="M26.08 15.83c-.5 0-.92-.37-.92-.83 0 0 0-.83 0-.83s-4.6 0-4.6 0c-.5 0-.93-.38-.93-.84 0-.46.42-.83.92-.83 0 0 5.53 0 5.53 0 .5 0 .92.37.92.83 0 0 0 1.67 0 1.67 0 .46-.4.83-.92.83zm-4.55 0s.86 0 .86 0 .96 0 .96 0c.5 0 .92.38.92.84 0 .46-.42.83-.93.83 0 0-.98 0-.98 0s-.87 0-.87 0-.98 0-.98 0c-.15 0-.3-.03-.42-.1 0 0-5.35-3.23-5.35-3.23s-1.55 0-1.55 0c-.5 0-.9-.38-.9-.84 0-.46.4-.83.9-.83 0 0 1.84 0 1.84 0 .2 0 .38.06.53.15 0 0 5.23 3.18 5.23 3.18s.7 0 .7 0zm-6.46 0c.5 0 .92.38.92.84 0 .46-.43.83-.94.83 0 0-1.84 0-1.84 0-.15 0-.3-.03-.42-.1 0 0-5.34-3.23-5.34-3.23s-1.54 0-1.54 0c-.5 0-.92-.38-.92-.84 0-.46.4-.83.92-.83 0 0 1.83 0 1.83 0 .2 0 .38.06.53.15 0 0 5.24 3.18 5.24 3.18s1.55 0 1.55 0zm-9.15 0s1.83 0 1.83 0c.5 0 .92.38.92.84 0 .46-.4.83-.92.83 0 0-1.83 0-1.83 0-.5 0-.92-.37-.92-.83 0-.46.4-.84.92-.84z"/><filter id="d" width="115.9%" height="170%" x="-8%" y="-25%" filterUnits="objectBoundingBox"><feOffset dy=".5" in="SourceAlpha" result="shadowOffsetOuter1"/><feGaussianBlur in="shadowOffsetOuter1" result="shadowBlurOuter1" stdDeviation=".5"/><feColorMatrix in="shadowBlurOuter1" values="0 0 0 0 0 0 0 0 0 0 0 0 0 0 0 0 0 0 0.204257246 0"/></filter></defs><g fill="none"><use fill="#000" filter="url(#a)" xlink:href="#b"/><use fill="#008FBB" xlink:href="#b"/><use fill="url(#c)" style="mix-blend-mode:soft-light" xlink:href="#b"/><circle cx="16" cy="15" r="14.5" stroke="#000" stroke-opacity=".097"/><use fill="#000" filter="url(#d)" xlink:href="#e"/><use fill="#FFF" xlink:href="#e"/></g></svg>