<svg xmlns="http://www.w3.org/2000/svg" width="32" height="32" xmlns:xlink="http://www.w3.org/1999/xlink"><defs><linearGradient id="c" x1="50%" x2="50%" y1="0%" y2="100%"><stop offset="0%" stop-color="#FFF" stop-opacity=".5"/><stop offset="100%" stop-opacity=".5"/></linearGradient><circle id="b" cx="16" cy="15" r="15"/><filter id="a" width="111.7%" height="111.7%" x="-5.8%" y="-4.2%" filterUnits="objectBoundingBox"><feOffset dy=".5" in="SourceAlpha" result="shadowOffsetOuter1"/><feGaussianBlur in="shadowOffsetOuter1" result="shadowBlurOuter1" stdDeviation=".5"/><feComposite in="shadowBlurOuter1" in2="SourceAlpha" operator="out" result="shadowBlurOuter1"/><feColorMatrix in="shadowBlurOuter1" values="0 0 0 0 0 0 0 0 0 0 0 0 0 0 0 0 0 0 0.199473505 0"/></filter><path id="e" d="M11.86 16.3c-2.4 0-4.35 1.94-4.35 4.34S9.47 25 11.88 25c2.4 0 4.35-1.95 4.35-4.36 0-2.4-1.94-4.35-4.34-4.35zm0 7.38c-1.68 0-3.04-1.36-3.04-3.03 0-1.68 1.36-3.04 3.04-3.04 1.67 0 3.03 1.38 3.03 3.06 0 1.67-1.38 3.03-3.05 3.03zM21.16 7c-2.4 0-4.36 1.95-4.36 4.36 0 2.4 1.95 4.35 4.35 4.35 2.4 0 4.35-1.93 4.35-4.33S23.55 7 21.15 7zm0 7.4c-1.7 0-3.04-1.37-3.04-3.04 0-1.68 1.35-3.04 3.03-3.04 1.67 0 3.03 1.36 3.03 3.04 0 1.67-1.36 3.03-3.03 3.03zM11.86 7C9.77 7 8 8.46 7.6 10.5c-.42 2.02.65 4.06 2.56 4.87 1.9.8 4.12.16 5.3-1.56 1.16-1.7.96-4-.5-5.47h1.25V7h-4.33zm3.02 4.36c0 1.67-1.37 3.03-3.04 3.03-1.68 0-3.04-1.38-3.04-3.05 0-1.68 1.36-3.04 3.04-3.04 1.67 0 3.03 1.37 3.03 3.05z"/><filter id="d" width="119.4%" height="119.4%" x="-9.7%" y="-6.9%" filterUnits="objectBoundingBox"><feOffset dy=".5" in="SourceAlpha" result="shadowOffsetOuter1"/><feGaussianBlur in="shadowOffsetOuter1" result="shadowBlurOuter1" stdDeviation=".5"/><feColorMatrix in="shadowBlurOuter1" values="0 0 0 0 0 0 0 0 0 0 0 0 0 0 0 0 0 0 0.204257246 0"/></filter></defs><g fill="none"><use fill="#000" filter="url(#a)" xlink:href="#b"/><use fill="#1A53F0" xlink:href="#b"/><use fill="url(#c)" style="mix-blend-mode:soft-light" xlink:href="#b"/><circle cx="16" cy="15" r="14.5" stroke="#000" stroke-opacity=".097"/><use fill="#000" filter="url(#d)" xlink:href="#e"/><use fill="#FFF" fill-rule="evenodd" xlink:href="#e"/></g></svg>