<svg xmlns="http://www.w3.org/2000/svg" width="32" height="32" xmlns:xlink="http://www.w3.org/1999/xlink"><defs><linearGradient id="c" x1="50%" x2="50%" y1="0%" y2="100%"><stop offset="0%" stop-color="#FFF" stop-opacity=".5"/><stop offset="100%" stop-opacity=".5"/></linearGradient><circle id="b" cx="16" cy="15" r="15"/><filter id="a" width="111.7%" height="111.7%" x="-5.8%" y="-4.2%" filterUnits="objectBoundingBox"><feOffset dy=".5" in="SourceAlpha" result="shadowOffsetOuter1"/><feGaussianBlur in="shadowOffsetOuter1" result="shadowBlurOuter1" stdDeviation=".5"/><feComposite in="shadowBlurOuter1" in2="SourceAlpha" operator="out" result="shadowBlurOuter1"/><feColorMatrix in="shadowBlurOuter1" values="0 0 0 0 0 0 0 0 0 0 0 0 0 0 0 0 0 0 0.199473505 0"/></filter><path id="e" d="M15.42 5.17c.65-.28 1.1.32 1.5.7.72.62 1.4 1.26 2.03 1.94.37.4.22 1.15-.28 1.37-.38.2-.85.05-1.15-.24-.77-.74-1.5-1.52-2.3-2.22-.5-.4-.4-1.3.2-1.52m7.04 2.05c.44-.23 1.13-.04 1.26.48.18.47-.12.93-.44 1.24-.72.7-1.4 1.43-2.1 2.16-.26.3-.7.37-1.06.2-.52-.2-.66-.98-.27-1.37.88-.9 1.65-1.9 2.6-2.7M8.5 7.36c.45-.28 1-.1 1.35.28.75.76 1.53 1.5 2.3 2.26.5.47.15 1.47-.55 1.47-.6.1-.9-.5-1.3-.82-.7-.57-1.34-1.2-1.97-1.86-.35-.38-.25-1.06.16-1.34m.57 4.52c.76-.3 1.5.66 1.03 1.32-.55.73-1.3 1.32-1.9 2.02-.36.37-.7.94-1.3.87-.7-.03-1.07-1-.55-1.5.93-.87 1.66-2 2.73-2.72M24.55 14c.53-.35 1.32.04 1.34.68.06.6-.54.9-.86 1.3-.57.7-1.2 1.33-1.85 1.95-.48.45-1.37.14-1.45-.5-.1-.68.52-1.1.9-1.53.67-.6 1.22-1.32 1.9-1.9m-13.5 4.7c.52-.3 1.3.06 1.3.68.1.6-.5.9-.8 1.3-.6.7-1.22 1.33-1.86 1.96-.43.42-1.3.22-1.44-.4-.2-.57.3-1.04.67-1.4.74-.7 1.37-1.48 2.13-2.14m9.06-.02c.28-.1.64-.1.88.1.9.84 1.83 1.62 2.66 2.5.26.27.28.7.1 1.02-.23.56-1.05.57-1.45.18-.8-.76-1.56-1.56-2.37-2.32-.5-.38-.38-1.26.2-1.48m-6.8 2.14c.43-.22.92 0 1.23.3.76.77 1.52 1.52 2.3 2.25.53.48.18 1.5-.55 1.5-.6.06-.9-.52-1.3-.85-.7-.57-1.32-1.2-1.94-1.85-.37-.4-.22-1.14.28-1.36M12 5.9c0 .36-.2.67-.55.8-.32.14-.7.07-.94-.2-.24-.23-.3-.6-.2-.93.16-.32.47-.53.8-.53.5 0 .9.4.9.87m2.52 2.3c0 .5-.38.88-.86.88s-.87-.38-.87-.86.4-.86.86-.86c.23 0 .45.1.6.25.18.17.27.4.27.6m-6.76 2.14c0 .35-.22.67-.54.8-.32.14-.7.06-.95-.18-.24-.25-.32-.62-.18-.95.13-.3.45-.52.8-.52.23 0 .45.1.6.25.17.16.27.38.27.6M21.5 5.88c0 .35-.2.66-.53.8-.32.13-.7.06-.94-.2-.25-.24-.33-.6-.2-.93.14-.33.46-.54.8-.54.24 0 .46.1.62.26.17.17.26.4.26.62m4.5 4.28c0 .47-.4.86-.86.86-.48 0-.86-.38-.86-.85 0-.48.38-.87.86-.87s.87.4.87.87m-2.36 2.5c0 .47-.4.86-.87.86-.48 0-.87-.38-.87-.86s.38-.87.86-.87c.23 0 .45.1.6.25.18.17.27.4.27.62m2.37 7c0 .48-.4.87-.87.87-.48 0-.87-.38-.87-.86 0-.47.4-.86.87-.86.23 0 .45.1.6.25.17.16.27.38.27.6m-6.77 2.13c0 .35-.2.67-.54.8-.34.14-.7.06-.96-.2-.25-.23-.32-.6-.2-.93.15-.33.46-.54.8-.54.24 0 .46.08.63.25.16.16.25.38.25.6m2.5 2.38c0 .35-.22.67-.54.8-.33.14-.7.06-.95-.18-.25-.25-.33-.63-.2-.95.14-.32.46-.54.8-.54.24 0 .46.1.62.25.16.16.26.38.26.6m-9.5 0c0 .36-.2.68-.53.8-.33.15-.7.07-.96-.17-.23-.25-.3-.63-.17-.95.13-.32.45-.54.8-.54.48 0 .87.4.87.86m-2.12-6.8c0 .36-.2.68-.53.8-.32.14-.7.07-.94-.18s-.3-.62-.2-.94c.15-.32.47-.53.8-.53.5 0 .9.4.9.88M7.72 19.9c0 .35-.22.67-.54.8-.33.13-.7.06-.96-.2-.24-.24-.32-.6-.18-.93.13-.33.45-.54.8-.54.23 0 .45.08.6.25.17.16.27.38.27.6"/><filter id="d" width="117.5%" height="117.5%" x="-8.8%" y="-6.2%" filterUnits="objectBoundingBox"><feOffset dy=".5" in="SourceAlpha" result="shadowOffsetOuter1"/><feGaussianBlur in="shadowOffsetOuter1" result="shadowBlurOuter1" stdDeviation=".5"/><feColorMatrix in="shadowBlurOuter1" values="0 0 0 0 0 0 0 0 0 0 0 0 0 0 0 0 0 0 0.204257246 0"/></filter></defs><g fill="none"><use fill="#000" filter="url(#a)" xlink:href="#b"/><use fill="#03E8B0" xlink:href="#b"/><use fill="url(#c)" style="mix-blend-mode:soft-light" xlink:href="#b"/><circle cx="16" cy="15" r="14.5" stroke="#000" stroke-opacity=".097"/><use fill="#000" filter="url(#d)" xlink:href="#e"/><use fill="#FFF" fill-rule="evenodd" xlink:href="#e"/></g></svg>