<svg xmlns="http://www.w3.org/2000/svg" width="32" height="32" xmlns:xlink="http://www.w3.org/1999/xlink"><defs><linearGradient id="c" x1="50%" x2="50%" y1="0%" y2="100%"><stop offset="0%" stop-color="#FFF" stop-opacity=".5"/><stop offset="100%" stop-opacity=".5"/></linearGradient><circle id="b" cx="16" cy="15" r="15"/><filter id="a" width="111.7%" height="111.7%" x="-5.8%" y="-4.2%" filterUnits="objectBoundingBox"><feOffset dy=".5" in="SourceAlpha" result="shadowOffsetOuter1"/><feGaussianBlur in="shadowOffsetOuter1" result="shadowBlurOuter1" stdDeviation=".5"/><feComposite in="shadowBlurOuter1" in2="SourceAlpha" operator="out" result="shadowBlurOuter1"/><feColorMatrix in="shadowBlurOuter1" values="0 0 0 0 0 0 0 0 0 0 0 0 0 0 0 0 0 0 0.199473505 0"/></filter><path id="e" d="M23.3 6.04c.5.5.5 1.34 0 1.85l-3.12 3.2c-.1.1-.2.17-.34.24-.47.26-1.06.18-1.44-.2l-3.12-3.2-6 6.15 1.45 1.5c.43.43.42 1.15 0 1.6-.45.44-1.15.45-1.6 0l-2.3-2.35c-.44-.45-.44-1.18 0-1.63 0 0 0 0 .02-.02l7.63-7.82.03-.03c.43-.4 1.05-.46 1.5-.14.08.07.15.1.2.2l3 3.04 2.32-2.4c.5-.5 1.3-.5 1.8 0zm1.87 9.1c.2.22.33.5.33.82 0 .3-.12.6-.33.8 0 .02 0 .02 0 .03-.02 0-.02 0-.03 0l-7.65 7.84c-.48.47-1.2.47-1.67 0-.04-.04-.08-.08-.1-.12l-2.92-2.98-2.3 2.37c-.33.35-.8.48-1.24.36-.44-.12-.8-.48-.9-.93-.12-.45 0-.93.33-1.26l3.12-3.2c.18-.2.4-.32.66-.37.4-.08.8.04 1.1.34l3.13 3.2 6-6.14-1.45-1.48c-.43-.46-.42-1.18 0-1.63.45-.46 1.15-.47 1.6 0l2.27 2.3.03.04z"/><filter id="d" width="118.4%" height="117.5%" x="-9.2%" y="-6.2%" filterUnits="objectBoundingBox"><feOffset dy=".5" in="SourceAlpha" result="shadowOffsetOuter1"/><feGaussianBlur in="shadowOffsetOuter1" result="shadowBlurOuter1" stdDeviation=".5"/><feColorMatrix in="shadowBlurOuter1" values="0 0 0 0 0 0 0 0 0 0 0 0 0 0 0 0 0 0 0.204257246 0"/></filter></defs><g fill="none"><use fill="#000" filter="url(#a)" xlink:href="#b"/><use fill="#348F8D" xlink:href="#b"/><use fill="url(#c)" style="mix-blend-mode:soft-light" xlink:href="#b"/><circle cx="16" cy="15" r="14.5" stroke="#000" stroke-opacity=".097"/><use fill="#000" filter="url(#d)" xlink:href="#e"/><use fill="#FFF" fill-rule="evenodd" xlink:href="#e"/></g></svg>