<svg xmlns="http://www.w3.org/2000/svg" width="32" height="32" xmlns:xlink="http://www.w3.org/1999/xlink"><defs><linearGradient id="c" x1="50%" x2="50%" y1="0%" y2="100%"><stop offset="0%" stop-color="#FFF" stop-opacity=".5"/><stop offset="100%" stop-opacity=".5"/></linearGradient><circle id="b" cx="16" cy="15" r="15"/><filter id="a" width="111.7%" height="111.7%" x="-5.8%" y="-4.2%" filterUnits="objectBoundingBox"><feOffset dy=".5" in="SourceAlpha" result="shadowOffsetOuter1"/><feGaussianBlur in="shadowOffsetOuter1" result="shadowBlurOuter1" stdDeviation=".5"/><feComposite in="shadowBlurOuter1" in2="SourceAlpha" operator="out" result="shadowBlurOuter1"/><feColorMatrix in="shadowBlurOuter1" values="0 0 0 0 0 0 0 0 0 0 0 0 0 0 0 0 0 0 0.199473505 0"/></filter><path id="e" d="M8.4 19.9h-.1V24H6V10.12h2.26v.65h.1C9.13 10 10.13 10 10.7 10c2.37 0 3.92 2.24 3.92 5.25v.4c0 3.12-1.8 5-3.95 5-1 0-1.76-.24-2.26-.75zm4.07-4.07v-.7c0-1.95-.74-3.26-2.07-3.26-1.44 0-2.2 1.53-2.2 3.27v.68c0 1.67.75 2.94 2.24 2.94 1.17 0 2.03-.92 2.03-2.93zM15.74 6h2.3v14.58h-2.3V6zm8.93 6.4c-1.3 0-2.6 1.04-2.6 2.34 0 .9 0 5.85 0 5.85h-2.3V10.2h2.14v.64h.1c.53-.55 1.8-.8 2.84-.8.1 0 .02.02.12.02v2.33h-.28zm-.97 5.7H26v2.48h-2.3v-2.5z"/><filter id="d" width="117.5%" height="119.4%" x="-8.8%" y="-6.9%" filterUnits="objectBoundingBox"><feOffset dy=".5" in="SourceAlpha" result="shadowOffsetOuter1"/><feGaussianBlur in="shadowOffsetOuter1" result="shadowBlurOuter1" stdDeviation=".5"/><feColorMatrix in="shadowBlurOuter1" values="0 0 0 0 0 0 0 0 0 0 0 0 0 0 0 0 0 0 0.204257246 0"/></filter></defs><g fill="none"><use fill="#000" filter="url(#a)" xlink:href="#b"/><use fill="#00BFFF" xlink:href="#b"/><use fill="url(#c)" style="mix-blend-mode:soft-light" xlink:href="#b"/><circle cx="16" cy="15" r="14.5" stroke="#000" stroke-opacity=".097"/><use fill="#000" filter="url(#d)" xlink:href="#e"/><use fill="#FFF" fill-rule="evenodd" xlink:href="#e"/></g></svg>