<svg xmlns="http://www.w3.org/2000/svg" width="32" height="32" xmlns:xlink="http://www.w3.org/1999/xlink"><defs><linearGradient id="c" x1="50%" x2="50%" y1="0%" y2="100%"><stop offset="0%" stop-color="#FFF" stop-opacity=".5"/><stop offset="100%" stop-opacity=".5"/></linearGradient><circle id="b" cx="16" cy="15" r="15"/><filter id="a" width="111.7%" height="111.7%" x="-5.8%" y="-4.2%" filterUnits="objectBoundingBox"><feOffset dy=".5" in="SourceAlpha" result="shadowOffsetOuter1"/><feGaussianBlur in="shadowOffsetOuter1" result="shadowBlurOuter1" stdDeviation=".5"/><feComposite in="shadowBlurOuter1" in2="SourceAlpha" operator="out" result="shadowBlurOuter1"/><feColorMatrix in="shadowBlurOuter1" values="0 0 0 0 0 0 0 0 0 0 0 0 0 0 0 0 0 0 0.199473505 0"/></filter><filter id="d" width="120.6%" height="117.5%" x="-10.3%" y="-6.2%" filterUnits="objectBoundingBox"><feOffset dy=".5" in="SourceAlpha" result="shadowOffsetOuter1"/><feGaussianBlur in="shadowOffsetOuter1" result="shadowBlurOuter1" stdDeviation=".5"/><feColorMatrix in="shadowBlurOuter1" result="shadowMatrixOuter1" values="0 0 0 0 0 0 0 0 0 0 0 0 0 0 0 0 0 0 0.204257246 0"/><feMerge><feMergeNode in="shadowMatrixOuter1"/><feMergeNode in="SourceGraphic"/></feMerge></filter></defs><g fill="none"><use fill="#000" filter="url(#a)" xlink:href="#b"/><use fill="#ED79AA" xlink:href="#b"/><use fill="url(#c)" style="mix-blend-mode:soft-light" xlink:href="#b"/><circle cx="16" cy="15" r="14.5" stroke="#000" stroke-opacity=".097"/><g fill="#FFF" filter="url(#d)" transform="translate(6.5 5)"><path d="M16.95 2.93L15.08 4.8c-1.32-1.32-3.14-2.14-5.15-2.14-3.92 0-7.1 3.1-7.28 7v7.13C1 15 0 12.6 0 10 0 4.48 4.45 0 9.93 0c2.74 0 5.22 1.12 7.02 2.93zm0 14.14c-1.76 1.78-4.18 2.9-6.86 2.93v-2.66c1.93-.05 3.7-.86 4.97-2.15l1.87 1.86z" opacity=".5"/><path d="M5.18 18.78v-9.1C5.34 7.08 7.5 5 10.1 5 12.8 5 15 7.2 15 9.95c0 2.73-2.2 4.94-4.9 4.94-.9 0-1.76-.27-2.5-.7v5.52c-.85-.2-1.66-.53-2.42-.95zm4.9-6.33c1.38 0 2.5-1.12 2.5-2.5 0-1.4-1.12-2.5-2.5-2.5-1.36 0-2.47 1.1-2.47 2.5 0 1.38 1.13 2.5 2.5 2.5z"/></g></g></svg>