<svg xmlns="http://www.w3.org/2000/svg" width="32" height="32" xmlns:xlink="http://www.w3.org/1999/xlink"><defs><linearGradient id="c" x1="50%" x2="50%" y1="0%" y2="100%"><stop offset="0%" stop-color="#FFF" stop-opacity=".5"/><stop offset="100%" stop-opacity=".5"/></linearGradient><circle id="b" cx="16" cy="15" r="15"/><filter id="a" width="111.7%" height="111.7%" x="-5.8%" y="-4.2%" filterUnits="objectBoundingBox"><feOffset dy=".5" in="SourceAlpha" result="shadowOffsetOuter1"/><feGaussianBlur in="shadowOffsetOuter1" result="shadowBlurOuter1" stdDeviation=".5"/><feComposite in="shadowBlurOuter1" in2="SourceAlpha" operator="out" result="shadowBlurOuter1"/><feColorMatrix in="shadowBlurOuter1" values="0 0 0 0 0 0 0 0 0 0 0 0 0 0 0 0 0 0 0.199473505 0"/></filter><path id="e" d="M11.6 15.1c.08.26.2.5.37.72l-2.5-2.5c-.25-.28-.4-.63-.4-1s.15-.72.4-1l3.15-3.13c.07-.07.13-.1.2-.18.02-.02.05-.05.08-.08l2.55-2.54c.54-.54 1.4-.53 1.95 0l8.34 8.4c.4.57.33 1.33-.15 1.8-.5.5-1.23.57-1.8.2l-7.37-7.43-.03-.04-3.93 3.94-.06.06 3.9 3.93c.36.35.5.87.36 1.35-.12.5-.5.87-.97 1-.5.13-1 0-1.35-.36l-2-2c-.02-.03-.05-.07-.1-.1l-.08-.1c-.07-.07-.13-.15-.2-.23l.06.06-.03-.04c-.18-.2-.3-.44-.4-.7zm8.14 2.58l-3.9-3.93c-.26-.26-.4-.62-.4-1 0-.36.14-.7.4-.97.26-.26.6-.4.98-.4.36 0 .72.14.98.4l2 2c.02.04.05.07.1.1l.08.1c.05.06.1.12.14.18 0 0 .02.02.02.03-.03-.06-.06-.1-.08-.14l2.6 2.63c.55.53.55 1.42 0 1.96l-3.14 3.15c-.07.06-.13.1-.2.16l-2.6 2.62c-.55.54-1.43.54-1.97 0l-8.48-8.55c-.42-.58-.34-1.4.2-1.88.52-.48 1.33-.48 1.86 0l7.4 7.47v.03l3.95-3.94.05-.04z"/><filter id="d" width="117.5%" height="117.5%" x="-8.8%" y="-6.2%" filterUnits="objectBoundingBox"><feOffset dy=".5" in="SourceAlpha" result="shadowOffsetOuter1"/><feGaussianBlur in="shadowOffsetOuter1" result="shadowBlurOuter1" stdDeviation=".5"/><feColorMatrix in="shadowBlurOuter1" values="0 0 0 0 0 0 0 0 0 0 0 0 0 0 0 0 0 0 0.204257246 0"/></filter></defs><g fill="none"><use fill="#000" filter="url(#a)" xlink:href="#b"/><use fill="#96B73D" xlink:href="#b"/><use fill="url(#c)" style="mix-blend-mode:soft-light" xlink:href="#b"/><circle cx="16" cy="15" r="14.5" stroke="#000" stroke-opacity=".097"/><use fill="#000" filter="url(#d)" xlink:href="#e"/><use fill="#FFF" fill-rule="evenodd" xlink:href="#e"/></g></svg>