<svg xmlns="http://www.w3.org/2000/svg" width="32" height="32" xmlns:xlink="http://www.w3.org/1999/xlink"><defs><linearGradient id="c" x1="50%" x2="50%" y1="0%" y2="100%"><stop offset="0%" stop-color="#FFF" stop-opacity=".5"/><stop offset="100%" stop-opacity=".5"/></linearGradient><circle id="b" cx="16" cy="15" r="15"/><filter id="a" width="111.7%" height="111.7%" x="-5.8%" y="-4.2%" filterUnits="objectBoundingBox"><feOffset dy=".5" in="SourceAlpha" result="shadowOffsetOuter1"/><feGaussianBlur in="shadowOffsetOuter1" result="shadowBlurOuter1" stdDeviation=".5"/><feComposite in="shadowBlurOuter1" in2="SourceAlpha" operator="out" result="shadowBlurOuter1"/><feColorMatrix in="shadowBlurOuter1" values="0 0 0 0 0 0 0 0 0 0 0 0 0 0 0 0 0 0 0.199473505 0"/></filter><path id="e" d="M28 14.95c.02.1-.03.2-.12.24h-.07l-2.3 2.3.9 3.37c.03.1-.03.22-.14.25l-3.2.86-.9 3.3c-.02.1-.1.15-.2.15 0 0-.03 0-.05 0l-3.4-.9-2.37 2.4c-.04.03-.1.05-.15.05-.05 0-.1-.02-.14-.06l-2.37-2.37-3.28.88c-.03 0-.05 0-.07 0-.1 0-.17-.06-.2-.15L9.03 22l-3.2-.87c-.05 0-.1-.05-.12-.1 0-.04-.02-.1 0-.15l.86-3.24-2.5-2.5C4.03 15.1 4 15.04 4 15c0-.06.02-.1.06-.15l2.42-2.43-.86-3.23c-.02-.07 0-.13.02-.18.03-.04.07-.08.12-.1l3.36-.9.87-3.27c0-.05.03-.1.1-.12.03-.03.1-.03.13-.02l3.18.86 2.4-2.4c.1-.1.23-.1.3 0l2.44 2.43 3.28-.9c.06 0 .1 0 .16.03.04.03.07.07.1.12v.1s.02.02.02.03l.84 3.14 3.36.9c.1.03.17.14.14.25l-.9 3.33 2.26 2.27c.1 0 .16.07.18.15zm-2.62 2.12l1.34-1.34-1.52.7.18.64zm.5 3.43l-.72-2.63-1.4 1.4 2.1 1.23zm-2.22-.82l-.5 1.85 2.5-.67-2-1.18zm-1.8 5.14l.72-2.7-1.97.52 1.27 2.18zm-2.5-1.13l-.5.5 1.98.52-1.48-1.04zm-3.18 2.6l1.88-1.9-1.88-.5v2.4zm-.4-2.36l-1.87.5 1.88 1.85v-2.36zm-5.2.96l2.54-.67-1.36-1.37-1.18 2.05zM9.5 22.1l.56 2.13.17-1.92-.73-.2zm-3.1-1.24l2.52.67-.5-1.86-2 1.2zm1.8-1.55L6.9 18l-.7 2.52 2-1.2zm-3.47-4.05l1.94 1.94.52-1.95H4.7zm2.08-1.58l-.2-.78L5 14.52l1.84-.86zm-.65-4.1l.68 2.53 1.35-1.36-2.03-1.18zm2.34.86L9 8.5l-2.65.7 2.12 1.23zm1.76-5.04l-.68 2.5 1.84-.48-1.17-2.04zm2.34.9l.48-.5-1.9-.5 1.4 1zm3.17-2.6l-1.9 1.9 1.9.5V3.7zm.4 2.45l1.93-.52-1.92-1.92v2.45zm5.4-1.02l-2.68.72L20.3 7.3l1.24-2.17zm.3 2.62l.63.17-.48-1.8-.15 1.64zm3.85 1.46l-2.64-.7.5 1.9 2.14-1.2zm-1.92 1.57l1.43 1.44.7-2.64-2.13 1.2zm3.44 4.03l-1.8-1.8-.48 1.8h2.28zm-2.36.4l.22.83 1.77-.83h-2zm-.3 1.08l.14-.07-.07-.23-.08.32zm-.15.5l-.45 1.7 1.06-1.07-.2-.8-.4.2zm-1.24 3.07l-2.3 2.3 1.8-.5.5-1.8zm-2.9 2.3l3.1-3.1.53-2.03-5.18 2.4 1.56 2.72zm-.1.66l-.56.6 1.54 1.1-.97-1.68zm-1.07.25l.17.12.23-.23-.4.1zm-.52.14l-1.8.47 1.58.42.6-.64-.38-.27zm-3.36.47l-2.9-.78 1.23 1.22 1.67-.44zM10.7 21.8l-.03.2.32.1-.3-.3zm-.4-.4l-1.36-1.36.43 1.62.9.24.04-.5zm-2.15-2.74l-.72-2.7L7 17.52l1.15 1.14zm-1.03-3.83l-.2-.76-1.63.76h1.8zm.47-1.07l-.3.13.12.46.16-.6zm.12-.52l.54-2.02-1.33 1.33.25.94.53-.27zm1.33-3.4l1.86-1.86-1.46.4-.4 1.46zm2.68-2.7l.56-.55-1.5-1.06.93 1.6zm1.16-.12l-.27-.2-.35.36.6-.16zm.5-.14l1.84-.5-1.7-.45-.6.6.47.35zm3.4-.5l2.8.75-1.18-1.17-1.6.43zm4.6 1.98l.03-.3-.47-.13.44.43zm.38.38l1.27 1.3-.44-1.67-.8-.2-.03.57zm2.06 2.66l.8 2.97.45-1.7-1.25-1.27zm-5.77 6.86l.45.82 5.53-2.58.35-1.3h-3.2l-.15 1.84c0 .1-.07.16-.16.18-.03 0-.05 0-.06 0-.07 0-.14-.03-.18-.1l-1-1.68-1.58 2.82zm-.8 1.4l.88-.4-.33-.58-.55.98zm-3.48-.37l4.87 3.42 1.3-.34-1.6-2.8-1.5.7c-.03.02-.06.02-.1.02-.04 0-.1-.02-.14-.06-.06-.07-.07-.17-.03-.24l.94-1.67-3.23.04-.5.9zm-.2.34L12 22.36l4 1.08 2.16-.58-4.6-3.22zm.23-1.26h-1.3l.92.65.38-.66zm-2.6-3.16l-.52 6.02.94.93 1.6-2.8-1.46-1.02c-.07-.05-.1-.15-.07-.23.03-.1.1-.15.2-.15l1.98-.02-1.62-2.74h-1zm-.4 0h-3.2l1.07 4 1.63 1.64.5-5.64zm1.18-.4l-.63-1.1-.1 1.1H12zM13.5 11l-5.43 2.53-.34 1.3h3.16l.14-1.76c0-.1.07-.16.16-.18.1-.04.2 0 .23.1l1 1.67 1.57-2.8-.5-.87zm-.22-.35l-1.62-2.83-2.8 2.8-.65 2.4 5.1-2.37zm5 .16l-4.94-3.46-1.3.34 1.62 2.8 1.6-.74c.08-.04.17-.02.23.05.05.05.06.15 0 .23l-.92 1.67 3.2-.05.5-.84zm.22-.34l1.6-2.76-4.06-1.1-2.18.6 4.64 3.25zm-.2 1.2l1.16-.02-.83-.58-.34.6zm2.5 3.55H20l.7 1.18.1-1.17zm-6.57-3.72l.62-1.1-1 .46.38.64zm3.57 6.47l1.63-2.9-1.74-2.97c-.03 0-.03 0-.03 0l-3.33.03-1.68 3 1.7 2.9 3.4-.05s.02 0 .03 0zm3.94-8.66l-.5 5.5h3.1l-1.06-3.97-1.54-1.54zm-.9 5.5l.52-5.9-.95-.94-1.56 2.74 1.38.96c.1.05.12.14.1.23-.04.07-.1.12-.2.12l-1.95.03 1.62 2.73h1.06zm.63-7.15l.16-1.8-.92 1.6.78.2zM10.63 22.42l-.16 1.86.95-1.65-.8-.2z"/><filter id="d" width="114.6%" height="114.6%" x="-7.3%" y="-5.2%" filterUnits="objectBoundingBox"><feOffset dy=".5" in="SourceAlpha" result="shadowOffsetOuter1"/><feGaussianBlur in="shadowOffsetOuter1" result="shadowBlurOuter1" stdDeviation=".5"/><feColorMatrix in="shadowBlurOuter1" values="0 0 0 0 0 0 0 0 0 0 0 0 0 0 0 0 0 0 0.204257246 0"/></filter></defs><g fill="none"><use fill="#000" filter="url(#a)" xlink:href="#b"/><use fill="#05BCA9" fill-rule="evenodd" xlink:href="#b"/><use fill="url(#c)" fill-rule="evenodd" style="mix-blend-mode:soft-light" xlink:href="#b"/><circle cx="16" cy="15" r="14.5" stroke="#000" stroke-opacity=".097"/><use fill="#000" filter="url(#d)" xlink:href="#e"/><use fill="#FFF" xlink:href="#e"/></g></svg>