<svg xmlns="http://www.w3.org/2000/svg" width="32" height="32" xmlns:xlink="http://www.w3.org/1999/xlink"><defs><linearGradient id="c" x1="50%" x2="50%" y1="0%" y2="100%"><stop offset="0%" stop-color="#FFF" stop-opacity=".5"/><stop offset="100%" stop-opacity=".5"/></linearGradient><circle id="b" cx="16" cy="15" r="15"/><filter id="a" width="111.7%" height="111.7%" x="-5.8%" y="-4.2%" filterUnits="objectBoundingBox"><feOffset dy=".5" in="SourceAlpha" result="shadowOffsetOuter1"/><feGaussianBlur in="shadowOffsetOuter1" result="shadowBlurOuter1" stdDeviation=".5"/><feComposite in="shadowBlurOuter1" in2="SourceAlpha" operator="out" result="shadowBlurOuter1"/><feColorMatrix in="shadowBlurOuter1" values="0 0 0 0 0 0 0 0 0 0 0 0 0 0 0 0 0 0 0.199473505 0"/></filter><path id="e" d="M16 4C9.92 4 5 8.92 5 15s4.92 11 11 11 11-4.92 11-11S22.08 4 16 4zm10.44 10.55h-.9v-.36l.9-.03v.37zm-.23-1.92l-.86.12-.05-.37.87-.12.05.37zm-.74-2.34l.16.3-.8.38-.16-.35.8-.36zm-1.1-1.7l.24.26-.68.6-.25-.3.67-.58zm-1.3-1.4l.27.23-.58.68-.3-.24.6-.67zM21.5 5.92l.3.2-.48.75-.3-.2.48-.76zm-1.78-.87l.37.1-.23.85-.36-.1.2-.84zm-1.93-.48l.36.02-.08.9-.37-.05.08-.88zm-2.03-.25h.37v.9h-.37v-.9zm-1.65.24l.07.87-.38.04-.07-.88.37-.03zm-1.95.47l.23.86-.36.1-.23-.87.36-.1zm-1.77.87l.5.76-.33.2-.48-.76.3-.2zM8.83 7.2l.58.67-.26.25-.58-.68.28-.24zm-1.3 1.4l.66.58-.26.28-.67-.6.24-.27zM6.4 10.3l.82.35-.15.34-.8-.4.14-.32zm-.7 1.96l.9.12-.07.37-.88-.12.05-.37zm-.27 1.92h.9l-.02.38h-.87v-.38zm.08 2.1l.9-.1.04.37-.88.1-.04-.38zm.4 1.88l.9-.2.07.36-.86.2-.1-.36zm1 2.27l-.2-.33.78-.44.2.33-.8.42zM8.13 22l-.27-.24.62-.65.25.28-.62.64zm1.43 1.28l-.3-.22.52-.72.3.22-.54.72zm1.66 1.1l-.33-.16.42-.8.33.18-.42.8zm1.85.72l-.37-.06.17-.88.36.06-.14.88zm1.6.3v-.9h.37v.9h-.37zM6.74 15c0-5.1 4.15-9.26 9.26-9.26 5.1 0 9.26 4.15 9.26 9.26 0 5.1-4.15 9.26-9.26 9.26-5.1 0-9.26-4.15-9.26-9.26zm10 10.48h-.03l-.06-.88.37-.04h.03l.08.9-.36.02zm1.97-.42l-.13-.87.36-.1.16.9-.38.05zm1.9-.65l-.3-.82.36-.13.3.84-.35.12zm1.7-1l-.55-.7.3-.24.54.7-.3.23zm1.43-1.4l-.64-.63.25-.26.64.6-.27.3zm1.17-1.5l-.73-.54.22-.3.7.53-.2.3zm.94-1.8l-.84-.3.12-.35.85.3-.13.35zm.53-2.03l-.9-.04.03-.38.9.05-.03.36zm-6.83 3.07c.14.16.15.4 0 .55-.15.14-.4.13-.55 0l-.3-.3-.63-.64c-.4.2-.85.28-1.3.27h-1.75c-1.58.05-3.03-.73-2.9-3.3 0-.1-.02-1.47-.02-1.58 0-.1 0-.93 0-1.03 0-2.54.63-3.7 2.35-4.1.2-.05 1.26-.08 1.46-.08h.1c.2 0 1.16.03 1.35.07 1.72.4 2.34 1.57 2.34 4.1 0 .1 0 .94 0 1.05 0 .1 0 1.48 0 1.6.05 1.37-.35 1.97-.97 2.57l.54.55.28.28zm-2.66-.93c.2 0 .4 0 .58-.07l-.35-.36-.26-.28c-.15-.17-.15-.4 0-.56.14-.15.38-.14.54 0l.28.3.5.5c.02-.03.05-.05.07-.07.47-.5.7-.9.64-1.9 0-.06 0-.06 0-1.3 0-.17 0-.3 0-.32 0-.05 0-.36 0-.7 0-.43 0-.27 0-.33 0-1.12-.12-2.1-.4-2.55-.16-.26-.44-.56-1.3-.76-.16-.03-.9-.06-1.15-.06h-.1c-.24 0-1.1.03-1.27.06-.86.2-1.14.5-1.3.75-.28.44-.4 1.43-.4 2.56 0 .08 0-.1 0 .35 0 .34 0 .65 0 .7 0 .03 0 .15 0 .32 0 1.24 0 1.24 0 1.3-.05 1 .18 1.4.64 1.9.43.45.96.54 1.34.54.02 0 .05 0 .08 0h1.8c.02 0 .05 0 .08 0z"/><filter id="d" width="115.9%" height="115.9%" x="-8%" y="-5.7%" filterUnits="objectBoundingBox"><feOffset dy=".5" in="SourceAlpha" result="shadowOffsetOuter1"/><feGaussianBlur in="shadowOffsetOuter1" result="shadowBlurOuter1" stdDeviation=".5"/><feColorMatrix in="shadowBlurOuter1" values="0 0 0 0 0 0 0 0 0 0 0 0 0 0 0 0 0 0 0.204257246 0"/></filter></defs><g fill="none"><use fill="#000" filter="url(#a)" xlink:href="#b"/><use fill="#1347E8" fill-rule="evenodd" xlink:href="#b"/><use fill="url(#c)" fill-rule="evenodd" style="mix-blend-mode:soft-light" xlink:href="#b"/><circle cx="16" cy="15" r="14.5" stroke="#000" stroke-opacity=".097"/><use fill="#000" filter="url(#d)" xlink:href="#e"/><use fill="#FFF" fill-rule="evenodd" xlink:href="#e"/></g></svg>