<svg xmlns="http://www.w3.org/2000/svg" width="32" height="32" xmlns:xlink="http://www.w3.org/1999/xlink"><defs><linearGradient id="c" x1="50%" x2="50%" y1="0%" y2="100%"><stop offset="0%" stop-color="#FFF" stop-opacity=".5"/><stop offset="100%" stop-opacity=".5"/></linearGradient><circle id="b" cx="16" cy="15" r="15"/><filter id="a" width="111.7%" height="111.7%" x="-5.8%" y="-4.2%" filterUnits="objectBoundingBox"><feOffset dy=".5" in="SourceAlpha" result="shadowOffsetOuter1"/><feGaussianBlur in="shadowOffsetOuter1" result="shadowBlurOuter1" stdDeviation=".5"/><feComposite in="shadowBlurOuter1" in2="SourceAlpha" operator="out" result="shadowBlurOuter1"/><feColorMatrix in="shadowBlurOuter1" values="0 0 0 0 0 0 0 0 0 0 0 0 0 0 0 0 0 0 0.199473505 0"/></filter><path id="e" d="M22.6 18.45c.04.4-.07.55-.2.55s-.3-.15-.5-.46c-.2-.3-.26-.66-.16-.84.06-.12.2-.17.37-.1.35.12.47.63.5.85zm-1.8.87c.4.34.52.73.32 1-.12.16-.3.25-.52.25-.22 0-.45-.08-.6-.22-.36-.3-.46-.83-.23-1.12.1-.1.23-.18.4-.18.2 0 .44.1.64.27zM7 13.9C7 8.97 10.9 5 15.73 5s8.74 3.98 8.74 8.9c0 1.66-.46 3.23-1.23 4.56-.03.04-.1.02-.1-.03-.3-2.18-1.62-3.4-3.52-3.75-.17-.02-.2-.13.02-.15.6-.05 1.4-.04 1.85.04 0-.22 0-.46 0-.7 0-3.23-2.6-5.87-5.76-5.87-3.2 0-5.78 2.64-5.78 5.88 0 3.25 2.6 5.88 5.78 5.88H16c-.08-.52-.12-1.05-.1-1.6 0-.35.1-.4.24-.12.8 1.4 1.94 2.68 4.18 3.18 1.83.42 3.65.9 5.62 3.44.18.22-.1.46-.3.28-2-1.8-3.82-2.4-5.5-2.4-1.85 0-3.12.25-4.4.25-4.83 0-8.74-4-8.74-8.9z"/><filter id="d" width="118.4%" height="117.5%" x="-9.2%" y="-6.2%" filterUnits="objectBoundingBox"><feOffset dy=".5" in="SourceAlpha" result="shadowOffsetOuter1"/><feGaussianBlur in="shadowOffsetOuter1" result="shadowBlurOuter1" stdDeviation=".5"/><feColorMatrix in="shadowBlurOuter1" values="0 0 0 0 0 0 0 0 0 0 0 0 0 0 0 0 0 0 0.204257246 0"/></filter></defs><g fill="none"><use fill="#000" filter="url(#a)" xlink:href="#b"/><use fill="#FF8C00" fill-rule="evenodd" xlink:href="#b"/><use fill="url(#c)" fill-rule="evenodd" style="mix-blend-mode:soft-light" xlink:href="#b"/><circle cx="16" cy="15" r="14.5" stroke="#000" stroke-opacity=".097"/><use fill="#000" filter="url(#d)" xlink:href="#e"/><use fill="#FFF" fill-rule="evenodd" xlink:href="#e"/></g></svg>