<svg xmlns="http://www.w3.org/2000/svg" width="32" height="32" xmlns:xlink="http://www.w3.org/1999/xlink"><defs><linearGradient id="c" x1="50%" x2="50%" y1="0%" y2="100%"><stop offset="0%" stop-color="#FFF" stop-opacity=".5"/><stop offset="100%" stop-opacity=".5"/></linearGradient><circle id="b" cx="16" cy="15" r="15"/><filter id="a" width="111.7%" height="111.7%" x="-5.8%" y="-4.2%" filterUnits="objectBoundingBox"><feOffset dy=".5" in="SourceAlpha" result="shadowOffsetOuter1"/><feGaussianBlur in="shadowOffsetOuter1" result="shadowBlurOuter1" stdDeviation=".5"/><feComposite in="shadowBlurOuter1" in2="SourceAlpha" operator="out" result="shadowBlurOuter1"/><feColorMatrix in="shadowBlurOuter1" values="0 0 0 0 0 0 0 0 0 0 0 0 0 0 0 0 0 0 0.199473505 0"/></filter><path id="e" d="M16.5 4c5.12.28 9.27 3.84 10.3 8.87.13.66.16 1.35.2 2.03.03.6-.36 1-.9 1-.53 0-.88-.38-.9-.97-.1-4.4-3.05-8-7.33-8.92-.64-.12-1.3-.12-1.96-.2-.5-.05-.8-.44-.8-.92 0-.48.38-.84.88-.87.17 0 .35 0 .52 0zm-.97 22c-4.92-.15-9.35-3.88-10.28-8.7-.15-.75-.2-1.5-.25-2.26-.03-.46.26-.8.7-.9.35-.1.76.05.94.4.1.16.13.38.13.58.08 4.2 2.92 7.82 7 8.82.74.2 1.5.22 2.27.3.44.04.78.34.84.76.06.4-.2.85-.58.94-.24.06-.5.04-.77.06zm.45-15c2.18 0 4 1.78 4.02 3.92 0 .74-.67 1.2-1.3.9-.34-.18-.48-.47-.5-.85-.04-1.1-.8-1.95-1.86-2.14-1.16-.2-2.28.6-2.5 1.75-.23 1.18.5 2.33 1.66 2.58.16.03.32.05.48.06.54.03.92.4.9.9 0 .5-.4.9-.94.9-1.72 0-3.33-1.24-3.8-2.95-.7-2.54 1.2-5.06 3.84-5.07zm7.56 3.75c-.02.17 0 .4-.08.58-.13.4-.56.64-.98.57-.43-.07-.74-.43-.75-.92 0-.75-.13-1.47-.43-2.15-1.02-2.24-2.75-3.43-5.2-3.55-.6-.03-1-.38-1-.92s.4-.9 1-.9c3.68.02 6.9 2.86 7.36 6.52.03.24.05.5.08.77zm-15.06.47c-.05-.4.05-.8.52-1.03.6-.3 1.25.14 1.26.86 0 .7.13 1.35.38 2 .84 2.18 2.87 3.6 5.2 3.67.78.02 1.23.6 1 1.22-.15.36-.46.57-.87.57-2.2-.02-4.06-.85-5.55-2.46C9.18 18.7 8.52 17 8.48 15.2zM20 18.02c-.03.46-.18.75-.5.9-.35.16-.7.13-.95-.1-.5-.46-.96-.93-1.4-1.4-.32-.34-.3-.87.02-1.2.3-.33.86-.4 1.2-.08.5.46.98.95 1.44 1.44.14.14.18.35.2.45z"/><filter id="d" width="115.9%" height="115.9%" x="-8%" y="-5.7%" filterUnits="objectBoundingBox"><feOffset dy=".5" in="SourceAlpha" result="shadowOffsetOuter1"/><feGaussianBlur in="shadowOffsetOuter1" result="shadowBlurOuter1" stdDeviation=".5"/><feColorMatrix in="shadowBlurOuter1" values="0 0 0 0 0 0 0 0 0 0 0 0 0 0 0 0 0 0 0.204257246 0"/></filter></defs><g fill="none"><use fill="#000" filter="url(#a)" xlink:href="#b"/><use fill="#610089" fill-rule="evenodd" xlink:href="#b"/><use fill="url(#c)" fill-rule="evenodd" style="mix-blend-mode:soft-light" xlink:href="#b"/><circle cx="16" cy="15" r="14.5" stroke="#000" stroke-opacity=".097"/><use fill="#000" filter="url(#d)" xlink:href="#e"/><use fill="#FFF" xlink:href="#e"/></g></svg>