<svg xmlns="http://www.w3.org/2000/svg" width="32" height="32" xmlns:xlink="http://www.w3.org/1999/xlink"><defs><linearGradient id="c" x1="50%" x2="50%" y1="0%" y2="100%"><stop offset="0%" stop-color="#FFF" stop-opacity=".5"/><stop offset="100%" stop-opacity=".5"/></linearGradient><circle id="b" cx="16" cy="15" r="15"/><filter id="a" width="111.7%" height="111.7%" x="-5.8%" y="-4.2%" filterUnits="objectBoundingBox"><feOffset dy=".5" in="SourceAlpha" result="shadowOffsetOuter1"/><feGaussianBlur in="shadowOffsetOuter1" result="shadowBlurOuter1" stdDeviation=".5"/><feComposite in="shadowBlurOuter1" in2="SourceAlpha" operator="out" result="shadowBlurOuter1"/><feColorMatrix in="shadowBlurOuter1" values="0 0 0 0 0 0 0 0 0 0 0 0 0 0 0 0 0 0 0.199473505 0"/></filter><path id="e" d="M25.3 22.64l-1.96-1.76-4 3c.05.1.08.2.08.33 0 .46-.35.8-.78.8-.38 0-.7-.27-.76-.63h-4.3c-.08.36-.4.64-.78.64-.43 0-.78-.34-.78-.8 0-.1.03-.2.07-.3l-3.56-2.65c-.14.12-.32.2-.52.2-.43 0-.78-.36-.78-.8 0-.3.17-.56.4-.7l-1.3-4.15c-.02 0-.05 0-.07 0-.43 0-.78-.36-.78-.8 0-.44.34-.8.77-.8.03 0 .07 0 .1 0l1.28-4.15c-.24-.13-.4-.4-.4-.7 0-.43.34-.8.77-.8.2 0 .4.1.52.22l3.58-2.58c-.07-.14-.1-.27-.1-.4 0-.46.34-.8.77-.8.37 0 .7.27.76.63h4.3c.07-.36.4-.64.77-.64.43 0 .78.34.78.8 0 .12-.02.25-.1.36l3.57 2.6c.14-.12.32-.2.53-.2.44 0 .8.35.8.8 0 .26-.15.5-.36.65l1.27 4.2c.04 0 .06 0 .07 0 .43 0 .78.35.78.8s-.35.8-.78.8c0 0 0 0-.02 0l-1.5 4.8 1.92 1.7c.2-.17.48-.3.77-.3.65 0 1.17.55 1.17 1.2 0 .66-.5 1.2-1.16 1.2-.64 0-1.17-.54-1.17-1.2 0-.2.06-.4.15-.57zm-6.6.78l1.5-3.35c-.13-.1-.22-.23-.26-.4l-3.45.5c-.05.16-.1.3-.2.4l2.04 2.9c.1-.03.2-.05.3-.05 0 0 .04 0 .06 0zm.4.15l3.87-2.9-1.67-.73c-.14.2-.36.3-.6.3-.06 0-.1 0-.15 0l-1.47 3.3c0 .02 0 .02.02.03zm-1.06.14l-2.06-2.9c-.08.04-.17.05-.26.05-.1 0-.17 0-.25-.04l-2.06 2.9c.08.1.1.18.15.27h4.36c.04-.1.1-.18.15-.25zm6.72-8c-.22-.15-.38-.4-.38-.7s.15-.5.36-.66l-1.2-3.96-.27 3.88c.3.1.53.4.53.75s-.22.65-.53.76l.27 3.9 1.22-3.97zm-2.26-1.3l-1.57-3.1c-.08.02-.16.04-.24.04-.08 0-.13 0-.18-.02l-1.4 3.07c.18.12.3.34.3.6s-.12.47-.3.6l1.43 3.06c.04 0 .08 0 .13 0s.1 0 .17.02l1.62-3.12c-.16-.15-.26-.35-.26-.58 0-.24.1-.45.28-.6zm.38 1.38s-.03 0-.05 0l-1.62 3.1c.18.14.27.34.27.58 0 .04 0 .08 0 .12l1.74.75-.3-4.55zm0-1.56l.28-4.1c-.15-.06-.28-.16-.37-.3l-1.36.57c0 .03 0 .1 0 .13 0 .2-.06.4-.2.55l1.6 3.13s.02 0 .03 0zm-4.1 1.56c-.05 0-.1 0-.14 0-.07 0-.14 0-.2-.02l-2.13 3.77c.08.08.13.16.17.26l3.47-.53c.03-.18.13-.34.27-.45l-1.42-3.05zm0-1.56l1.4-3.08c-.14-.12-.24-.3-.26-.48l-3.48-.5c-.04.1-.1.18-.16.25l2.14 3.85c.07-.02.14-.03.22-.03.05 0 .1 0 .14.02zm-.68 1.35c-.15-.15-.24-.35-.24-.57 0-.2.1-.4.22-.55l-2.14-3.84c-.07.04-.14.05-.22.05-.05 0-.1 0-.14 0l-2.2 3.82c.12.14.2.33.2.54 0 .23-.1.43-.23.57l2.17 3.72c.07 0 .13-.03.2-.03.1 0 .2 0 .27.05l2.1-3.73zm-11.38.08l1.24 3.97.3-3.85c-.36-.07-.62-.4-.62-.77 0-.38.27-.7.63-.78l-.3-3.83-1.23 3.95c.2.15.32.38.32.64s-.14.5-.34.64zm3.9 3.03c.04 0 .1-.02.14-.02.07 0 .13 0 .2.03l1.37-3.08c-.2-.15-.3-.37-.3-.63s.1-.48.28-.6l-1.37-3.1c-.05 0-.1.03-.16.03-.05 0-.1 0-.14 0L8.95 14.4c.15.14.25.35.25.58 0 .22-.1.43-.24.57l1.65 3.1zm.3 1.55c-.04 0-.1.02-.16.02-.25 0-.46-.12-.6-.3l-1.36.6c0 .03 0 .06 0 .1 0 .1 0 .18-.03.26l3.57 2.68s.02-.02.03-.02l-1.44-3.32zM10 19.6c-.02-.05-.02-.1-.02-.14 0-.25.1-.47.28-.6L8.64 15.8l-.3 4.1c.12.07.24.16.32.28L10 19.6zm1.52-.3l3.47.5c.02-.13.1-.24.17-.32L13 15.76c-.06.02-.13.03-.2.03-.05 0-.1 0-.1-.03l-1.4 3.1c.1.1.2.26.2.42zm-.02.4c-.04.13-.12.25-.22.34l1.46 3.38c.02 0 .04 0 .06 0 .1 0 .2.02.3.05l2.04-2.9c-.1-.1-.16-.23-.2-.38l-3.44-.5zM10 10.36L8.67 9.8c-.1.1-.2.2-.34.28l.32 4.04 1.62-2.98c-.18-.14-.3-.37-.3-.62 0-.05 0-.1.03-.17zm.95-.6l1.37-3.23L8.77 9.1c.03.08.04.17.04.26 0 .03 0 .06 0 .1l1.4.56c.13-.17.34-.27.57-.27.06 0 .13 0 .2.03zm.58.88c-.03.2-.12.37-.26.5l1.4 3.07c.04 0 .08 0 .13 0 .08 0 .16 0 .24.04l2.18-3.8c-.1-.07-.17-.18-.22-.3l-3.47.5zm-.24-.68c.06.08.13.18.17.3l3.47-.5c0-.16.07-.3.16-.4L13.13 6.5c-.1.04-.2.06-.32.06 0 0-.04 0-.06 0l-1.44 3.4zm9.3-.2c.03-.02.05-.02.1-.02.2 0 .43.1.57.28l1.36-.57c0-.03 0-.07 0-.1 0-.1 0-.17.03-.24l-3.53-2.6 1.47 3.25zm-.65.5c.05-.16.15-.3.3-.38l-1.52-3.32c-.03 0-.07 0-.1 0-.1 0-.22-.02-.3-.06l-2 2.84c.08.12.14.25.16.4l3.45.5zm-1.94-4c-.04-.07-.1-.15-.1-.23h-4.37c-.03.08-.07.16-.12.23l2 2.85c.1-.03.2-.05.3-.05.1 0 .2.02.3.06l2-2.84z"/><filter id="d" width="115.9%" height="117.5%" x="-8%" y="-6.2%" filterUnits="objectBoundingBox"><feOffset dy=".5" in="SourceAlpha" result="shadowOffsetOuter1"/><feGaussianBlur in="shadowOffsetOuter1" result="shadowBlurOuter1" stdDeviation=".5"/><feColorMatrix in="shadowBlurOuter1" values="0 0 0 0 0 0 0 0 0 0 0 0 0 0 0 0 0 0 0.204257246 0"/></filter></defs><g fill="none"><use fill="#000" filter="url(#a)" xlink:href="#b"/><use fill="#2E9AD0" xlink:href="#b"/><use fill="url(#c)" style="mix-blend-mode:soft-light" xlink:href="#b"/><circle cx="16" cy="15" r="14.5" stroke="#000" stroke-opacity=".097"/><use fill="#000" filter="url(#d)" xlink:href="#e"/><use fill="#FFF" fill-rule="evenodd" xlink:href="#e"/></g></svg>