<svg xmlns="http://www.w3.org/2000/svg" width="32" height="32" xmlns:xlink="http://www.w3.org/1999/xlink"><defs><linearGradient id="c" x1="50%" x2="50%" y1="0%" y2="100%"><stop offset="0%" stop-color="#FFF" stop-opacity=".5"/><stop offset="100%" stop-opacity=".5"/></linearGradient><circle id="b" cx="16" cy="15" r="15"/><filter id="a" width="111.7%" height="111.7%" x="-5.8%" y="-4.2%" filterUnits="objectBoundingBox"><feOffset dy=".5" in="SourceAlpha" result="shadowOffsetOuter1"/><feGaussianBlur in="shadowOffsetOuter1" result="shadowBlurOuter1" stdDeviation=".5"/><feComposite in="shadowBlurOuter1" in2="SourceAlpha" operator="out" result="shadowBlurOuter1"/><feColorMatrix in="shadowBlurOuter1" values="0 0 0 0 0 0 0 0 0 0 0 0 0 0 0 0 0 0 0.199473505 0"/></filter><path id="e" d="M11.5 15c0-2.48 2.02-4.5 4.5-4.5s4.5 2.02 4.5 4.5c0 .65-.14 1.27-.4 1.83l-2.96-2.97-2.28 2.28 2.97 2.97c-.57.28-1.2.4-1.83.4-2.48 0-4.5-2-4.5-4.5m11.8 0c0-1.46-.42-2.82-1.17-3.97L25 8.15 22.85 6l-2.87 2.87C18.83 8.12 17.48 7.7 16 7.7c-1.47 0-2.83.42-3.98 1.17L9.15 6 7 8.15l2.87 2.87C9.12 12.17 8.7 13.52 8.7 15c0 1.47.42 2.83 1.17 3.98L7 21.85 9.15 24l2.87-2.87c1.15.75 2.5 1.18 3.98 1.18 1.47 0 2.83-.4 3.98-1.16L22.85 24 25 21.85l-2.87-2.87c.75-1.15 1.18-2.5 1.18-3.98"/><filter id="d" width="119.4%" height="119.4%" x="-9.7%" y="-6.9%" filterUnits="objectBoundingBox"><feOffset dy=".5" in="SourceAlpha" result="shadowOffsetOuter1"/><feGaussianBlur in="shadowOffsetOuter1" result="shadowBlurOuter1" stdDeviation=".5"/><feColorMatrix in="shadowBlurOuter1" values="0 0 0 0 0 0 0 0 0 0 0 0 0 0 0 0 0 0 0.204257246 0"/></filter></defs><g fill="none"><use fill="#000" filter="url(#a)" xlink:href="#b"/><use fill="#454545" xlink:href="#b"/><use fill="url(#c)" style="mix-blend-mode:soft-light" xlink:href="#b"/><circle cx="16" cy="15" r="14.5" stroke="#000" stroke-opacity=".097"/><use fill="#000" filter="url(#d)" xlink:href="#e"/><use fill="#FFF" xlink:href="#e"/></g></svg>