<svg xmlns="http://www.w3.org/2000/svg" width="32" height="32" xmlns:xlink="http://www.w3.org/1999/xlink"><defs><linearGradient id="c" x1="50%" x2="50%" y1="0%" y2="100%"><stop offset="0%" stop-color="#FFF" stop-opacity=".5"/><stop offset="100%" stop-opacity=".5"/></linearGradient><circle id="b" cx="16" cy="15" r="15"/><filter id="a" width="111.7%" height="111.7%" x="-5.8%" y="-4.2%" filterUnits="objectBoundingBox"><feOffset dy=".5" in="SourceAlpha" result="shadowOffsetOuter1"/><feGaussianBlur in="shadowOffsetOuter1" result="shadowBlurOuter1" stdDeviation=".5"/><feComposite in="shadowBlurOuter1" in2="SourceAlpha" operator="out" result="shadowBlurOuter1"/><feColorMatrix in="shadowBlurOuter1" values="0 0 0 0 0 0 0 0 0 0 0 0 0 0 0 0 0 0 0.199473505 0"/></filter></defs><g fill="none"><use fill="#000" filter="url(#a)" xlink:href="#b"/><use fill="#E30613" xlink:href="#b"/><use fill="url(#c)" style="mix-blend-mode:soft-light" xlink:href="#b"/><circle cx="16" cy="15" r="14.5" stroke="#000" stroke-opacity=".097"/><g fill="#FFF"><path d="M15.36 26C9.64 26 5 21.4 5 15.74S9.64 5.48 15.36 5.48s10.36 4.6 10.36 10.26S21.08 26 15.36 26zm1.8-17.58c2.4 1 4.14 2.85 5.37 5.36l.93-.65c-1.04-2.5-2.97-4.48-6.07-5.76l-.26 1.05z" opacity=".75"/><path d="M27 8.32C27 5.94 25.03 4 22.62 4c-2.4 0-4.37 1.94-4.37 4.32 0 .23.02.46.06.68 1.46.85 2.63 2.06 3.56 3.58.25.04.5.06.76.06 2.4 0 4.36-1.93 4.36-4.32z"/></g></g></svg>