<svg xmlns="http://www.w3.org/2000/svg" width="32" height="32" xmlns:xlink="http://www.w3.org/1999/xlink"><defs><linearGradient id="c" x1="50%" x2="50%" y1="0%" y2="100%"><stop offset="0%" stop-color="#FFF" stop-opacity=".5"/><stop offset="100%" stop-opacity=".5"/></linearGradient><circle id="b" cx="16" cy="15" r="15"/><filter id="a" width="111.7%" height="111.7%" x="-5.8%" y="-4.2%" filterUnits="objectBoundingBox"><feOffset dy=".5" in="SourceAlpha" result="shadowOffsetOuter1"/><feGaussianBlur in="shadowOffsetOuter1" result="shadowBlurOuter1" stdDeviation=".5"/><feComposite in="shadowBlurOuter1" in2="SourceAlpha" operator="out" result="shadowBlurOuter1"/><feColorMatrix in="shadowBlurOuter1" values="0 0 0 0 0 0 0 0 0 0 0 0 0 0 0 0 0 0 0.199473505 0"/></filter><path id="e" d="M10.14 19.02c.3-.45.6-.88.86-1.28H7.93c-.05 0-.1-.04-.1-.1v-.62c0-.06.05-.1.1-.1h3.62c1.94-2.83 2.9-4 2.9-4.1 0-.2-.03-.3-.7-.3-1.3 0-3.44-.92-3.44-3.46C10.3 7.68 12.57 6 13.87 6c.6 0 .7.26.42.27-.74.05-2.37 1.54-2.37 2.97 0 .96.86 2.6 2.76 2.6 2.24 0 4.15-3.56 8.8-3.56 2.8 0 3.55 2.2 3.55 2.8 0 .6-.86.9-2.04.9-1.18 0-1.22-2.1-3.6-2.1-3.7 0-6.88 4.03-8.4 7.04h2.63c.04 0 .1.04.1.1v.63c0 .05-.06.1-.1.1h-3c-.23.47-.4.9-.48 1.27h2.64c.05 0 .1.05.1.1v.63c0 .06-.05.1-.1.1H12c.03 1.15 1 2.2 2.92 3.15-3.5 0-5.93 0-7.32 0 .73-1.17 1.4-2.2 2-3.15H7.1c-.06 0-.1-.04-.1-.1v-.63c0-.05.04-.1.1-.1h3.04z"/><filter id="d" width="117.5%" height="120.6%" x="-8.8%" y="-7.4%" filterUnits="objectBoundingBox"><feOffset dy=".5" in="SourceAlpha" result="shadowOffsetOuter1"/><feGaussianBlur in="shadowOffsetOuter1" result="shadowBlurOuter1" stdDeviation=".5"/><feColorMatrix in="shadowBlurOuter1" values="0 0 0 0 0 0 0 0 0 0 0 0 0 0 0 0 0 0 0.204257246 0"/></filter></defs><g fill="none"><use fill="#000" filter="url(#a)" xlink:href="#b"/><use fill="#60E4DD" xlink:href="#b"/><use fill="url(#c)" style="mix-blend-mode:soft-light" xlink:href="#b"/><circle cx="16" cy="15" r="14.5" stroke="#000" stroke-opacity=".097"/><use fill="#000" filter="url(#d)" xlink:href="#e"/><use fill="#FFF" xlink:href="#e"/></g></svg>