<svg xmlns="http://www.w3.org/2000/svg" width="32" height="32" xmlns:xlink="http://www.w3.org/1999/xlink"><defs><linearGradient id="c" x1="50%" x2="50%" y1="0%" y2="100%"><stop offset="0%" stop-color="#FFF" stop-opacity=".5"/><stop offset="100%" stop-opacity=".5"/></linearGradient><circle id="b" cx="16" cy="15" r="15"/><filter id="a" width="111.7%" height="111.7%" x="-5.8%" y="-4.2%" filterUnits="objectBoundingBox"><feOffset dy=".5" in="SourceAlpha" result="shadowOffsetOuter1"/><feGaussianBlur in="shadowOffsetOuter1" result="shadowBlurOuter1" stdDeviation=".5"/><feComposite in="shadowBlurOuter1" in2="SourceAlpha" operator="out" result="shadowBlurOuter1"/><feColorMatrix in="shadowBlurOuter1" values="0 0 0 0 0 0 0 0 0 0 0 0 0 0 0 0 0 0 0.199473505 0"/></filter><path id="e" d="M14.36 5.63c.85-.16 1.72-.14 2.58-.1 1 .12 2 .32 2.9.73 1.82.76 3.38 2.1 4.42 3.73.4.56.66 1.2.92 1.84.25-.4.47-.8.68-1.2.1-.2.3-.36.5-.35.3-.04.6.2.64.5.02.24-.13.45-.23.66-.3.63-.7 1.2-1.13 1.78-.08.08-.04.2-.04.3.47 2.73-.4 5.65-2.3 7.7-1.07 1.2-2.45 2.13-3.97 2.68-1.76.6-3.7.75-5.52.32-2.6-.57-4.94-2.3-6.27-4.6-.3-.48-.47-1-.7-1.5-.25.4-.46.8-.68 1.2-.1.2-.3.34-.53.35-.37 0-.72-.4-.56-.78.33-.76.77-1.45 1.28-2.1.1-.12.1-.28.07-.42-.2-1.2-.14-2.43.16-3.6.77-3.33 3.53-6.1 6.88-6.97.3-.07.6-.15.93-.2zm-2.36 2c-1.77.94-3.2 2.5-3.94 4.34-.43 1.1-.65 2.3-.58 3.5.2-.14.37-.3.53-.46 1-.87 2.18-1.55 3.4-2.1 2.27-1.03 4.76-1.5 7.23-1.6-.83-.86-1.74-1.66-2.58-2.53.27-.3.55-.56.84-.83.3.3.6.6.93.92 1.03 1.02 2.1 2.02 3.1 3.05-1.08 1.1-2.18 2.14-3.26 3.2-.1.1-.2.2-.3.26-.26-.27-.58-.5-.8-.83.67-.7 1.42-1.3 2.06-2.03-1.14 0-2.28.17-3.4.4-.9.15-1.77.45-2.63.75-1.83.68-3.5 1.76-4.78 3.2-.08.08-.07.2-.05.3.16.64.44 1.24.75 1.83 1.03 1.86 2.8 3.3 4.86 3.94 1.2.37 2.47.5 3.7.34 1.75-.22 3.4-.97 4.7-2.14 1.85-1.64 2.9-4.15 2.74-6.6-.2.15-.38.32-.56.5-1.25 1.06-2.7 1.9-4.25 2.45-2 .75-4.15 1.14-6.3 1.2.2.25.4.45.64.67.64.63 1.28 1.27 1.93 1.88-.25.3-.54.56-.82.83-.28-.22-.52-.5-.78-.74-.98-.92-1.94-1.9-2.9-2.82-.14-.13-.27-.26-.38-.4.4-.46.9-.85 1.32-1.3.75-.7 1.47-1.44 2.22-2.15.28.28.58.54.83.84-.67.7-1.38 1.34-2.05 2.02.74.02 1.47-.1 2.2-.17.53-.06 1.05-.18 1.57-.3 2.7-.6 5.3-1.88 7.1-3.98-.7-3-3.23-5.44-6.25-6.14-2-.5-4.2-.2-6.03.75z"/><filter id="d" width="115.9%" height="118.4%" x="-8%" y="-6.6%" filterUnits="objectBoundingBox"><feOffset dy=".5" in="SourceAlpha" result="shadowOffsetOuter1"/><feGaussianBlur in="shadowOffsetOuter1" result="shadowBlurOuter1" stdDeviation=".5"/><feColorMatrix in="shadowBlurOuter1" values="0 0 0 0 0 0 0 0 0 0 0 0 0 0 0 0 0 0 0.204257246 0"/></filter></defs><g fill="none"><use fill="#000" filter="url(#a)" xlink:href="#b"/><use fill="#3555F9" xlink:href="#b"/><use fill="url(#c)" style="mix-blend-mode:soft-light" xlink:href="#b"/><circle cx="16" cy="15" r="14.5" stroke="#000" stroke-opacity=".097"/><use fill="#000" filter="url(#d)" xlink:href="#e"/><use fill="#FFF" fill-rule="evenodd" xlink:href="#e"/></g></svg>