<svg xmlns="http://www.w3.org/2000/svg" width="32" height="32" xmlns:xlink="http://www.w3.org/1999/xlink"><defs><linearGradient id="c" x1="50%" x2="50%" y1="0%" y2="100%"><stop offset="0%" stop-color="#FFF" stop-opacity=".5"/><stop offset="100%" stop-opacity=".5"/></linearGradient><circle id="b" cx="16" cy="15" r="15"/><filter id="a" width="111.7%" height="111.7%" x="-5.8%" y="-4.2%" filterUnits="objectBoundingBox"><feOffset dy=".5" in="SourceAlpha" result="shadowOffsetOuter1"/><feGaussianBlur in="shadowOffsetOuter1" result="shadowBlurOuter1" stdDeviation=".5"/><feComposite in="shadowBlurOuter1" in2="SourceAlpha" operator="out" result="shadowBlurOuter1"/><feColorMatrix in="shadowBlurOuter1" values="0 0 0 0 0 0 0 0 0 0 0 0 0 0 0 0 0 0 0.199473505 0"/></filter><path id="e" d="M12.6 8.16c-.85 0-1.55-.7-1.55-1.58 0-.87.7-1.58 1.56-1.58.87 0 1.57.7 1.57 1.58 0 .87-.7 1.58-1.55 1.58zM19.46 25c-.86 0-1.56-.7-1.56-1.58 0-.87.7-1.58 1.55-1.58.85 0 1.55.7 1.55 1.58 0 .87-.7 1.58-1.55 1.58zm-6.2-11.8c-.62.5-1.5.37-1.96-.25-.48-.63-.36-1.5.25-2L18.7 5.4c.62-.48 1.5-.36 1.96.26.47.63.35 1.5-.26 2l-7.16 5.55zm.04 5.68c-.62.48-1.5.36-1.96-.27-.47-.6-.35-1.5.26-1.96l7.16-5.56c.6-.48 1.5-.36 1.95.26.5.62.37 1.5-.24 2L13.3 18.9zm0 5.83c-.62.5-1.5.38-1.96-.25-.47-.62-.35-1.5.26-1.98l7.16-5.56c.6-.47 1.5-.35 1.95.27.5.62.37 1.5-.24 2L13.3 24.7z"/><filter id="d" width="135%" height="117.5%" x="-17.5%" y="-6.2%" filterUnits="objectBoundingBox"><feOffset dy=".5" in="SourceAlpha" result="shadowOffsetOuter1"/><feGaussianBlur in="shadowOffsetOuter1" result="shadowBlurOuter1" stdDeviation=".5"/><feColorMatrix in="shadowBlurOuter1" values="0 0 0 0 0 0 0 0 0 0 0 0 0 0 0 0 0 0 0.204257246 0"/></filter></defs><g fill="none"><use fill="#000" filter="url(#a)" xlink:href="#b"/><use fill="#F49352" xlink:href="#b"/><use fill="url(#c)" style="mix-blend-mode:soft-light" xlink:href="#b"/><circle cx="16" cy="15" r="14.5" stroke="#000" stroke-opacity=".097"/><use fill="#000" filter="url(#d)" xlink:href="#e"/><use fill="#FFF" xlink:href="#e"/></g></svg>