<svg xmlns="http://www.w3.org/2000/svg" width="32" height="32" xmlns:xlink="http://www.w3.org/1999/xlink"><defs><linearGradient id="c" x1="50%" x2="50%" y1="0%" y2="100%"><stop offset="0%" stop-color="#FFF" stop-opacity=".5"/><stop offset="100%" stop-opacity=".5"/></linearGradient><circle id="b" cx="16" cy="15" r="15"/><filter id="a" width="111.7%" height="111.7%" x="-5.8%" y="-4.2%" filterUnits="objectBoundingBox"><feOffset dy=".5" in="SourceAlpha" result="shadowOffsetOuter1"/><feGaussianBlur in="shadowOffsetOuter1" result="shadowBlurOuter1" stdDeviation=".5"/><feComposite in="shadowBlurOuter1" in2="SourceAlpha" operator="out" result="shadowBlurOuter1"/><feColorMatrix in="shadowBlurOuter1" values="0 0 0 0 0 0 0 0 0 0 0 0 0 0 0 0 0 0 0.199473505 0"/></filter><path id="e" d="M27 15.04c-.05 6.1-5 11-11.08 10.96C9.84 25.95 4.95 20.98 5 14.9 5.05 8.84 10 3.95 16.05 4c6.08.04 11 5 10.95 11.04zM5.8 15c0 5.62 4.55 10.16 10.18 10.17 5.64 0 10.24-4.55 10.22-10.18-.02-5.88-4.87-10.3-10.46-10.2-5.4.1-9.95 4.7-9.94 10.2zm12.88-4.77c-.15.5-.3.96-.4 1.3-.76-.12-1.47-.27-2.18-.34-.42-.07-.86.04-1.02.52-.17.5-.2 1 .22 1.38.4.4.9.7 1.35 1.04.42.32.87.6 1.24.96.97 1 1.14 2.2.74 3.5-.24.78-.82 1.26-1.55 1.56-1.13.45-3.04.23-4.1-.5.16-.46.32-.94.46-1.35.7.2 1.3.4 1.95.5.6.1 1.27 0 1.58-.6.3-.64.2-1.3-.3-1.8-.37-.4-.85-.7-1.3-1-.3-.23-.63-.4-.92-.63-1.16-.9-1.54-2.43-.95-3.78.3-.66.8-1.08 1.48-1.24 1.25-.3 2.47-.16 3.68.48zm-8.08 4.6c0 .7-.56 1.25-1.26 1.26-.7 0-1.3-.63-1.28-1.33.02-.68.6-1.25 1.3-1.24.7 0 1.25.57 1.24 1.28zm12.1-1.26c.7 0 1.2.52 1.22 1.22 0 .7-.57 1.3-1.27 1.3-.7-.03-1.26-.6-1.26-1.3 0-.73.5-1.23 1.3-1.24z"/><filter id="d" width="115.9%" height="115.9%" x="-8%" y="-5.7%" filterUnits="objectBoundingBox"><feOffset dy=".5" in="SourceAlpha" result="shadowOffsetOuter1"/><feGaussianBlur in="shadowOffsetOuter1" result="shadowBlurOuter1" stdDeviation=".5"/><feColorMatrix in="shadowBlurOuter1" values="0 0 0 0 0 0 0 0 0 0 0 0 0 0 0 0 0 0 0.204257246 0"/></filter></defs><g fill="none"><use fill="#000" filter="url(#a)" xlink:href="#b"/><use fill="#2B77B3" fill-rule="evenodd" xlink:href="#b"/><use fill="url(#c)" fill-rule="evenodd" style="mix-blend-mode:soft-light" xlink:href="#b"/><circle cx="16" cy="15" r="14.5" stroke="#000" stroke-opacity=".097"/><use fill="#000" filter="url(#d)" xlink:href="#e"/><use fill="#FFF" fill-rule="evenodd" xlink:href="#e"/></g></svg>