<svg xmlns="http://www.w3.org/2000/svg" width="32" height="32" xmlns:xlink="http://www.w3.org/1999/xlink"><defs><linearGradient id="c" x1="50%" x2="50%" y1="0%" y2="100%"><stop offset="0%" stop-color="#FFF" stop-opacity=".5"/><stop offset="100%" stop-opacity=".5"/></linearGradient><circle id="b" cx="16" cy="15" r="15"/><filter id="a" width="111.7%" height="111.7%" x="-5.8%" y="-4.2%" filterUnits="objectBoundingBox"><feOffset dy=".5" in="SourceAlpha" result="shadowOffsetOuter1"/><feGaussianBlur in="shadowOffsetOuter1" result="shadowBlurOuter1" stdDeviation=".5"/><feComposite in="shadowBlurOuter1" in2="SourceAlpha" operator="out" result="shadowBlurOuter1"/><feColorMatrix in="shadowBlurOuter1" values="0 0 0 0 0 0 0 0 0 0 0 0 0 0 0 0 0 0 0.199473505 0"/></filter><path id="e" d="M22.68 6.37l.95.86-11.94 6.8-5.8-3.32.55-1.05 5.23 2.98 10.98-6.25zM20.28 5l1.27.64-9.86 5.64-4.6-2.6.8-.94 3.8 2.17L20.26 5zm4.18 3.1l.7.95-13.47 7.7-6.5-3.7.3-1.18 6.2 3.54 12.75-7.3zm1.95 3.47c.4 1.1.6 2.27.6 3.5 0 1.2-.2 2.38-.6 3.53l-.25.72c-.56 1.3-1.35 2.48-2.35 3.5-1.02.98-2.2 1.76-3.52 2.3-1.4.58-2.82.88-4.3.88-1.5 0-2.92-.3-4.3-.9-1.26-.52-2.42-1.3-3.47-2.3-1-1-1.8-2.17-2.33-3.48-.57-1.35-.86-2.8-.86-4.26v-.73l6.7 3.78 14.1-8.02.6 1.5z"/><filter id="d" width="115.9%" height="116.7%" x="-8%" y="-6%" filterUnits="objectBoundingBox"><feOffset dy=".5" in="SourceAlpha" result="shadowOffsetOuter1"/><feGaussianBlur in="shadowOffsetOuter1" result="shadowBlurOuter1" stdDeviation=".5"/><feColorMatrix in="shadowBlurOuter1" values="0 0 0 0 0 0 0 0 0 0 0 0 0 0 0 0 0 0 0.204257246 0"/></filter></defs><g fill="none"><use fill="#000" filter="url(#a)" xlink:href="#b"/><use fill="#48B254" fill-rule="evenodd" xlink:href="#b"/><use fill="url(#c)" fill-rule="evenodd" style="mix-blend-mode:soft-light" xlink:href="#b"/><circle cx="16" cy="15" r="14.5" stroke="#000" stroke-opacity=".097"/><use fill="#000" filter="url(#d)" xlink:href="#e"/><use fill="#FFF" xlink:href="#e"/></g></svg>