<svg xmlns="http://www.w3.org/2000/svg" width="32" height="32" xmlns:xlink="http://www.w3.org/1999/xlink"><defs><linearGradient id="c" x1="50%" x2="50%" y1="0%" y2="100%"><stop offset="0%" stop-color="#FFF" stop-opacity=".5"/><stop offset="100%" stop-opacity=".5"/></linearGradient><circle id="b" cx="16" cy="15" r="15"/><filter id="a" width="111.7%" height="111.7%" x="-5.8%" y="-4.2%" filterUnits="objectBoundingBox"><feOffset dy=".5" in="SourceAlpha" result="shadowOffsetOuter1"/><feGaussianBlur in="shadowOffsetOuter1" result="shadowBlurOuter1" stdDeviation=".5"/><feComposite in="shadowBlurOuter1" in2="SourceAlpha" operator="out" result="shadowBlurOuter1"/><feColorMatrix in="shadowBlurOuter1" values="0 0 0 0 0 0 0 0 0 0 0 0 0 0 0 0 0 0 0.199473505 0"/></filter><path id="e" d="M16.9 20.23l-.9 1.74-.93-1.74C9.42 19.8 5 15.6 5 15.6s4.3-4.08 9.8-4.62l.74-1.25.44-.73.75 1.25.42.73c5.52.53 9.8 4.62 9.8 4.62s-4.4 4.2-10.04 4.63zM5.94 15.6s4.25 2.9 8.52 3.52l-2.08-3.9.57-.98.5.97v.03l2.03 4c.16 0 .33 0 .5 0 .15 0 .3 0 .47 0l1.5-2.98L19 14.22l.56.98-2.08 3.9c4.27-.6 8.53-3.43 8.53-3.5 0-.08-4.04-2.8-8.2-3.48l.63 1.1-.53 1.06-1.36-2.3c-.18 0-.38-.02-.56-.02-.18 0-.37 0-.57.02l-1.4 2.3-.5-1 .67-1.15c-4.17.7-8.23 3.47-8.23 3.47z"/><filter id="d" width="115.9%" height="127%" x="-8%" y="-9.6%" filterUnits="objectBoundingBox"><feOffset dy=".5" in="SourceAlpha" result="shadowOffsetOuter1"/><feGaussianBlur in="shadowOffsetOuter1" result="shadowBlurOuter1" stdDeviation=".5"/><feColorMatrix in="shadowBlurOuter1" values="0 0 0 0 0 0 0 0 0 0 0 0 0 0 0 0 0 0 0.204257246 0"/></filter></defs><g fill="none"><use fill="#000" filter="url(#a)" xlink:href="#b"/><use fill="#B30D23" xlink:href="#b"/><use fill="url(#c)" style="mix-blend-mode:soft-light" xlink:href="#b"/><circle cx="16" cy="15" r="14.5" stroke="#000" stroke-opacity=".097"/><use fill="#000" filter="url(#d)" xlink:href="#e"/><use fill="#FFF" fill-rule="evenodd" xlink:href="#e"/></g></svg>