<svg xmlns="http://www.w3.org/2000/svg" width="32" height="32" xmlns:xlink="http://www.w3.org/1999/xlink"><defs><linearGradient id="c" x1="50%" x2="50%" y1="0%" y2="100%"><stop offset="0%" stop-color="#FFF" stop-opacity=".5"/><stop offset="100%" stop-opacity=".5"/></linearGradient><circle id="b" cx="16" cy="15" r="15"/><filter id="a" width="111.7%" height="111.7%" x="-5.8%" y="-4.2%" filterUnits="objectBoundingBox"><feOffset dy=".5" in="SourceAlpha" result="shadowOffsetOuter1"/><feGaussianBlur in="shadowOffsetOuter1" result="shadowBlurOuter1" stdDeviation=".5"/><feComposite in="shadowBlurOuter1" in2="SourceAlpha" operator="out" result="shadowBlurOuter1"/><feColorMatrix in="shadowBlurOuter1" values="0 0 0 0 0 0 0 0 0 0 0 0 0 0 0 0 0 0 0.199473505 0"/></filter><path id="e" d="M15.72 12.43c.3.13.6.07.85 0 .2.63.5 1.2.8 1.44-.2 1.56-.74 2.12-1.35 2.12-.86 0-1.28-1.83-1.28-2.14.18-.13.73-.5.98-1.44zm-.92 5.5c.36-.32.6-.82.92-1.63.24.12.6.06.85 0 .2.87.37 1.43.8 1.68-.12 1-.74 1.7-1.3 1.7-.78 0-1.15-1.26-1.27-1.76zm-4.9 1.93c.25-.32.25-.82.12-1.75.2.08.37.08.5 0 .36.9.67 1.45 1.16 1.77.06.43 0 .93-.2 1-.66.3-1.27-.5-1.58-1zm-2.57-1.7c.12 0 .2 0 .3.07.44 1.13 1.17 1.75 1.17 1.75.25.5.37 1 .18 1-.55.06-.97-.3-1.4-1.12.06-.2 0-.32-.25-1.7zm-1.65 0c.6 2.63 1.77 2.5 1.7 2.38-.23-.44-.48-.62-.72-.8-.55-.57-.98-1.76-.98-1.57zm7.47 1.7c.42-.32.48-1 .55-1.88.24.07.55.07.73 0 .12.57.3 1.38.86 1.75-.08.7-.27 1.06-.7 1.12-.3.13-1.16.13-1.46-1zm-5.27-1.94c.25-.3.3-.8.37-1.5.18.07.43.07.55 0 .18.82.5 1.3.86 1.56.12 1.3 0 1.75-.25 1.75-.53 0-1.26-1.18-1.5-1.8zm-1.9 0c0-.12.07-.93.13-1.5.08 0 .2 0 .26 0 .3 1.2.74 1.56.74 1.56.3 1.44.3 1.8.05 1.7-.55-.2-.98-1.26-1.16-1.76zm4.9 0c.3-.25.5-.68.6-1.5.32.13.63.07.8 0 .2.82.5 1.3.93 1.56 0 .7-.04 1.8-.9 1.63-.74-.17-1.35-1.42-1.4-1.67zm-.55-.2c-.73 0-1.16-1.17-1.16-1.54.37-.38.55-1.07.73-2.25.12.06.3.06.5 0 .05 1.3.42 1.87.73 2.18-.13 1.08-.43 1.64-.8 1.64zm-3.8-1.54c.13-.25.13-.32.5-2.25.12 0 .18 0 .3 0 0 1.3.37 1.93.55 2.18-.06.7.06 1.64-.5 1.64-.23 0-.54-.3-.84-1.55zm-1.22-2.2c.2.07.08 1.7.33 2.26 0 0 0 1.56-.12 1.43-.9-1.12-.3-3.74-.2-3.68zm7.37 2.2c.42-.32.67-1 1.04-2.25.25.06.56.06.74 0 .12.94.37 1.62.86 2.12-.14 1-.62 1.68-1.24 1.68-.98 0-1.34-1.37-1.4-1.55zm-5.02-2.44c.5-.18.8-1.24.85-1.37.12.13.36.13.48 0 0 .8.25 1.2.43 1.3C9.25 14.75 9 16 8.45 16c-.5 0-.73-1.13-.8-2.26zm-1.53 2.3c-.42 0-.54-1.6-.42-2.3 0 0 .37-.56.6-1.37.07 0 .2.06.26 0-.06.8.06 1.2.18 1.37 0 0-.3 2.3-.6 2.3zm4.66-2.3c.24-.12.73-.8.98-1.43.24.14.5.14.8.08.12.7.3 1.12.73 1.37-.2 1.13-.56 2.25-1.36 2.25-.73 0-1.1-1.5-1.16-2.26zm.55-1.68c-.36 1-.72 1.56-1.2 1.56-.63 0-.7-1.3-.7-1.44.5-.37.87-1.12 1.18-1.74.13 0 .25 0 .43 0-.12.93.13 1.37.3 1.62zm-3-1.56c-.3.87-.17 1.3-.05 1.62-.5 1.25-.73 1.56-1.1 1.56-.37-.06-.37-.8-.25-1.43.37-.25 1.17-1.7 1.17-1.75.06 0 .18 0 .24 0zm-1.76.06c.18-.06-.5.87-.43 1.3.07.64-.66 1.7-.73 1.63-.23-.08.26-2.3 1.18-2.95zm8.7 1.5c-.2.68-.44 1.56-1.48 1.56-.56-.06-.87-.8-1-1.44.6-.43.93-1.18 1.1-1.74.2.06.5.06.68 0 .13.93.43 1.37.68 1.62zm-8.34-1.7c.13-.05.92-1.1 1.35-1.1.24.05-.43.68-.37 1-.17.3-1.03 1.86-1.33 1.86-.25 0-.25-.8.36-1.75zM22 18.1c-.07.95-.07 1.45.1 1.77-.24.5-.9 1.24-1.6 1-.23-.07-.23-.57-.17-1 .56-.32.92-.94 1.17-1.75.12.07.3.07.5 0zm2.43 0c.07.08.2.08.3-.04-.23 1.37-.3 1.5-.23 1.68-.43.8-.86 1.12-1.4 1.12-.26 0-.13-.43.17-1 0 0 .74-.62 1.16-1.74zm.98 1.64c-.23.25-.5.37-.66.8-.05.14 1.1.26 1.72-2.36-.12-.2-.5 1-1.04 1.56zm-7.02-1.62c0 .76.18 1.44.55 1.88-.3 1.06-1.17 1.06-1.47 1-.43-.13-.55-.5-.67-1.12.5-.44.72-1.2.84-1.75.26.07.5.07.75 0zm5.5-1.74c0 .75.06 1.25.37 1.5-.24.62-1.04 1.8-1.53 1.8-.25 0-.38-.43-.25-1.74.36-.25.67-.87.85-1.56.13.06.3.13.55 0zm2.2.13c0 .5 0 1.3.13 1.5-.24.5-.66 1.55-1.15 1.74-.3.06-.25-.3.06-1.68 0 0 .44-.44.74-1.56.07 0 .2 0 .26 0zm-5.44-.13c.13.88.26 1.3.62 1.5-.06.3-.73 1.56-1.4 1.68-.86.2-.92-1-.92-1.62.43-.25.73-.8.9-1.56.2.06.5.13.8 0zm2.34-.18c-.07.36-.56 1.54-1.17 1.54-.35 0-.66-.62-.8-1.62.3-.24.7-.86.75-2.17.2.06.32.06.5 0 .25 1.12.43 1.87.74 2.25zm2.14-2.26c.3 1.93.36 2 .5 2.25-.32 1.17-.63 1.54-.87 1.54-.54 0-.42-1-.48-1.62.25-.24.55-.86.55-2.17.12.06.18 0 .3 0zm1.28 2.25c.3-.5.2-2.14.3-2.26.2-.06.74 2.68-.18 3.68-.12.13-.12-1.42-.12-1.42zm-7.83-2.26c.18 1.25.5 1.93 1.04 2.25-.05.17-.54 1.54-1.4 1.54-.67.07-1.04-.74-1.22-1.68.43-.5.73-1.18.86-2.12.12.06.42.06.73 0zm5.08-1.56c0 .13.38 1.2.8 1.5 0 1.06-.3 2.24-.8 2.24-.54 0-.8-1.17-.97-2.3.18-.18.43-.62.43-1.37.2.07.38.07.56-.06zm2.76 1.37c.07.7-.05 2.3-.35 2.25-.3 0-.62-2.32-.62-2.32.13-.2.25-.62.2-1.3.05.05.17.05.23 0 .26.8.56 1.36.56 1.36zm-6-1.37c.26.56.7 1.25 1.06 1.44-.06.75-.48 2.25-1.16 2.25-.9.06-1.16-1.06-1.34-2.24.36-.24.6-.74.67-1.37.24.07.55.07.8-.06zm1.55 1.2c-.43.05-.8-.5-1.23-1.5.25-.26.43-.76.3-1.63.2.06.3.06.44 0 .37.68.74 1.37 1.17 1.68 0 .2-.06 1.44-.67 1.44zm1.95-1.5c.06-.26.2-.7-.18-1.63.12 0 .18 0 .24 0 0 .06.87 1.56 1.18 1.74.12.7.12 1.37-.25 1.43-.3 0-.56-.3-1-1.56zm2.08-.2c.07-.44-.55-1.37-.5-1.3 1 .62 1.36 2.86 1.18 2.92-.05.06-.73-1.07-.67-1.63zm-7.77 1.7c-.9.05-1.15-.83-1.33-1.5.3-.2.6-.76.67-1.63.17.06.48.06.66 0 .2.56.5 1.3.98 1.68-.06.75-.37 1.37-.98 1.44zm5.7-4.32c.3 0 1.23 1.06 1.3 1.12.66 1 .66 1.75.42 1.75-.37 0-1.17-1.56-1.35-1.87.06-.3-.6-1-.37-1zm-13.6.2c-.1.36-.16.74 0 .92-.35.75-.96 1.8-1.5 1.75-.6-.12-.13-1.56-.07-1.68.37-.2 1.22-1.38 1.53-1.38.2.07.07.38.07.38zm2.9-.07c0 .36.06.8.36 1-.23.73-.72 1.73-1.52 1.67-.55-.06-.67-1-.55-1.7.54-.17 1.03-1.36 1.4-1.36.3 0 .3.3.3.4zm8.68 1c.13-.2.13-.58 0-.95 0-.06-.12-.38.07-.38.3 0 1.16 1.2 1.53 1.38.06.12.55 1.56-.07 1.68-.6.06-1.15-1.06-1.52-1.75zm-3.24 0c.24-.2.3-.64.36-1 0-.08 0-.4.3-.4.3-.05.92 1.2 1.4 1.38.2.82.07 1.63-.54 1.7-.86.1-1.28-1-1.53-1.7zM16 9c.6 0 .6 1.2 1.1 1.44 0 .3-.18 1.68-1.16 1.68-.86 0-1.04-1.12-1.1-1.68.73-.32.5-1.44 1.16-1.44z"/><filter id="d" width="115.9%" height="129.2%" x="-8%" y="-10.4%" filterUnits="objectBoundingBox"><feOffset dy=".5" in="SourceAlpha" result="shadowOffsetOuter1"/><feGaussianBlur in="shadowOffsetOuter1" result="shadowBlurOuter1" stdDeviation=".5"/><feColorMatrix in="shadowBlurOuter1" values="0 0 0 0 0 0 0 0 0 0 0 0 0 0 0 0 0 0 0.204257246 0"/></filter></defs><g fill="none"><use fill="#000" filter="url(#a)" xlink:href="#b"/><use fill="#1C1C1C" xlink:href="#b"/><use fill="url(#c)" style="mix-blend-mode:soft-light" xlink:href="#b"/><circle cx="16" cy="15" r="14.5" stroke="#000" stroke-opacity=".097"/><use fill="#000" filter="url(#d)" xlink:href="#e"/><use fill="#FFF" fill-rule="evenodd" xlink:href="#e"/></g></svg>