<svg xmlns="http://www.w3.org/2000/svg" width="32" height="32" xmlns:xlink="http://www.w3.org/1999/xlink"><defs><linearGradient id="c" x1="50%" x2="50%" y1="0%" y2="100%"><stop offset="0%" stop-color="#FFF" stop-opacity=".5"/><stop offset="100%" stop-opacity=".5"/></linearGradient><circle id="b" cx="16" cy="15" r="15"/><filter id="a" width="111.7%" height="111.7%" x="-5.8%" y="-4.2%" filterUnits="objectBoundingBox"><feOffset dy=".5" in="SourceAlpha" result="shadowOffsetOuter1"/><feGaussianBlur in="shadowOffsetOuter1" result="shadowBlurOuter1" stdDeviation=".5"/><feComposite in="shadowBlurOuter1" in2="SourceAlpha" operator="out" result="shadowBlurOuter1"/><feColorMatrix in="shadowBlurOuter1" values="0 0 0 0 0 0 0 0 0 0 0 0 0 0 0 0 0 0 0.199473505 0"/></filter><path id="e" d="M24.03 11.8L19.2 22.5h-1.9l5.06-11.26c.6.1 1.15.3 1.67.56zM15.6 5.52L8.2 21.98c-1.88-.9-3.2-2.86-3.2-5.15 0-3.13 2.46-5.66 5.5-5.66 0-3 2.25-5.44 5.1-5.65zm5.9 5.65L16.4 22.5h-2.08l6.4-14.23c.5.85.78 1.84.78 2.9zm1.9 10.98l3.26-7.26c.22.6.34 1.24.34 1.93 0 2.43-1.5 4.5-3.6 5.3zm1.44-9.82c.45.37.86.8 1.18 1.28l-3.98 8.88c-.18.02-.36.03-.54.03h-1.23l4.57-10.16zM16.02 5.5c.78 0 1.52.17 2.2.48L10.77 22.5h-.28c-.7 0-1.36-.14-1.97-.38l7.5-16.62zm4.27 2.12L13.6 22.5h-2.25l7.32-16.28c.62.35 1.17.83 1.62 1.4z"/><filter id="d" width="115.9%" height="120.6%" x="-8%" y="-7.4%" filterUnits="objectBoundingBox"><feOffset dy=".5" in="SourceAlpha" result="shadowOffsetOuter1"/><feGaussianBlur in="shadowOffsetOuter1" result="shadowBlurOuter1" stdDeviation=".5"/><feColorMatrix in="shadowBlurOuter1" values="0 0 0 0 0 0 0 0 0 0 0 0 0 0 0 0 0 0 0.204257246 0"/></filter></defs><g fill="none"><use fill="#000" filter="url(#a)" xlink:href="#b"/><use fill="#0072FF" fill-rule="evenodd" xlink:href="#b"/><use fill="url(#c)" fill-rule="evenodd" style="mix-blend-mode:soft-light" xlink:href="#b"/><circle cx="16" cy="15" r="14.5" stroke="#000" stroke-opacity=".097"/><use fill="#000" filter="url(#d)" xlink:href="#e"/><use fill="#FFF" fill-rule="evenodd" xlink:href="#e"/></g></svg>