<svg xmlns="http://www.w3.org/2000/svg" width="32" height="32" xmlns:xlink="http://www.w3.org/1999/xlink"><defs><linearGradient id="c" x1="50%" x2="50%" y1="0%" y2="100%"><stop offset="0%" stop-color="#FFF" stop-opacity=".5"/><stop offset="100%" stop-opacity=".5"/></linearGradient><circle id="b" cx="16" cy="15" r="15"/><filter id="a" width="111.7%" height="111.7%" x="-5.8%" y="-4.2%" filterUnits="objectBoundingBox"><feOffset dy=".5" in="SourceAlpha" result="shadowOffsetOuter1"/><feGaussianBlur in="shadowOffsetOuter1" result="shadowBlurOuter1" stdDeviation=".5"/><feComposite in="shadowBlurOuter1" in2="SourceAlpha" operator="out" result="shadowBlurOuter1"/><feColorMatrix in="shadowBlurOuter1" values="0 0 0 0 0 0 0 0 0 0 0 0 0 0 0 0 0 0 0.199473505 0"/></filter><path id="e" d="M6 11.4v-.36h8.42v.35H6zm0-1.04V10h8.42v.36H6zM9.55 21v-8.9h.34V21h-.36zm.98 0v-8.9h.34V21h-.34zm15.23-.73l-3.8-4 .24-.27 3.8 4.02-.24.25zM16.52 10l3.8 4-.24.26-3.8-4 .24-.26zm8.55 11l-3.8-4 .24-.26 3.8 4-.22.26zm-9.24-10.27l3.8 4-.24.27-3.8-4.02.22-.25zm5.42 4.77l.24-.25 4.25-4.52.24.25-4.28 4.52-.24.25-.47.48-.23.25L16.5 21l-.24-.25 4.28-4.52.23-.25.45-.48zm-.46-.98L25.05 10l.24.25-4.27 4.52-.24.25-.47.48-.24.25-4.28 4.52-.24-.25 4.26-4.52.24-.25.46-.48.23-.25z"/><filter id="d" width="117.5%" height="131.8%" x="-8.8%" y="-11.4%" filterUnits="objectBoundingBox"><feOffset dy=".5" in="SourceAlpha" result="shadowOffsetOuter1"/><feGaussianBlur in="shadowOffsetOuter1" result="shadowBlurOuter1" stdDeviation=".5"/><feColorMatrix in="shadowBlurOuter1" values="0 0 0 0 0 0 0 0 0 0 0 0 0 0 0 0 0 0 0.204257246 0"/></filter></defs><g fill="none"><use fill="#000" filter="url(#a)" xlink:href="#b"/><use fill="#00B098" xlink:href="#b"/><use fill="url(#c)" style="mix-blend-mode:soft-light" xlink:href="#b"/><circle cx="16" cy="15" r="14.5" stroke="#000" stroke-opacity=".097"/><use fill="#000" filter="url(#d)" xlink:href="#e"/><use fill="#FFF" fill-rule="evenodd" xlink:href="#e"/></g></svg>