<svg xmlns="http://www.w3.org/2000/svg" width="32" height="32" xmlns:xlink="http://www.w3.org/1999/xlink"><defs><linearGradient id="c" x1="50%" x2="50%" y1="0%" y2="100%"><stop offset="0%" stop-color="#FFF" stop-opacity=".5"/><stop offset="100%" stop-opacity=".5"/></linearGradient><circle id="b" cx="16" cy="15" r="15"/><filter id="a" width="111.7%" height="111.7%" x="-5.8%" y="-4.2%" filterUnits="objectBoundingBox"><feOffset dy=".5" in="SourceAlpha" result="shadowOffsetOuter1"/><feGaussianBlur in="shadowOffsetOuter1" result="shadowBlurOuter1" stdDeviation=".5"/><feComposite in="shadowBlurOuter1" in2="SourceAlpha" operator="out" result="shadowBlurOuter1"/><feColorMatrix in="shadowBlurOuter1" values="0 0 0 0 0 0 0 0 0 0 0 0 0 0 0 0 0 0 0.199473505 0"/></filter><path id="e" d="M21.07 17.9c0 2.06-1.2 3.83-3.12 4.56-.45.17-.92.3-1.38.4-.28.08-.43.2-.45.52-.03.38-.07.76-.12 1.14-.06.44-.22.54-.63.45-.7-.17-.78-.3-.7-1.03.02-.06.03-.12.04-.2.1-.6 0-.68-.6-.65-.24 0-.35.12-.37.4-.04.34-.07.7-.13 1.1-.07.35-.23.44-.6.36-.75-.16-.8-.25-.7-1.06.12-1 .12-.98-.8-1.26-.42-.12-.82-.3-1.22-.45-.24-.1-.32-.3-.26-.57.1-.35.14-.7.22-1.05.12-.6.4-.78.96-.57.97.4 1.97.63 3 .66.95.02 1.88-.04 2.74-.5.56-.3.98-.76 1.2-1.4.3-.95.02-1.72-.87-2.1-.74-.32-1.53-.5-2.27-.8-.65-.26-1.34-.53-1.9-.95-1.28-.93-1.5-2.33-1.23-3.82.32-1.68 1.35-2.77 2.88-3.35.4-.15.6-.37.6-.83 0-.5.08-.98.14-1.48.03-.38.17-.48.53-.43.75.13.84.25.77 1.03-.02.3-.05.6-.08.9-.03.27.05.38.3.4.62 0 .65 0 .72-.63.05-.4.08-.8.14-1.2.06-.46.2-.56.6-.47.7.14.8.25.72.97-.03.32-.05.64-.1.95-.06.36.05.53.4.6.7.17 1.36.37 2.03.58.5.15.52.2.42.73-.05.32-.1.63-.18.94-.14.58-.43.75-1 .57-.93-.32-1.9-.6-2.9-.65-.87-.04-1.74-.03-2.5.52-1.08.78-1.1 2.36.06 3.03.73.42 1.57.64 2.36.95.46.2.95.36 1.4.6 1.25.6 1.87 1.64 1.86 3.07"/><filter id="d" width="129.2%" height="117.5%" x="-14.6%" y="-6.2%" filterUnits="objectBoundingBox"><feOffset dy=".5" in="SourceAlpha" result="shadowOffsetOuter1"/><feGaussianBlur in="shadowOffsetOuter1" result="shadowBlurOuter1" stdDeviation=".5"/><feColorMatrix in="shadowBlurOuter1" values="0 0 0 0 0 0 0 0 0 0 0 0 0 0 0 0 0 0 0.204257246 0"/></filter></defs><g fill="none"><use fill="#000" filter="url(#a)" xlink:href="#b"/><use fill="#01AEF0" xlink:href="#b"/><use fill="url(#c)" style="mix-blend-mode:soft-light" xlink:href="#b"/><circle cx="16" cy="15" r="14.5" stroke="#000" stroke-opacity=".097"/><use fill="#000" filter="url(#d)" xlink:href="#e"/><use fill="#FFF" xlink:href="#e"/></g></svg>