<svg xmlns="http://www.w3.org/2000/svg" width="32" height="32" xmlns:xlink="http://www.w3.org/1999/xlink"><defs><linearGradient id="c" x1="50%" x2="50%" y1="0%" y2="100%"><stop offset="0%" stop-color="#FFF" stop-opacity=".5"/><stop offset="100%" stop-opacity=".5"/></linearGradient><circle id="b" cx="16" cy="15" r="15"/><filter id="a" width="111.7%" height="111.7%" x="-5.8%" y="-4.2%" filterUnits="objectBoundingBox"><feOffset dy=".5" in="SourceAlpha" result="shadowOffsetOuter1"/><feGaussianBlur in="shadowOffsetOuter1" result="shadowBlurOuter1" stdDeviation=".5"/><feComposite in="shadowBlurOuter1" in2="SourceAlpha" operator="out" result="shadowBlurOuter1"/><feColorMatrix in="shadowBlurOuter1" values="0 0 0 0 0 0 0 0 0 0 0 0 0 0 0 0 0 0 0.199473505 0"/></filter><path id="e" d="M9.87 7.23c.22.04-.32 1.47-.02 3.1.26 1.4 3.5 6.84 3.37 8.7-.1 1.18-2.77 3.92-3.05 3.74-.3-.1.8-1.95.4-3.5-.5-1.82-3.34-6.5-3.34-8.57 0-1.5 2.45-3.57 2.64-3.47zm6.1-2.14c.28.03-.4 1.85-.02 3.94.33 1.8 4.47 8.72 4.3 11.1-.13 1.5-3.53 4.98-3.9 4.75-.38-.1 1.04-2.5.52-4.47-.62-2.3-4.26-8.3-4.26-10.92 0-1.93 3.14-4.54 3.4-4.42zm6.3 2.12c.23.04-.3 1.47 0 3.1.25 1.4 3.5 6.84 3.37 8.7-.1 1.18-2.77 3.92-3.06 3.74-.3-.1.8-1.95.4-3.5-.48-1.82-3.34-6.5-3.34-8.57 0-1.5 2.45-3.58 2.64-3.48z"/><filter id="d" width="119%" height="117.7%" x="-9.5%" y="-6.3%" filterUnits="objectBoundingBox"><feOffset dy=".5" in="SourceAlpha" result="shadowOffsetOuter1"/><feGaussianBlur in="shadowOffsetOuter1" result="shadowBlurOuter1" stdDeviation=".5"/><feColorMatrix in="shadowBlurOuter1" values="0 0 0 0 0 0 0 0 0 0 0 0 0 0 0 0 0 0 0.204257246 0"/></filter></defs><g fill="none"><use fill="#000" filter="url(#a)" xlink:href="#b"/><use fill="#4BA2F2" xlink:href="#b"/><use fill="url(#c)" style="mix-blend-mode:soft-light" xlink:href="#b"/><circle cx="16" cy="15" r="14.5" stroke="#000" stroke-opacity=".097"/><use fill="#000" filter="url(#d)" xlink:href="#e"/><use fill="#FFF" fill-rule="evenodd" xlink:href="#e"/></g></svg>