<svg xmlns="http://www.w3.org/2000/svg" width="32" height="32" xmlns:xlink="http://www.w3.org/1999/xlink"><defs><linearGradient id="c" x1="50%" x2="50%" y1="0%" y2="100%"><stop offset="0%" stop-color="#FFF" stop-opacity=".5"/><stop offset="100%" stop-opacity=".5"/></linearGradient><circle id="b" cx="16" cy="15" r="15"/><filter id="a" width="111.7%" height="111.7%" x="-5.8%" y="-4.2%" filterUnits="objectBoundingBox"><feOffset dy=".5" in="SourceAlpha" result="shadowOffsetOuter1"/><feGaussianBlur in="shadowOffsetOuter1" result="shadowBlurOuter1" stdDeviation=".5"/><feComposite in="shadowBlurOuter1" in2="SourceAlpha" operator="out" result="shadowBlurOuter1"/><feColorMatrix in="shadowBlurOuter1" values="0 0 0 0 0 0 0 0 0 0 0 0 0 0 0 0 0 0 0.199473505 0"/></filter><path id="e" d="M24.98 17.97c.87.53 1.16 1.63.67 2.53-.5.9-1.68 1.23-2.6.72-.1-.05-.17-.1-.25-.16l-4.92 2.78c0 .1 0 .18.02.27 0 .13 0 .23-.02.33-.17 1.02-1.15 1.72-2.2 1.56-1.03-.18-1.74-1.14-1.57-2.16l-4.94-2.8c-.08.06-.16.1-.24.15-.07.03-.14.1-.23.1-1 .4-2.1-.07-2.5-1.03-.4-.96.1-2.05 1.06-2.43v-5.6c-.1-.04-.17-.08-.26-.13-.07-.04-.14-.1-.2-.13-.56-.4-.85-1.07-.76-1.74.08-.67.53-1.24 1.16-1.5.64-.26 1.37-.16 1.9.26l5.02-2.86c0-.08-.02-.16-.02-.25-.02-1.05.86-1.9 1.9-1.9 1.05 0 1.9.83 1.9 1.87 0 .1 0 .17 0 .25L22.93 9c.07-.06.14-.1.22-.15.92-.5 2.08-.17 2.6.73.5.9.18 2.05-.74 2.55-.1.04-.17.1-.26.12v5.6c.08.04.15.08.23.12zm.34 2.35c.42-.7.18-1.56-.5-1.96-.55-.32-1.25-.24-1.72.18l-2.27-1.3c.57-1.12.2-2.48-.87-3.2-.06-.2-.15-.4-.24-.6l3.42-1.9c.35.32.85.45 1.33.35.8-.2 1.28-.97 1.1-1.75-.18-.77-.97-1.25-1.76-1.08-.77.18-1.26.96-1.1 1.73l-3.44 1.94c-.67-.78-2.8-1.3-2.8-1.3v-4.3c.43-.1.77-.45.9-.88.22-.7-.2-1.45-.9-1.67-.73-.23-1.5.16-1.7.86-.23.7.18 1.46.9 1.67v4.37s-1.17.4-1.62.76c-.5 0-.96.13-1.4.36L9.4 10.78c.1-.46-.03-.95-.37-1.3-.55-.58-1.46-.6-2.06-.07-.28.28-.45.64-.46 1 0 .4.15.77.4 1.05.57.58 1.5.6 2.07.07l2.94 1.66c-1.06 1.05-1.2 2.7-.33 3.9L9 18.54c-.37-.33-.88-.46-1.35-.34-.8.18-1.28.96-1.1 1.73.2.8 1 1.26 1.78 1.08.8-.2 1.28-.95 1.1-1.73l2.75-1.56c.7.57 1.64.8 2.53.6.3.15.57.25.86.34v4.1c-.4.1-.73.38-.92.75-.37.73-.08 1.64.68 2 .07.04.13.07.2.1 0 0 .02 0 .03 0 .8.24 1.67-.2 1.92-1s-.2-1.63-1-1.87v-4s.73-.08 1.08-.2c.96.4 2.07.17 2.8-.56l2.3 1.33c-.14.6.14 1.24.7 1.56.7.4 1.6.17 2-.5zM7.98 18.96c.22 0 .43.12.54.3.05.1.08.2.08.3 0 .33-.28.6-.62.6-.34 0-.6-.27-.6-.6 0-.33.26-.6.6-.6zm8.67-13.1c0 .34-.28.6-.6.6-.35 0-.63-.26-.63-.6 0-.32.28-.6.62-.6.33 0 .6.28.6.6zm7.48 5.23c-.23 0-.43-.14-.54-.33-.07-.1-.1-.2-.1-.3 0-.32.3-.6.62-.6.34 0 .6.28.6.6 0 .34-.26.6-.6.6zM8.27 9.92c.3.16.4.53.23.8-.17.3-.54.4-.83.24-.3-.17-.4-.53-.23-.82.17-.3.53-.4.83-.22zm16.1 9.14c.3.16.4.53.23.8-.12.2-.32.3-.53.3-.22.02-.43-.1-.54-.3-.1-.17-.1-.4 0-.6.1-.18.32-.3.54-.3.1.02.2.04.3.1zm-8.95 5c.06-.33.37-.55.7-.5.33.04.56.34.52.67-.06.3-.32.5-.63.5-.04 0-.1 0-.17-.03-.26-.1-.43-.34-.4-.62zm3.52-9.27c.6.2 1 .75 1 1.4 0 .03 0 .08 0 .13 0 .04 0 .08-.02.12v.03c-.02.08-.04.17-.08.26-.1.26-.3.5-.54.65-.06 0-.1.04-.17.07h-.03c-.06.03-.12.06-.18.07-.06.02-.12.03-.18.04h-.05c-.1 0-.15 0-.2 0-.34 0-.66-.1-.9-.3l-.28.13c-.08.05-.17.08-.26.1-.62.16-1.27.1-1.84-.2-.06-.02-.12-.05-.17-.1h-.02c-.06-.02-.1-.06-.17-.1-.24.1-.5.15-.76.15-.07 0-.14 0-.2 0l-.05-.02-.18-.03h-.02c-.06-.02-.12-.03-.2-.05-.14-.05-.3-.13-.44-.22-.3-.18-.52-.45-.65-.77 0-.02 0-.03-.02-.05-.02-.02-.03-.06-.04-.1-.03 0-.04-.03-.04-.06s-.03-.05-.03-.08 0-.06-.02-.1c0-.02 0-.03 0-.07 0-.04 0-.08-.03-.1 0-.04 0-.06 0-.08-.02-.06-.02-.13-.02-.2 0-.06 0-.14 0-.2 0-.04.02-.06.02-.08 0-.06.02-.1.03-.15 0-.03 0-.06 0-.08.02-.05.04-.1.06-.16 0-.02 0-.03.02-.05.02-.05.05-.1.08-.16v-.02c.1-.2.25-.38.42-.52.34-.3.77-.48 1.23-.5.05 0 .08 0 .1 0 .14 0 .26 0 .37.02.05-.06.1-.1.16-.16l.05-.05c.06-.03.1-.1.17-.12l.03-.02c.04-.03.1-.08.14-.1.04 0 .1-.05.12-.06.03-.02.06-.04.1-.06.05-.03.15-.08.2-.1l.06-.04c.4-.15.83-.2 1.25-.14.1 0 .17.02.25.04.08 0 .15.04.23.05h.02c.08.04.15.07.22.1h.02c.06.04.12.07.2.1v.02c.06.03.13.08.2.1V13c.06.03.12.08.2.13.06.07.1.12.17.17.25.26.44.55.57.88.02.07.04.13.06.2 0 0 0 .03 0 .05.03.05.04.1.05.16.02.05.03.12.04.2z"/><filter id="d" width="117.5%" height="115.9%" x="-8.8%" y="-5.7%" filterUnits="objectBoundingBox"><feOffset dy=".5" in="SourceAlpha" result="shadowOffsetOuter1"/><feGaussianBlur in="shadowOffsetOuter1" result="shadowBlurOuter1" stdDeviation=".5"/><feColorMatrix in="shadowBlurOuter1" values="0 0 0 0 0 0 0 0 0 0 0 0 0 0 0 0 0 0 0.204257246 0"/></filter></defs><g fill="none"><use fill="#000" filter="url(#a)" xlink:href="#b"/><use fill="#2683FF" xlink:href="#b"/><use fill="url(#c)" style="mix-blend-mode:soft-light" xlink:href="#b"/><circle cx="16" cy="15" r="14.5" stroke="#000" stroke-opacity=".097"/><use fill="#000" filter="url(#d)" xlink:href="#e"/><use fill="#FFF" fill-rule="evenodd" xlink:href="#e"/></g></svg>