<svg xmlns="http://www.w3.org/2000/svg" width="32" height="32" xmlns:xlink="http://www.w3.org/1999/xlink"><defs><linearGradient id="c" x1="50%" x2="50%" y1="0%" y2="100%"><stop offset="0%" stop-color="#FFF" stop-opacity=".5"/><stop offset="100%" stop-opacity=".5"/></linearGradient><circle id="b" cx="16" cy="15" r="15"/><filter id="a" width="111.7%" height="111.7%" x="-5.8%" y="-4.2%" filterUnits="objectBoundingBox"><feOffset dy=".5" in="SourceAlpha" result="shadowOffsetOuter1"/><feGaussianBlur in="shadowOffsetOuter1" result="shadowBlurOuter1" stdDeviation=".5"/><feComposite in="shadowBlurOuter1" in2="SourceAlpha" operator="out" result="shadowBlurOuter1"/><feColorMatrix in="shadowBlurOuter1" values="0 0 0 0 0 0 0 0 0 0 0 0 0 0 0 0 0 0 0.199473505 0"/></filter><path id="e" d="M24.14 8.9l1.6-1.58c.4-.38.3-1.06-.17-1.54-.47-.47-1.17-.54-1.55-.17l-3 3-.1.1-2.64 2.6c-1.77-1.26-4.27-1.1-5.87.47-1.6 1.58-1.73 4.06-.43 5.82l-2 2c-.5-.67-.9-1.4-1.2-2.3-.67-2.05-.5-4.3.6-6.1 1.7-2.9 4.73-4.16 7.63-3.8.62.1 1.18-.35 1.2-.97.06-.7-.46-1.3-1.16-1.38-2.9-.3-5.9.65-8.1 2.85-3.68 3.64-3.9 9.4-.67 13.34l-1.84 1.82c-.37.36-.28 1.04.2 1.5.47.48 1.15.57 1.52.2l1.98-1.95 1.43-1.4 2.33-2.3c1.6.66 3.57.33 4.9-1 1.32-1.3 1.65-3.24 1-4.86l2.62-2.62c1.93 2.92 1.54 6.95-1.1 9.58-1.7 1.68-3.97 2.44-6.15 2.28-.52-.04-.98.37-1.03.9l-.02.3c-.05.6.4 1.1 1 1.14 2.78.15 5.65-.85 7.82-3 3.6-3.56 4-9.06 1.2-12.9m-7 7.55c-.85.84-2.23.84-3.07 0-.84-.84-.84-2.2 0-3.03.84-.84 2.22-.84 3.06 0 .84.83.84 2.2 0 3.03"/><filter id="d" width="117.5%" height="117.5%" x="-8.8%" y="-6.3%" filterUnits="objectBoundingBox"><feOffset dy=".5" in="SourceAlpha" result="shadowOffsetOuter1"/><feGaussianBlur in="shadowOffsetOuter1" result="shadowBlurOuter1" stdDeviation=".5"/><feColorMatrix in="shadowBlurOuter1" values="0 0 0 0 0 0 0 0 0 0 0 0 0 0 0 0 0 0 0.204257246 0"/></filter></defs><g fill="none"><use fill="#000" filter="url(#a)" xlink:href="#b"/><use fill="#E9570F" fill-rule="evenodd" xlink:href="#b"/><use fill="url(#c)" fill-rule="evenodd" style="mix-blend-mode:soft-light" xlink:href="#b"/><circle cx="16" cy="15" r="14.5" stroke="#000" stroke-opacity=".097"/><use fill="#000" filter="url(#d)" xlink:href="#e"/><use fill="#FFF" fill-rule="evenodd" xlink:href="#e"/></g></svg>