<svg xmlns="http://www.w3.org/2000/svg" width="32" height="32" xmlns:xlink="http://www.w3.org/1999/xlink"><defs><linearGradient id="c" x1="50%" x2="50%" y1="0%" y2="100%"><stop offset="0%" stop-color="#FFF" stop-opacity=".5"/><stop offset="100%" stop-opacity=".5"/></linearGradient><circle id="b" cx="16" cy="15" r="15"/><filter id="a" width="111.7%" height="111.7%" x="-5.8%" y="-4.2%" filterUnits="objectBoundingBox"><feOffset dy=".5" in="SourceAlpha" result="shadowOffsetOuter1"/><feGaussianBlur in="shadowOffsetOuter1" result="shadowBlurOuter1" stdDeviation=".5"/><feComposite in="shadowBlurOuter1" in2="SourceAlpha" operator="out" result="shadowBlurOuter1"/><feColorMatrix in="shadowBlurOuter1" values="0 0 0 0 0 0 0 0 0 0 0 0 0 0 0 0 0 0 0.199473505 0"/></filter><path id="e" d="M12.12 4.3c.04-.02.1-.04.15-.04.05 0 .1.02.15.05l1.25.97c.08.05.1.14.1.23 0 .07-.07.15-.15.2-.08.02-.18 0-.25-.04l-1.1-.83-3.6 2.7 15.8 11.85c.06.05.1.12.1.2 0 .08-.04.15-.1.2l-1.16.87c-.02.04-.1.05-.13.05-.1 0-.2-.07-.24-.17-.03-.1 0-.2.1-.28l.88-.67L8.1 7.73c-.06-.05-.1-.12-.1-.2 0-.08.04-.16.1-.2l4.02-3.02zm4 0c.1-.05.22-.05.3 0l8.05 6.04c.1.06.12.18.1.28-.05.1-.14.17-.25.17H20.3c-.05 0-.1-.04-.15-.07L14.88 6.8c-.07-.07-.1-.16-.1-.25 0-.08.07-.16.15-.2.08-.03.18-.02.25.03l5.2 3.9h3.18l-7.28-5.45-5.04 3.78c-.1.1-.26.08-.35-.03-.1-.1-.08-.27.03-.35l5.2-3.9zm-6.9 5.2c.03-.02.1-.04.14-.04.08 0 .15.04.2.1.04.05.06.12.05.2 0 .05-.03.1-.1.15l-.82.65 15.8 11.86c.06.05.1.13.1.2 0 .1-.04.16-.1.2l-4.02 3c-.04.05-.1.07-.15.07-.04 0-.1-.02-.14-.05L19 24.95c-.08-.06-.12-.14-.1-.23 0-.08.06-.16.14-.2.1-.03.18-.02.25.04l1 .75 3.6-2.7L8.1 10.74c-.06-.05-.1-.12-.1-.2 0-.08.04-.15.1-.2l1.1-.83zm-.97 9.83h4.02c.05 0 .1.02.15.05l5.2 3.9c.12.1.15.25.06.36-.08.1-.24.14-.35.05L12.2 19.8H9l7.3 5.46 5.02-3.78c.1-.08.26-.06.35.05.08.1.06.27-.05.35l-5.18 3.9c-.05.02-.1.04-.15.04-.08 0-.13-.02-.17-.05l-8.03-6c-.1-.07-.12-.18-.1-.28.05-.1.14-.17.25-.17z"/><filter id="d" width="121.1%" height="116.2%" x="-10.6%" y="-5.8%" filterUnits="objectBoundingBox"><feOffset dy=".5" in="SourceAlpha" result="shadowOffsetOuter1"/><feGaussianBlur in="shadowOffsetOuter1" result="shadowBlurOuter1" stdDeviation=".5"/><feColorMatrix in="shadowBlurOuter1" values="0 0 0 0 0 0 0 0 0 0 0 0 0 0 0 0 0 0 0.204257246 0"/></filter></defs><g fill="none"><use fill="#000" filter="url(#a)" xlink:href="#b"/><use fill="#E53431" fill-rule="evenodd" xlink:href="#b"/><use fill="url(#c)" fill-rule="evenodd" style="mix-blend-mode:soft-light" xlink:href="#b"/><circle cx="16" cy="15" r="14.5" stroke="#000" stroke-opacity=".097"/><use fill="#000" filter="url(#d)" xlink:href="#e"/><use fill="#FFF" fill-rule="evenodd" xlink:href="#e"/></g></svg>