<svg xmlns="http://www.w3.org/2000/svg" width="32" height="32" xmlns:xlink="http://www.w3.org/1999/xlink"><defs><linearGradient id="c" x1="50%" x2="50%" y1="0%" y2="100%"><stop offset="0%" stop-color="#FFF" stop-opacity=".5"/><stop offset="100%" stop-opacity=".5"/></linearGradient><circle id="b" cx="16" cy="15" r="15"/><filter id="a" width="111.7%" height="111.7%" x="-5.8%" y="-4.2%" filterUnits="objectBoundingBox"><feOffset dy=".5" in="SourceAlpha" result="shadowOffsetOuter1"/><feGaussianBlur in="shadowOffsetOuter1" result="shadowBlurOuter1" stdDeviation=".5"/><feComposite in="shadowBlurOuter1" in2="SourceAlpha" operator="out" result="shadowBlurOuter1"/><feColorMatrix in="shadowBlurOuter1" values="0 0 0 0 0 0 0 0 0 0 0 0 0 0 0 0 0 0 0.199473505 0"/></filter><path id="e" d="M18.05 14.1c-.05 0-.1 0-.12.04-.04.05-.03.12.03.16C22.33 17.48 16.1 24.75 4 17c10.26 9.67 24.55-1 14.05-2.9zM12.2 9.86c-9.08 2.9 1.32 9.76 2.23 6.3 0-.07-.02-.13-.1-.14 0 0-.03 0-.05 0-1.34.43-8.7-1.62-2.08-6.16zM28 11.6c-7.87-5.6-22.63-.98-15 2.98.04.03.1 0 .14-.05.02-.03.02-.07 0-.1C10.04 7.9 25.8 9.88 28 11.6zm-6.53 8.15c4.16-1.9.78-8.36-4.72-7.1-.06 0-.13-.03-.14-.1 0-.03.03-.08.06-.1 4.28-3.22 12.3 4.3 4.82 7.3z"/><filter id="d" width="114.6%" height="129.2%" x="-7.3%" y="-10.4%" filterUnits="objectBoundingBox"><feOffset dy=".5" in="SourceAlpha" result="shadowOffsetOuter1"/><feGaussianBlur in="shadowOffsetOuter1" result="shadowBlurOuter1" stdDeviation=".5"/><feColorMatrix in="shadowBlurOuter1" values="0 0 0 0 0 0 0 0 0 0 0 0 0 0 0 0 0 0 0.204257246 0"/></filter></defs><g fill="none"><use fill="#000" filter="url(#a)" xlink:href="#b"/><use fill="#0082C6" fill-rule="evenodd" xlink:href="#b"/><use fill="url(#c)" fill-rule="evenodd" style="mix-blend-mode:soft-light" xlink:href="#b"/><circle cx="16" cy="15" r="14.5" stroke="#000" stroke-opacity=".097"/><use fill="#000" filter="url(#d)" xlink:href="#e"/><use fill="#FFF" fill-rule="evenodd" xlink:href="#e"/></g></svg>