<svg xmlns="http://www.w3.org/2000/svg" width="32" height="32" xmlns:xlink="http://www.w3.org/1999/xlink"><defs><linearGradient id="c" x1="50%" x2="50%" y1="0%" y2="100%"><stop offset="0%" stop-color="#FFF" stop-opacity=".5"/><stop offset="100%" stop-opacity=".5"/></linearGradient><circle id="b" cx="16" cy="15" r="15"/><filter id="a" width="111.7%" height="111.7%" x="-5.8%" y="-4.2%" filterUnits="objectBoundingBox"><feOffset dy=".5" in="SourceAlpha" result="shadowOffsetOuter1"/><feGaussianBlur in="shadowOffsetOuter1" result="shadowBlurOuter1" stdDeviation=".5"/><feComposite in="shadowBlurOuter1" in2="SourceAlpha" operator="out" result="shadowBlurOuter1"/><feColorMatrix in="shadowBlurOuter1" values="0 0 0 0 0 0 0 0 0 0 0 0 0 0 0 0 0 0 0.199473505 0"/></filter><filter id="d" width="115.9%" height="125%" x="-8%" y="-8.9%" filterUnits="objectBoundingBox"><feOffset dy=".5" in="SourceAlpha" result="shadowOffsetOuter1"/><feGaussianBlur in="shadowOffsetOuter1" result="shadowBlurOuter1" stdDeviation=".5"/><feColorMatrix in="shadowBlurOuter1" result="shadowMatrixOuter1" values="0 0 0 0 0 0 0 0 0 0 0 0 0 0 0 0 0 0 0.204257246 0"/><feMerge><feMergeNode in="shadowMatrixOuter1"/><feMergeNode in="SourceGraphic"/></feMerge></filter></defs><g fill="none"><use fill="#000" filter="url(#a)" xlink:href="#b"/><use fill="#F58634" xlink:href="#b"/><use fill="url(#c)" style="mix-blend-mode:soft-light" xlink:href="#b"/><circle cx="16" cy="15" r="14.5" stroke="#000" stroke-opacity=".097"/><g fill="#FFF" filter="url(#d)" transform="translate(5 8)"><path d="M8.3 13.73c1.18-.14 2.18-.5 3-1.08 1.07-.77 1.6-1.75 1.6-2.93 0-1-.4-1.84-1.17-2.52-.8-.7-1.86-1.1-3.2-1.25-.46-.05-1.1-.1-1.94-.15-1.83-.1-3-.35-3.56-.74-.2-.14-.36-.32-.48-.53-.1-.18-.15-.4-.15-.6 0-.57.33-1.04.98-1.4.65-.4 1.47-.58 2.47-.58.95 0 1.9.17 2.78.5 3.83 1.35 7.48 6.12 9.92 9.53-2 1.2-4.7 1.95-7.66 1.95-.88 0-1.76-.07-2.6-.2zM4 11.8C.53 10.5-1 7.35.7 4.3c.06.43.22.85.47 1.2.32.45.8.82 1.4 1.1 2.17.94 6.13.34 7.76 1.53.55.4.83.9.83 1.54 0 .78-.4 1.42-1.15 1.92-.75.5-1.74.73-2.97.73-1.03 0-2.05-.2-3-.55z"/><path fill-opacity=".5" d="M20.9 9.88V4.02c.67.9 1.04 1.88 1.04 2.93 0 1.04-.37 2.04-1.03 2.93zM19.27 2.4v7.5C16.93 6.55 13.43 2.36 9.13.98 8.38.7 7.63.55 6.83.48 8.16.17 9.52 0 10.92 0c3.32 0 6.32.94 8.34 2.4z"/></g></g></svg>