<svg xmlns="http://www.w3.org/2000/svg" width="32" height="32" xmlns:xlink="http://www.w3.org/1999/xlink"><defs><linearGradient id="c" x1="50%" x2="50%" y1="0%" y2="100%"><stop offset="0%" stop-color="#FFF" stop-opacity=".5"/><stop offset="100%" stop-opacity=".5"/></linearGradient><circle id="b" cx="16" cy="15" r="15"/><filter id="a" width="111.7%" height="111.7%" x="-5.8%" y="-4.2%" filterUnits="objectBoundingBox"><feOffset dy=".5" in="SourceAlpha" result="shadowOffsetOuter1"/><feGaussianBlur in="shadowOffsetOuter1" result="shadowBlurOuter1" stdDeviation=".5"/><feComposite in="shadowBlurOuter1" in2="SourceAlpha" operator="out" result="shadowBlurOuter1"/><feColorMatrix in="shadowBlurOuter1" values="0 0 0 0 0 0 0 0 0 0 0 0 0 0 0 0 0 0 0.199473505 0"/></filter><path id="e" d="M6 7c1.1 0 2.2 0 3.3 0 .7 3.73 1.4 7.45 2.1 11.18.04.16.08.33.12.5.16-.66.27-1.32.4-1.98.64-3.23 1.27-6.47 1.9-9.7 1.08 0 2.14 0 3.2 0-1.16 5.23-2.34 10.47-3.52 15.7H9.53C8.35 17.47 7.17 12.24 6 7zm12.3 4.93c.7-.87 1.83-1.27 2.9-1.34 1.06-.1 2.2 0 3.1.63.8.56 1.23 1.5 1.44 2.43.25 1.18.26 2.38.26 3.57-1.96 0-3.9 0-5.87 0 0 .9-.05 1.8.25 2.64.14.42.4.83.83 1 .47.13 1 .04 1.34-.33.44-.5.54-1.2.63-1.83h2.67c-.06 1.07-.26 2.2-.95 3-.7.9-1.83 1.24-2.9 1.28-1.15.04-2.4-.12-3.32-.9-.85-.7-1.23-1.84-1.38-2.92-.15-1.25-.16-2.5-.1-3.76.1-1.23.32-2.52 1.1-3.5zm2.3 1.25c-.47.65-.48 1.5-.47 2.26 1 0 2.02 0 3.03 0-.04-.73-.04-1.5-.37-2.17-.43-.83-1.73-.84-2.2-.1z"/><filter id="d" width="117.5%" height="121.9%" x="-8.8%" y="-7.8%" filterUnits="objectBoundingBox"><feOffset dy=".5" in="SourceAlpha" result="shadowOffsetOuter1"/><feGaussianBlur in="shadowOffsetOuter1" result="shadowBlurOuter1" stdDeviation=".5"/><feColorMatrix in="shadowBlurOuter1" values="0 0 0 0 0 0 0 0 0 0 0 0 0 0 0 0 0 0 0.204257246 0"/></filter></defs><g fill="none"><use fill="#000" filter="url(#a)" xlink:href="#b"/><use fill="#F93" fill-rule="evenodd" xlink:href="#b"/><use fill="url(#c)" fill-rule="evenodd" style="mix-blend-mode:soft-light" xlink:href="#b"/><circle cx="16" cy="15" r="14.5" stroke="#000" stroke-opacity=".097"/><use fill="#000" filter="url(#d)" xlink:href="#e"/><use fill="#FFF" fill-rule="evenodd" xlink:href="#e"/></g></svg>