<svg xmlns="http://www.w3.org/2000/svg" width="32" height="32" xmlns:xlink="http://www.w3.org/1999/xlink"><defs><linearGradient id="c" x1="50%" x2="50%" y1="0%" y2="100%"><stop offset="0%" stop-color="#FFF" stop-opacity=".5"/><stop offset="100%" stop-opacity=".5"/></linearGradient><circle id="b" cx="16" cy="15" r="15"/><filter id="a" width="111.7%" height="111.7%" x="-5.8%" y="-4.2%" filterUnits="objectBoundingBox"><feOffset dy=".5" in="SourceAlpha" result="shadowOffsetOuter1"/><feGaussianBlur in="shadowOffsetOuter1" result="shadowBlurOuter1" stdDeviation=".5"/><feComposite in="shadowBlurOuter1" in2="SourceAlpha" operator="out" result="shadowBlurOuter1"/><feColorMatrix in="shadowBlurOuter1" values="0 0 0 0 0 0 0 0 0 0 0 0 0 0 0 0 0 0 0.199473505 0"/></filter><path id="e" d="M22.63 15.92c.73.2 1.45.42 2.1.82.3.18.55.38.8.62.36.4.33.82 0 1.24-.28.37-.67.6-1.1.8-1.05.5-2.17.8-3.3.97-.94.14-1.88.22-2.82.34-.07.04-.15.1-.2.17-.65.98-1.3 1.96-1.96 2.94-.05.07-.1.14-.14.2-.16-.2-.3-.4-.43-.62-.55-.83-1.1-1.66-1.64-2.5-.06-.1-.16-.16-.28-.17-1.87-.12-3.72-.36-5.5-1-.55-.2-1.08-.44-1.55-.8-.02-.03-.05-.04-.08-.07-.68-.57-.7-1.18-.04-1.77.52-.47 1.16-.73 1.83-.94.68-.2 1.35-.34 2-.5.06-.02.1-.02.14-.03C9 13.34 7.54 11.16 6.1 8.92c.08 0 .14 0 .2 0 .9-.02 1.8 0 2.7-.02.14 0 .27.08.32.2 2.2 3.34 4.38 6.68 6.56 10 .04.08.07.13.12.18.5-.76 1-1.5 1.47-2.22 1.76-2.66 3.52-5.3 5.28-7.97.06-.1.1-.17.26-.17.97 0 1.9 0 2.87 0 .05 0 .1 0 .14 0-1.5 2.26-2.96 4.48-4.46 6.73.38.1.74.17 1.1.27zM8.9 17.8c.18.2.4.38.65.52 1 .53 2.1.73 3.25.9-.02-.05-.02-.08-.03-.1-.65-.97-1.3-1.96-1.94-2.94-.05-.05-.12-.07-.2-.06-.38.13-.75.27-1.1.45-.24.13-.45.3-.62.5-.2.2-.2.52 0 .73zm12.6.84c.44-.12.84-.34 1.16-.65.32-.35.32-.7 0-1.03-.08-.1-.17-.16-.27-.22-.36-.18-.7-.34-1.08-.5-.12-.08-.2-.03-.26.08-.38.58-.76 1.15-1.14 1.72-.24.36-.48.73-.73 1.1.05.02.12.02.2 0 .7-.16 1.4-.32 2.1-.52zM21.5 8l-5.47 8.73L10.47 8H21.5z"/><filter id="d" width="117.5%" height="121.9%" x="-8.8%" y="-7.8%" filterUnits="objectBoundingBox"><feOffset dy=".5" in="SourceAlpha" result="shadowOffsetOuter1"/><feGaussianBlur in="shadowOffsetOuter1" result="shadowBlurOuter1" stdDeviation=".5"/><feColorMatrix in="shadowBlurOuter1" values="0 0 0 0 0 0 0 0 0 0 0 0 0 0 0 0 0 0 0.204257246 0"/></filter></defs><g fill="none"><use fill="#000" filter="url(#a)" xlink:href="#b"/><use fill="#338BE5" fill-rule="evenodd" xlink:href="#b"/><use fill="url(#c)" fill-rule="evenodd" style="mix-blend-mode:soft-light" xlink:href="#b"/><circle cx="16" cy="15" r="14.5" stroke="#000" stroke-opacity=".097"/><use fill="#000" filter="url(#d)" xlink:href="#e"/><use fill="#FFF" fill-rule="evenodd" xlink:href="#e"/></g></svg>