<svg xmlns="http://www.w3.org/2000/svg" width="32" height="32" xmlns:xlink="http://www.w3.org/1999/xlink"><defs><linearGradient id="c" x1="50%" x2="50%" y1="0%" y2="100%"><stop offset="0%" stop-color="#FFF" stop-opacity=".5"/><stop offset="100%" stop-opacity=".5"/></linearGradient><circle id="b" cx="16" cy="15" r="15"/><filter id="a" width="111.7%" height="111.7%" x="-5.8%" y="-4.2%" filterUnits="objectBoundingBox"><feOffset dy=".5" in="SourceAlpha" result="shadowOffsetOuter1"/><feGaussianBlur in="shadowOffsetOuter1" result="shadowBlurOuter1" stdDeviation=".5"/><feComposite in="shadowBlurOuter1" in2="SourceAlpha" operator="out" result="shadowBlurOuter1"/><feColorMatrix in="shadowBlurOuter1" values="0 0 0 0 0 0 0 0 0 0 0 0 0 0 0 0 0 0 0.199473505 0"/></filter><path id="e" d="M21.9 6.47c-.12.43-.1 1 .02 1.04.12.07.42-.22.6-.54.17-.3.32-.4.53-.32.28.1.23.2-.33.7-.48.4-.57.55-.45.68.08.1.14.08.4-.07.35-.18.54-.17.54.04 0 .1-.1.16-.57.34-.33.13-.65.3-.72.38-.15.16-.4.68-.73 1.46-.27.67-.52 1.16-.7 1.35-.13.16-.6.26-1.58.34-.47.03-.53.03-.56-.08-.03-.1-.17-.85-.17-.9 0-.03.24 0 .53 0 .5.03 1.02.17 1.26.34.18.14.2.12.28-.24.1-.4.32-.94.65-1.6.22-.5.23-.54.2-1-.03-.52-.1-.74-.4-1.08-.14-.12-.2-.26-.2-.3.03-.05.04-.1.05-.13 0 0 .06-.03.12-.03.08 0 .2.1.33.28.34.48.44.4.44-.4 0-.35.03-.5.1-.6.14-.13.24-.14.34 0 .07.07.07.15 0 .37zm-5.02 2.67c.04.47.13.64.4.74.13.05.3.1.36.14.18.07.23.35.43 2.13.2 1.95.25 2.22.45 2.82.3.9.27 1.97-.08 3.04-.17.57-.37.8-.77 1.03-.8.43-1.64.12-2.3-.85-.47-.7-.65-1.57-.48-2.4.07-.46.12-1.13.1-1.3-.04-.08-.24-.34-.47-.58-.7-.74-1.45-2.06-1.3-2.3.04-.06.07-.26.07-.43 0-.35-.1-.5-.53-.74-.3-.16-.3-.33-.07-.8.13-.26.2-.32.87-.65.67-.35.98-.44 1.98-.62.4-.08.72-.07.94.02.25.12.32.26.37.76zm-5.96 2.38c0 .33.1.65.18.56.03-.03.1-.2.16-.4.1-.3.3-.5.4-.42.12.07.08.44-.06.67-.2.3-.2.9 0 1.3s.6.8.78.8c.1 0 .24-.15.58-.75l.45-.74.1.44c.05.5.02.66-.26 1.15-.32.56-.67 1-.8 1-.15 0-.5-.35-.78-.78-.12-.18-.43-.52-.7-.77l-.48-.45-.3.05c-.18.03-.36.05-.55.05-.22 0-.25 0-.27-.16-.02-.14.02-.2.15-.22.15-.02.3-.03.44 0 .18.02.3 0 .38-.04.12-.06.1-.07 0-.2-.06-.1-.25-.2-.42-.24-.44-.14-.73-.33-.73-.48 0-.2.24-.23.44-.07.65.54.83.6 1 .45.1-.12.1-.35-.1-.76-.2-.36-.25-.7-.16-.8.06-.06.23-.04.34.05.13.1.25.46.25.78zm11.52 5.75c-.15.17-.6.7-1 1.18-1.18 1.42-1.3 1.57-1.25 1.62.03.05 1.03-.4 1.26-.56.28-.2.8-.75.9-.94.04-.08.1-.3.14-.52.1-.38.3-.67.5-.67.1 0 .17.14.12.34-.1.2-.2.43-.32.6-.15.3-.26.5-.25.55.06.1.3.05.57-.1.16-.1.38-.34.55-.58.34-.47.56-.68.77-.68.17 0 .37.2.32.34-.02.05-.3.3-.63.55-.57.42-.75.64-.65.8.06.1.58-.03 1.14-.3.94-.4 1.2-.43 1.35-.14.13.23-.18.38-1.4.65-.32.1-.7.2-.8.28l-.2.13.13.13c.13.1.26.12.9.12.55 0 .76.02.85.1.12.1.1.1-.06.26-.14.1-.24.15-.3.13-.28-.12-1.2-.3-1.56-.3-.6 0-.66.23-.1.45.24.1.34.22.3.35-.07.15-.22.13-.77-.13-1.1-.52-1.3-.55-2.64-.38-.63.1-.8.1-.88.03-.14-.12-.12-.23.08-.4.16-.13 1.37-2.4 1.32-2.45-.04-.03-1.26.4-2.15.78-.1.04-.1.04 0-.14.42-.68 1.63-1.45 3.03-1.93.72-.23.76-.23 1.07-.23.2.02.26.04.27.14.02.17-.23.57-.63.98zM8 19.53c.22.33.76.9.84.9.08 0 .02-.56-.14-1.15-.13-.53-.15-.78-.04-.9.08-.07.36-.1.47 0 .05 0 .1.37.13.92.07 1 .12 1.2.37 1.35.16.1.17.1.25 0 .03-.05.08-.3.08-.52.02-.63.17-.92.45-.83.2.07.24.33.1.83-.2.58-.23 1-.15 1.57.12.77.4 1.46.56 1.3.04 0 .06-.88.06-1.9 0-1.6.02-1.9.12-2.2.17-.56.2-.6.9-.6 1.15 0 3.26.32 3.55.52.3.22.24.3-.36.5-1.3.4-1.94.47-2.73.32-.26-.06-.5-.1-.52-.07 0 0 0 .15.06.32.16.5.12.82-.26 1.95-.2.58-.37 1.26-.4 1.5-.02.25-.1.5-.13.54-.18.2-.36.1-.65-.3-.38-.53-.96-1.1-1.3-1.27-.15-.07-.63-.22-1.06-.32-.8-.17-1.05-.3-.95-.44.03-.06.17-.06.47-.04.56.06.6-.02.23-.37-.4-.36-.87-.65-1.38-.85-.47-.18-.55-.24-.55-.4 0-.12.18-.25.35-.25.05 0 .3.18.55.4.52.43.88.65 1.07.6.35-.04-.08-.87-.75-1.44-.25-.2-.5-.43-.54-.52-.1-.16-.1-.18.03-.27.1-.05.23-.07.35-.06.2.02.24.05.47.46.14.24.34.57.45.73zm9.03-10.96c.32-.05.4.2.4.2.16.44.06 1 .06 1-.25-.05-.4-.33-.4-.33-.15-.32-.08-.87-.08-.87zM12.5 10.4s.47.25.65.54c0 0 .13.3.04.52 0 0-.53-.24-.78-.63 0 0-.16-.2.06-.44z"/><filter id="d" width="117.5%" height="119.4%" x="-8.8%" y="-6.9%" filterUnits="objectBoundingBox"><feOffset dy=".5" in="SourceAlpha" result="shadowOffsetOuter1"/><feGaussianBlur in="shadowOffsetOuter1" result="shadowBlurOuter1" stdDeviation=".5"/><feColorMatrix in="shadowBlurOuter1" values="0 0 0 0 0 0 0 0 0 0 0 0 0 0 0 0 0 0 0.204257246 0"/></filter></defs><g fill="none"><use fill="#000" filter="url(#a)" xlink:href="#b"/><use fill="#399B32" xlink:href="#b"/><use fill="url(#c)" style="mix-blend-mode:soft-light" xlink:href="#b"/><circle cx="16" cy="15" r="14.5" stroke="#000" stroke-opacity=".097"/><use fill="#000" filter="url(#d)" xlink:href="#e"/><use fill="#FFF" fill-rule="evenodd" xlink:href="#e"/></g></svg>