<svg xmlns="http://www.w3.org/2000/svg" width="32" height="32" xmlns:xlink="http://www.w3.org/1999/xlink"><defs><linearGradient id="c" x1="50%" x2="50%" y1="0%" y2="100%"><stop offset="0%" stop-color="#FFF" stop-opacity=".5"/><stop offset="100%" stop-opacity=".5"/></linearGradient><circle id="b" cx="16" cy="15" r="15"/><filter id="a" width="111.7%" height="111.7%" x="-5.8%" y="-4.2%" filterUnits="objectBoundingBox"><feOffset dy=".5" in="SourceAlpha" result="shadowOffsetOuter1"/><feGaussianBlur in="shadowOffsetOuter1" result="shadowBlurOuter1" stdDeviation=".5"/><feComposite in="shadowBlurOuter1" in2="SourceAlpha" operator="out" result="shadowBlurOuter1"/><feColorMatrix in="shadowBlurOuter1" values="0 0 0 0 0 0 0 0 0 0 0 0 0 0 0 0 0 0 0.199473505 0"/></filter><filter id="d" width="117.5%" height="126.9%" x="-8.8%" y="-9.6%" filterUnits="objectBoundingBox"><feOffset dy=".5" in="SourceAlpha" result="shadowOffsetOuter1"/><feGaussianBlur in="shadowOffsetOuter1" result="shadowBlurOuter1" stdDeviation=".5"/><feColorMatrix in="shadowBlurOuter1" result="shadowMatrixOuter1" values="0 0 0 0 0 0 0 0 0 0 0 0 0 0 0 0 0 0 0.204257246 0"/><feMerge><feMergeNode in="shadowMatrixOuter1"/><feMergeNode in="SourceGraphic"/></feMerge></filter></defs><g fill="none"><use fill="#000" filter="url(#a)" xlink:href="#b"/><use fill="#8200FF" fill-rule="evenodd" xlink:href="#b"/><use fill="url(#c)" fill-rule="evenodd" style="mix-blend-mode:soft-light" xlink:href="#b"/><circle cx="16" cy="15" r="14.5" stroke="#000" stroke-opacity=".097"/><g fill="#FFF" filter="url(#d)" transform="translate(6 9)"><path d="M12.4 3.17l-.67.16c-.6.15-1.04.7-1.04 1.3V9.2l-2.27.55c-.37.1-.74-.13-.83-.5 0-.04 0-.1 0-.15V1.52c0-.3.2-.58.5-.66l3.46-.84c.37-.1.74.13.83.5 0 .05 0 .1 0 .16v2.5zm-7.57-.05l-.85.2c-.62.16-1.05.7-1.05 1.32v4.58l-2.07.5C.5 9.82.1 9.6.02 9.25c0-.05-.02-.1-.02-.16V1.5c0-.3.22-.58.52-.66L3.97.02c.37-.1.74.13.84.5.03.05.04.1.04.16v2.44zM15.7.9l3.44-.86c.37-.1.75.13.84.5 0 .05.02.1.02.16v7.55c0 .3-.22.58-.52.66l-3.45.86c-.37.1-.74-.13-.84-.5-.03-.04-.04-.1-.04-.15V1.55c0-.3.22-.58.52-.65z"/><path d="M6.9 3.3v5.8c0 .1 0 .22.04.32.17.67.82 1.1 1.5 1.02v.93c0 .3-.2.58-.5.66l-3.46.85c-.37.1-.75-.13-.84-.5 0-.04-.02-.1-.02-.15v-7.6c0-.3.22-.57.52-.64l2.76-.7zm7.58.06V9.1c0 .1.02.22.04.32.2.73.94 1.17 1.68 1v-.02.95c0 .3-.2.58-.52.66l-3.44.86c-.37.1-.75-.13-.84-.5 0-.04-.02-.1-.02-.15V4.65c0-.3.2-.58.52-.65l2.58-.65z" opacity=".504"/></g></g></svg>