<svg xmlns="http://www.w3.org/2000/svg" width="32" height="32" xmlns:xlink="http://www.w3.org/1999/xlink"><defs><linearGradient id="c" x1="50%" x2="50%" y1="0%" y2="100%"><stop offset="0%" stop-color="#FFF" stop-opacity=".5"/><stop offset="100%" stop-opacity=".5"/></linearGradient><circle id="b" cx="16" cy="15" r="15"/><filter id="a" width="111.7%" height="111.7%" x="-5.8%" y="-4.2%" filterUnits="objectBoundingBox"><feOffset dy=".5" in="SourceAlpha" result="shadowOffsetOuter1"/><feGaussianBlur in="shadowOffsetOuter1" result="shadowBlurOuter1" stdDeviation=".5"/><feComposite in="shadowBlurOuter1" in2="SourceAlpha" operator="out" result="shadowBlurOuter1"/><feColorMatrix in="shadowBlurOuter1" values="0 0 0 0 0 0 0 0 0 0 0 0 0 0 0 0 0 0 0.199473505 0"/></filter><path id="e" d="M21.5 15.57c.33.37.54.85.54 1.4 0 1.1-.93 2.03-2.08 2.03-1.14 0-2.07-.92-2.07-2.04 0-.54.2-1.02.53-1.4-.13.1-.3.17-.46.17-.4 0-.74-.33-.74-.73 0-.17.06-.33.16-.45-.38.33-.87.54-1.4.54-.55 0-1.04-.23-1.4-.56.1.12.15.28.15.45 0 .4-.33.72-.74.72-.16 0-.32-.06-.45-.16.34.37.55.85.55 1.4 0 1.1-.92 2.03-2.06 2.03-1.15 0-2.08-.93-2.08-2.05 0-.54.2-1.02.55-1.4-.1.1-.26.17-.44.17-.4 0-.74-.33-.74-.73 0-.18.07-.34.17-.46-.38.33-.87.54-1.4.54-1.15 0-2.08-.93-2.08-2.06C6 11.92 6.92 11 8.07 11c1.14 0 2.07.92 2.07 2.04 0 .54-.2 1.02-.54 1.4.12-.1.28-.17.45-.17.4 0 .74.33.74.73 0 .17-.08.33-.17.45.36-.33.86-.54 1.4-.54.54 0 1.03.23 1.4.56-.1-.12-.16-.28-.16-.45 0-.4.33-.72.74-.72.18 0 .34.06.46.16-.33-.37-.54-.85-.54-1.4 0-1.1.93-2.03 2.07-2.03 1.13 0 2.06.93 2.06 2.05 0 .54-.2 1.02-.54 1.4.12-.1.28-.17.45-.17.4 0 .74.33.74.73 0 .18-.05.34-.15.46.37-.33.86-.54 1.4-.54.54 0 1.04.22 1.4.55-.1-.12-.15-.28-.15-.45 0-.4.34-.73.75-.73.17 0 .33.05.45.15-.34-.37-.54-.85-.54-1.4 0-1.1.93-2.03 2.07-2.03 1.14 0 2.07.92 2.07 2.04 0 1.13-.93 2.05-2.07 2.05-.54 0-1.03-.2-1.4-.54.1.12.16.28.16.45 0 .4-.35.74-.76.74-.18 0-.33-.06-.46-.16z"/><filter id="d" width="117.5%" height="143.8%" x="-8.8%" y="-15.6%" filterUnits="objectBoundingBox"><feOffset dy=".5" in="SourceAlpha" result="shadowOffsetOuter1"/><feGaussianBlur in="shadowOffsetOuter1" result="shadowBlurOuter1" stdDeviation=".5"/><feColorMatrix in="shadowBlurOuter1" values="0 0 0 0 0 0 0 0 0 0 0 0 0 0 0 0 0 0 0.204257246 0"/></filter></defs><g fill="none"><use fill="#000" filter="url(#a)" xlink:href="#b"/><use fill="#21A5DE" fill-rule="evenodd" xlink:href="#b"/><use fill="url(#c)" fill-rule="evenodd" style="mix-blend-mode:soft-light" xlink:href="#b"/><circle cx="16" cy="15" r="14.5" stroke="#000" stroke-opacity=".097"/><use fill="#000" filter="url(#d)" xlink:href="#e"/><use fill="#FFF" fill-rule="evenodd" xlink:href="#e"/></g></svg>