<svg xmlns="http://www.w3.org/2000/svg" width="32" height="32" xmlns:xlink="http://www.w3.org/1999/xlink"><defs><linearGradient id="c" x1="50%" x2="50%" y1="0%" y2="100%"><stop offset="0%" stop-color="#FFF" stop-opacity=".5"/><stop offset="100%" stop-opacity=".5"/></linearGradient><circle id="b" cx="16" cy="15" r="15"/><filter id="a" width="111.7%" height="111.7%" x="-5.8%" y="-4.2%" filterUnits="objectBoundingBox"><feOffset dy=".5" in="SourceAlpha" result="shadowOffsetOuter1"/><feGaussianBlur in="shadowOffsetOuter1" result="shadowBlurOuter1" stdDeviation=".5"/><feComposite in="shadowBlurOuter1" in2="SourceAlpha" operator="out" result="shadowBlurOuter1"/><feColorMatrix in="shadowBlurOuter1" values="0 0 0 0 0 0 0 0 0 0 0 0 0 0 0 0 0 0 0.199473505 0"/></filter><path id="e" d="M15.1 18.85c2.16 0 4.2 0 6.3 0 0 1.12 0 2.22 0 3.35-1.27 0-2.53 0-3.88 0 .06.95.1 1.84.16 2.8-1.1 0-2.13 0-3.26 0 0-.9 0-1.8 0-2.77-1.33 0-2.55 0-3.88 0 0-1.1-.13-2.2.07-3.2.1-.56.7-1.04 1.05-1.52 1.23-1.52 2.45-3.02 3.7-4.56.5-.58.98-1.13 1.53-1.78-2.06 0-4.03 0-6.04 0 0-1.12 0-2.22 0-3.35 1.17 0 2.36 0 3.6 0 0-.94 0-1.83 0-2.8 1.05 0 2.05 0 3.12 0 0 .9 0 1.8 0 2.75 1.3 0 2.55 0 3.9 0 0 1.12.14 2.22-.06 3.24-.1.54-.68 1.02-1.07 1.5-1.23 1.54-2.46 3.04-3.72 4.6-.46.6-.95 1.14-1.5 1.76z"/><filter id="d" width="131.8%" height="117.5%" x="-15.9%" y="-6.2%" filterUnits="objectBoundingBox"><feOffset dy=".5" in="SourceAlpha" result="shadowOffsetOuter1"/><feGaussianBlur in="shadowOffsetOuter1" result="shadowBlurOuter1" stdDeviation=".5"/><feColorMatrix in="shadowBlurOuter1" values="0 0 0 0 0 0 0 0 0 0 0 0 0 0 0 0 0 0 0.204257246 0"/></filter></defs><g fill="none"><use fill="#000" filter="url(#a)" xlink:href="#b"/><use fill="#ECB244" xlink:href="#b"/><use fill="url(#c)" style="mix-blend-mode:soft-light" xlink:href="#b"/><circle cx="16" cy="15" r="14.5" stroke="#000" stroke-opacity=".097"/><use fill="#000" filter="url(#d)" xlink:href="#e"/><use fill="#FFF" fill-rule="evenodd" xlink:href="#e"/></g></svg>