<svg xmlns="http://www.w3.org/2000/svg" width="32" height="32" xmlns:xlink="http://www.w3.org/1999/xlink"><defs><linearGradient id="c" x1="50%" x2="50%" y1="0%" y2="100%"><stop offset="0%" stop-color="#FFF" stop-opacity=".5"/><stop offset="100%" stop-opacity=".5"/></linearGradient><circle id="b" cx="16" cy="15" r="15"/><filter id="a" width="111.7%" height="111.7%" x="-5.8%" y="-4.2%" filterUnits="objectBoundingBox"><feOffset dy=".5" in="SourceAlpha" result="shadowOffsetOuter1"/><feGaussianBlur in="shadowOffsetOuter1" result="shadowBlurOuter1" stdDeviation=".5"/><feComposite in="shadowBlurOuter1" in2="SourceAlpha" operator="out" result="shadowBlurOuter1"/><feColorMatrix in="shadowBlurOuter1" values="0 0 0 0 0 0 0 0 0 0 0 0 0 0 0 0 0 0 0.199473505 0"/></filter><path id="e" d="M16 26C9.9 26 5 21.07 5 15 5 8.9 9.93 4 16.02 4c6.06 0 11 4.93 10.98 11 0 6-4.84 11-11 11zm-4.5-5.97c.04-.06.06-.1.1-.14.97-1.76 1.96-3.5 2.94-5.23.87-1.5 1.73-3.03 2.6-4.55 0-.06.07-.1.14-.1 1 0 2 0 3 0h.16c-1.4 2.47-2.78 4.9-4.18 7.37.05 0 .08 0 .1 0 2.53 0 5.04 0 7.56 0 .08 0 .1-.03.13-.1.38-1.35.42-2.77.1-4.13-.37-1.65-1.2-3.05-2.4-4.2-.56-.53-1.18-.97-1.85-1.3-1.68-.86-3.44-1.13-5.3-.8-1.83.32-3.38 1.2-4.65 2.56-.16.18-.32.38-.47.56 0 0 0 0 0 .02h7.2c-.05.08-.08.13-.1.18-.44.8-.9 1.56-1.32 2.34-.04.08-.12.12-.2.1-2.26 0-4.53 0-6.8 0h-.12c-1.15 3.6.47 8.13 4.53 9.94 3.93 1.75 8.06.14 10-2.56-3.73 0-7.44 0-11.16 0zm12.65 1.9c1.4-1.55 2.64-4.1 2.56-7.16-.04-2.53-.9-4.74-2.52-6.7-.5.5-1 1-1.5 1.5 2.57 3.07 2.68 7.62.04 10.9l1.45 1.46z"/><filter id="d" width="115.9%" height="115.9%" x="-8%" y="-5.7%" filterUnits="objectBoundingBox"><feOffset dy=".5" in="SourceAlpha" result="shadowOffsetOuter1"/><feGaussianBlur in="shadowOffsetOuter1" result="shadowBlurOuter1" stdDeviation=".5"/><feColorMatrix in="shadowBlurOuter1" values="0 0 0 0 0 0 0 0 0 0 0 0 0 0 0 0 0 0 0.204257246 0"/></filter></defs><g fill="none"><use fill="#000" filter="url(#a)" xlink:href="#b"/><use fill="#C87035" xlink:href="#b"/><use fill="url(#c)" style="mix-blend-mode:soft-light" xlink:href="#b"/><circle cx="16" cy="15" r="14.5" stroke="#000" stroke-opacity=".097"/><use fill="#000" filter="url(#d)" xlink:href="#e"/><use fill="#FFF" fill-rule="evenodd" xlink:href="#e"/></g></svg>